<svg width="343" height="357" viewBox="0 0 343 357" fill="none" xmlns="http://www.w3.org/2000/svg">
<path d="M125.052 187.356C129.818 181.256 131.225 172.949 130.389 165.156C129.502 157.328 126.82 149.962 124.097 142.608L125.643 141.179C131.577 143.586 137.42 145.779 143.712 146.548C149.933 147.238 156.648 146.074 161.607 142.234C166.447 138.327 169.061 132.444 170.545 126.285C173.377 114.848 172.569 102.812 168.232 91.857C167.464 89.715 166.06 87.382 164.17 86.485C163.558 86.1802 162.878 86.036 162.195 86.066C159.665 86.085 158 88.502 156.461 90.619C150.653 98.9316 142.617 105.437 133.278 109.388L133.146 109.188C137.946 105.029 141.681 99.7811 144.038 93.8836C146.396 87.986 147.308 81.6099 146.698 75.288C146.424 71.992 145.4 68.8023 143.704 65.963C142.857 64.5164 141.69 63.2837 140.291 62.36C138.892 61.4364 137.3 60.8465 135.637 60.636L135.489 61.036C135.18 73.7177 130.61 85.926 122.515 95.693C120.443 98.148 117.572 100.727 114.255 100.493L114.274 99.706C117.278 94.2375 119.902 88.5688 122.128 82.74C124.401 76.9214 125.275 70.6503 124.68 64.432C123.389 52.219 114.052 41.4 102.194 37.974C101.565 37.829 100.981 37.674 100.352 37.529L100.284 37.852C105.192 53.601 105.211 70.499 105.192 87.081C105.305 89.181 105.082 91.663 103.366 92.711C101.695 93.979 99.266 93.376 97.832 91.788C96.486 90.407 96.019 88.158 95.944 86.238L95.744 86.186C97.874 74.922 97.574 63.058 92.724 52.781C87.817 42.006 77.611 33.436 65.943 32.543C65.383 32.4332 64.8039 32.4743 64.265 32.662C63.99 33.0365 63.826 33.4808 63.7917 33.9441C63.7573 34.4075 63.8541 34.8711 64.071 35.282C66.681 42.752 69.317 50.357 71.947 57.682C73.56 62.554 75.28 67.307 75.671 72.292C75.994 77.242 75.055 82.414 71.776 86.363L71.557 86.411C68.1322 80.9891 65.4588 75.1277 63.61 68.987C62.242 64.618 61.351 59.875 59.51 55.655C57.755 51.412 54.699 47.35 50.475 45.604C45.58 43.536 40.085 44.584 34.913 45.843C28.663 47.456 22.503 49.292 16.418 51.477L16.095 51.542C16.027 56.53 16.047 61.503 17.25 66.41C18.3274 71.3614 21.1463 75.7615 25.194 78.81C29.434 81.478 34.794 82.02 39.669 83.327C44.16 84.327 49.11 86.434 51.285 90.539L50.756 90.649C45.319 88.649 39.405 88.539 33.561 89.016C27.789 89.384 21.945 90.09 16.24 89.661C10.868 89.074 5.39198 87.309 1.49098 83.605C1.26378 83.4609 1.05665 83.2874 0.874977 83.089L0.000976562 84.143C2.08498 89.974 4.10098 95.91 7.50098 101.192C10.841 106.392 15.755 110.992 21.769 112.459C27.832 114.379 34.411 113.011 40.569 111.594C46.829 110.249 53.195 108.745 59.606 107.416C62.833 106.603 66.672 106.177 69.086 108.487C68.7774 110.051 68.1288 111.529 67.1859 112.815C66.2431 114.1 65.0291 115.163 63.63 115.928C60.858 117.654 57.63 118.328 54.483 119.116C46.1409 121.185 37.605 122.375 29.015 122.665C20.745 122.765 12.124 121.374 4.77698 117.935L4.69998 118.229C8.99998 129.17 20.569 135.885 32.175 137.666C43.791 139.305 55.603 136.717 66.893 133.636C71.493 132.268 76.25 130.861 79.593 127.593C80.68 126.399 81.677 124.993 83.123 124.418C83.7107 124.129 84.3708 124.021 85.0199 124.108C85.669 124.195 86.2777 124.472 86.769 124.905L86.404 125.805C76.156 141.725 57.974 152.373 38.966 153.099C33.271 153.406 27.244 152.776 22.51 149.699C22.0973 149.455 21.7017 149.184 21.326 148.886L21.171 149.47C23.052 156.31 28.937 161.812 35.691 163.87C42.467 166.19 50.017 165.225 56.58 162.67C63.22 160.124 69.057 155.93 74.465 151.306C77.7516 148.457 80.8755 145.426 83.822 142.226C84.6244 141.053 85.7081 140.1 86.974 139.454C87.5714 139.06 88.2766 138.862 88.9916 138.887C89.7067 138.912 90.3963 139.159 90.965 139.593L91.175 139.503C91.6568 139.98 92.0379 140.548 92.2956 141.175C92.5533 141.802 92.6823 142.474 92.675 143.152C92.6357 145.186 92.0446 147.171 90.965 148.895C87.316 155.495 81.259 160.488 74.654 164.163C68.346 167.499 61.289 169.884 54.254 172.175L54.38 172.562C57.3689 176.941 61.9716 179.958 67.18 180.951C72.3614 181.844 77.689 180.752 82.101 177.892C87.786 174.227 91.181 167.948 94.159 161.892L93.317 161.379C92.804 158.904 95.172 156.342 97.77 156.216C99.0855 156.258 100.36 156.685 101.435 157.444C102.51 158.204 103.338 159.262 103.817 160.488C104.829 162.893 104.943 165.582 104.14 168.064C102.665 174.264 98.332 179.541 93.25 183.264C88.129 186.764 82.47 189.233 76.75 191.618C84.875 195.045 93.261 197.718 101.934 197.581C110.729 197.549 119.754 194.216 125.052 187.356ZM66.792 104.171C63.133 104.516 60.039 103.361 59.903 101.59C59.767 99.819 62.571 98.041 66.24 97.744C69.909 97.447 73.016 98.683 73.203 100.444C73.349 102.257 70.461 103.87 66.792 104.17V104.171ZM97.848 106.236C95.935 106.126 93.715 104.516 93.548 102.616C93.48 100.516 95.936 99.034 97.168 98.316C99.846 96.793 104.047 95.735 105.073 97.135C106.418 99.166 102.256 106.616 97.848 106.236ZM138.975 123.763C138.374 123.343 137.824 122.855 137.336 122.308C137.158 122.148 137.015 121.954 136.914 121.737C136.814 121.52 136.759 121.285 136.752 121.046C136.871 120.003 137.241 119.004 137.831 118.136C138.421 117.267 139.214 116.555 140.14 116.061C140.973 115.521 141.969 115.293 142.954 115.416C143.639 115.698 144.22 116.186 144.614 116.814C145.009 117.441 145.197 118.176 145.154 118.916C145.054 120.401 144.431 121.803 143.396 122.872C143.166 123.264 142.85 123.6 142.472 123.854C142.095 124.108 141.665 124.274 141.215 124.34C140.822 124.399 140.421 124.378 140.036 124.28C139.651 124.181 139.289 124.007 138.973 123.766L138.975 123.763Z" fill="#215E4B"/>
<path d="M16.845 52.744C38.7633 66.0289 59.3007 81.4684 78.152 98.833C93.437 112.998 106.224 130.777 124.052 141.896C124.497 142.173 124.907 141.47 124.462 141.196C104.279 128.612 89.595 107.681 71.813 92.009C54.8245 77.1191 36.5682 63.7413 17.252 52.028C16.804 51.754 16.394 52.46 16.842 52.728L16.845 52.744Z" fill="#215E4B"/>
<path d="M65.7949 33.336C84.9549 46.407 84.2899 78.163 79.2789 97.846C79.262 97.8983 79.2559 97.9535 79.2609 98.0082C79.2658 98.0629 79.2819 98.1161 79.3079 98.1645C79.334 98.2128 79.3696 98.2554 79.4126 98.2897C79.4556 98.3239 79.5051 98.3491 79.5581 98.3637C79.6111 98.3783 79.6665 98.382 79.7209 98.3746C79.7754 98.3672 79.8278 98.3489 79.8749 98.3207C79.9221 98.2925 79.9631 98.255 79.9954 98.2106C80.0277 98.1661 80.0507 98.1156 80.0629 98.062C85.2259 77.734 85.7189 45.952 66.2079 32.642C65.7719 32.342 65.3659 33.052 65.7949 33.342V33.336Z" fill="#215E4B"/>
<path d="M101.717 38.082C121.217 62.982 119.786 95.893 98.203 118.882C97.845 119.263 98.419 119.85 98.781 119.456C120.699 96.128 122.013 62.697 102.295 37.5C101.972 37.09 101.395 37.668 101.717 38.078V38.082Z" fill="#215E4B"/>
<path d="M136.32 61.347C145.49 88.957 124.959 110.766 104.431 125.879C104.015 126.186 104.431 126.892 104.844 126.579C125.704 111.207 146.358 88.963 137.11 61.114C136.945 60.614 136.158 60.83 136.323 61.33L136.32 61.347Z" fill="#215E4B"/>
<path d="M114.717 134.523C127.559 136.84 141.475 136.201 151.755 127.186C163.974 116.47 161.112 99.953 164.807 85.663C164.83 85.5608 164.813 85.4535 164.76 85.3635C164.706 85.2735 164.619 85.2077 164.518 85.1799C164.417 85.1521 164.309 85.1643 164.217 85.2141C164.125 85.2638 164.055 85.3473 164.023 85.447C161.058 96.911 162.99 110.156 156.492 120.478C147.654 134.527 129.834 136.427 114.933 133.736C114.421 133.645 114.206 134.429 114.717 134.523Z" fill="#215E4B"/>
<path d="M78.811 97.798C70.854 92.151 65.621 90.406 56.68 94.552C48.459 98.366 41.47 102.17 32.1 102.483C16.78 103.009 9.21699 94.213 1.54399 82.952C1.24999 82.52 0.543988 82.929 0.843988 83.362C7.10399 92.562 13.689 100.937 25.302 102.954C43.174 106.054 62.502 87.221 78.412 98.492C78.841 98.792 79.248 98.092 78.825 97.792L78.811 97.798Z" fill="#215E4B"/>
<path d="M7.74499 121.617C19.887 127.186 32.064 132.304 45.722 130.451C61.416 128.321 74.829 118.835 87.439 109.959C87.865 109.659 87.458 108.952 87.029 109.259C76.994 116.325 66.529 123.959 54.614 127.551C37.942 132.572 23.555 127.98 8.15099 120.917C7.67999 120.701 7.26399 121.404 7.74099 121.617H7.74499Z" fill="#215E4B"/>
<path d="M98.842 119.787C81.793 140.092 50.183 171.551 22.774 149.42C22.374 149.097 21.806 149.665 22.196 149.994C49.874 172.342 82.172 140.901 99.415 120.364C99.739 119.962 99.183 119.396 98.842 119.787Z" fill="#215E4B"/>
<path d="M104.221 126.563C103.253 138.156 97.142 150.388 90.156 159.633C82.138 170.249 70.209 171.291 57.838 171.41C57.7368 171.42 57.6429 171.467 57.5746 171.543C57.5063 171.618 57.4684 171.716 57.4684 171.818C57.4684 171.92 57.5063 172.018 57.5746 172.093C57.6429 172.169 57.7368 172.216 57.838 172.226C69.809 172.107 81.876 171.258 89.959 161.336C97.574 151.979 104.027 138.643 105.037 126.563C105.079 126.04 104.266 126.043 104.221 126.563Z" fill="#215E4B"/>
<path d="M115.775 135.457C117.653 148.405 125.11 163.706 117.456 176.029C109.883 188.219 94.118 189.62 81.318 190.62C80.799 190.659 80.792 191.475 81.318 191.433C93.605 190.465 107.886 189.197 116.33 178.952C126.82 166.226 118.621 149.345 116.575 135.241C116.498 134.722 115.713 134.941 115.788 135.457H115.775Z" fill="#215E4B"/>
<path d="M188.613 99.295L187.787 99.366C187.268 99.411 187.261 100.224 187.787 100.182L188.613 100.108C189.136 100.066 189.139 99.253 188.613 99.295Z" fill="#215E4B"/>
<path d="M74.1419 100.75C73.9419 98.443 70.042 96.95 65.43 97.356C60.818 97.762 57.27 99.97 57.473 102.277C57.676 104.584 61.6219 106.068 66.1849 105.629C70.7869 105.228 74.3809 103.008 74.1419 100.75ZM66.792 104.17C63.133 104.515 60.0389 103.36 59.9029 101.589C59.7669 99.818 62.571 98.04 66.24 97.743C69.909 97.446 73.0159 98.682 73.2029 100.443C73.3489 102.256 70.461 103.87 66.792 104.17Z" fill="#215E4B"/>
<path d="M105.904 100.657C106.575 99.228 107.879 96.424 106.804 95.22C105.546 93.82 101.904 95.362 97.1979 97.304C91.9679 99.459 89.3859 100.537 89.2379 102.228C89.0279 104.758 93.9519 108.294 98.3889 107.697C102.904 107.081 105.08 102.483 105.904 100.657ZM93.5559 102.622C93.4879 100.522 95.9439 99.04 97.1759 98.322C99.8539 96.799 104.055 95.741 105.081 97.141C106.423 99.164 102.261 106.614 97.8529 106.241C95.9349 106.132 93.7149 104.522 93.5509 102.622H93.5559Z" fill="#215E4B"/>
<path d="M336.58 85.565C336.632 85.194 336.68 84.852 336.703 84.503C336.729 84.316 336.732 84.103 336.758 83.916L336.468 83.874C323.132 90.15 308.206 92.202 293.535 94.183C291.702 94.544 289.476 94.635 288.35 93.234C287.024 91.911 287.259 89.685 288.492 88.204C289.728 86.8982 291.385 86.0709 293.171 85.868L293.197 85.681C303.406 86.233 313.847 84.519 322.359 78.995C330.9 73.584 337.043 64.107 337.066 54.176C337.066 53.686 337.04 53.224 337.024 52.763C337.014 52.4971 336.988 52.232 336.947 51.969C336.922 51.7287 336.844 51.497 336.718 51.291C336.352 51.0937 335.939 51.0036 335.524 51.0311C335.11 51.0585 334.711 51.2023 334.375 51.446C328.086 54.673 321.688 57.919 315.509 61.126C311.392 63.139 307.394 65.25 303.048 66.201C298.708 67.101 294.013 66.869 290.119 64.43L290.067 64.23C294.45 60.5516 299.306 57.4773 304.506 55.089C308.206 53.343 312.292 51.975 315.799 49.852C319.306 47.729 322.543 44.564 323.585 40.608C324.83 36.008 323.233 31.251 321.485 26.808C319.355 21.62 317.074 16.547 314.538 11.543C314.483 11.4645 314.441 11.3773 314.415 11.285C314.413 11.2486 314.402 11.2131 314.383 11.1821C314.364 11.1511 314.337 11.1256 314.305 11.108C314.286 11.05 314.186 10.785 314.186 10.785C314.076 10.785 313.992 10.814 313.886 10.824C313.563 10.859 313.241 10.895 312.895 10.956C308.891 11.3352 304.952 12.2244 301.174 13.602C296.921 15.1438 293.369 18.1717 291.174 22.127C289.328 26.218 289.483 31.058 288.932 35.534C288.609 39.645 287.344 44.301 283.979 46.714L283.798 46.259C284.918 41.203 284.311 35.934 283.172 30.803C282.162 25.721 280.829 20.617 280.497 15.493C280.327 11.8158 280.953 8.14533 282.331 4.73201C282.794 3.64715 283.374 2.61605 284.061 1.65701C284.173 1.4499 284.301 1.25136 284.442 1.06301L283.732 0.608008L283.409 0.402008C278.509 2.95101 273.509 5.46101 269.247 9.11401C265.052 12.708 261.593 17.619 261 23.153C260.048 28.771 262.052 34.446 264.036 39.728C266.001 45.136 268.089 50.618 270.036 56.128C271.159 58.906 271.972 62.259 270.236 64.691C268.813 64.5962 267.427 64.1922 266.176 63.5073C264.925 62.8223 263.839 61.8729 262.992 60.725C261.15 58.466 260.162 55.708 259.092 52.981C256.253 45.8246 254.168 38.3913 252.872 30.802C251.648 23.4333 252.077 15.8848 254.127 8.70201L253.862 8.66701C244.688 13.792 240.152 24.873 239.988 35.408C239.933 45.933 243.657 56.097 247.748 65.738C249.519 69.662 251.323 73.724 254.63 76.296C255.811 77.112 257.166 77.842 257.857 79.048C258.182 79.5357 258.356 80.1088 258.356 80.695C258.356 81.2812 258.182 81.8543 257.857 82.342L257.018 82.142C249.327 78.4827 242.611 73.0542 237.421 66.3008C232.23 59.5474 228.713 51.661 227.156 43.287C226.464 40.0179 226.308 36.6581 226.695 33.339C226.94 31.5819 227.436 29.8693 228.17 28.254C228.289 27.973 228.441 27.67 228.589 27.392C228.648 27.3067 228.697 27.2147 228.734 27.118L228.205 27.044C228.112 27.0855 228.023 27.1365 227.94 27.196C227.868 27.2033 227.799 27.2299 227.74 27.273C224.968 28.6624 222.568 30.6941 220.74 33.1989C218.912 35.7038 217.709 38.6091 217.231 41.673C215.989 47.973 217.763 54.547 220.816 60.065C223.862 65.654 228.302 70.358 233.026 74.585C235.941 77.1592 239.001 79.5648 242.19 81.79C243.321 82.377 244.294 83.2281 245.026 84.271C245.443 84.7543 245.701 85.3539 245.765 85.9887C245.83 86.6234 245.698 87.2627 245.387 87.82L245.497 87.997C245.132 88.4801 244.673 88.8845 244.148 89.1861C243.623 89.4877 243.042 89.6801 242.441 89.752C240.637 89.9836 238.804 89.6971 237.156 88.926C230.883 86.5 225.724 81.726 221.668 76.291C218.752 72.08 216.19 67.6348 214.008 63.001C213.985 62.972 213.234 61.407 213.234 61.407C212.853 60.652 212.502 59.9 212.147 59.148L211.802 59.316C208.295 62.5205 206.184 66.9725 205.923 71.716C205.76 76.4317 207.372 81.037 210.44 84.622C214.354 89.222 220.323 91.498 226.021 93.408L226.379 92.595C228.512 91.843 231.067 93.634 231.5 95.938C231.613 97.1087 231.386 98.287 230.845 99.3317C230.305 100.376 229.475 101.243 228.454 101.827C226.441 103.006 224.074 103.428 221.778 103.018C216.131 102.463 210.94 99.246 207.032 95.187C203.45 90.9592 200.306 86.3799 197.646 81.519C195.597 89.144 194.258 96.919 195.413 104.619C196.5 112.419 200.556 120.033 207.271 123.919C213.23 127.407 220.758 127.659 227.531 125.968C234.304 124.277 240.518 120.996 246.655 117.701C246.71 117.701 247.846 118.627 247.846 118.627C247.959 118.708 248.067 118.795 248.169 118.888C246.762 124.441 245.51 129.881 245.588 135.563C245.74 141.174 247.566 146.995 251.573 150.935C255.622 154.775 261.117 156.388 266.761 156.969C277.216 158.104 287.763 155.936 296.923 150.769C298.443 150.019 299.746 148.893 300.708 147.497C300.925 147.199 301.091 146.866 301.198 146.513C301.291 146.204 301.344 145.884 301.356 145.561C301.396 145.272 301.383 144.978 301.317 144.693C300.994 142.457 298.668 141.266 296.609 140.176C288.549 136.006 281.828 129.648 277.217 121.833L277.372 121.694C281.622 125.453 286.712 128.136 292.215 129.518C297.718 130.899 303.472 130.94 308.993 129.635C311.879 129.014 314.577 127.72 316.869 125.86C318.676 124.398 319.934 122.366 320.438 120.097C320.58 119.468 320.643 118.824 320.625 118.18C320.625 118.07 320.247 117.993 320.247 117.993C308.98 119.229 297.626 116.628 288.02 110.611C285.62 109.082 282.99 106.849 282.786 103.877L283.476 103.783C288.677 105.794 294.011 107.44 299.441 108.71C304.854 110.03 310.502 110.059 315.929 108.794C326.029 106.303 334.15 97.54 336.329 87.263C336.429 86.737 336.535 86.185 336.616 85.627L336.58 85.565ZM274.335 53.622C276.342 53.177 278.688 56.071 279.63 60.095C280.572 64.119 279.704 67.8 277.694 68.245C275.684 68.69 273.312 65.819 272.402 61.745C271.482 57.745 272.328 54.111 274.335 53.614V53.622ZM265.188 128.609C265.473 128.021 265.832 127.473 266.256 126.976C266.509 126.617 266.892 126.372 267.324 126.292C268.261 126.278 269.188 126.489 270.026 126.908C270.864 127.327 271.59 127.941 272.141 128.699C272.707 129.382 273.024 130.236 273.041 131.122C272.875 131.768 272.51 132.344 271.998 132.771C271.486 133.198 270.853 133.454 270.188 133.502C268.861 133.597 267.545 133.21 266.481 132.411C266.104 132.255 265.768 132.016 265.498 131.711C265.227 131.407 265.029 131.044 264.919 130.652C264.823 130.311 264.797 129.954 264.844 129.603C264.89 129.252 265.007 128.914 265.188 128.609ZM286.529 96.556C285.59 97.666 282.951 96.837 281.605 96.43C279.895 95.917 275.581 94.53 274.505 90.593C273.431 86.721 275.97 81.913 278.229 81.8C279.749 81.745 281.01 83.894 283.553 88.276C285.812 92.257 287.626 95.294 286.526 96.555L286.529 96.556Z" fill="#215E4B"/>
<path d="M312.628 11.315C303.39 32.6869 292.017 53.0707 278.681 72.156C268.133 87.156 254.381 100.428 246.76 117.256C246.654 117.5 246.649 117.776 246.746 118.023C246.844 118.271 247.036 118.469 247.279 118.576C247.523 118.682 247.799 118.686 248.047 118.589C248.294 118.492 248.493 118.3 248.599 118.056C257.359 98.696 274.015 83.076 285.705 65.42C296.818 48.5148 306.445 30.6781 314.477 12.11C314.583 11.8657 314.588 11.5893 314.49 11.3416C314.392 11.0939 314.2 10.8951 313.956 10.789C313.712 10.6829 313.435 10.6782 313.188 10.7759C312.94 10.8736 312.741 11.0657 312.635 11.31L312.628 11.315Z" fill="#215E4B"/>
<path d="M337.067 54.148C327.132 72.514 299.29 75.983 280.692 73.83C280.557 73.8185 280.427 73.7771 280.311 73.709C280.194 73.6408 280.094 73.5476 280.018 73.436C279.944 73.3182 279.894 73.1866 279.872 73.0492C279.85 72.9117 279.856 72.7712 279.889 72.636C279.932 72.3891 280.069 72.1684 280.271 72.0203C280.473 71.8722 280.725 71.8083 280.973 71.842L281.183 71.871C281.315 71.89 281.483 71.887 281.638 71.91C299.513 73.846 326.782 70.423 335.713 52.483C335.819 52.2609 336.004 52.0865 336.233 51.994C336.461 51.9015 336.715 51.8976 336.946 51.983C336.987 52.246 337.013 52.5111 337.023 52.777C337.038 53.225 337.05 53.686 337.067 54.148Z" fill="#215E4B"/>
<path d="M336.602 85.585C336.521 86.143 336.418 86.695 336.315 87.221C316.349 106.821 287.574 109.246 264.381 93.329C264.139 93.129 263.916 93.006 263.736 92.855C263.549 92.7446 263.412 92.5649 263.356 92.3549C263.3 92.1448 263.329 91.9211 263.436 91.732C263.472 91.6515 263.518 91.5764 263.575 91.509C263.64 91.438 263.701 91.393 263.762 91.322C263.935 91.1865 264.147 91.1091 264.366 91.101C264.586 91.093 264.802 91.1545 264.985 91.277C265.185 91.413 265.404 91.551 265.601 91.687C288.271 107.281 316.73 104.626 335.941 84.787C336.031 84.6726 336.15 84.5844 336.285 84.5316C336.421 84.4788 336.568 84.4634 336.712 84.487C336.689 84.835 336.641 85.177 336.589 85.549L336.602 85.585Z" fill="#215E4B"/>
<path d="M320.424 120.069C297.112 131.227 275.416 116.581 259.202 100.199C258.944 99.918 258.683 99.667 258.447 99.418C258.305 99.289 258.189 99.137 258.047 99.008C258.021 98.994 257.999 98.9731 257.983 98.9476C257.968 98.922 257.96 98.8928 257.96 98.863C257.508 98.218 258.092 97.53 258.799 97.495C258.823 97.4774 258.85 97.4656 258.879 97.4606C258.909 97.4556 258.939 97.4574 258.967 97.466C259.227 97.495 259.468 97.6151 259.648 97.805C259.883 98.053 260.148 98.305 260.38 98.554C276.032 114.51 296.963 129.207 319.805 118.146C319.928 118.075 320.067 118.038 320.208 118.038C320.35 118.038 320.489 118.075 320.612 118.146C320.63 118.792 320.566 119.438 320.424 120.069Z" fill="#215E4B"/>
<path d="M301.367 145.536C301.355 145.859 301.301 146.179 301.209 146.488C301.102 146.841 300.936 147.174 300.719 147.472C287.296 146.333 273.212 150.26 262.429 139.989C254.456 132.384 252.078 121.868 252.055 111.304V110.817C252.055 110.117 252.084 109.446 252.1 108.771C252.111 108.601 252.111 108.431 252.1 108.261C252.148 107.161 253.6 107.203 253.968 108.038C254.052 108.191 254.093 108.364 254.087 108.538C253.532 122.987 257.817 138.738 272.969 143.902C281.985 146.965 291.92 144.668 301.367 145.536Z" fill="#215E4B"/>
<path d="M284.863 63.002C284.467 65.4013 283.705 67.7256 282.604 69.894C282.281 70.539 281.984 71.21 281.636 71.894C281.565 72.02 281.52 72.146 281.449 72.272C281.359 72.4556 281.215 72.6075 281.036 72.7076C280.857 72.8078 280.653 72.8515 280.449 72.833C280.244 72.8176 280.048 72.7437 279.884 72.62C279.792 72.5652 279.711 72.4926 279.647 72.4063C279.583 72.3201 279.537 72.2219 279.512 72.1176C279.486 72.0133 279.482 71.9049 279.499 71.7989C279.515 71.6928 279.553 71.5912 279.61 71.5C279.933 70.8745 280.214 70.2276 280.449 69.564C286.089 54.48 268.669 41.086 269.211 25.204C269.534 14.421 276.132 7.52201 283.731 0.598007L284.447 1.05301C284.317 1.22358 284.201 1.4049 284.102 1.59501C283.406 2.56156 282.811 3.59738 282.327 4.68601C274.467 12.569 269.817 21.203 272.273 33.08C273.932 41.037 278.673 46.27 282.55 53.085C284.69 56.777 285.302 59.888 284.863 63.002Z" fill="#215E4B"/>
<path d="M250.632 11.518C247.121 23.163 244.05 34.75 247.405 46.808C251.219 60.531 261.218 71.35 270.637 81.536C271.505 82.478 273.115 81.278 272.25 80.329C264.829 72.304 256.836 63.97 252.245 53.871C245.86 39.855 248.176 26.587 252.484 12.306C252.855 11.083 251.016 10.273 250.645 11.506L250.632 11.518Z" fill="#215E4B"/>
<path d="M264.261 91.977C244.661 79.538 212.961 55.442 228.961 28.877C229.606 27.783 228.051 26.531 227.386 27.632C210.727 55.316 242.364 80.449 263.014 93.552C264.097 94.235 265.348 92.667 264.261 91.977Z" fill="#215E4B"/>
<path d="M258.428 97.433C247.874 97.794 235.39 93.997 226.484 88.118C217.295 82.055 215.384 72.385 213.9 62.182C213.866 61.9184 213.728 61.6791 213.518 61.5169C213.307 61.3547 213.041 61.2828 212.777 61.317C212.513 61.3512 212.274 61.4887 212.112 61.6993C211.95 61.91 211.878 62.1764 211.912 62.44C213.383 72.468 215.312 82.768 224.076 89.04C233.433 95.716 247.308 99.814 258.704 99.423C259.995 99.381 259.73 97.39 258.446 97.435L258.428 97.433Z" fill="#215E4B"/>
<path d="M251.797 108.817C242.475 111.495 232.366 117.887 222.364 116.729C207.021 114.948 202.44 97.847 199.729 85.337C199.458 84.088 197.47 84.33 197.741 85.595C200.241 97.095 203.581 111.334 215.407 116.832C227.855 122.621 240.794 114.044 252.558 110.663C253.797 110.308 253.029 108.453 251.8 108.808L251.797 108.817Z" fill="#215E4B"/>
<path d="M260.164 154.341C237.7 168.186 200.564 141.622 148.652 144.309C120.171 145.774 101.952 155.28 88.146 143.215C83.555 139.204 77.346 130.954 79.111 123.497C81.505 113.436 96.135 114.308 101.052 101.772C104.401 93.238 99.242 88.72 103.727 80.825C107.276 74.604 112.097 74.54 118.892 69.683C133.628 59.132 128.792 46.548 140.901 35.158C152.301 24.423 168.395 24.497 179.401 24.546C183.483 24.565 215.575 25.046 220.87 39.682C223.3 46.403 218.905 52.847 224.187 60.31C226.926 64.182 229.521 64.44 230.873 68.667C232.628 74.152 229.505 77.656 232.099 81.251C233.97 83.851 236.152 82.797 238.552 85.707C241.301 89.034 239.491 91.66 241.227 95.064C244.427 101.349 253.527 98.187 259.277 104.421C262.242 107.648 260.519 109.235 263.288 120.021C266.888 134.054 271.296 137.174 269.638 143.53C268.088 149.452 262.687 152.785 260.164 154.341Z" fill="#124647"/>
<path d="M239.323 133.338C242.446 141.405 245.389 150.094 248.035 159.474C248.774 162.081 249.442 164.682 250.074 167.247C251.503 172.732 252.674 178.134 253.72 183.322C256.186 196.032 257.847 208.886 258.692 221.806C260.927 228.828 261.371 236.297 259.983 243.534L236.009 234.461C235.57 232.848 224.154 190.621 223.709 188.985C219.551 173.579 215.38 158.159 211.196 142.725C212.638 138.348 215.645 134.658 219.64 132.361C222.709 130.751 226.153 129.992 229.615 130.164C233.076 130.336 236.428 131.432 239.323 133.338Z" fill="#F7A491"/>
<path d="M250.064 167.26C251.493 172.745 252.664 178.147 253.71 183.335C243.71 185.219 234.028 186.626 224.025 188.498C227.042 185.598 229.781 183.177 232.834 180.298C238.606 175.959 244.34 171.645 250.064 167.26Z" fill="#F47458"/>
<path d="M249.036 152.234C213.724 152.047 178.446 151.832 143.203 151.589C130.527 151.542 117.849 151.463 105.168 151.353C105.404 144.025 106.53 135.526 110.24 129.328C116.727 126.21 123.41 123.516 130.245 121.261C136.772 122.2 143.439 124.033 149.731 120.651C152.167 119.297 154.245 117.381 155.791 115.062C158.05 111.871 160.015 107.221 161.276 100.542C162.051 96.3081 162.522 92.0242 162.686 87.723C163.438 87.723 164.186 87.629 164.893 87.584C166.393 87.484 167.945 87.348 169.449 87.261C172.449 87.025 175.412 86.838 178.416 86.648C181.375 86.838 184.379 87.026 187.386 87.261C188.886 87.355 190.386 87.493 191.903 87.584C192.655 87.629 193.403 87.723 194.162 87.723C194.35 92.5031 194.915 97.2609 195.853 101.952C197.024 107.915 198.953 113.126 202.003 116.698C203.347 118.406 205.088 119.76 207.075 120.641C211.915 122.754 216.755 121.286 221.63 119.608C228.627 122.216 234.829 126.592 239.632 132.31C244.435 138.028 247.675 144.892 249.036 152.234Z" fill="#F7A491"/>
<path d="M191.662 99.04C191.662 107.94 185.741 115.147 178.433 115.147C171.125 115.147 165.204 107.936 165.204 99.04C165.204 90.144 171.128 82.933 178.433 82.933C185.738 82.933 191.662 90.145 191.662 99.04Z" fill="#F47458"/>
<path d="M179.534 26.538C176.947 26.5084 174.36 26.6443 171.79 26.945C165.51 27.6831 159.72 30.7003 155.517 35.4245C151.314 40.1486 148.992 46.251 148.99 52.574V79.132C149.668 82.472 152.39 93.787 162.864 101.851C167.517 105.407 172.946 107.809 178.707 108.862C178.939 108.862 179.165 108.862 179.391 108.839C179.617 108.816 179.846 108.862 180.078 108.862C185.839 107.809 191.268 105.407 195.921 101.851C203.099 96.1675 208.017 88.1132 209.795 79.132V52.557C209.793 46.234 207.471 40.1316 203.268 35.4075C199.065 30.6833 193.275 27.6661 186.995 26.928C184.518 26.6407 182.025 26.5105 179.532 26.538H179.534Z" fill="#F7A491"/>
<path d="M106.644 136.269C102.924 144.069 99.344 152.525 95.996 161.685C95.064 164.231 94.202 166.777 93.382 169.285C91.546 174.631 89.968 179.933 88.542 185.044C85.1353 197.531 82.5208 210.22 80.714 223.037L102.394 237.337C107.611 222.495 112.832 207.742 118.053 192.906C123.351 177.849 128.661 162.782 133.983 147.706C132.87 143.234 130.149 139.328 126.339 136.735C123.396 134.907 120.018 133.9 116.555 133.818C113.092 133.736 109.67 134.582 106.644 136.269Z" fill="#F7A491"/>
<path d="M154.531 65.628C154.531 70.974 151.331 75.308 147.387 75.308C143.443 75.308 140.24 70.971 140.24 65.628C140.24 60.285 143.44 55.948 147.387 55.948C151.334 55.948 154.531 60.278 154.531 65.628Z" fill="#F7A491"/>
<path d="M211.577 75.314C215.524 75.314 218.724 70.9774 218.724 65.628C218.724 60.2786 215.524 55.942 211.577 55.942C207.63 55.942 204.43 60.2786 204.43 65.628C204.43 70.9774 207.63 75.314 211.577 75.314Z" fill="#F7A491"/>
<path d="M264.829 168.267L222.589 189.221C215.736 164.821 218.766 173.465 213.045 153.121C211.199 145.964 202.1 123.294 214.468 120.4C228.281 117.173 238.322 127.147 238.832 127.67L264.829 168.267Z" fill="url(#paint0_linear)"/>
<path d="M251.087 347.696C238.91 348.37 224.125 349.035 207.287 349.451C185.287 349.996 166.309 349.961 151.328 349.745C137.744 349.545 121.846 349.125 104.058 348.283C105.261 323.702 112.381 299.776 124.812 278.536C130.173 269.499 136.486 261.062 143.643 253.368C143.269 251.348 142.843 249.283 142.468 247.268C167.169 245.483 191.885 243.716 216.616 241.968C215.864 245.768 215.161 249.573 214.409 253.377C220.831 260.196 226.535 267.657 231.433 275.641C240.388 290.055 246.515 306.043 249.486 322.75C250.856 330.99 251.392 339.348 251.087 347.696Z" fill="#50BFA5"/>
<path d="M227.707 203.757C226.294 215.305 227.936 224.908 227.63 238.605C227.375 249.979 227.63 260.662 228.246 270.549C213.276 279.567 196.189 284.468 178.715 284.754C161.241 285.04 144.003 280.701 128.746 272.178C128.057 247.163 127.367 222.148 126.674 197.133C124.993 195.133 133.127 121.011 143.501 119.601C147.907 118.912 152.107 117.259 155.801 114.761C156.988 116.278 164.29 125.654 177.129 126.7C187.19 127.52 196.795 122.915 202.006 116.407C202.264 116.084 202.471 115.807 202.616 115.607C205.498 115.651 208.372 115.934 211.208 116.452C214.764 117.082 218.254 118.041 221.633 119.317C226.473 121.146 215.402 116.829 217.513 166.377C218.608 168.54 225.449 189.221 227.707 203.757Z" fill="url(#paint1_linear)"/>
<path d="M210.7 23.311C219.586 38.757 209.958 56.187 209.429 57.111C208.287 52.837 207.144 48.5627 205.999 44.288C194.642 45.1254 183.487 47.7462 172.945 52.054C162.358 56.433 156.325 61.021 150.426 58.604C144.186 56.045 141.814 47.172 140.811 39.628C141.082 38.637 147.911 15.328 170.202 9.66601C182.811 6.47201 202.149 8.46901 210.7 23.311Z" fill="#124647"/>
<path d="M93.386 169.287C91.55 174.633 89.972 179.935 88.546 185.046C98.381 187.669 108.367 189.86 118.202 192.487C115.411 189.351 112.43 186.679 109.602 183.587C104.173 178.815 98.778 174.088 93.386 169.287Z" fill="#F47458"/>
<path d="M155.779 115.044C153.52 123.872 150.216 125.879 139.379 149.195C131.393 163.095 129.573 180.609 121.545 194.465C108.019 186.434 92.105 177.222 78.579 169.188C88.259 156.321 97.9173 143.471 107.554 130.636C108.396 130.213 109.29 129.742 110.229 129.32C116.716 126.202 123.399 123.508 130.234 121.253C131.641 120.785 133.096 120.314 134.6 119.891C141.539 117.789 148.616 116.17 155.779 115.044Z" fill="url(#paint2_linear)"/>
<path d="M179.627 203.399C178.954 199.841 178.28 196.282 177.607 192.722C151.732 190.847 125.779 195.083 101.843 205.086C94.922 207.974 81.309 218.77 80.705 220.861C79.848 224.03 79.8425 227.369 80.689 230.541C82.1069 235.358 85.3246 239.445 89.675 241.954C91.975 241.593 95.225 240.986 99.061 240.018C101.729 239.328 103.901 238.64 105.514 238.082C132.05 229.173 141.597 213.382 167.465 205.951C171.452 204.807 175.517 203.955 179.627 203.399Z" fill="#F7A491"/>
<path d="M177.711 208.745C175.126 211.584 173.707 215.293 173.736 219.132C173.871 221.259 174.208 223.369 174.743 225.432C175.202 227.552 175.286 229.736 174.991 231.885C174.691 234.002 174.133 236.08 173.775 238.185C173.389 240.4 173.328 242.66 173.594 244.893C173.859 247.152 174.343 249.352 174.794 251.566L176.172 258.342L179.312 273.781C179.435 274.394 180.367 274.136 180.244 273.526L177.505 260.055L176.143 253.366C175.688 251.13 175.191 248.897 174.814 246.645C174.415 244.485 174.306 242.281 174.491 240.092C174.707 237.956 175.259 235.868 175.662 233.765C176.115 231.715 176.254 229.607 176.075 227.515C175.843 225.415 175.207 223.359 174.884 221.271C174.548 219.161 174.687 217.002 175.293 214.952C175.898 212.903 176.955 211.015 178.384 209.426C178.803 208.968 178.123 208.281 177.7 208.742L177.711 208.745Z" fill="#1F573B"/>
<path d="M183.289 205.77C180.389 210.103 180.289 215.547 180.746 220.57C181.007 223.451 181.407 226.323 181.756 229.192C182.105 232.061 182.556 234.968 182.695 237.872C182.991 240.856 182.447 243.864 181.124 246.555C180.824 247.1 181.66 247.588 181.96 247.042C184.67 242.16 183.593 236.288 182.951 231.028C182.586 228.05 182.196 225.078 181.87 222.097C181.536 219.501 181.44 216.88 181.583 214.266C181.717 211.421 182.594 208.661 184.126 206.261C184.474 205.745 183.639 205.261 183.29 205.774L183.289 205.77Z" fill="#1F573B"/>
<path d="M189.372 203.47C189.157 206.711 189.291 209.966 189.772 213.179C190.082 214.749 190.549 216.284 191.166 217.761C191.822 219.243 192.361 220.774 192.779 222.34C193.508 225.512 193.189 228.813 193.021 232.02C192.819 235.188 192.813 238.366 193.002 241.535C193.199 245.067 193.931 248.548 195.174 251.86C195.4 252.434 196.336 252.183 196.11 251.605C193.796 245.713 193.658 239.305 193.942 233.062C194.253 229.857 194.26 226.63 193.961 223.424C193.496 220.239 191.809 217.424 191.018 214.324C190.108 210.775 190.231 207.093 190.347 203.476C190.366 202.853 189.398 202.853 189.379 203.476L189.372 203.47Z" fill="#1F573B"/>
<path d="M190.01 168.692C187.135 169.821 183.786 171.735 183.137 174.752C181.301 169.325 178.565 164.343 177.784 156.738C178.484 154.579 180.633 152.405 182.401 150.982C180.504 152.264 178.903 153.938 177.706 155.89C177.217 149.117 178.292 142.321 180.849 136.03L180.362 135.798C176.225 145.505 175.734 156.379 178.978 166.419C177.276 165.514 175.353 165.109 173.431 165.248C175.293 165.283 177.845 165.793 179.197 167.1C182.062 175.763 184.473 179.29 183.014 188.822C181.656 186.512 178.048 185.802 175.402 185.789C178.202 185.947 182.146 186.989 182.881 189.661C181.704 196.51 179.706 203.192 176.932 209.564L179.888 209.619C181.765 203.789 183.189 197.822 184.147 191.773C186.502 176.253 178.52 173.888 190.047 168.832C191.084 168.376 192.152 167.992 193.241 167.68C192.143 167.945 191.063 168.283 190.01 168.692Z" fill="#1F573B"/>
<path d="M180.634 152.376C183.809 153.011 187.104 152.602 190.027 151.211C194.602 148.881 195.858 141.757 195.858 141.757C195.858 141.757 179.944 140.622 180.634 152.376Z" fill="#327F6B"/>
<path d="M160.422 158.023C160.422 158.023 166.614 156.994 170.747 159.056C172.657 160.024 174.619 162.328 174.383 164.59C174.035 167.955 169.983 167.759 167.607 167.045C166.232 166.677 164.951 166.019 163.85 165.117C162.749 164.214 161.853 163.087 161.222 161.811C160.69 160.619 160.417 159.328 160.422 158.023Z" fill="#3C8F7C"/>
<path d="M173.116 137.191C172.498 138.326 172.175 139.598 172.175 140.891C172.175 142.184 172.498 143.456 173.116 144.591C175.2 148.766 178.633 147.282 178.633 144.591C178.633 141.9 173.116 137.191 173.116 137.191Z" fill="#327F6B"/>
<path d="M179.462 128.96C179.462 128.96 184.337 137.504 181.398 139.321C180.934 139.672 180.386 139.896 179.809 139.969C179.232 140.042 178.645 139.962 178.109 139.737C177.572 139.512 177.104 139.15 176.751 138.688C176.398 138.225 176.173 137.678 176.098 137.101C176.1 135.487 179.462 128.96 179.462 128.96Z" fill="#3C8F7C"/>
<path d="M200.162 164.637C200.162 164.637 186.978 160.668 185.697 167.328C184.416 173.988 188.523 175.072 191.486 174.259C194.449 173.446 200.162 164.637 200.162 164.637Z" fill="#3C8F7C"/>
<path d="M167.756 179.599C167.756 179.599 177.536 177.715 179.711 181.951C181.886 186.187 179.866 189.621 178.049 189.621C176.232 189.621 170.718 187.94 167.756 179.599Z" fill="#327F6B"/>
<path d="M228.888 284.483L219.444 345.14H135.996L126.336 284.483H228.888Z" fill="#124647"/>
<path d="M228.888 284.484C228.888 285.726 227.494 286.914 224.981 287.994C217.269 291.308 198.961 293.634 177.611 293.634C161.223 293.634 146.616 292.266 137.24 290.12C130.412 288.578 126.34 286.609 126.34 284.483C126.34 279.43 149.285 275.332 177.614 275.332C205.943 275.332 228.888 279.431 228.888 284.484Z" fill="#FF7415"/>
<path d="M227.187 284.442C227.077 284.66 226.915 284.848 226.716 284.99C225.99 285.555 225.188 286.012 224.332 286.348C216.553 289.691 198.216 291.848 177.607 291.848C161.816 291.848 147.238 290.583 137.597 288.379C128.885 286.411 128.053 284.507 128.027 284.507C128.072 284.407 128.44 283.775 130.266 282.894C132.202 281.958 135.816 280.748 142.459 279.616C165.766 276.273 189.431 276.273 212.738 279.616C225.593 281.806 227.081 284.287 227.187 284.442Z" fill="url(#paint3_linear)"/>
<path d="M227.19 284.448C227.08 284.667 226.918 284.855 226.719 284.997C225.993 285.561 225.191 286.019 224.335 286.355C216.556 289.698 198.219 291.855 177.61 291.855C161.819 291.855 147.241 290.59 137.6 288.386C128.888 286.418 128.056 284.514 128.03 284.514C128.075 284.414 128.443 283.782 130.269 282.901C132.205 281.965 135.819 280.755 142.462 279.623C165.769 276.28 189.434 276.28 212.741 279.623C225.586 281.814 227.074 284.295 227.18 284.463L227.19 284.448Z" fill="url(#paint4_linear)"/>
<path d="M228.368 284.484C219.979 290.744 196.699 293.635 173.493 293.635C155.676 293.635 132.657 288.889 127.078 284.484C135.467 278.224 157.892 276.356 181.098 276.356C198.912 276.356 218.862 278.737 228.368 284.484Z" fill="#6D3D0C"/>
<path d="M228.868 284.235C228.872 284.191 228.863 284.148 228.842 284.109C228.828 284.036 228.807 283.965 228.781 283.896C228.77 283.859 228.756 283.824 228.739 283.789C228.74 283.777 228.738 283.764 228.733 283.753C228.728 283.741 228.72 283.731 228.71 283.724C228.695 283.686 228.677 283.65 228.658 283.614C228.637 283.573 228.613 283.533 228.587 283.495C228.567 283.458 228.544 283.423 228.519 283.389C228.487 283.337 228.448 283.289 228.409 283.231L228.328 283.131C228.26 283.054 228.189 282.973 228.112 282.892L227.989 282.773L227.889 282.679L227.831 282.631C227.549 282.395 227.25 282.179 226.937 281.986L226.901 281.963L226.714 281.85C226.585 281.776 226.453 281.698 226.314 281.624L226.101 281.511C225.885 281.401 225.659 281.288 225.42 281.188C225.181 281.088 224.93 280.972 224.668 280.865L224.607 280.839L224.4 280.758C216.382 277.57 198.448 275.35 177.614 275.35C155.838 275.35 137.239 277.773 129.802 281.19C129.563 281.3 129.337 281.413 129.121 281.513L128.908 281.626C128.701 281.739 128.508 281.852 128.321 281.965C127.995 282.166 127.685 282.392 127.392 282.639L127.337 282.687L127.237 282.781L127.111 282.9L126.895 283.139C126.869 283.174 126.84 283.207 126.814 283.239L126.704 283.397C126.679 283.431 126.656 283.467 126.636 283.504C126.611 283.542 126.588 283.582 126.568 283.623C126.546 283.658 126.528 283.695 126.513 283.733C126.513 283.756 126.494 283.778 126.484 283.798C126.474 283.818 126.455 283.869 126.442 283.904C126.417 283.974 126.397 284.045 126.381 284.117C126.377 284.16 126.368 284.202 126.355 284.243C126.349 284.326 126.349 284.408 126.355 284.491C126.355 286.617 130.43 288.586 137.261 290.128C146.634 292.274 161.241 293.642 177.629 293.642C198.98 293.642 217.287 291.319 225.002 288.002C227.512 286.921 228.902 285.743 228.902 284.491C228.898 284.405 228.886 284.319 228.868 284.235ZM226.719 284.99C225.994 285.555 225.191 286.012 224.335 286.348C216.556 289.691 198.219 291.848 177.61 291.848C161.819 291.848 147.241 290.583 137.6 288.379C128.888 286.411 128.056 284.507 128.03 284.507C128.075 284.407 128.443 283.775 130.269 282.894C132.205 281.958 135.819 280.748 142.462 279.616C165.769 276.273 189.434 276.273 212.741 279.616C225.586 281.807 227.074 284.288 227.18 284.456C227.071 284.668 226.914 284.851 226.72 284.99H226.719Z" fill="white"/>
<path d="M193.479 279.337H161.313C161.313 279.337 161.513 275.901 163.013 275.901C164.156 276.06 165.218 276.581 166.043 277.388C165.915 276.902 165.983 276.385 166.232 275.949C166.48 275.512 166.89 275.19 167.373 275.052C169.212 274.239 172.213 276.575 172.213 276.575C172.213 276.575 172.248 276.22 174.284 275.475C174.983 275.223 175.731 275.136 176.47 275.22C177.209 275.304 177.918 275.557 178.543 275.959C179.479 276.227 180.337 276.717 181.043 277.388C180.916 276.903 180.984 276.387 181.232 275.951C181.479 275.514 181.887 275.192 182.369 275.052C184.205 274.239 187.209 276.575 187.209 276.575C187.209 276.575 187.245 276.22 189.284 275.475C191.323 274.73 193.74 275.585 194.079 276.646C194.177 277.584 193.967 278.529 193.479 279.337Z" fill="#6D3D0C"/>
<path d="M309.463 356.498H40.334C38.8278 356.498 37.3833 355.9 36.3183 354.835C35.2533 353.77 34.655 352.325 34.655 350.819C34.655 349.313 35.2533 347.868 36.3183 346.803C37.3833 345.738 38.8278 345.14 40.334 345.14H309.463C310.969 345.14 312.414 345.738 313.479 346.803C314.544 347.868 315.142 349.313 315.142 350.819C315.142 352.325 314.544 353.77 313.479 354.835C312.414 355.9 310.969 356.498 309.463 356.498Z" fill="white"/>
<path d="M180.156 304.069C182.892 306.479 187.697 317.75 190.433 320.16C210.841 307.157 237.906 289.807 258.424 260.145C263.354 253.024 270.04 234.871 269.395 232.761C268.363 229.618 266.375 226.874 263.71 224.914C257.631 220.474 250.1 221.607 248.4 221.9C246.406 223.788 243.647 226.517 240.559 229.967C238.41 232.374 236.726 234.439 235.503 235.991C215.34 261.559 217.841 272.01 197.429 295.926C193.146 300.949 182.166 302.233 180.156 304.069Z" fill="#F7A491"/>
<path d="M177.466 327.84C177.114 327.953 176.759 328.053 176.404 328.14C175.004 328.495 173.571 328.553 172.164 328.859C169.815 329.375 167.479 329.972 165.111 330.392C162.646 330.831 160.671 330.944 159.948 330.198C159.813 330.109 159.697 329.994 159.608 329.859C159.519 329.724 159.459 329.572 159.431 329.413C159.402 329.254 159.407 329.09 159.445 328.933C159.482 328.776 159.551 328.628 159.648 328.498C160.075 328.131 160.577 327.861 161.119 327.707C162.59 327.139 164.897 326.481 167.001 325.894C169.534 325.184 171.773 324.571 171.901 324.323C172.201 323.762 170.981 323.723 170.981 323.723C170.981 323.723 168.206 324.368 164.881 325.049C162.726 325.485 160.338 325.927 158.321 326.201C156.901 326.489 155.444 326.543 154.007 326.362C151.907 325.688 152.007 323.984 153.039 323.239C153.317 323.093 153.613 322.985 153.92 322.916C155.001 322.616 156.885 322.242 158.912 321.838C162.881 321.051 167.385 320.176 167.404 319.67C167.436 318.802 165.384 319.238 165.384 319.238C165.384 319.238 161.654 320.09 157.459 320.829C155.846 321.113 154.159 321.381 152.603 321.574C149.803 321.926 147.408 322.035 146.556 321.574C144.456 320.458 145.407 318.912 147.598 318.115C148.282 317.898 148.978 317.718 149.682 317.576C150.892 317.308 152.463 316.992 154.154 316.653C156.413 316.201 158.9 315.708 160.991 315.253C163.643 314.666 165.666 314.133 165.847 313.788C166.363 312.82 164.182 313.168 164.182 313.168C164.182 313.168 160.988 313.688 157.248 314.255C156.022 314.442 154.738 314.632 153.489 314.813C151.724 315.068 150.024 315.3 148.665 315.458C147.706 315.613 146.736 315.684 145.765 315.671C144.258 315.364 143.584 313.851 145.642 312.544C146.266 312.203 146.922 311.924 147.601 311.712C148.082 311.541 148.624 311.363 149.201 311.186C150.056 310.921 151.001 310.644 151.973 310.373C155.906 309.266 160.265 308.211 160.94 308.005C162.102 307.66 172.507 305.233 172.753 304.724C172.999 304.215 166.468 303.617 162.628 301.894C161.266 301.278 159.079 300.281 158.308 298.88C158.217 298.718 158.15 298.545 158.108 298.364C158.055 298.049 158.092 297.725 158.215 297.43C158.338 297.135 158.543 296.882 158.804 296.698C159.066 296.515 159.374 296.409 159.694 296.394C160.013 296.379 160.33 296.454 160.608 296.612C161.671 297.121 162.799 297.482 163.96 297.686C165.141 297.709 167.748 298.131 169.96 298.422L172.719 298.78C174.707 299.028 176.865 299.296 177.882 299.393C179.22 299.619 180.516 300.044 181.728 300.655C187.678 304.972 193.627 309.287 199.574 313.6C200.335 314.155 194.282 318.6 193.766 318.953C191.407 320.566 188.926 321.973 186.466 323.39C183.632 325.188 180.615 326.68 177.466 327.84Z" fill="#F7A491"/>
<path d="M221.27 197.904C220.541 198.569 218.043 198.924 215.023 199.104C209.023 199.465 200.736 199.13 200.384 199.159C199.739 199.217 198.864 199.401 199.071 200.001C199.119 200.136 199.461 200.24 200.023 200.324C202.837 200.734 211.077 200.563 214.078 200.824C214.424 200.838 214.766 200.896 215.098 200.995C216.418 201.595 217.089 203.405 215.143 204.544C213.687 205.028 212.16 205.259 210.626 205.228C206.431 205.428 196.726 205.08 196.726 205.08C196.726 205.08 195.484 205.364 195.977 205.909C196.077 206.015 205.399 206.877 208.238 207.409C208.863 207.474 209.468 207.663 210.019 207.964C210.166 208.066 210.291 208.198 210.384 208.351C210.478 208.504 210.538 208.674 210.562 208.852C210.586 209.029 210.573 209.21 210.523 209.382C210.474 209.554 210.389 209.714 210.274 209.852C209.79 210.794 207.712 211.062 205.018 211.081C201.866 211.104 197.855 210.781 194.567 210.787C193.402 210.787 192.337 210.893 191.418 210.948C183.029 211.448 162.566 208.525 162.091 207.796L153.001 194.004C153.262 193.985 161.368 192.391 163.855 191.691C167.064 190.93 170.04 189.402 172.528 187.238C173.77 186.047 175.484 184.421 177.187 183.043C178.472 181.883 179.945 180.95 181.543 180.284C183.085 179.819 187.206 178.413 189.406 177.664C191.606 176.915 194.152 175.938 195.366 175.68C196.49 175.235 197.539 174.621 198.476 173.857C198.798 173.62 199.185 173.485 199.584 173.471C199.984 173.458 200.379 173.565 200.717 173.78C201.055 173.994 201.32 174.306 201.477 174.674C201.635 175.042 201.677 175.449 201.599 175.841C201.276 177.512 197.346 180.51 196.907 180.781C193.377 182.972 188.25 184.575 188.621 185.018C188.805 185.231 210.168 186.702 215.099 187.277C215.744 187.354 218.758 187.851 219.219 188.029C221.781 189.029 221.587 190.785 220.132 191.417C219.119 191.624 218.09 191.741 217.057 191.765C214.566 191.926 210.988 192.065 207.784 192.165C205.316 192.246 200.263 192.375 200.263 192.375C200.263 192.375 197.891 192.433 198.75 193.375C199.627 193.719 200.564 193.88 201.505 193.849C202.305 193.901 213.579 194.127 216.705 194.233C217.487 194.244 218.268 194.297 219.044 194.391C221.576 194.819 223.067 196.29 221.27 197.904Z" fill="#F7A491"/>
<path d="M265.826 156.448C265.826 156.448 266.294 145.235 268.407 139.631C270.556 134.525 272.973 129.536 275.648 124.685L277.281 125.621C275.01 129.991 273.059 134.52 271.444 139.173C268.863 146.646 267.944 162.992 267.944 162.992L265.826 156.448Z" fill="#1F573B"/>
<path d="M260.338 233.164C263.91 231.791 267.054 229.494 269.447 226.508C273.3 221.608 278.904 199.537 278.904 199.537L282.404 198.137C282.404 198.137 277.504 221.607 273.995 227.212C270.486 232.817 262.086 239.822 262.086 239.822L260.338 233.164Z" fill="#1F573B"/>
<path d="M256.84 162.401C260.34 169.057 264.197 182.371 263.497 189.376C262.797 196.381 256.14 206.542 255.088 220.555C254.036 234.568 259.644 239.821 261.744 246.478C263.844 253.135 267.694 280.796 267.694 280.796C267.694 280.796 277.167 285.71 273.294 281.509C272.584 280.735 275.394 261.181 270.142 251.382C264.89 241.583 259.281 232.464 261.385 220.903C263.489 209.342 266.985 203.389 268.39 193.929C269.555 184.557 268.357 175.042 264.905 166.251C261.862 158.707 259.652 156.09 259.652 156.09L256.84 162.401Z" fill="#1F573B"/>
<path d="M302.481 277.143C302.481 281.828 297.37 283.958 297.37 283.958L295.237 307.783L295.111 309.183L291.849 345.144H250.277L245.127 309.19L244.927 307.79L243.72 299.381L243.02 294.481L241.575 284.395C241.575 284.395 236.89 281.414 236.89 278.006C236.89 275.238 240.297 273.747 266.065 273.96H266.71C269.061 273.977 271.287 273.986 273.386 273.986C293.866 273.997 302.481 273.503 302.481 277.143Z" fill="#124647"/>
<path d="M245.128 309.183H295.121L295.247 307.783H244.928L245.128 309.183Z" fill="white"/>
<path d="M296.36 294.47L295.915 299.37H243.721L243.021 294.47H296.36Z" fill="white"/>
<path d="M236.835 139.217C236.835 139.217 221.073 125.343 214.2 140.701C207.327 156.059 218.02 199.445 228.445 201.213C238.277 202.888 264.686 182.324 271.036 166.895C277.386 151.466 268.09 137.759 256.019 136.095C239.362 133.784 236.835 139.217 236.835 139.217Z" fill="#327F6B"/>
<path d="M282.654 194.251C282.654 194.251 281.602 172.081 299.4 175.537C317.198 178.993 344.1 224.827 341.93 228.557C339.76 232.287 326.897 237.643 304.288 233.894C281.679 230.145 256.247 210.894 259.115 202.36C264.081 187.488 282.654 194.251 282.654 194.251Z" fill="#327F6B"/>
<path d="M299.409 175.53C281.609 172.081 282.663 194.244 282.663 194.244C282.663 194.244 275.206 191.527 268.463 193.318C265.206 194.108 262.394 196.153 260.638 199.007C259.997 200.058 259.479 201.18 259.096 202.35C258.942 202.819 258.868 203.311 258.877 203.805C258.896 206.196 260.565 209.161 263.394 212.305C266.155 215.254 269.221 217.902 272.541 220.205C273.653 220.999 274.815 221.778 276.026 222.541C284.315 227.8 294.556 232.276 304.278 233.889C326.887 237.638 339.755 232.276 341.92 228.552C344.085 224.828 317.207 178.976 299.409 175.53ZM336.741 227.311C336.147 228.556 333.769 229.434 332.572 229.631C330.839 229.813 329.163 230.354 327.651 231.219C324.473 232.987 322.359 230.574 319.062 230.328C318.343 230.287 317.623 230.305 316.907 230.383C316.287 230.438 315.665 230.515 315.036 230.577C314.438 230.643 313.837 230.678 313.236 230.683C311.081 230.683 309.984 230.002 308.073 229.283C307.231 228.976 306.354 228.772 305.463 228.676C304.837 228.602 304.208 228.563 303.563 228.521C303.073 228.492 302.572 228.463 302.063 228.414C297.772 228.02 294.963 224.923 291.609 222.732C290.549 222.013 289.396 221.442 288.182 221.032C287.731 220.893 287.272 220.785 286.807 220.709C283.607 220.157 281.428 219.576 279.615 216.709C279.186 216.035 278.789 215.441 278.382 214.915C277.566 213.816 276.504 212.922 275.282 212.305C275.082 212.205 274.882 212.105 274.659 212.005C274.436 211.905 274.204 211.805 273.959 211.715C272.992 211.43 272.004 211.225 271.003 211.102C270.384 210.994 269.794 210.755 269.274 210.402C268.005 209.294 267.139 207.796 266.812 206.143C266.526 204.553 266.696 202.914 267.302 201.416C268.07 199.896 269.293 199.822 270.467 198.773C271.822 197.566 271.896 196.718 273.832 196.514C275.323 196.349 276.732 196.349 278.191 196.136C278.414 193.526 283.354 197.143 284.354 197.391H284.88C284.881 197.46 284.867 197.528 284.838 197.591C284.792 197.686 284.753 197.784 284.722 197.885C286.035 197.766 285.077 195.949 284.783 194.862C284.737 194.715 284.71 194.563 284.702 194.41C284.702 192.687 286.144 191.877 286.283 190.199C286.444 188.208 285.754 187.337 287.335 185.63C288.5 184.557 289.57 183.386 290.535 182.13C292.277 179.516 294.375 178.716 297.291 180.071C300.207 181.426 303.228 180.461 306.106 182.61C307.455 183.617 308.09 185.191 309.106 186.51C310.241 187.798 311.684 188.776 313.301 189.353C315.685 190.453 317.58 191.305 318.489 193.87C319.154 195.748 319.338 196.655 320.883 198.065C321.67 198.792 322.36 199.617 322.935 200.52C323.216 200.949 323.467 201.388 323.703 201.84C324.576 203.642 325.353 205.489 326.029 207.374C326.483 208.617 327.07 209.807 327.781 210.923C328.095 211.395 328.446 211.842 328.83 212.259L329.449 212.927C330.861 214.205 331.877 215.859 332.379 217.696C332.386 217.76 332.397 217.824 332.414 217.886C332.546 218.573 332.604 219.161 332.698 219.712C332.825 220.727 333.265 221.678 333.956 222.432C335.092 223.723 337.712 225.271 336.741 227.311Z" fill="#3C8F7C"/>
<path d="M333.853 226.427C333.317 224.791 329.981 224.149 328.539 222.968C327.913 222.458 327.203 221.952 326.448 221.452C326.512 221.382 326.581 221.317 326.655 221.258C327.392 220.802 328.209 220.491 329.062 220.342C330.03 220.09 331.53 220.055 332.715 219.726C333.265 219.607 333.769 219.332 334.167 218.935C333.738 218.386 333.119 218.016 332.431 217.899C330.031 217.46 326.713 219.567 324.826 220.422C323.032 219.322 321.144 218.28 319.596 217.357C318.888 216.927 318.196 216.497 317.521 216.066C318.972 215.015 320.64 214.305 322.403 213.988C323.639 213.698 327.533 213.665 329.466 212.939C329.862 212.828 330.212 212.594 330.466 212.271C331.14 211.203 329.601 210.919 327.798 210.935C326.398 210.955 325.002 211.095 323.626 211.354C320.838 212.025 317.434 214.142 314.533 214.048C312.042 212.296 309.654 210.463 307.157 208.601C307.389 208.278 307.609 207.927 307.802 207.672C308.456 206.673 309.406 205.904 310.519 205.472C312.01 204.807 313.519 204.236 315.088 203.672C316.506 203.298 317.96 203.082 319.425 203.027C320.27 202.901 322.858 202.788 323.462 202.162C323.559 202.063 323.647 201.955 323.723 201.839C324.21 201.12 323.687 200.716 322.955 200.519C322.49 200.398 322.01 200.342 321.529 200.351C318.466 200.508 315.474 201.331 312.762 202.765C310.268 203.994 307.177 206.44 304.273 206.482C301.921 204.869 299.11 203.901 296.51 202.665C299.937 195.928 307.89 193.198 314.676 191.54C313.866 186.229 297.517 196.925 294.326 201.497C293.642 201.087 292.994 200.618 292.39 200.097C291.457 199.281 290.635 198.338 289.738 197.48C289.915 196.576 290.232 195.705 290.677 194.899C291.521 193.392 292.532 191.985 293.691 190.704C295.984 188.458 298.497 186.448 301.191 184.704C305.14 181.904 301.643 180.067 298.558 182.165C295.988 184.062 293.738 186.358 291.892 188.965C290.234 191.298 289.53 193.921 287.342 195.702C286.581 195.198 285.699 194.907 284.787 194.857C284.387 194.934 284.261 195.312 284.687 196.202C284.727 196.658 284.869 197.099 285.103 197.493L284.838 197.593C283.937 197.952 283.073 198.397 282.257 198.922C280.853 199.821 279.525 200.834 278.288 201.952C275.314 204.523 272.846 207.628 271.012 211.106C270.254 212.5 269.918 214.084 270.044 215.665C270.935 216.091 272.809 214.232 274.681 212.009C275.065 211.554 275.449 211.083 275.826 210.609C277.388 208.654 278.804 206.714 279.469 205.979C279.941 205.464 280.454 204.989 281.005 204.559C283.177 202.973 285.486 201.585 287.905 200.41C289.417 201.547 291.011 202.572 292.674 203.475C291.383 207.311 289.515 211.083 288.941 215.168C288.757 216.491 288.341 218.759 288.212 221.047C288.054 223.861 288.328 226.7 289.987 227.839C291.058 226.965 291.458 224.958 291.639 222.747C291.855 220.069 291.739 217.091 292.091 215.458C292.781 211.853 294.191 208.423 296.237 205.375C298.605 206.604 301.019 207.805 303.4 209.07C303.268 213.087 301.545 216.814 301.829 221.041C301.983 223.624 302.58 226.161 303.594 228.541C303.953 229.362 304.498 230.089 305.185 230.664C305.421 230.036 305.525 229.366 305.492 228.696C305.563 223.459 302.817 211.453 305.621 210.285C307.267 211.201 308.88 212.163 310.435 213.185C311.5 213.895 312.535 214.653 313.565 215.444C312.255 219.722 312.087 226.905 315.065 230.609C315.419 231.058 315.832 231.456 316.294 231.793C316.641 231.408 316.865 230.928 316.939 230.415C317.323 228.431 316.581 225.365 316.361 223.878C315.98 221.814 315.996 219.696 316.406 217.638C318.446 219.266 320.603 220.742 322.859 222.055C322.836 224.672 322.559 229.289 324.953 231.535C327.07 230.567 325.618 227.85 325.214 226.247C324.985 225.205 324.87 224.142 324.869 223.075C327.471 224.291 331.194 226.204 333.853 226.427ZM286.541 199.644L286.347 199.06L286.67 199.36C286.62 199.451 286.577 199.546 286.541 199.644Z" fill="#1F573B"/>
<path d="M276.226 125.744C276.226 125.744 275.532 146.575 292.195 143.103C308.858 139.631 333.495 96.233 331.428 92.768C329.361 89.303 317.192 84.437 296.016 88.251C274.84 92.065 251.216 110.473 254.009 118.451C258.862 132.339 276.226 125.744 276.226 125.744Z" fill="#327F6B"/>
<path d="M331.427 92.764C329.343 89.292 317.191 84.43 296.015 88.247C274.839 92.064 251.215 110.472 254.008 118.447C258.025 129.927 270.593 127.404 274.82 126.191C275.707 125.936 276.227 125.739 276.227 125.739C276.227 125.739 276.204 126.446 276.272 127.578C276.562 132.589 278.605 145.928 292.195 143.095C308.862 139.63 333.508 96.232 331.427 92.764ZM326.535 96.104C325.975 96.5158 325.353 96.837 324.693 97.056C322.985 97.9824 321.483 99.2447 320.276 100.767C318.505 102.916 318.195 105.452 317.482 107.795C317.421 108.001 317.356 108.205 317.282 108.405C316.756 110.174 315.629 111.704 314.097 112.732C312.754 113.502 311.64 114.616 310.87 115.959C310.539 116.61 310.28 117.295 310.096 118.001C310.028 118.249 309.961 118.511 309.896 118.785C309.652 120.15 309.057 121.427 308.17 122.492C306.731 123.992 304.698 124.454 303.617 126.399C303.585 126.454 303.552 126.512 303.523 126.573C303.194 127.463 302.966 128.388 302.845 129.329C302.731 129.953 302.434 130.529 301.993 130.984C300.919 132.01 299.008 132.155 297.708 132.636C296.335 133.102 295.098 133.9 294.108 134.959C293.966 135.118 293.84 135.291 293.734 135.475C293.55 135.844 293.255 136.146 292.892 136.34C292.547 136.54 292.166 136.827 291.756 137.079C290.591 137.795 289.175 138.212 287.761 135.45C287.596 135.101 287.527 134.714 287.561 134.33C287.608 133.88 287.585 133.424 287.493 132.981C287.199 131.987 286.57 131.729 285.76 131.171C284.544 130.335 282.675 129.371 282.553 127.735C282.488 126.867 283.815 123.863 282.092 124.035L280.392 122.799C280.369 121.705 279.714 121.308 278.779 121.263C276.979 121.176 274.171 122.444 273.139 122.492C271.132 122.592 270.839 121.056 269.422 120.292C268.005 119.528 265.892 120.092 264.447 119.14C259.51 115.897 267.654 112.04 268.626 109.818C269.052 108.85 268.926 107.743 269.552 106.766C269.59 106.703 269.631 106.643 269.675 106.585C270.243 105.876 270.934 105.275 271.714 104.81C273.045 103.987 274.508 103.4 276.038 103.074C277.377 102.976 278.699 102.713 279.974 102.293C280.556 102.015 281.099 101.66 281.587 101.238C282.267 100.641 282.913 100.007 283.523 99.338C284.243 98.526 285.055 97.8004 285.943 97.176C288.042 95.9535 290.405 95.2542 292.832 95.137C293.532 95.056 294.232 94.985 294.939 94.898L295.223 94.866C298.45 94.456 300.892 92.146 303.935 91.426C304.106 91.381 304.28 91.345 304.455 91.316C304.75 91.2659 305.047 91.2325 305.346 91.216C306.955 91.2012 308.561 91.3669 310.134 91.71C310.289 91.736 310.457 91.758 310.602 91.778C311.057 91.839 311.515 91.888 311.973 91.933C313.38 92.075 314.793 92.172 316.193 92.365C318.826 92.733 321.43 92.278 324.027 92.801C324.137 92.82 324.25 92.843 324.35 92.869C325.054 93.0258 325.715 93.3354 326.286 93.776C326.481 93.8922 326.646 94.0522 326.769 94.2433C326.891 94.4345 326.968 94.6515 326.992 94.8773C327.016 95.103 326.987 95.3313 326.908 95.5441C326.829 95.7568 326.701 95.9482 326.535 96.103V96.104Z" fill="#3C8F7C"/>
<path d="M326.293 92.858C326.319 92.535 325.37 92.568 324.034 92.797C321.232 93.2685 318.496 94.0666 315.88 95.175C315.28 95.559 312.44 96.317 311.818 96.817C311.495 97.256 311.731 96.646 311.712 96.591C311.53 95.8522 311.491 95.0856 311.596 94.332C311.638 93.622 311.854 92.786 311.98 91.932C312.165 91.1787 312.099 90.3857 311.793 89.673C311.366 89.8415 310.989 90.1174 310.7 90.4741C310.41 90.8308 310.218 91.2561 310.141 91.709C309.67 93.645 310.341 96.339 310.522 97.898C309.122 99.108 307.734 100.408 306.544 101.447C305.999 101.928 305.453 102.389 304.905 102.838C304.415 101.34 304.268 99.7506 304.476 98.188C304.583 96.897 305.967 92.635 305.354 91.209C305.321 91.1224 305.274 91.0417 305.215 90.97C304.754 90.421 304.321 90.728 303.944 91.422C303.255 93.026 302.803 94.7218 302.602 96.456C302.415 98.97 303.27 102.393 302.408 104.8C300.269 106.413 298.091 107.92 295.858 109.508C295.639 109.224 295.413 108.95 295.251 108.721C294.595 107.902 294.209 106.899 294.147 105.851C293.992 104.425 293.921 103.005 293.873 101.54C293.944 100.252 294.15 98.9746 294.486 97.729C294.708 96.7952 294.867 95.8479 294.964 94.893C294.989 94.6284 294.951 94.3615 294.851 94.115C294.057 92.634 293.199 94.115 292.857 95.131C292.841 95.17 292.831 95.208 292.818 95.247C292.125 97.8573 292.009 100.587 292.479 103.247C292.853 105.67 294.057 108.926 293.308 111.365C291.401 113.048 289.632 114.882 288.02 116.85C283.48 112.333 283.18 105.328 283.548 99.35L283.596 98.64C282.331 98.44 281.744 99.505 281.618 101.247C281.295 105.938 284.286 115.522 286.458 118.367C285.93 118.829 285.363 119.244 284.764 119.609C283.828 120.17 282.828 120.609 281.864 121.126C281.156 120.733 280.513 120.234 279.957 119.645C278.973 118.532 276.488 117.486 275.782 116.17C274.356 113.518 273.436 109.37 272.555 106.526C272.379 105.92 272.111 105.344 271.761 104.819C270.645 103.219 269.328 104.045 269.599 106.774C269.65 107.263 269.735 107.749 269.854 108.226C270.807 111.433 272.238 114.479 274.097 117.261C275.288 118.855 277.485 119.842 278.827 121.281C279.212 121.678 279.518 122.144 279.727 122.656C277.352 123.73 276.578 124.721 276.733 125.318C276.769 125.431 276.832 125.534 276.917 125.618C277.002 125.701 277.106 125.762 277.22 125.796C277.48 125.884 277.756 125.92 278.03 125.902C278.913 125.676 279.776 125.379 280.611 125.015C280.669 127.725 283.928 131.501 287.581 134.35C288.895 135.388 290.299 136.308 291.776 137.099C293.931 138.232 295.832 138.738 296.848 138.17C297.355 137.631 295.812 136.621 293.754 135.495C290.854 133.895 286.894 132.062 286.278 130.995C285.014 128.656 284.177 126.11 283.806 123.477C285.162 122.514 286.445 121.453 287.647 120.303C290.515 122.41 293.171 124.998 296.44 126.582C298.494 127.691 300.643 128.615 302.861 129.344C304.61 129.831 306.275 129.944 307.333 129.121C306.901 128.014 305.397 127.15 303.633 126.414C301.42 125.488 298.833 124.765 297.533 124.02C294.699 122.47 292.206 120.365 290.202 117.831C291.87 116.176 293.529 114.479 295.229 112.831C298.559 114.022 301.208 116.467 304.835 117.371C306.562 117.797 308.335 118.013 310.114 118.016C311.399 118.086 312.677 117.786 313.796 117.151C312.924 116.558 311.935 116.156 310.896 115.973C305.988 114.705 297.051 113.714 296.847 111.291C298.06 110.162 299.302 109.068 300.59 108.045C301.471 107.345 302.39 106.68 303.317 106.028C306.808 108.461 313.497 110.687 317.311 108.422C317.458 108.338 317.6 108.245 317.737 108.145C317.675 108.028 317.598 107.919 317.508 107.822C316.324 106.464 312.684 106.209 311.123 105.963C309.293 105.72 307.525 105.137 305.909 104.243C307.825 102.971 309.645 101.56 311.352 100.019C313.536 100.745 317.331 102.219 319.857 100.819C319.628 98.789 316.957 99.267 315.498 99.173C314.822 99.1635 314.152 99.0446 313.514 98.821C315.069 97.172 325.081 96.021 326.32 93.794C326.4 93.6499 326.439 93.487 326.435 93.3223C326.43 93.1577 326.381 92.9973 326.293 92.858Z" fill="#1F573B"/>
<path d="M234.012 145.742C233.988 145.568 233.936 145.399 233.857 145.242C233.924 145.403 233.976 145.571 234.012 145.742Z" fill="#3C8F7C"/>
<path d="M269.911 145.403C269.237 144.302 268.46 143.267 267.591 142.312C264.587 138.941 260.492 136.736 256.024 136.085C239.358 133.785 236.835 139.221 236.835 139.221C236.835 139.221 221.073 125.347 214.2 140.702C207.327 156.057 218.017 199.446 228.442 201.214C235.718 202.453 252.042 191.534 262.642 179.538C264.285 177.673 265.818 175.715 267.233 173.672C268.735 171.554 270.009 169.282 271.033 166.896C274.399 158.732 273.39 151.085 269.911 145.403ZM257.273 168.561C255.721 170.019 254.195 170.307 253.743 172.388C253.327 174.324 255.169 174.495 253.714 176.583C253.508 176.873 253.262 177.132 252.982 177.351C252.462 177.736 251.892 178.047 251.288 178.277C250.069 178.662 248.9 179.191 247.806 179.852C246.431 180.885 246.135 181.74 245.186 183.275C244.696 184.069 244.218 184.924 243.718 185.756C243.339 186.395 242.916 187.008 242.453 187.589C241.803 188.424 240.979 189.109 240.039 189.596C239.394 189.919 239 188.541 238.277 188.909C237.277 189.416 236.664 190.79 235.877 191.603L235.793 191.69C235.361 192.119 234.854 192.639 234.306 193.155C233.448 194.053 232.418 194.77 231.279 195.265C231.002 195.358 230.72 195.437 230.434 195.501C227.188 196.233 228.821 193.32 228.124 190.601C228.099 190.492 228.068 190.384 228.03 190.278C227.822 189.668 227.534 189.088 227.172 188.555C226.817 188.003 226.404 187.468 225.998 186.942C224.944 185.812 224.221 184.413 223.911 182.899C223.788 181.57 224.931 180.605 224.695 179.317C224.643 179.02 224.551 178.731 224.421 178.459C224.16 177.951 223.822 177.487 223.421 177.081C223.211 176.842 222.989 176.6 222.776 176.329C220.434 173.348 218.976 173.029 219.711 169.253L219.75 169.059C219.989 167.849 220.221 166.904 220.344 166.016C220.586 164.367 220.336 162.683 219.625 161.176L219.302 160.376C218.884 159.434 218.56 158.454 218.334 157.449C218.115 156.063 218.329 154.643 218.947 153.383C219.321 152.454 220.425 151.344 220.441 150.327C220.46 149.107 219.102 148.427 218.996 147.165C218.977 146.942 218.967 146.733 218.964 146.539C218.874 142.745 221.394 144.016 223.833 145.061C227.657 146.7 226.143 145.222 228.292 143.596C228.571 143.387 228.866 143.201 229.176 143.041C229.557 142.846 229.973 142.728 230.4 142.697C230.826 142.665 231.255 142.719 231.661 142.856C232.066 142.993 232.44 143.21 232.76 143.494C233.081 143.777 233.341 144.123 233.525 144.509L235.138 146.122C235.671 146.257 236.218 146.327 236.767 146.332H237.003C237.839 146.273 238.643 145.987 239.329 145.506C240.245 144.843 241.215 144.258 242.229 143.757C245.014 142.495 245.985 143.757 248.469 144.018C250.524 144.241 252.315 143.011 254.493 143.573C255.621 143.855 256.626 144.494 257.36 145.395C258.094 146.297 258.515 147.412 258.562 148.573C258.595 149.262 258.504 149.952 258.294 150.609C258.42 150.641 258.539 150.677 258.659 150.709C263.547 152.145 263.615 154.658 261.866 158.724C261.792 158.901 261.718 159.076 261.653 159.247C260.924 161.099 260.653 162.716 260.104 164.268C259.847 165.03 259.503 165.76 259.078 166.443L258.849 166.795C258.387 167.437 257.858 168.029 257.273 168.561Z" fill="#3C8F7C"/>
<path d="M262.264 148.73C260.618 148.278 258.682 148.656 256.969 148.575C252.978 148.381 250.216 146.136 246.505 145.061C243.005 144.051 239.805 145.261 236.722 146.413C237.077 145.292 237.302 144.134 237.393 142.961L236.341 142.083C234.883 142.273 234.053 144 233.553 145.89C232.666 145.49 231.772 144.674 230.91 144.361C229.499 143.834 228.029 143.484 226.532 143.316C223.744 142.993 220.65 142.448 217.775 142.784C214.016 143.226 214.375 146.065 217.949 146.462C220.876 146.785 223.87 146.11 226.706 146.823C228.565 147.291 231.488 148.036 232.875 149.746C232.846 149.975 232.817 150.188 232.794 150.369C232.635 151.663 232.591 152.968 232.662 154.269C230.081 154.963 227.648 156.205 224.918 156.441C221.518 156.735 217.287 156.922 214.625 159.597C213.573 160.652 214.057 161.533 215.674 161.697C217.574 161.904 219.346 160.097 220.974 159.455C224.062 158.389 227.307 157.844 230.574 157.842C231.366 157.738 232.164 157.696 232.962 157.716C233.133 159.255 233.327 160.801 233.446 162.33C231.11 163.185 228.374 163.646 226.025 164.266C223.273 164.952 220.576 165.846 217.958 166.938C217.335 167.209 214.731 168.145 215.541 169.355C216.099 170.197 219.174 169.245 219.855 169.003C222.601 168.035 225.321 166.173 228.128 165.403C229.167 165.208 230.224 165.135 231.28 165.184C231.806 165.161 232.335 165.184 232.855 165.145C233.093 165.117 233.328 165.064 233.555 164.987C233.518 168.024 233.18 171.051 232.548 174.022C231.47 174.382 230.453 174.903 229.531 175.568C228.213 176.205 226.793 176.603 225.336 176.746C223.59 177.033 219.225 177.604 218.199 179.421C217.379 180.876 218.767 181.434 220.08 181.096C221.655 180.696 222.542 179.028 224.11 178.537C226.462 177.805 229.166 177.924 231.68 177.811C231.051 180.27 230.328 182.719 229.608 185.197C228.208 186.252 226.352 186.697 224.808 187.456C222.914 188.372 222.285 188.708 222.382 190.928C223.737 191.141 224.944 189.637 226.073 189.073C226.831 188.686 227.964 188.237 228.79 187.918C227.966 190.136 227.438 192.454 227.222 194.81C227.19 195.749 227.348 198.253 229.016 197.966C230.032 197.792 230.494 195.327 230.723 194.459C231.239 192.491 231.555 190.559 231.93 188.596C232.879 189.918 233.651 191.36 234.224 192.884C234.566 193.665 236.079 197.475 237.08 195.684C238.048 193.948 234.18 188.856 232.308 186.756C232.463 186.056 232.631 185.356 232.827 184.649C233.501 182.249 234.063 179.87 234.608 177.46C237.076 178.405 239.148 181.332 240.416 183.591C241.336 185.204 243.146 190.218 245.437 190.044C245.837 187.395 241.849 183.744 240.691 181.529C239.91 180.042 237.106 175.829 235.025 175.505C235.048 175.411 235.067 175.318 235.09 175.221C235.735 172.375 236.526 170.094 236.529 167.121C236.529 166.366 236.529 165.592 236.497 164.811C238.263 165.515 239.924 166.457 241.434 167.611C243.606 169.286 244.983 171.318 246.734 173.419C248.163 175.148 249.851 176.697 251.38 178.333C252.329 179.346 254.197 182.763 255.597 182.676C256.004 180.069 253.574 177.836 251.897 176.265C250.22 174.694 248.954 172.716 247.218 171.102C245.137 169.301 243.147 167.396 241.258 165.394C239.972 163.845 238.273 162.693 236.358 162.071C236.274 160.871 236.158 159.671 236 158.522C235.935 158.057 235.881 157.583 235.832 157.105C238.704 157.311 241.453 157.15 244.241 158.56C246.041 159.47 247.584 160.928 249.326 161.854C250.88 162.482 252.469 163.021 254.085 163.467C256.982 164.611 259.545 166.465 261.538 168.859C262.419 169.895 263.345 171.34 264.248 169.382C264.955 167.849 263.406 166.449 262.28 165.536C260.16 163.816 257.763 163.568 255.272 162.729C252.691 161.864 250.787 159.993 248.264 158.918C244.15 157.166 240.091 154.756 235.645 154.481C235.586 153.026 235.661 151.569 235.868 150.128C237.275 149.728 239.32 148.812 240.246 148.579C242.229 148.02 244.316 147.934 246.338 148.327C249.971 149.047 253.32 150.056 257.021 150.466C258.503 150.57 259.964 150.88 261.361 151.386C262.193 151.725 264.523 153.128 265.261 151.876C266.027 150.592 263.127 148.969 262.264 148.73Z" fill="#1F573B"/>
<path d="M215.217 241.579C210.129 238.827 215.159 236.113 218.582 235.148C222.97 233.915 227.682 233.667 232.134 232.848C236.01 231.987 239.809 230.81 243.492 229.328C246.699 228.179 251.123 227.228 254.379 228.15C255.279 228.364 256.096 228.839 256.727 229.515C257.358 230.191 257.776 231.038 257.928 231.95C258.351 233.683 257.438 235.341 257.967 236.829L258.29 236.184C270.19 235.539 263.072 251.027 254.663 251.746C245.025 252.556 236 247.89 227.182 245.26C223.39 244.147 218.711 243.467 215.217 241.579Z" fill="#3C8F7C"/>
<path d="M227.478 237.391C228.614 236.771 230.566 236.746 231.837 236.465C234.896 235.82 237.261 236.552 240.313 236.584C246.444 236.649 253.839 231.202 259.013 236.071C258.962 236.237 258.895 236.397 258.813 236.549L259.645 237.765C260.726 240.611 256.883 242.092 254.712 242.076C253.169 241.907 251.611 241.922 250.072 242.121C248.407 242.499 247.1 243.244 245.303 243.07C242.17 242.77 239.647 241.534 236.688 240.721C233.888 239.953 230.68 240.811 228.012 240.092C226.268 239.621 225.865 238.266 227.478 237.391Z" fill="#327F6B"/>
<path d="M73.048 269.118C80.595 258.018 98.993 252.498 101.12 241.869C103.247 231.24 96.125 221.135 91.02 220.041C87.471 224.055 81.253 229.827 77.036 241.041C72.819 252.255 72.161 268.008 73.048 269.118Z" fill="#327F6B"/>
<path d="M60.1749 272.08C59.7299 259.58 56.18 256.031 52.405 244.931C48.63 233.831 43.305 228.307 33.981 221.638C24.657 214.969 11.125 211.165 7.34795 216.156C3.57095 221.147 2.68195 235.156 20.887 250.465C37.534 263.568 47.755 260.819 60.1749 272.08Z" fill="#3C8F7C"/>
<path d="M59.204 287.168C54.761 293.647 40.322 302.533 31.804 310.587C24.954 316.787 13.848 314.433 7.18196 313.113C0.515962 311.793 -2.99604 302.091 3.29596 292.502C9.58796 282.913 22.549 277.911 36.621 280.318C50.693 282.725 56.987 283.096 59.204 287.168Z" fill="#327F6B"/>
<path d="M3.13095 308.67L2.72095 308.244C7.31195 303.833 18.2699 297.715 29.9829 293.027C43.1119 287.771 53.7889 285.527 59.2769 286.896H59.3159L59.3479 286.915C61.6999 288.206 64.0199 291.197 65.8849 295.288C67.4651 298.606 68.3783 302.201 68.5729 305.871H67.9829C67.9829 299.94 63.8049 290.103 59.0969 287.45C47.1839 284.564 12.4619 299.707 3.13095 308.67Z" fill="#1F573B"/>
<path d="M64.685 310.871L64.098 310.826C64.117 310.558 66.018 283.926 59.903 272.219C49.084 254.66 29.127 233.89 7.83496 218.034L8.18696 217.553C29.54 233.454 49.555 254.283 60.426 271.91V271.929C66.618 283.79 64.707 310.6 64.685 310.871Z" fill="#1F573B"/>
<path d="M73.11 313.181L72.758 310.893C72.716 310.632 68.799 284.68 72.758 269.044C74.387 262.629 78.058 256.783 81.622 251.156C86.352 243.656 91.241 235.897 91.622 226.479L92.212 226.502C91.828 236.079 86.895 243.902 82.122 251.47C78.592 257.07 74.94 262.87 73.336 269.191C70.08 282.033 72.187 301.941 73.036 308.572C73.797 303.142 76.263 289.399 82.271 283.12L82.697 283.53C75.414 291.135 73.362 310.682 73.34 310.879L73.11 313.181Z" fill="#1F573B"/>
<path d="M23.755 230.924C23.216 230.843 10.526 228.972 7.82196 226.729L8.19996 226.277C10.781 228.423 23.71 230.333 23.839 230.352L23.755 230.924Z" fill="#1F573B"/>
<path d="M19.6 238.358C17.2545 238.428 14.9082 238.251 12.6 237.829L12.742 237.255C17.304 238.394 31.134 237.255 31.263 237.255L31.311 237.842C30.938 237.881 24.965 238.358 19.6 238.358Z" fill="#1F573B"/>
<path d="M33.178 239.704C33.178 239.578 31.458 227.191 29.951 223.271L30.5 223.058C32.049 227.043 33.727 239.11 33.778 239.623L33.178 239.704Z" fill="#1F573B"/>
<path d="M44.383 251.546C44.383 251.407 42.999 237.594 41.689 232.79L42.257 232.635C43.58 237.475 44.957 251.349 44.971 251.488L44.383 251.546Z" fill="#1F573B"/>
<path d="M52.563 261.529C48.285 259.706 36.482 259.964 36.363 259.967V259.377C36.85 259.377 48.411 259.116 52.819 260.99L52.563 261.529Z" fill="#1F573B"/>
<path d="M79.518 254.66C79.466 254.253 78.305 244.66 78.75 240.682L79.334 240.747C78.902 244.661 80.089 254.489 80.102 254.589L79.518 254.66Z" fill="#1F573B"/>
<path d="M86.83 242.201C85.6866 237.932 85.3582 233.485 85.862 229.094L86.449 229.171C85.9596 233.48 86.288 237.842 87.417 242.029L86.83 242.201Z" fill="#1F573B"/>
<path d="M91.457 231.667L91.157 231.157C93.2459 229.898 95.078 228.256 96.557 226.317L97.041 226.64C95.5231 228.662 93.6266 230.369 91.457 231.667Z" fill="#1F573B"/>
<path d="M85.981 244.996L85.829 244.425C85.871 244.425 90.075 243.209 96.574 235.436L97.026 235.814C90.382 243.761 86.152 244.951 85.981 244.996Z" fill="#1F573B"/>
<path d="M76.94 259.945L76.827 259.367C76.908 259.351 85.165 257.683 89.927 252.491L90.363 252.891C85.465 258.228 77.027 259.928 76.94 259.945Z" fill="#1F573B"/>
<path d="M30.556 308.545L29.988 308.38C30.156 307.793 34.215 293.98 40.455 289.343L40.81 289.817C34.726 294.328 30.593 308.399 30.556 308.545Z" fill="#1F573B"/>
<path d="M44.7579 288.71C44.0579 288.636 27.5579 286.848 22.0229 282.579L22.381 282.111C27.781 286.27 44.6449 288.096 44.8189 288.111L44.7579 288.71Z" fill="#1F573B"/>
<path d="M20.568 296.419C15.534 296.419 9.40097 295.064 4.69897 293.773L4.85397 293.205C13.243 295.505 19.903 296.315 24.091 295.541L24.197 296.122C22.9988 296.331 21.7842 296.431 20.568 296.419Z" fill="#1F573B"/>
<path d="M15.909 309.442L15.328 309.329C16.1781 305.333 17.539 301.462 19.377 297.813L19.9 298.091C18.0871 301.687 16.7457 305.502 15.909 309.442Z" fill="#1F573B"/>
<path d="M10.136 309.425L9.552 309.341C9.933 306.679 11.081 303.026 12.708 301.297L13.137 301.704C11.598 303.339 10.504 306.857 10.136 309.425Z" fill="#1F573B"/>
<path d="M91.988 345.14H45.888L38.333 305.798H99.548L91.988 345.14Z" fill="#124647"/>
<path d="M84.709 277.801C76.546 281.801 75.158 291.014 81.937 304.201C88.716 317.388 93.337 324.161 105.959 320.773C118.581 317.385 117.204 306.418 113.059 298.041C108.914 289.664 96.106 272.974 84.709 277.801Z" fill="#3C8F7C"/>
<path d="M107.125 316.03C106.438 314.723 105.544 312.89 104.511 310.767C99.526 300.545 90.253 281.518 82.851 279.091L83.035 278.53C90.676 281.037 99.668 299.487 105.041 310.509C106.074 312.629 106.977 314.458 107.648 315.755L107.125 316.03Z" fill="#1F573B"/>
<path d="M99.636 285.525C96.0994 285.404 92.5845 284.922 89.146 284.086L89.288 283.512C89.388 283.538 99.12 285.912 103.35 284.461L103.544 285.019C102.277 285.394 100.957 285.565 99.636 285.525Z" fill="#1F573B"/>
<path d="M84.464 302.611L83.8929 302.479C85.3916 295.408 86.156 288.202 86.174 280.974H86.7639C86.7411 288.246 85.9704 295.497 84.464 302.611Z" fill="#1F573B"/>
<path d="M92.902 312.878L92.328 312.746C92.357 312.623 95.184 300.369 94.587 291.879L95.174 291.837C95.78 300.417 92.928 312.755 92.902 312.878Z" fill="#1F573B"/>
<path d="M112.891 303.704C112.504 303.636 103.327 301.981 98.455 298.704L98.778 298.214C103.547 301.441 112.894 303.114 112.978 303.128L112.891 303.704Z" fill="#1F573B"/>
<path d="M113.946 307.512C113.872 307.512 106.421 306.902 101.056 303.64L101.356 303.133C106.606 306.311 113.917 306.902 113.988 306.908L113.946 307.512Z" fill="#1F573B"/>
<path d="M102.537 318.573L101.995 318.344C102.789 316.456 103.544 308.755 103.55 308.664L104.137 308.722C104.108 309.054 103.366 316.611 102.537 318.573Z" fill="#1F573B"/>
<defs>
<linearGradient id="paint0_linear" x1="208.089" y1="154.49" x2="264.829" y2="154.49" gradientUnits="userSpaceOnUse">
<stop stop-color="#FF9836"/>
<stop offset="1" stop-color="#FF774A"/>
</linearGradient>
<linearGradient id="paint1_linear" x1="126.453" y1="199.764" x2="228.246" y2="199.764" gradientUnits="userSpaceOnUse">
<stop stop-color="#FF9836"/>
<stop offset="1" stop-color="#FF774A"/>
</linearGradient>
<linearGradient id="paint2_linear" x1="78.579" y1="154.755" x2="155.779" y2="154.755" gradientUnits="userSpaceOnUse">
<stop stop-color="#FF774A"/>
<stop offset="1" stop-color="#FF9836"/>
</linearGradient>
<linearGradient id="paint3_linear" x1="128.027" y1="284.478" x2="227.187" y2="284.478" gradientUnits="userSpaceOnUse">
<stop stop-color="#D95733"/>
<stop offset="0.29" stop-color="#DB662A"/>
<stop offset="0.65" stop-color="#DD7322"/>
<stop offset="1" stop-color="#DE7720"/>
</linearGradient>
<linearGradient id="paint4_linear" x1="128.03" y1="284.485" x2="227.19" y2="284.485" gradientUnits="userSpaceOnUse">
<stop stop-color="#D95733"/>
<stop offset="0.29" stop-color="#DB662A"/>
<stop offset="0.65" stop-color="#DD7322"/>
<stop offset="1" stop-color="#DE7720"/>
</linearGradient>
</defs>
</svg>
