<svg width="23" height="23" viewBox="0 0 23 23" fill="none" xmlns="http://www.w3.org/2000/svg">
<circle cx="11.5" cy="11.5" r="11.5" fill="#F4E0D7"/>
<path d="M17.25 6.74996V7.91663C17.25 10.1718 15.4218 12 13.1666 12H12.5833V12.5833H15.5V16.6666C15.5 17.3112 14.9779 17.8333 14.3333 17.8333H9.66663C9.02204 17.8333 8.49996 17.3112 8.49996 16.6666V12.5833H11.4166V10.8333C11.4166 8.57813 13.2448 6.74996 15.5 6.74996H17.25ZM8.20829 6.16663C9.68354 6.16663 10.9879 6.89638 11.7806 8.01521C11.1856 8.79746 10.8333 9.77454 10.8333 10.8333V11.4166H10.5416C8.12546 11.4166 6.16663 9.45779 6.16663 7.04163V6.16663H8.20829Z" fill="#D8B3A3"/>
</svg>
