<svg width="36" height="56" viewBox="0 0 36 56" fill="none" xmlns="http://www.w3.org/2000/svg">
<path d="M17.768 0C17.768 0 35.537 29.482 35.537 37.252C35.5546 39.5966 35.108 41.9215 34.2229 44.0927C33.3378 46.2639 32.0318 48.2385 30.3801 49.9027C28.7284 51.5668 26.7637 52.8876 24.5992 53.7889C22.4347 54.6903 20.1132 55.1543 17.7685 55.1543C15.4238 55.1543 13.1023 54.6903 10.9378 53.7889C8.77331 52.8876 6.80858 51.5668 5.15688 49.9027C3.50517 48.2385 2.19915 46.2639 1.31408 44.0927C0.429016 41.9215 -0.0175928 39.5966 -3.49799e-06 37.252C0.0049965 29.484 17.768 0 17.768 0Z" fill="#65CCB7"/>
<path d="M29.783 36.49C29.7825 37.1016 29.7431 37.7125 29.665 38.319L29.73 37.819C29.5654 39.0497 29.2386 40.2532 28.758 41.398L28.948 40.95C28.6035 41.7627 28.1844 42.5417 27.696 43.277C27.573 43.46 27.446 43.638 27.315 43.813C27.039 44.184 27.565 43.513 27.36 43.76L27.152 44.01C26.8747 44.3434 26.58 44.6674 26.268 44.982C25.96 45.29 25.634 45.582 25.299 45.864L25.049 46.072C24.799 46.272 25.472 45.754 25.102 46.027C24.927 46.157 24.746 46.277 24.566 46.408C23.831 46.8968 23.0519 47.316 22.239 47.66L22.687 47.47C21.5421 47.9509 20.3387 48.2784 19.108 48.444L19.608 48.376C19.0014 48.4537 18.3905 48.4938 17.779 48.496C17.5287 48.4903 17.2797 48.5346 17.0467 48.6264C16.8138 48.7182 16.6015 48.8556 16.4224 49.0306C16.2433 49.2056 16.101 49.4147 16.0039 49.6455C15.9067 49.8762 15.8567 50.1241 15.8567 50.3745C15.8567 50.6249 15.9067 50.8728 16.0039 51.1036C16.101 51.3344 16.2433 51.5434 16.4224 51.7184C16.6015 51.8934 16.8138 52.0309 17.0467 52.1227C17.2797 52.2145 17.5287 52.2588 17.779 52.253C20.9923 52.2546 24.1289 51.2711 26.766 49.435C29.4468 47.5439 31.49 44.8831 32.625 41.805C33.2422 40.0977 33.5559 38.2955 33.552 36.48C33.5578 36.2297 33.5135 35.9807 33.4216 35.7478C33.3298 35.5148 33.1924 35.3025 33.0174 35.1234C32.8424 34.9444 32.6333 34.8021 32.4026 34.7049C32.1718 34.6077 31.9239 34.5577 31.6735 34.5577C31.4231 34.5577 31.1752 34.6077 30.9444 34.7049C30.7137 34.8021 30.5046 34.9444 30.3296 35.1234C30.1546 35.3025 30.0172 35.5148 29.9253 35.7478C29.8335 35.9807 29.7892 36.2297 29.795 36.48L29.783 36.49Z" fill="#327F6B"/>
</svg>
