<svg xmlns="http://www.w3.org/2000/svg" xmlns:xlink="http://www.w3.org/1999/xlink" viewBox="0 0 1060.12 1103.62"><defs><style>.cls-1{fill:#215e4b;}.cls-2{fill:#124647;}.cls-3{fill:#f7a491;}.cls-4{fill:#f47458;}.cls-5{fill:url(#Gradiente_sem_nome_2);}.cls-6{fill:#50bfa5;}.cls-7{fill:url(#Gradiente_sem_nome_2-2);}.cls-8{fill:url(#Gradiente_sem_nome_7);}.cls-9{fill:#1f573b;}.cls-10{fill:#327f6b;}.cls-11{fill:#3c8f7c;}.cls-12{fill:#ff7415;}.cls-13{fill:url(#Gradiente_sem_nome_25);}.cls-14{fill:#6d3d0c;}.cls-15{fill:#fff;}</style><linearGradient id="Gradiente_sem_nome_2" x1="644.91" y1="477.56" x2="820.76" y2="477.56" gradientUnits="userSpaceOnUse"><stop offset="0" stop-color="#ff9836"/><stop offset="1" stop-color="#ff774a"/></linearGradient><linearGradient id="Gradiente_sem_nome_2-2" x1="391.89" y1="617.86" x2="707.38" y2="617.86" xlink:href="#Gradiente_sem_nome_2"/><linearGradient id="Gradiente_sem_nome_7" x1="243.53" y1="478.37" x2="482.79" y2="478.37" gradientUnits="userSpaceOnUse"><stop offset="0" stop-color="#ff774a"/><stop offset="1" stop-color="#ff9836"/></linearGradient><linearGradient id="Gradiente_sem_nome_25" x1="396.79" y1="880.43" x2="704.11" y2="880.43" gradientUnits="userSpaceOnUse"><stop offset="0" stop-color="#d95733"/><stop offset="0.29" stop-color="#db662a"/><stop offset="0.65" stop-color="#dd7322"/><stop offset="1" stop-color="#de7720"/></linearGradient></defs><g id="Camada_2" data-name="Camada 2"><g id="objects"><path class="cls-1" d="M387.56,579.41c14.77-18.91,19.13-44.65,16.54-68.8-2.75-24.26-11.06-47.09-19.5-69.88l4.79-4.43c18.39,7.46,36.5,14.26,56,16.64,19.28,2.14,40.09-1.47,55.46-13.37,15-12.11,23.1-30.34,27.7-49.43a175.37,175.37,0,0,0-7.17-106.7c-2.38-6.64-6.73-13.87-12.59-16.65a12.5,12.5,0,0,0-6.12-1.3c-7.84.06-13,7.55-17.77,14.11-17.87,26-43.16,45.79-71.85,58.17l-.41-.63c29.82-25.46,46.13-65.82,42-105.06-1.25-10.16-3.6-20.09-9.28-28.9-5.41-8.87-14.64-15.52-25-16.51l-.46,1.23a175,175,0,0,1-40.21,107.41c-6.42,7.61-15.32,15.6-25.6,14.88l.06-2.44c8.79-16.81,17.84-34.39,24.34-52.58,6.55-17.92,10.22-37.38,7.91-56.74-4-37.85-32.94-71.38-69.69-82-1.95-.45-3.76-.93-5.71-1.38l-.21,1C326,164.86,326.06,217.23,326,268.62c.35,6.5-.34,14.2-5.66,17.45-5.18,3.93-12.7,2.06-17.15-2.86-4.17-4.28-5.62-11.25-5.85-17.2l-.61-.16c6.6-34.91,5.67-71.68-9.36-103.53-15.21-33.38-46.84-59.93-83-62.71-1.89-.17-3.78-.35-5.2.37-2.34,2.49-1.39,5.71-.6,8.12,8.09,23.15,16.26,46.72,24.41,69.43,5,15.1,10.33,29.83,11.54,45.28,1,15.34-1.91,31.37-12.07,43.61l-.68.15a219.74,219.74,0,0,1-24.63-54c-4.24-13.54-7-28.24-12.72-41.32-5.44-13.15-14.91-25.74-28-31.15-15.17-6.41-32.2-3.16-48.23.74-19.37,5-38.46,10.69-57.32,17.46l-1,.2c-.21,15.46-.15,30.87,3.58,46.08S65.34,234,78.07,243c13.14,8.27,29.76,9.95,44.86,14,13.92,3.11,29.26,9.63,36,22.35l-1.64.34c-16.85-6.21-35.18-6.54-53.29-5.06-17.89,1.14-36,3.33-53.68,2-16.65-1.82-33.62-7.29-45.71-18.77a9.45,9.45,0,0,1-1.91-1.6L0,259.53C6.46,277.6,12.71,296,23.24,312.37c10.35,16.12,25.58,30.37,44.22,34.92,18.79,5.95,39.18,1.71,58.25-2.68,19.4-4.17,39.13-8.83,59-12.95,10-2.52,21.9-3.84,29.38,3.32-1.41,9.71-8.39,18-16.91,23.06-8.59,5.35-18.58,7.43-28.35,9.88-25.74,5.92-52.32,10.58-78.93,11-25.63.32-52.35-4-75.12-14.66l-.24.91c13.32,33.91,49.18,54.72,85.15,60.24,36,5.08,72.61-2.94,107.6-12.49,14.25-4.24,29-8.6,39.36-18.73,3.37-3.7,6.46-8.05,10.94-9.84,3.53-1.59,8.84-1.41,11.3,1.51l-1.13,2.8C236,438,179.65,471,120.74,473.25c-17.65.95-36.33-1-51-10.54a32.68,32.68,0,0,1-3.67-2.52L65.59,462c5.83,21.2,24.07,38.25,45,44.62,21,7.19,44.4,4.2,64.74-3.73C195.91,495,214,482,230.76,467.67a359.89,359.89,0,0,0,29-28.14c2.79-3.72,5.87-6.79,9.77-8.59,3.83-2.23,9-2.59,12.37.43l.65-.28c2.95,2.52,4.66,7.31,4.64,11.31.29,6.22-2.3,12.32-5.3,17.8-11.31,20.47-30.08,35.93-50.55,47.32-19.55,10.34-41.42,17.73-63.21,24.83l.39,1.2a62.11,62.11,0,0,0,39.66,26,64.79,64.79,0,0,0,46.28-9.47c17.62-11.36,28.14-30.82,37.37-49.58l-2.61-1.59c-1.59-7.67,5.75-15.61,13.8-16,8.25-.14,15.61,5.75,18.74,13.24,3.4,7.43,3.21,15.46,1,23.48-4.57,19.22-18,35.57-33.75,47.11-15.87,10.86-33.41,18.5-51.14,25.89,25.18,10.62,51.17,18.92,78.05,18.48C343.17,611,371.14,600.67,387.56,579.41ZM207,321.6c-11.34,1.07-20.93-2.51-21.35-8s8.27-11,19.64-11.92,21,2.91,21.58,8.36C227.32,315.67,218.37,320.67,207,321.6ZM303.25,328c-5.93-.34-12.81-5.33-13.32-11.22-.21-6.52,7.4-11.1,11.22-13.32,8.3-4.72,21.32-8,24.5-3.66C329.81,306.09,316.91,329.18,303.25,328Zm127.46,54.32a29.4,29.4,0,0,1-5.08-4.51c-1-.52-1.63-2.38-1.81-3.91a20.09,20.09,0,0,1,10.5-15.45,13.06,13.06,0,0,1,8.72-2c4.46,1.5,7.07,6.53,6.83,10.86a19.5,19.5,0,0,1-5.45,12.26c-1.65,2.35-3.94,4.39-6.76,4.55C435.19,384.69,433,383.72,430.71,382.34Z"/><path class="cls-1" d="M52.2,162.22c67.85,41.41,131.66,88.79,190,142.84,47.37,43.9,87,99,142.24,133.46,1.38.86,2.65-1.32,1.27-2.18-62.55-39-108.06-103.87-163.17-152.44C170,237.56,113.28,196.54,53.47,160c-1.39-.85-2.66,1.34-1.27,2.18Z"/><path class="cls-1" d="M203.91,102.07C263.29,142.58,261.23,241,245.7,302a1.26,1.26,0,0,0,2.43.67c16-63,17.53-161.5-42.94-202.75-1.35-.92-2.61,1.27-1.28,2.18Z"/><path class="cls-1" d="M315.24,116.78c60.43,77.16,56,179.17-10.89,250.41-1.11,1.18.67,3,1.79,1.78,67.93-72.3,72-175.91,10.89-254-1-1.27-2.78.52-1.79,1.79Z"/><path class="cls-1" d="M422.48,188.88c28.42,85.57-35.21,153.16-98.83,200-1.29.95,0,3.14,1.28,2.18,64.65-47.64,128.66-116.58,100-202.89-.51-1.54-2.95-.88-2.44.67Z"/><path class="cls-1" d="M355.53,415.67c39.8,7.18,82.93,5.2,114.79-22.74,37.87-33.21,29-84.4,40.45-128.69a1.26,1.26,0,0,0-2.43-.67c-9.19,35.53-3.2,76.58-23.34,108.57-27.39,43.54-82.62,49.43-128.8,41.09-1.59-.28-2.27,2.15-.67,2.44Z"/><path class="cls-1" d="M244.25,301.85c-24.66-17.5-40.88-22.91-68.59-10.06-25.48,11.82-47.14,23.61-76.18,24.58C52,318,28.56,290.74,4.78,255.84c-.91-1.34-3.1-.07-2.18,1.27C22,285.62,42.41,311.58,78.4,317.83,133.79,327.44,193.7,269.07,243,304c1.33.94,2.59-1.24,1.28-2.18Z"/><path class="cls-1" d="M24,375.67c37.63,17.26,75.37,33.12,117.7,27.38,48.64-6.6,90.21-36,129.29-63.51,1.32-.93.06-3.12-1.27-2.18-31.1,21.9-63.53,45.56-100.46,56.69-51.67,15.56-96.26,1.33-144-20.56-1.46-.67-2.75,1.51-1.27,2.18Z"/><path class="cls-1" d="M306.33,370c-52.84,62.93-150.8,160.43-235.75,91.84-1.25-1-3,.76-1.79,1.78,85.78,69.26,185.88-28.18,239.32-91.83,1-1.24-.73-3-1.78-1.79Z"/><path class="cls-1" d="M323,391c-3,35.93-21.94,73.84-43.59,102.49-24.85,32.9-61.82,36.13-100.16,36.5a1.27,1.27,0,0,0,0,2.53c37.1-.37,74.5-3,99.55-33.75,23.6-29,43.6-70.33,46.73-107.77.13-1.62-2.39-1.61-2.53,0Z"/><path class="cls-1" d="M358.81,418.58c5.82,40.13,28.93,87.55,5.21,125.74-23.47,37.78-72.33,42.12-112,45.22-1.61.12-1.63,2.65,0,2.52,38.08-3,82.34-6.93,108.51-38.68,32.51-39.44,7.1-91.76.76-135.47-.24-1.61-2.67-.92-2.44.67Z"/><path class="cls-1" d="M584.56,306.49l-2.56.22c-1.61.14-1.63,2.66,0,2.53l2.56-.22c1.61-.14,1.62-2.66,0-2.53Z"/><path class="cls-1" d="M229.78,311c-.63-7.15-12.72-11.78-27-10.52s-25.29,8.1-24.66,15.25,12.86,11.75,27,10.39C219.38,324.88,230.52,318,229.78,311ZM207,321.6c-11.34,1.07-20.93-2.51-21.35-8s8.27-11,19.64-11.92,21,2.91,21.58,8.36C227.32,315.67,218.37,320.67,207,321.6Z"/><path class="cls-1" d="M328.2,310.71c2.08-4.43,6.12-13.12,2.78-16.85-3.9-4.33-15.18.44-29.77,6.46C285,307,277,310.34,276.54,315.58c-.65,7.84,14.61,18.8,28.36,16.95C318.92,330.62,325.66,316.37,328.2,310.71Zm-38.27,6.09c-.21-6.52,7.4-11.1,11.22-13.32,8.3-4.72,21.32-8,24.5-3.66,4.16,6.27-8.74,29.36-22.4,28.2C297.32,327.68,290.44,322.69,289.93,316.8Z"/><path class="cls-1" d="M1043.13,263.94c.16-1.15.31-2.21.38-3.29.08-.58.09-1.24.17-1.82l-.9-.13c-41.33,19.45-87.59,25.81-133.06,31.95-5.68,1.12-12.58,1.4-16.07-2.94-4.11-4.1-3.38-11,.44-15.59,3.28-4.22,9.26-6.31,14.5-7.24l.08-.58c31.64,1.71,64-3.6,90.38-20.72,26.47-16.77,45.51-46.14,45.58-76.92,0-1.52-.08-2.95-.13-4.38a21.36,21.36,0,0,0-.24-2.46,5,5,0,0,0-.71-2.1c-2.51-1.78-5.29-.5-7.26.48-19.49,10-39.32,20.06-58.47,30-12.76,6.24-25.15,12.78-38.62,15.73-13.45,2.79-28,2.07-40.07-5.49l-.16-.61a198.48,198.48,0,0,1,44.75-28.33c11.48-5.41,24.13-9.65,35-16.23s20.9-16.39,24.13-28.65c3.86-14.27-1.09-29-6.52-42.77-6.6-16.08-13.67-31.8-21.53-47.31a2.65,2.65,0,0,1-.38-.8.66.66,0,0,0-.34-.55c-.06-.18-.37-1-.37-1-.34,0-.6.09-.94.12-1,.11-2,.22-3.07.41-12.43,1.51-24.52,3.57-36.3,8.18-13,5.11-24.58,14-31,26.42C896.68,80,897.16,95,895.45,108.87c-1,12.74-4.92,27.17-15.35,34.65l-.56-1.41c3.47-15.67,1.59-32-1.94-47.9-3.13-15.75-7.26-31.57-8.29-47.45C869,35.42,870.56,23.68,875,13.42a50.28,50.28,0,0,1,5.36-9.53,14.85,14.85,0,0,1,1.18-1.84L879.34.64l-1-.64c-15.18,7.9-30.67,15.68-43.89,27-13,11.14-23.72,26.36-25.56,43.51-2.95,17.41,3.26,35,9.41,51.37,6.09,16.76,12.56,33.75,18.6,50.83,3.48,8.61,6,19,.61,26.54-8.76-.15-16.91-5.32-22.45-12.29-5.71-7-8.77-15.55-12.1-24-8.34-22.19-15.71-45.24-19.26-68.75-3.4-22.74-2.82-47,3.89-68.5l-.82-.11c-28.44,15.9-42.49,50.24-43,82.89-.17,32.62,11.37,64.12,24.05,94,5.49,12.16,11.08,24.75,21.33,32.72,3.66,2.53,7.86,4.79,10,8.53,1.85,2.94,2.27,7.68,0,10.21l-2.6-.62C749.07,231.07,713.06,185,704,132.91c-1.93-10.07-2.85-20.74-1.43-30.83a57.17,57.17,0,0,1,4.57-15.76c.37-.87.84-1.81,1.3-2.67a4.1,4.1,0,0,0,.45-.85l-1.64-.23a4.63,4.63,0,0,0-.82.47,1.26,1.26,0,0,0-.62.24c-17.28,8-29.5,25.8-32.57,44.62-3.85,19.54,1.65,39.9,11.11,57,9.44,17.32,23.2,31.9,37.84,45a316.56,316.56,0,0,0,28.4,22.33c3.64,2.11,6.73,4.47,8.79,7.69,2.41,3.1,3.35,7.67,1.12,11l.34.55c-1.91,2.91-5.9,5-9.47,5.44-5.51,1.06-11.15-.48-16.38-2.56-19.44-7.52-35.43-22.32-48-39.16C678,222.63,670.33,208.5,663.25,194c-.07-.09-2.4-4.94-2.4-4.94-1.18-2.34-2.27-4.67-3.37-7l-1.07.52A56.24,56.24,0,0,0,638.19,221a58.42,58.42,0,0,0,14,40c12.13,14.26,30.63,21.31,48.29,27.23l1.11-2.52c6.61-2.33,14.53,3.22,15.87,10.36,1.06,7.26-3.23,14.52-9.44,18.25-6.16,3.9-13.3,4.65-20.69,3.69-17.5-1.72-33.59-11.69-45.7-24.27-11.5-12.84-20.4-27.49-29.09-42.36-6.35,23.63-10.5,47.73-6.92,71.59,3.37,24.16,15.94,47.77,36.75,59.83,18.47,10.81,41.8,11.59,62.79,6.35s40.25-15.41,59.27-25.62c.17,0,3.69,2.87,3.69,2.87a10.84,10.84,0,0,1,1,.81c-4.36,17.21-8.24,34.07-8,51.68.47,17.39,6.13,35.43,18.55,47.64,12.55,11.9,29.58,16.9,47.07,18.7A156,156,0,0,0,920.22,466c4.52-2.37,9.21-6,11.73-10.14a10.24,10.24,0,0,0,1.52-3.05,11.9,11.9,0,0,0,.49-2.95,7.44,7.44,0,0,0-.12-2.69c-1-6.93-8.21-10.62-14.59-14-25.15-12.75-45.74-32.9-60.1-56.85l.48-.43c26.07,23.42,63.8,33,98,24.61,8.85-2.26,17.36-5.58,24.41-11.7a31.85,31.85,0,0,0,11.06-17.86,24.06,24.06,0,0,0,.58-5.94c0-.34-1.17-.58-1.17-.58a156.09,156.09,0,0,1-99.88-22.88c-7.45-4.74-15.59-11.66-16.22-20.87l2.14-.29c15.92,5.77,32.57,11.71,49.48,15.27,16.63,3.69,34.25,4.58,51.1.26,31.3-7.72,56.47-34.88,63.22-66.73.32-1.63.64-3.34.89-5.07Zm-192.91-99c6.22-1.38,13.49,7.59,16.41,20.06s.23,23.88-6,25.26-13.58-7.52-16.4-20.14C841.38,177.73,844,166.46,850.22,164.92ZM821.86,397.34a23.81,23.81,0,0,1,3.31-5.06c.38-.95,1.92-1.73,3.31-2.12a18.12,18.12,0,0,1,14.93,7.46,12.14,12.14,0,0,1,2.79,7.51c-.83,4.15-4.93,7.08-8.82,7.37a17.1,17.1,0,0,1-11.49-3.38c-2.27-1.15-4.36-2.95-4.84-5.45C820.26,401.55,820.89,399.46,821.86,397.34ZM888,298c-2.91,3.44-11.09.87-15.26-.39-5.3-1.59-18.67-5.9-22-18.09-3.33-12,4.54-26.9,11.54-27.25,4.71-.17,8.62,6.49,16.5,20.07C885.79,284.68,891.41,294.09,888,298Z"/><path class="cls-1" d="M968.9,33.82C940,100,905.3,163.27,863.69,222.38,831,268.88,788.39,310,764.76,362.16c-1.66,3.65,4,6.12,5.7,2.48,27.15-60,78.77-108.41,115-163.13,34.65-52.36,64.06-107.69,89.17-165.22,1.6-3.67-4.11-6.14-5.71-2.47Z"/><path class="cls-1" d="M1044.64,166.57c-30.79,56.92-117.08,67.67-174.72,61a2.82,2.82,0,0,1-2.09-1.22,3.21,3.21,0,0,1-.4-2.48,3,3,0,0,1,3.36-2.46l.65.09c.41.06.92.05,1.41.12,55.4,6,139.91-4.61,167.59-60.21a3.06,3.06,0,0,1,3.82-1.56,21.36,21.36,0,0,1,.24,2.46C1044.55,163.71,1044.59,165.14,1044.64,166.57Z"/><path class="cls-1" d="M1043.2,264c-.25,1.73-.57,3.44-.89,5.07C980.43,329.83,891.25,337.33,819.37,288c-.75-.61-1.44-1-2-1.47a2.57,2.57,0,0,1-.93-3.48,2.89,2.89,0,0,1,.43-.69c.2-.22.39-.36.58-.58a3.23,3.23,0,0,1,3.79-.14c.61.42,1.3.85,1.91,1.27,70.26,48.33,158.46,40.1,218-21.37a2.52,2.52,0,0,1,2.39-.92c-.07,1.08-.22,2.14-.38,3.29Z"/><path class="cls-1" d="M993.06,370.86c-72.25,34.58-139.49-10.81-189.74-61.58-.8-.87-1.61-1.65-2.34-2.42-.44-.4-.8-.87-1.24-1.27a.51.51,0,0,1-.27-.45c-1.4-2,.41-4.13,2.6-4.24a.59.59,0,0,1,.52-.09,3.43,3.43,0,0,1,2.11,1.05c.73.77,1.54,1.55,2.27,2.32,48.51,49.45,113.38,95,184.17,60.72a2.51,2.51,0,0,1,2.5,0A24.06,24.06,0,0,1,993.06,370.86Z"/><path class="cls-1" d="M934,449.81a11.9,11.9,0,0,1-.49,2.95,10.24,10.24,0,0,1-1.52,3.05c-41.6-3.53-85.25,8.64-118.67-23.19-24.71-23.57-32.08-56.16-32.15-88.9l0-1.51c0-2.17.09-4.25.14-6.34,0-.5.07-1.08,0-1.58.15-3.41,4.65-3.28,5.79-.69a3,3,0,0,1,.37,1.56c-1.72,44.78,11.56,93.6,58.52,109.6C873.92,454.23,904.72,447.11,934,449.81Z"/><path class="cls-1" d="M882.85,194c-.88,6.83-3.45,13.74-7,21.36-1,2-1.92,4.08-3,6.19-.22.39-.36.78-.58,1.17a3.14,3.14,0,0,1-3.09,1.74,3.32,3.32,0,0,1-1.75-.66,2.5,2.5,0,0,1-.85-3.47,48.06,48.06,0,0,0,2.6-6c17.48-46.75-36.51-88.26-34.83-137.48,1-33.42,21.45-54.8,45-76.26l2.22,1.41a11.75,11.75,0,0,0-1.07,1.68A53.68,53.68,0,0,0,875,13.26c-24.36,24.43-38.77,51.19-31.16,88,5.14,24.66,19.84,40.88,31.85,62C882.31,174.72,884.21,184.36,882.85,194Z"/><path class="cls-1" d="M776.76,34.45c-10.88,36.09-20.4,72-10,109.37,11.82,42.53,42.81,76.06,72,107.63,2.69,2.92,7.68-.8,5-3.74-23-24.87-47.77-50.7-62-82-19.79-43.44-12.61-84.56.74-128.82,1.15-3.79-4.55-6.3-5.7-2.47Z"/><path class="cls-1" d="M819,283.81c-60.76-38.55-159-113.23-109.4-195.57,2-3.39-2.82-7.27-4.88-3.86-51.63,85.8,46.42,163.69,110.42,204.3,3.35,2.13,7.23-2.73,3.86-4.87Z"/><path class="cls-1" d="M800.92,300.72c-32.71,1.12-71.4-10.65-99-28.87-28.48-18.79-34.4-48.76-39-80.38-.58-3.95-6.74-3.17-6.16.8,4.56,31.08,10.54,63,37.7,82.43,29,20.69,72,33.39,107.32,32.18,4-.13,3.18-6.3-.8-6.16Z"/><path class="cls-1" d="M780.37,336c-28.89,8.3-60.22,28.11-91.22,24.52C641.6,355,627.4,302,619,263.23c-.84-3.87-7-3.12-6.16.8,7.74,35.63,18.1,79.77,54.75,96.81,38.58,17.94,78.68-8.64,115.14-19.12,3.84-1.1,1.46-6.85-2.35-5.75Z"/><path class="cls-2" d="M806.3,477.09C736.68,520,621.58,437.67,460.7,446c-88.27,4.54-144.73,34-187.52-3.39-14.23-12.43-33.48-38-28-61.11,7.42-31.18,52.76-28.48,68-67.33,10.38-26.45-5.61-40.45,8.29-64.92,11-19.28,25.94-19.48,47-34.53,45.67-32.7,30.69-71.7,68.21-107C472,74.45,521.89,74.68,556,74.83c12.65.06,112.11,1.54,128.52,46.91,7.53,20.83-6.09,40.8,10.28,63.93,8.49,12,16.53,12.8,20.72,25.9,5.44,17-4.24,27.86,3.8,39,5.8,8.06,12.56,4.79,20,13.81,8.52,10.31,2.91,18.45,8.29,29,9.92,19.48,38.12,9.68,55.94,29,9.19,10,3.85,14.92,12.43,48.34,11.16,43.49,24.82,53.16,19.68,72.86C830.86,461.94,814.12,472.27,806.3,477.09Z"/><path class="cls-3" d="M741.71,412c9.68,25,18.8,51.93,27,81,2.29,8.08,4.36,16.14,6.32,24.09,4.43,17,8.07,33.74,11.3,49.82a952.69,952.69,0,0,1,15.41,119.27,137,137,0,0,1,4,67.34L731.44,725.4c-1.36-5-36.74-135.87-38.11-140.94Q674,512.84,654.55,441.09c1.63-4.91,8.13-22.18,26.17-32.12C699.34,398.72,722.69,400,741.71,412Z"/><path class="cls-4" d="M775,517.13c4.43,17,8.07,33.74,11.3,49.82-31,5.84-61,10.2-92,16,9.35-9,17.84-16.49,27.3-25.42C739.49,544.09,757.26,530.72,775,517.13Z"/><path class="cls-3" d="M771.81,470.56q-164.16-.87-328-2-58.93-.22-117.88-.73c.73-22.71,4.22-49.05,15.72-68.26a517,517,0,0,1,62-25c20.23,2.91,40.89,8.59,60.39-1.89a54.24,54.24,0,0,0,18.78-17.32c7-9.89,13.09-24.3,17-45a279.53,279.53,0,0,0,4.37-39.73c2.33,0,4.66-.29,6.84-.43,4.66-.3,9.46-.73,14.12-1,9.31-.73,18.48-1.31,27.79-1.9,9.17.59,18.48,1.17,27.8,1.9,4.66.29,9.31.72,14,1,2.33.14,4.66.43,7,.43a281.4,281.4,0,0,0,5.24,44.1c3.63,18.48,9.6,34.63,19.06,45.7a41.3,41.3,0,0,0,15.72,12.22c15,6.55,30,2,45.11-3.2A136.16,136.16,0,0,1,734.56,400C758.42,423.7,768,451.5,771.81,470.56Z"/><path class="cls-4" d="M594,305.7c0,27.57-18.35,49.92-41,49.92s-41-22.35-41-49.92,18.36-49.92,41-49.92S594,278.13,594,305.7Z"/><path class="cls-3" d="M556.42,81a188,188,0,0,0-24,1.26,80,80,0,0,0-70.66,79.43V244c2.1,10.35,10.54,45.42,43,70.41a114.88,114.88,0,0,0,49.1,21.73c.72,0,1.42,0,2.12-.07s1.41.07,2.13.07a114.88,114.88,0,0,0,49.1-21.73c32.5-25,40.94-60.06,43-70.41V161.64a80,80,0,0,0-70.66-79.43A183.21,183.21,0,0,0,556.42,81Z"/><path class="cls-3" d="M330.51,421.08c-11.53,24.17-22.63,50.38-33,78.77-2.89,7.89-5.56,15.78-8.1,23.56-5.69,16.57-10.58,33-15,48.84A952.59,952.59,0,0,0,250.15,690l67.19,44.32c16.17-46,32.35-91.72,48.53-137.7q24.63-70,49.37-140.07c-1.26-5-6.45-22.73-23.69-34C373.74,411,350.37,410.49,330.51,421.08Z"/><path class="cls-3" d="M478.92,202.15c0,16.57-9.91,30-22.14,30s-22.15-13.44-22.15-30,9.91-30,22.15-30S478.92,185.57,478.92,202.15Z"/><ellipse class="cls-3" cx="655.72" cy="202.15" rx="22.15" ry="30.02"/><path class="cls-5" d="M820.76,520.25,689.85,585.19c-21.24-75.61-11.85-48.83-29.58-111.87-5.72-22.18-33.92-92.44,4.41-101.41,42.81-10,73.93,20.91,75.51,22.53Q780.48,457.35,820.76,520.25Z"/><path class="cls-6" d="M778.17,1076.34c-37.74,2.09-83.56,4.15-135.76,5.44-68.19,1.69-127,1.58-173.43.91-42.1-.61-91.37-1.92-146.5-4.53C325.2,1028,337,946,386.8,862a456.57,456.57,0,0,1,58.36-78c-1.16-6.26-2.47-12.66-3.64-18.92q114.83-8.3,229.8-16.44c-2.33,11.78-4.51,23.57-6.84,35.36A424.07,424.07,0,0,1,717.24,853C759,920.9,770.37,982,773.19,999A385.52,385.52,0,0,1,778.17,1076.34Z"/><path class="cls-7" d="M705.71,630.24c-4.38,35.79.71,65.55-.24,108-.79,35.25,0,68.36,1.91,99C682.68,852,621.74,883.8,539,881.15a309.34,309.34,0,0,1-140-38.86Q395.8,726,392.58,609.71c-5.21-6.19,20-235.92,52.15-240.29a94,94,0,0,0,38.13-15c3.68,4.7,26.31,33.76,66.1,37,31.18,2.54,60.95-11.73,77.1-31.9.8-1,1.44-1.87,1.89-2.48a161.79,161.79,0,0,1,26.63,2.62,180.72,180.72,0,0,1,32.31,8.88c15,5.67-19.31-7.71-12.77,145.85C677.51,521.09,698.71,585.19,705.71,630.24Z"/><path class="cls-2" d="M653,71c27.54,47.87-2.3,101.89-3.94,104.75q-5.31-19.87-10.63-39.74c-44.9,3.63-78.84,14.31-102.44,24.07-32.81,13.57-51.51,27.79-69.79,20.3-19.34-7.93-26.69-35.43-29.8-58.81.84-3.07,22-75.31,91.09-92.86C566.56,18.81,626.5,25,653,71Z"/><path class="cls-4" d="M289.42,523.41c-5.69,16.57-10.58,33-15,48.84,30.48,8.13,61.43,14.92,91.91,23.06-8.65-9.72-17.89-18-26.66-27.59C322.85,552.94,306.13,538.29,289.42,523.41Z"/><path class="cls-8" d="M482.79,355.3c-7,27.36-17.24,33.58-50.83,105.84-24.75,43.08-30.39,97.36-55.27,140.3C334.77,576.55,285.45,548,243.53,523.1q45-59.82,89.8-119.48c2.61-1.31,5.38-2.77,8.29-4.08a517,517,0,0,1,62-25c4.36-1.45,8.87-2.91,13.53-4.22A487.45,487.45,0,0,1,482.79,355.3Z"/><path class="cls-3" d="M556.7,629.13q-3.13-16.54-6.26-33.09c-63.38-4.39-145.49,1.07-234.81,38.32-21.45,8.95-63.64,42.41-65.51,48.89a57.82,57.82,0,0,0-.05,30c6.06,22.19,23.79,33,27.85,35.37,7.14-1.12,17.2-3,29.09-6,8.27-2.14,15-4.27,20-6,82.24-27.61,111.83-76.56,192-99.58A265.81,265.81,0,0,1,556.7,629.13Z"/><path class="cls-9" d="M550.76,645.7a47.28,47.28,0,0,0-12.32,32.19c.08,6.63,1.8,13.07,3.12,19.52a57.45,57.45,0,0,1,.77,20c-.94,6.56-2.66,13-3.77,19.52a71.71,71.71,0,0,0-.56,20.79c.82,7,2.32,13.82,3.71,20.68l4.27,21,9.73,47.85c.38,1.9,3.27,1.1,2.89-.79l-8.49-41.75L545.9,784c-1.41-6.93-2.95-13.85-4.12-20.83a76.43,76.43,0,0,1-1-20.31c.67-6.62,2.38-13.09,3.63-19.61s2-12.87,1.28-19.37S543,691,542,684.53a44.43,44.43,0,0,1,10.86-36.71c1.3-1.42-.81-3.55-2.12-2.12Z"/><path class="cls-9" d="M568.05,636.48c-9,13.43-9.29,30.3-7.88,45.86.81,8.93,2.05,17.83,3.13,26.72s2.47,17.9,2.91,26.9c.44,9.21-.31,18.7-4.87,26.91-.93,1.69,1.66,3.2,2.59,1.51,8.4-15.13,5.06-33.33,3.07-49.63-1.13-9.23-2.34-18.44-3.35-27.68a133.08,133.08,0,0,1-.89-24.27c.64-8.79,2.92-17.44,7.88-24.81,1.08-1.6-1.51-3.11-2.59-1.51Z"/><path class="cls-9" d="M586.9,629.35c-.32,10-.6,20.17,1.24,30.09a74.12,74.12,0,0,0,4.32,14.2,96.71,96.71,0,0,1,5,14.19c2.26,9.83,1.27,20.06.75,30a239.81,239.81,0,0,0-.06,29.49,108.21,108.21,0,0,0,6.73,32c.7,1.78,3.6,1,2.9-.79-7.17-18.26-7.6-38.13-6.72-57.47.45-9.95,1.5-20,.06-29.87S594.45,672.6,592,663c-2.82-11-2.44-22.41-2.08-33.62.06-1.93-2.94-1.93-3,0Z"/><path class="cls-9" d="M588.88,521.57c-8.91,3.5-19.29,9.43-21.3,18.78-5.69-16.82-14.17-32.26-16.59-55.83,2.18-6.69,8.83-13.43,14.31-17.84-5.33,3.83-11.51,9.43-14.55,15.21a137.24,137.24,0,0,1,9.74-61.55l-1.51-.72a135.67,135.67,0,0,0-4.29,94.9c-4.63-2.94-11.71-3.89-17.19-3.63,5.77.11,13.68,1.69,17.87,5.74,8.88,26.85,16.35,37.78,11.83,67.32-4.21-7.16-15.39-9.36-23.59-9.4,8.69.49,20.9,3.72,23.18,12a268.42,268.42,0,0,1-18.45,61.69l9.16.17a368.72,368.72,0,0,0,13.2-55.31C578,545,553.26,537.67,589,522a77.82,77.82,0,0,1,9.9-3.57A78.82,78.82,0,0,0,588.88,521.57Z"/><path class="cls-10" d="M559.82,471s14.93,3.61,29.11-3.61S607,438.09,607,438.09,557.68,434.57,559.82,471Z"/><path class="cls-11" d="M497.18,488.5s19.19-3.19,32,3.2c5.92,3,12,10.14,11.27,17.15-1.08,10.43-13.63,9.82-21,7.61-8.41-2.5-16.11-8.08-19.79-16.22A28.55,28.55,0,0,1,497.18,488.5Z"/><path class="cls-10" d="M536.52,423.94s-6.46,10,0,22.94,17.1,8.34,17.1,0S536.52,423.94,536.52,423.94Z"/><path class="cls-11" d="M556.19,398.43s15.11,26.48,6,32.11-16.42-1.88-16.42-6.88S556.19,398.43,556.19,398.43Z"/><path class="cls-11" d="M620.34,509s-40.86-12.3-44.83,8.34,8.76,24,17.94,21.48S620.34,509,620.34,509Z"/><path class="cls-10" d="M519.91,555.37s30.31-5.84,37.05,7.29.48,23.77-5.15,23.77S529.09,581.22,519.91,555.37Z"/><polygon class="cls-2" points="709.37 880.43 680.1 1068.42 421.49 1068.42 391.54 880.43 709.37 880.43"/><path class="cls-12" d="M709.37,880.43c0,3.85-4.32,7.53-12.11,10.88-23.9,10.27-80.64,17.48-146.81,17.48-50.79,0-96.06-4.24-125.12-10.89-21.16-4.78-33.79-10.88-33.79-17.47,0-15.66,71.11-28.36,158.91-28.36S709.37,864.77,709.37,880.43Z"/><path class="cls-13" d="M704.1,880.3v0a4.64,4.64,0,0,1-1.46,1.7,29.73,29.73,0,0,1-7.39,4.21c-24.11,10.36-80.94,17.06-144.81,17.06-48.94,0-94.12-3.92-124-10.75-27-6.1-29.58-12-29.66-12h0a0,0,0,0,1,0,0c.14-.31,1.28-2.27,6.94-5,6-2.9,17.2-6.65,37.79-10.16,29.42-5,68.09-7.77,108.91-7.77s79.47,2.76,108.9,7.77C699.16,872.13,703.77,879.82,704.1,880.3Z"/><path class="cls-13" d="M704.11,880.32a4.64,4.64,0,0,1-1.46,1.7,29.73,29.73,0,0,1-7.39,4.21c-24.11,10.36-80.94,17.06-144.81,17.06-48.94,0-94.12-3.92-124-10.75-27-6.1-29.58-12-29.66-12h0a0,0,0,0,1,0,0c.14-.31,1.28-2.27,6.94-5,6-2.9,17.2-6.65,37.79-10.16,29.42-5,68.09-7.77,108.91-7.77s79.47,2.76,108.9,7.77c39.81,6.79,44.42,14.48,44.75,15Z"/><path class="cls-14" d="M707.76,880.43c-26,19.4-98.15,28.36-170.07,28.36-55.22,0-126.56-14.71-143.85-28.36,26-19.4,95.5-25.19,167.42-25.19C616.47,855.24,678.3,862.62,707.76,880.43Z"/><path class="cls-15" d="M709.31,879.66c0-.13,0-.26-.08-.39a4.1,4.1,0,0,0-.19-.66,2.26,2.26,0,0,0-.13-.33c0-.06,0-.13-.09-.2a3.4,3.4,0,0,0-.16-.34,3.6,3.6,0,0,0-.22-.37,3,3,0,0,0-.21-.33c-.1-.16-.22-.32-.34-.49l-.25-.31c-.21-.24-.43-.49-.67-.74l-.38-.37-.31-.29-.18-.15a23.72,23.72,0,0,0-2.77-2l-.11-.07-.58-.35c-.4-.23-.81-.47-1.24-.7l-.66-.35c-.67-.34-1.37-.69-2.11-1s-1.52-.67-2.33-1l-.19-.08-.64-.25h0c-24.85-9.88-80.43-16.76-145-16.76-67.49,0-125.13,7.51-148.18,18.1-.74.34-1.44.69-2.11,1l-.66.35c-.64.35-1.25.7-1.82,1.05a23.93,23.93,0,0,0-2.88,2.09l-.17.15-.31.29-.39.37-.67.74c-.08.11-.17.21-.25.31l-.34.49a3,3,0,0,0-.21.33,3.47,3.47,0,0,0-.21.37,2.15,2.15,0,0,0-.17.34c0,.07-.06.14-.09.2s-.09.22-.13.33a5.46,5.46,0,0,0-.19.66c0,.13-.05.26-.08.39a4.9,4.9,0,0,0,0,.77c0,6.59,12.63,12.69,33.8,17.47,29.05,6.65,74.32,10.89,125.11,10.89,66.17,0,122.91-7.2,146.82-17.48,7.78-3.35,12.1-7,12.1-10.88A4.9,4.9,0,0,0,709.31,879.66ZM702.65,882a29.73,29.73,0,0,1-7.39,4.21c-24.11,10.36-80.94,17.06-144.81,17.06-48.94,0-94.12-3.92-124-10.75-27-6.1-29.58-12-29.66-12h0a0,0,0,0,1,0,0c.14-.31,1.28-2.27,6.94-5,6-2.9,17.2-6.65,37.79-10.16,29.42-5,68.09-7.77,108.91-7.77s79.47,2.76,108.9,7.77c39.81,6.79,44.42,14.48,44.75,15v0A4.64,4.64,0,0,1,702.65,882Z"/><path class="cls-14" d="M599.63,864.48H499.94s.63-10.65,5.27-10.65,9.39,4.61,9.39,4.61-1.59-4.72,4.11-7.24,15,4.72,15,4.72.11-1.1,6.42-3.41c4.86-1.77,10.42-.62,13.2,1.5,4.05.84,7.74,4.43,7.74,4.43s-1.58-4.72,4.11-7.24,15,4.72,15,4.72.11-1.1,6.43-3.41,13.81.34,14.86,3.63S599.63,864.48,599.63,864.48Z"/><path class="cls-15" d="M959.09,1103.62H125a17.6,17.6,0,0,1,0-35.2H959.09a17.6,17.6,0,1,1,0,35.2Z"/><path class="cls-3" d="M558.34,941.13c8.48,7.47,23.37,42.4,31.85,49.87,63.25-40.31,147.13-94.07,210.72-186,15.28-22.07,36-78.33,34-84.87a49.28,49.28,0,0,0-17.62-24.32c-18.84-13.76-42.18-10.25-47.45-9.34-6.18,5.85-14.73,14.31-24.3,25-6.66,7.46-11.88,13.86-15.67,18.67-62.49,79.24-54.74,111.63-118,185.75C598.6,931.46,564.57,935.44,558.34,941.13Z"/><path class="cls-3" d="M550,1014.8c-1.09.35-2.19.66-3.29.94-4.34,1.1-8.78,1.28-13.14,2.23-7.28,1.6-14.52,3.45-21.86,4.75-7.64,1.36-13.76,1.71-16-.6,0,0-3.14-2.21-.92-5.26.5-.69,2.17-1.54,4.56-2.45,4.56-1.76,11.71-3.8,18.23-5.62,7.85-2.2,14.79-4.1,15.19-4.87.92-1.74-2.85-1.87-2.85-1.87s-8.6,2-18.92,4.11c-6.68,1.35-14.08,2.72-20.33,3.57s-11.23,1.18-13.37.5c-6.51-2.09-6.19-7.37-3-9.68a11.11,11.11,0,0,1,2.73-1c3.35-.92,9.19-2.09,15.47-3.34,12.3-2.44,26.26-5.15,26.32-6.72.1-2.69-6.26-1.34-6.26-1.34S501,990.79,488,993.08c-5,.88-10.24,1.71-15.05,2.31-8.69,1.09-16.1,1.43-18.74,0-6.51-3.46-3.56-8.25,3.23-10.72A61.3,61.3,0,0,1,463.9,983c3.75-.83,8.62-1.81,13.86-2.86,7-1.4,14.71-2.93,21.19-4.34,8.22-1.82,14.49-3.47,15.05-4.54,1.6-3-5.16-1.92-5.16-1.92s-9.9,1.61-21.49,3.37c-3.8.58-7.78,1.17-11.65,1.73-5.47.79-10.74,1.51-14.95,2-4.72.56-8.11.85-9,.66-4.67-.95-6.76-5.64-.38-9.69a33.33,33.33,0,0,1,6.07-2.58c1.49-.53,3.17-1.08,4.95-1.63,2.65-.82,5.58-1.68,8.59-2.52,12.19-3.43,25.7-6.7,27.79-7.34,3.6-1.07,35.85-8.59,36.61-10.17S515.9,939.74,504,934.4c-4.22-1.91-11-5-13.39-9.34a6,6,0,0,1-.62-1.6c-.88-4,3.26-7.34,7.74-5.43,3.39,1.44,8.18,3.3,10.39,3.33,3.66.07,11.74,1.38,18.61,2.28l8.55,1.11c6.16.77,12.85,1.6,16,1.9s7.32,1.83,11.92,3.91q27.66,20.07,55.31,40.12c2.36,1.72-16.4,15.5-18,16.59-7.31,5-15,9.36-22.62,13.75C569,1006.12,559.84,1011.69,550,1014.8Z"/><path class="cls-3" d="M685.76,612.11c-2.26,2.06-10,3.16-19.36,3.71-18.6,1.12-44.28.08-45.37.17-2,.18-4.71.75-4.07,2.61.15.42,1.21.74,2.95,1,8.72,1.27,34.26.74,43.56,1.54a12.83,12.83,0,0,1,3.16.53c4.09,1.85,6.17,7.47.14,11-2,1.15-7.32,1.8-14,2.12-13,.63-43.09-.46-43.09-.46s-3.85.88-2.32,2.57c.3.33,29.2,3,38,4.65,2.76.51,4.77,1.08,5.52,1.72a4,4,0,0,1,.79,5.85c-1.5,2.92-7.94,3.75-16.29,3.81-9.77.07-22.2-.93-32.39-.91-3.61,0-6.91.33-9.76.5-26,1.54-89.42-7.51-90.89-9.77L474.18,600c.81-.06,25.93-5,33.64-7.17,10.06-2.88,19.54-6.82,26.88-13.8,3.85-3.69,9.16-8.73,14.44-13,4.93-4,9.83-7.46,13.5-8.55,4.78-1.44,17.55-5.8,24.37-8.12s14.71-5.35,18.47-6.15c2.28-.47,6.6-3.42,9.64-5.65a6.15,6.15,0,0,1,9.68,6.15c-1,5.18-13.18,14.47-14.54,15.31-10.94,6.79-26.83,11.76-25.68,13.13.57.66,66.78,5.22,82.06,7,2,.24,11.34,1.78,12.77,2.33,7.94,3.1,7.34,8.54,2.83,10.5-.87.38-4.47.74-9.53,1.08-7.72.5-18.81.93-28.74,1.25-7.65.25-23.31.65-23.31.65s-7.35.18-4.69,3.09c.61.68,3.83,1.14,8.54,1.47,2.48.16,37.42.86,47.11,1.19a67.89,67.89,0,0,1,7.25.49C686.71,602.54,691.33,607.1,685.76,612.11Z"/><path class="cls-9" d="M823.85,483.62s1.45-34.75,8-52.12,22.44-46.32,22.44-46.32l5.06,2.9a315,315,0,0,0-18.09,42c-8,23.16-10.86,73.82-10.86,73.82Z"/><path class="cls-9" d="M806.84,721.38a66.94,66.94,0,0,0,28.23-20.63c11.94-15.2,29.31-83.59,29.31-83.59l10.86-4.35s-15.2,72.74-26.06,90.11S812.27,742,812.27,742Z"/><path class="cls-9" d="M796,502.07c10.86,20.63,22.8,61.89,20.63,83.6s-22.8,53.2-26.06,96.63,14.12,59.71,20.63,80.34S829.64,869,829.64,869,859,884.23,847,871.21c-2.2-2.4,6.51-63-9.77-93.37s-33.66-58.63-27.14-94.46,17.37-54.28,21.71-83.6S830.43,537.38,821,514s-16.28-31.49-16.28-31.49Z"/><path class="cls-2" d="M937.45,857.68c0,14.52-15.84,21.12-15.84,21.12L915,952.64l-.39,4.34L904.5,1068.43H775.66L759.7,957l-.62-4.34-3.74-26.06-2.17-15.2-4.48-31.26s-14.52-9.24-14.52-19.8c0-8.58,10.56-13.2,90.42-12.54l2,0q10.93.08,20.69.08C910.75,847.94,937.45,846.4,937.45,857.68Z"/><polygon class="cls-15" points="759.7 956.98 914.56 956.98 914.64 956.98 915.03 952.64 914.95 952.64 759.08 952.64 759.7 956.98"/><polygon class="cls-15" points="918.48 911.38 917.1 926.58 755.34 926.58 753.17 911.38 918.48 911.38"/><path class="cls-10" d="M734,430.22s-48.85-43-70.15,4.6S675.69,616.88,708,622.36C738.47,627.55,820.32,563.82,840,516s-9.13-90.3-46.54-95.46C741.83,413.38,734,430.22,734,430.22Z"/><path class="cls-10" d="M876,600.78s-3.26-68.71,51.9-58,138.53,152.76,131.81,164.32-46.59,28.16-116.66,16.54-148.89-71.27-140-97.73C818.44,579.82,876,600.78,876,600.78Z"/><path class="cls-11" d="M927.93,542.76c-55.16-10.69-51.9,58-51.9,58s-23.11-8.42-44-2.87c-9.27,2.46-18.1,7.68-24.25,17.63A49.35,49.35,0,0,0,803,625.88a13.65,13.65,0,0,0-.68,4.51c.06,7.41,5.23,16.6,14,26.33,7.26,8,17,16.43,28.35,24.48q5.17,3.69,10.8,7.24c25.69,16.3,57.43,30.17,87.56,35.17,70.07,11.62,109.95-5,116.66-16.54S983.09,553.44,927.93,542.76Zm115.7,160.48c-1.84,3.86-9.21,6.58-12.92,7.19-6.19,1-9.52,1.73-15.25,4.92-9.85,5.48-16.4-2-26.62-2.76a40.5,40.5,0,0,0-6.68.17c-1.92.17-3.85.41-5.8.6a54.58,54.58,0,0,1-5.57.33c-6.68,0-10.08-2.11-16-4.35a34.25,34.25,0,0,0-8.09-1.88c-1.94-.23-3.89-.35-5.88-.48-1.52-.09-3.07-.18-4.65-.33-13.3-1.22-22-10.82-32.4-17.61a44,44,0,0,0-10.62-5.27,32.31,32.31,0,0,0-4.26-1c-9.91-1.71-16.67-3.51-22.29-12.41-1.33-2.09-2.56-3.93-3.82-5.56a27.29,27.29,0,0,0-9.62-8.09c-.61-.31-1.25-.62-1.93-.92s-1.41-.61-2.17-.9c-2.93-1.13-6.15-1.28-9.16-1.9a13.78,13.78,0,0,1-5.36-2.16c-3.61-2.63-6.87-8.76-7.63-13.2s-.46-10.74,1.52-14.65c2.38-4.71,6.17-4.94,9.81-8.19,4.2-3.74,4.43-6.37,10.43-7,4.62-.51,9-.51,13.51-1.17.69-8.09,16,3.12,19.1,3.89h1.63a1.4,1.4,0,0,1-.13.63,6.33,6.33,0,0,0-.36.91c4.07-.37,1.1-6,.19-9.37a5.61,5.61,0,0,1-.25-1.4c0-5.34,4.47-7.85,4.9-13.05.5-6.17-1.64-8.87,3.26-14.16,3.6-3.89,6.93-6.38,9.92-10.85,5.4-8.1,11.9-10.58,20.94-6.38s18.4,1.21,27.32,7.87c4.18,3.12,6.15,8,9.31,12.1,3.44,4.48,8,6.49,13,8.81,7.39,3.41,13.26,6.05,16.08,14,2.06,5.82,2.63,8.63,7.42,13a38.56,38.56,0,0,1,6.36,7.61c.87,1.33,1.65,2.69,2.38,4.09,2.86,5.43,4.9,11.32,7.21,17.15a56.76,56.76,0,0,0,5.43,11,33.86,33.86,0,0,0,3.25,4.14l1.92,2.07c4.12,4.44,7.83,8.69,9.08,14.78,0,.2.08.4.11.59.41,2.13.59,3.95.88,5.66a15.3,15.3,0,0,0,3.9,8.43C1038.52,692.12,1046.64,696.92,1043.63,703.24Z"/><path class="cls-9" d="M1034.68,700.5c-1.66-5.07-12-7.06-16.47-10.72-1.94-1.58-4.14-3.15-6.48-4.7a5.33,5.33,0,0,1,.64-.6c2.12-1.6,5-2.2,7.46-2.84,3-.78,7.65-.89,11.32-1.91a9.12,9.12,0,0,0,4.5-2.45,8.67,8.67,0,0,0-5.38-3.21c-7.43-1.36-17.72,5.17-23.57,7.82-5.56-3.4-11.41-6.64-16.21-9.5q-3.29-2-6.43-4c4.35-3.53,9.9-5.22,15.13-6.44,3.83-.9,15.9-1,21.89-3.25a6,6,0,0,0,3.1-2.07c2.09-3.31-2.68-4.19-8.27-4.14a75.78,75.78,0,0,0-12.93,1.3c-8.64,2.08-19.19,8.64-28.18,8.35-7.72-5.43-15.12-11.11-22.86-16.88.72-1,1.4-2.09,2-2.88,2.69-3.58,4.33-5,8.42-6.81,4.62-2.06,9.3-3.83,14.16-5.57,4.57-1.64,8.66-1.34,13.44-2,2.62-.39,10.64-.74,12.51-2.68a6.52,6.52,0,0,0,.81-1c1.51-2.23-.11-3.48-2.38-4.09a16.3,16.3,0,0,0-4.42-.52c-9.05.1-18.91,3.34-27.17,7.48C961.58,631,952,638.58,943,638.71c-7.29-5-16-8-24.06-11.83,10.62-20.88,35.27-29.34,56.3-34.48-2.51-16.46-53.18,16.69-63.07,30.86a43.14,43.14,0,0,1-6-4.35c-2.89-2.53-5.44-5.45-8.22-8.11a27.43,27.43,0,0,1,2.91-8,71.5,71.5,0,0,1,9.34-13c7.36-7.65,14.69-12.55,23.25-18.61,12.24-8.67,1.4-14.37-8.16-7.87-7.35,5-15.52,13.83-20.66,21.06s-7.32,15.36-14.1,20.88c-2.62-1.44-6.15-3-7.92-2.62-1.23.24-1.63,1.41-.3,4.17a9.43,9.43,0,0,0,1.29,4l-.82.3a46.81,46.81,0,0,0-8,4.12h0a93.8,93.8,0,0,0-12.3,9.39c-9.26,8.26-18,18.79-22.55,28.37-2.43,5.14-3.63,10-3,14.13,2.76,1.32,8.57-4.44,14.37-11.33,1.19-1.41,2.38-2.87,3.55-4.33,4.84-6.06,9.23-12.07,11.29-14.35a39,39,0,0,1,4.76-4.4c6.2-4.93,14.43-9.22,21.37-12.86a119.64,119.64,0,0,0,14.78,9.5c-4,11.89-9.79,23.58-11.57,36.24-.57,4.1-1.86,11.13-2.26,18.22-.49,8.72.36,17.52,5.5,21.05,3.32-2.71,4.56-8.93,5.12-15.78.67-8.3.32-17.53,1.4-22.59,2.38-11.14,6.37-22.08,12.85-31.25,7.34,3.81,14.82,7.53,22.2,11.45-.41,12.45-5.75,24-4.87,37.1.4,6,2,16.09,5.47,23.23a18,18,0,0,0,4.93,6.58,15.24,15.24,0,0,0,.95-6.1c.22-16.23-8.29-53.44.4-57.06,5.1,2.84,10.1,5.82,14.92,9,3.3,2.2,6.51,4.55,9.7,7-4.06,13.26-4.58,35.52,4.66,47a19.47,19.47,0,0,0,3.81,3.67,8.11,8.11,0,0,0,2-4.27c1.19-6.15-1.11-15.65-1.79-20.26-1-6.68-1.3-13.74.14-19.34a165.31,165.31,0,0,0,20,13.69c-.07,8.11-.92,22.42,6.49,29.38,6.56-3,2.06-11.42.81-16.39a45.94,45.94,0,0,1-1.07-9.83C1014.9,693.88,1026.44,699.81,1034.68,700.5Zm-146.63-83-.6-1.81,1,.93A6.69,6.69,0,0,0,888.05,617.5Z"/><path class="cls-10" d="M856.08,388.46s-2.15,64.56,49.49,53.8,128-145.26,121.59-156-44.12-25.82-109.75-14-138.85,68.87-130.19,93.6C802.28,408.9,856.08,388.46,856.08,388.46Z"/><path class="cls-11" d="M1027.16,286.25c-6.46-10.76-44.12-25.83-109.75-14s-138.85,68.88-130.19,93.61c12.45,35.58,51.4,27.76,64.5,24,2.75-.79,4.36-1.4,4.36-1.4s-.07,2.19.14,5.7c0,0,0,0,0,0,.9,15.53,7.23,56.87,49.35,48.09C957.22,431.5,1033.61,297,1027.16,286.25ZM1012,296.6c-1.27,1.42-4,2.06-5.71,2.95a44.61,44.61,0,0,0-13.69,11.5c-5.49,6.66-6.45,14.52-8.66,21.78-.19.64-.39,1.27-.61,1.89-1.74,5.06-4.35,9.73-9.87,13.41-5.05,3.36-8,6.17-10,10a31.49,31.49,0,0,0-2.4,6.33c-.21.77-.42,1.58-.62,2.43-.93,3.93-2.38,8.39-5.35,11.49-4.46,4.64-10.76,6.08-14.11,12.11-.1.17-.2.35-.29.54-1.29,2.58-1.43,5.7-2.1,8.54a9.94,9.94,0,0,1-2.64,5.13c-3.33,3.18-9.25,3.63-13.28,5.12a27.28,27.28,0,0,0-11.17,7.2,9.56,9.56,0,0,0-1.16,1.6,6.17,6.17,0,0,1-2.61,2.68c-1.07.62-2.25,1.51-3.52,2.29-3.61,2.22-8,3.51-12.38-5.05a6.72,6.72,0,0,1-.62-3.47,13.63,13.63,0,0,0-.21-4.18c-.91-3.08-2.86-3.88-5.37-5.61-3.77-2.59-9.56-5.59-9.94-10.65-.2-2.69,3.91-12-1.43-11.48L869,379.32c-.07-3.39-2.1-4.62-5-4.76-5.58-.27-14.28,3.66-17.48,3.81-6.22.3-7.12-4.45-11.52-6.82s-10.94-.62-15.42-3.57c-15.3-10.05,9.94-22,12.95-28.89,1.32-3,.93-6.43,2.87-9.46a6.15,6.15,0,0,1,.38-.56,23.55,23.55,0,0,1,6.32-5.5,42.2,42.2,0,0,1,13.4-5.38c4.14-.8,8.3-.63,12.2-2.42a22.45,22.45,0,0,0,5-3.27,75.27,75.27,0,0,0,6-5.88,43.39,43.39,0,0,1,7.5-6.7c6.66-4.33,13.93-5.49,21.35-6.32,2.17-.25,4.35-.47,6.53-.74l.88-.1c10-1.27,17.57-8.43,27-10.66.53-.14,1.07-.25,1.61-.34a24.6,24.6,0,0,1,2.76-.32c5.14-.35,9.71.76,14.84,1.53.48.08,1,.15,1.45.21,1.41.19,2.83.34,4.25.48,4.36.44,8.74.74,13.08,1.34,8.16,1.14,16.23-.27,24.28,1.35.34.06.69.13,1,.21a15.25,15.25,0,0,1,6,2.81C1013.49,291.22,1014.52,293.76,1012,296.6Z"/><path class="cls-9" d="M1011.25,286.54c.08-1-2.86-.9-7-.19-8.59,1.46-22.38,5.48-25.27,7.37-1.85,1.19-10.66,3.54-12.59,5.09-1,1.36-.27-.53-.33-.7-.76-2.21-.49-4.8-.36-7s.8-4.79,1.19-7.44.48-5.22-.58-7c-2.91,1.1-4.43,3.43-5.12,6.31-1.46,6,.62,14.35,1.18,19.18-4.35,3.75-8.64,7.78-12.33,11-1.69,1.49-3.38,2.92-5.08,4.31-1.79-4.59-1.71-9.7-1.33-14.41.33-4,4.62-17.21,2.72-21.63a2.67,2.67,0,0,0-.43-.74c-1.43-1.7-2.77-.75-3.94,1.4-2.37,4.34-4,13.57-4.16,15.6-.58,7.79,2.07,18.4-.6,25.86-6.63,5-13.38,9.67-20.3,14.59-.68-.88-1.38-1.73-1.88-2.44a15.72,15.72,0,0,1-3.43-8.89c-.48-4.42-.7-8.82-.85-13.36-.14-4.27,1.21-7.62,1.9-11.81.28-1.7,1.39-5.88,1.48-8.79a5.13,5.13,0,0,0-.35-2.41c-2.46-4.59-5.12,0-6.18,3.15-.05.12-.08.24-.12.36-2.35,7.61-2.29,16.74-1.05,24.78,1.16,7.51,4.89,17.6,2.57,25.16-6.18,4.75-11,11.24-16.39,17-14.07-14-15-35.71-13.86-54.25l.15-2.2c-3.92-.63-5.74,2.68-6.13,8.08-1,14.54,8.27,44.24,15,53.06a38,38,0,0,1-5.25,3.85c-2.9,1.74-6,3.09-9,4.7a24.4,24.4,0,0,1-5.91-4.59c-3.05-3.45-10.75-6.69-12.94-10.77-4.42-8.22-7.27-21.08-10-29.89a19.15,19.15,0,0,0-2.46-5.29c-3.46-4.95-7.54-2.4-6.7,6.06a32.44,32.44,0,0,0,.79,4.5c1.86,7.59,8.48,21.72,13.15,28,3.69,4.94,10.5,8,14.66,12.46a13.38,13.38,0,0,1,2.79,4.26c-7.36,3.33-9.76,6.4-9.28,8.25a2.26,2.26,0,0,0,1.51,1.48,6.51,6.51,0,0,0,2.51.33c1.12.28,6.7-2.49,8-2.75.18,8.4,10.28,20.1,21.6,28.93a88,88,0,0,0,13,8.52c6.68,3.51,12.57,5.08,15.72,3.32,1.57-1.67-3.21-4.8-9.59-8.29-9-4.95-21.26-10.64-23.17-13.95-4-7-6.15-14.56-7.66-23.3a106.09,106.09,0,0,0,11.93-9.82c8.89,6.53,17.12,14.55,27.25,19.46,4.26,2.06,12.34,6.46,19.9,8.56,5.42,1.51,10.58,1.85,13.86-.69-1.34-3.43-6-6.11-11.47-8.39-6.86-2.87-14.89-5.11-18.91-7.42-8.69-5-16.78-11.28-22.72-19.18,5.17-5.13,10.31-10.39,15.58-15.51,10.32,3.69,18.53,11.27,29.77,14.07a68.89,68.89,0,0,0,16.36,2c4.49-.05,8.71-.76,11.41-2.68-1.4-1.36-4.7-2.54-9-3.65-15.21-3.93-42.91-7-43.54-14.51,3.76-3.5,7.61-6.89,11.6-10.06,2.73-2.17,5.57-4.23,8.45-6.25,10.82,7.54,31.55,14.44,43.37,7.42a14.21,14.21,0,0,0,1.32-.86,4.73,4.73,0,0,0-.71-1c-3.67-4.21-14.95-5-19.79-5.76-5.86-1-11.85-2.61-16.16-5.33a144.14,144.14,0,0,0,16.87-13.09c6.77,2.25,18.53,6.82,26.36,2.49-.71-6.29-9-4.81-13.51-5.1a19.42,19.42,0,0,1-6.15-1.09c4.82-5.11,35.85-8.68,39.69-15.58A2.85,2.85,0,0,0,1011.25,286.54Z"/><path class="cls-11" d="M725.25,450.44a5,5,0,0,0-.48-1.55C725,449.4,725.12,449.91,725.25,450.44Z"/><path class="cls-11" d="M836.52,449.39a63.57,63.57,0,0,0-7.19-9.58,59.52,59.52,0,0,0-35.85-19.3c-51.65-7.12-59.47,9.72-59.47,9.72s-48.85-43-70.15,4.59S675.69,616.88,708,622.36c22.55,3.84,73.13-30,106-67.18A198.81,198.81,0,0,0,828.23,537,114.06,114.06,0,0,0,840,516C850.42,490.7,847.29,467,836.52,449.39Zm-39.18,71.77c-4.81,4.52-9.54,5.41-10.94,11.86-1.29,6,4.42,6.53-.09,13a11.4,11.4,0,0,1-2.27,2.38,21.92,21.92,0,0,1-5.25,2.87c-3.74,1.54-7.85,2.67-10.79,4.88-4.26,3.2-5.18,5.85-8.12,10.61-1.52,2.46-3,5.11-4.55,7.69a50.17,50.17,0,0,1-3.92,5.68,22.72,22.72,0,0,1-7.48,6.22c-2,1-3.22-3.27-5.46-2.13-3.1,1.57-5,5.83-7.43,8.35l-.26.27c-1.34,1.33-2.91,2.94-4.61,4.54-3,2.8-6.31,5.54-9.38,6.54a26.29,26.29,0,0,1-2.62.73c-10.06,2.27-5-6.76-7.16-15.2a8.76,8.76,0,0,0-.29-1,22.38,22.38,0,0,0-2.66-5.34c-1.1-1.71-2.38-3.37-3.64-5-3.07-4-6.07-8-6.49-12.51-.38-4.12,3.16-7.11,2.43-11.1a10.25,10.25,0,0,0-.85-2.66,17.38,17.38,0,0,0-3.11-4.27c-.65-.74-1.34-1.49-2-2.33-7.26-9.24-11.78-10.22-9.5-21.93l.12-.6c.74-3.75,1.46-6.68,1.84-9.43.65-4.54.38-8.59-2.23-15l-1-2.49a48.86,48.86,0,0,1-3-9.07c-.71-3.86-.22-7.36,1.9-12.6,1.16-2.88,4.58-6.32,4.63-9.47.06-3.78-4.15-5.88-4.48-9.8-.06-.69-.09-1.34-.1-1.94-.28-11.76,7.53-7.82,15.09-4.58,11.85,5.08,7.16.5,13.82-4.54a19.25,19.25,0,0,1,2.74-1.72c5.39-2.83,10.7-.19,13.48,4.55l5,5a21.29,21.29,0,0,0,5.05.65l.73,0a14.31,14.31,0,0,0,7.21-2.56c2.51-1.59,5.08-3.66,9-5.42,8.63-3.91,11.64,0,19.34.81,6.37.69,11.92-3.12,18.67-1.38a16.66,16.66,0,0,1,12.61,15.51,17.88,17.88,0,0,1-.83,6.31c.39.1.76.21,1.13.32,15.15,4.45,15.36,12.24,9.94,24.84-.23.55-.46,1.09-.66,1.62-2.26,5.74-3.11,10.75-4.8,15.56a32.37,32.37,0,0,1-3.18,6.74l-.71,1.09A35.21,35.21,0,0,1,797.34,521.16Z"/><path class="cls-9" d="M812.81,459.7c-5.1-1.4-11.1-.23-16.41-.48-12.37-.6-20.93-7.56-32.43-10.89-10.84-3.13-20.76.61-30.32,4.19,1.15-4.4,2.18-8.48,2.08-10.7l-3.26-2.72c-4.52.59-7.09,5.94-8.64,11.8-2.75-1.23-5.52-3.77-8.19-4.74a56.92,56.92,0,0,0-13.57-3.24c-8.64-1-18.23-2.69-27.14-1.65-11.65,1.37-10.54,10.17.54,11.4,9.07,1,18.35-1.09,27.14,1.12,5.76,1.45,14.82,3.76,19.12,9.06-.09.71-.18,1.37-.25,1.93a68.56,68.56,0,0,0-.41,12.1c-8,2.15-15.54,6-24,6.73-10.55.91-23.65,1.49-31.9,9.78-3.26,3.27-1.76,6,3.25,6.51,5.88.64,11.38-4.95,16.42-6.95,9.69-3.84,19.47-4.45,29.74-5,2.29-.12,5.39-.67,7.4-.39.53,4.77,1.13,9.56,1.5,14.3-7.24,2.65-15.72,4.08-23,6a174.74,174.74,0,0,0-25,8.28c-1.93.84-10,3.74-7.49,7.49,1.73,2.61,11.26-.34,13.37-1.09,8.51-3,16.94-8.77,25.64-11.15,3.25-.89,6.38-.54,9.77-.68,1.63-.07,3.27,0,4.88-.12a10.51,10.51,0,0,0,2.16-.49,142.91,142.91,0,0,1-3.12,28c-3.27.54-6.65,3.35-9.35,4.79-4.39,2.34-8.32,2.88-13,3.65-5.41.89-18.94,2.66-22.12,8.29-2.54,4.51,1.76,6.24,5.83,5.19,4.88-1.25,7.63-6.41,12.49-7.93,7.29-2.27,15.67-1.9,23.46-2.25-1.95,7.62-4.19,15.21-6.42,22.89-4.35,3.27-10.09,4.64-14.87,7-5.87,2.84-7.82,3.88-7.52,10.76,4.2.66,7.94-4,11.44-5.75,2.35-1.2,5.86-2.59,8.42-3.58-2.24,7.07-4.61,14.33-4.86,21.36-.1,2.91.39,10.67,5.56,9.78,3.15-.54,4.58-8.18,5.29-10.87,1.6-6.1,2.58-12.09,3.74-18.17,3.12,3.76,5.34,9.25,7.11,13.29,1.06,2.42,5.75,14.23,8.85,8.68,3-5.38-9-21.16-14.79-27.67.48-2.16,1-4.33,1.61-6.53,2.09-7.45,3.83-14.81,5.52-22.28,7.65,2.93,14.07,12,18,19,2.85,5,8.46,20.54,15.56,20,1.24-8.21-11.12-19.54-14.71-26.39-2.42-4.61-11.11-17.68-17.56-18.67.07-.29.13-.58.2-.88,2-8.82,4.45-15.89,4.46-25.09,0-2.34,0-4.74-.1-7.16,4.88,1.54,12.32,6.37,15.3,8.67,6.73,5.19,11,11.49,16.42,18,4.43,5.36,9.66,10.16,14.4,15.23,2.94,3.14,8.73,13.73,13.07,13.46,1.26-8.08-6.27-15-11.46-19.87s-9.12-11-14.5-16c-6.3-5.88-12.84-11.26-18.47-17.69-4.09-4.67-9.35-8.64-15.19-10.3-.26-3.73-.62-7.44-1.11-11-.2-1.44-.37-2.91-.52-4.39,8.9.64,17.42.14,26.06,4.51,5.58,2.82,10.36,7.34,15.76,10.21,4.59,2.43,9.84,3.09,14.75,5a57.54,57.54,0,0,1,23.1,16.71c2.73,3.21,5.6,7.69,8.4,1.62,2.19-4.75-2.61-9.09-6.1-11.92-6.57-5.33-14-6.1-21.72-8.7-8-2.68-13.9-8.48-21.72-11.81-12.75-5.43-25.33-12.9-39.11-13.75a73.87,73.87,0,0,1,.69-13.49c4.36-1.25,10.7-4.08,13.57-4.8a40.84,40.84,0,0,1,18.88-.78c11.26,2.23,21.64,5.36,33.11,6.63,4.58.51,9.2,1.11,13.45,2.85,2.58,1.05,9.8,5.4,12.09,1.52C824.46,465.47,815.48,460.44,812.81,459.7Z"/><path class="cls-11" d="M667,747.46c-15.77-8.53-.18-16.94,10.43-19.93,13.6-3.82,28.19-4.59,42-7.12,12.14-2.21,23.61-6.76,35.2-10.91,9.94-3.56,23.65-6.5,33.74-3.65,6.28,1.77,9.48,5.6,11,11.78,1.31,5.37-1.52,10.51.12,15.12l1-2c36.89-2,14.82,46-11.24,48.23-29.87,2.51-57.84-11.95-85.17-20.1C692.33,755.42,677.83,753.31,667,747.46Z"/><path class="cls-10" d="M705,734.48c3.52-1.92,9.57-2,13.51-2.87,9.48-2,16.81.27,26.27.37,19,.2,41.92-16.68,57.94-1.59a8.24,8.24,0,0,1-.61,1.48l2.58,3.77c3.35,8.82-8.56,13.41-15.29,13.36-4.66,0-9.53-1-14.38.14-5.16,1.17-9.21,3.48-14.78,2.94-9.71-.94-17.53-4.76-26.7-7.28-8.67-2.38-18.62.28-26.89-1.95C701.25,741.39,700,737.19,705,734.48Z"/><path class="cls-10" d="M226.39,832.81c23.39-34.4,80.41-51.51,87-84.45s-15.48-64.26-31.31-67.65c-11,12.44-30.27,30.33-43.34,65.07S223.64,829.37,226.39,832.81Z"/><path class="cls-11" d="M186.49,842c-1.38-38.74-12.38-49.74-24.08-84.14s-28.2-51.52-57.1-72.19-70.84-32.47-82.54-17S8.31,727.55,64.73,775C116.32,815.61,148,807.09,186.49,842Z"/><path class="cls-10" d="M183.49,888.75c-13.77,20.08-58.52,47.62-84.92,72.58-21.23,19.22-55.65,11.92-76.31,7.83S-9.3,935,10.21,905.28s59.67-45.22,103.28-37.76S176.61,876.13,183.49,888.75Z"/><path class="cls-9" d="M9.7,955.39l-1.27-1.32c14.23-13.67,48.19-32.63,84.49-47.16,40.69-16.29,73.78-23.24,90.79-19l.12,0,.1.06c7.29,4,14.48,13.27,20.26,25.95,5.14,11.29,8.33,23.86,8.33,32.8h-1.83c0-18.38-12.95-48.87-27.54-57.09C146.23,880.68,38.62,927.61,9.7,955.39Z"/><path class="cls-9" d="M200.47,962.21l-1.82-.14c.06-.83,5.95-83.36-13-119.65C152.12,788,90.27,723.63,24.28,674.49L25.37,673c66.18,49.28,128.22,113.83,161.9,168.46l0,.06C206.46,878.28,200.54,961.37,200.47,962.21Z"/><path class="cls-9" d="M226.58,969.37l-1.09-7.09c-.13-.81-12.27-81.24,0-129.7,5.05-19.88,16.44-38,27.47-55.44,14.66-23.25,29.81-47.29,31-76.48l1.83.07c-1.19,29.68-16.48,53.93-31.27,77.38-10.94,17.37-22.26,35.32-27.23,54.92-10.09,39.8-3.56,101.5-.93,122.05,2.36-16.83,10-59.42,28.62-78.88l1.32,1.27c-22.57,23.57-28.93,84.15-29,84.76Z"/><path class="cls-9" d="M73.62,714.44c-1.67-.25-41-6.05-49.38-13l1.17-1.4c8,6.65,48.07,12.57,48.47,12.63Z"/><path class="cls-9" d="M60.74,737.48c-8.63,0-16.76-.41-21.69-1.64l.44-1.78c14.14,3.53,57,0,57.4,0l.15,1.82C95.88,736,77.37,737.48,60.74,737.48Z"/><path class="cls-9" d="M102.82,741.65c0-.39-5.33-38.78-10-50.93l1.7-.66c4.8,12.35,10,49.75,10.16,51.34Z"/><path class="cls-9" d="M137.55,778.35c0-.43-4.29-43.24-8.35-58.13l1.76-.48c4.1,15,8.37,58,8.41,58.43Z"/><path class="cls-9" d="M162.9,809.29c-13.26-5.65-49.84-4.85-50.21-4.84l0-1.83c1.51,0,37.34-.81,51,5Z"/><path class="cls-9" d="M246.44,788c-.16-1.26-3.76-31-2.38-43.32l1.81.2c-1.34,12.13,2.34,42.59,2.38,42.9Z"/><path class="cls-9" d="M269.1,749.39a109,109,0,0,1-3-40.62l1.82.24a106.78,106.78,0,0,0,3,39.85Z"/><path class="cls-9" d="M283.44,716.74l-.92-1.58c.11-.06,10.73-6.29,16.73-15l1.5,1C294.52,710.25,283.89,716.48,283.44,716.74Z"/><path class="cls-9" d="M266.47,758.05l-.47-1.77c.13,0,13.16-3.77,33.3-27.86l1.4,1.17C280.11,754.22,267,757.91,266.47,758.05Z"/><path class="cls-9" d="M238.45,804.38l-.35-1.79c.25-.05,25.84-5.22,40.59-21.31l1.35,1.24C264.87,799.06,238.71,804.33,238.45,804.38Z"/><path class="cls-9" d="M94.69,955l-1.76-.51c.52-1.82,13.1-44.64,32.44-59l1.1,1.47C107.62,910.94,94.81,954.55,94.69,955Z"/><path class="cls-9" d="M138.71,893.53c-2.17-.23-53.31-5.77-70.46-19l1.11-1.45c16.75,12.89,69,18.55,69.54,18.6Z"/><path class="cls-9" d="M63.74,917.42c-15.6,0-34.61-4.2-49.18-8.2l.48-1.76c26,7.14,46.64,9.64,59.62,7.24l.33,1.8A62,62,0,0,1,63.74,917.42Z"/><path class="cls-9" d="M49.3,957.78l-1.8-.35c3.61-18.64,12.46-35.52,12.55-35.69l1.62.86C61.58,922.77,52.85,939.41,49.3,957.78Z"/><path class="cls-9" d="M31.41,957.73l-1.81-.26c1.18-8.25,4.74-19.57,9.78-24.93l1.33,1.26C35.94,938.87,32.55,949.76,31.41,957.73Z"/><polygon class="cls-2" points="285.09 1068.42 142.23 1068.42 118.8 946.49 308.52 946.49 285.09 1068.42"/><path class="cls-11" d="M262.53,859.72c-25.3,12.41-29.6,40.95-8.59,81.81s35.32,61.86,74.45,51.36,34.85-44.49,22-70.45S297.85,844.76,262.53,859.72Z"/><path class="cls-9" d="M332,978.2c-2.13-4.05-4.9-9.73-8.1-16.31-15.45-31.68-44.19-90.65-67.13-98.17l.57-1.74c23.68,7.77,51.55,64.95,68.2,99.11,3.2,6.57,6,12.24,8.08,16.26Z"/><path class="cls-9" d="M308.79,883.66c-14.25,0-31.56-4.23-32.51-4.46l.44-1.78c.3.08,30.47,7.44,43.58,2.94l.6,1.73A38.52,38.52,0,0,1,308.79,883.66Z"/><path class="cls-9" d="M261.77,936.61,260,936.2c7.47-33.23,7.08-66.32,7.07-66.65l1.83,0C268.9,869.86,269.29,903.16,261.77,936.61Z"/><path class="cls-9" d="M287.92,968.43l-1.78-.41c.09-.38,8.85-38.36,7-64.67l1.82-.13C296.84,929.81,288,968.05,287.92,968.43Z"/><path class="cls-9" d="M349.87,940c-1.2-.21-29.64-5.34-44.74-15.51l1-1.52c14.78,10,43.75,15.18,44,15.23Z"/><path class="cls-9" d="M353.14,951.8c-.23,0-23.32-1.89-39.95-12l.94-1.57c16.27,9.85,38.93,11.68,39.15,11.7Z"/><path class="cls-9" d="M317.78,986.08l-1.68-.71c2.46-5.85,4.8-29.72,4.82-30l1.82.18C322.65,956.58,320.35,980,317.78,986.08Z"/></g></g></svg>