<svg xmlns="http://www.w3.org/2000/svg" xmlns:xlink="http://www.w3.org/1999/xlink" viewBox="0 0 1124.19 1458"><defs><style>.cls-1{fill:#65ccb7;}.cls-2{fill:#57bb99;}.cls-3{fill:#3b945e;}.cls-4{fill:url(#Gradiente_sem_nome_23);}.cls-5{fill:url(#Gradiente_sem_nome_23-2);}.cls-6{fill:url(#Gradiente_sem_nome_23-3);}.cls-7{fill:url(#Gradiente_sem_nome_24);}.cls-8{fill:url(#Gradiente_sem_nome_25);}.cls-9{fill:#256653;}.cls-10{fill:#124647;}.cls-11{fill:#215e4b;}.cls-12{fill:#327f6b;}.cls-13{fill:#3c8f7c;}.cls-14{fill:#39180d;}.cls-15,.cls-44{fill:#9fa9a4;}.cls-15{opacity:0.25;}.cls-16{fill:#fff;opacity:0.35;}.cls-17{fill:url(#Áåçûìÿííûé_ãðàäèåíò_240);}.cls-18{fill:url(#Áåçûìÿííûé_ãðàäèåíò_134);}.cls-19{fill:url(#Áåçûìÿííûé_ãðàäèåíò_134-2);}.cls-20{fill:url(#Áåçûìÿííûé_ãðàäèåíò_141);}.cls-21{fill:url(#Áåçûìÿííûé_ãðàäèåíò_134-3);}.cls-22{fill:url(#Áåçûìÿííûé_ãðàäèåíò_141-2);}.cls-23{fill:url(#Áåçûìÿííûé_ãðàäèåíò_134-4);}.cls-24{fill:url(#Áåçûìÿííûé_ãðàäèåíò_115);}.cls-25{fill:url(#Áåçûìÿííûé_ãðàäèåíò_115-2);}.cls-26{fill:url(#Áåçûìÿííûé_ãðàäèåíò_137);}.cls-27{fill:url(#Áåçûìÿííûé_ãðàäèåíò_137-2);}.cls-28{fill:#5d9343;}.cls-29{fill:#79b543;}.cls-30{fill:url(#Áåçûìÿííûé_ãðàäèåíò_5);}.cls-31{fill:url(#Áåçûìÿííûé_ãðàäèåíò_98);}.cls-32{fill:url(#Áåçûìÿííûé_ãðàäèåíò_92);}.cls-33{fill:url(#Áåçûìÿííûé_ãðàäèåíò_312);}.cls-34{fill:url(#Áåçûìÿííûé_ãðàäèåíò_312-2);}.cls-35{fill:url(#Áåçûìÿííûé_ãðàäèåíò_312-3);}.cls-36{fill:url(#Áåçûìÿííûé_ãðàäèåíò_92-2);}.cls-37{fill:url(#Áåçûìÿííûé_ãðàäèåíò_312-4);}.cls-38{fill:url(#Áåçûìÿííûé_ãðàäèåíò_240-2);}.cls-39{fill:url(#Áåçûìÿííûé_ãðàäèåíò_98-2);}.cls-40{fill:#386e3e;}.cls-41{fill:#3f7d46;}.cls-42{fill:#945147;}.cls-43{fill:#b27400;}.cls-44{opacity:0.15;}.cls-45{fill:#ebcdab;}.cls-46{fill:#466b3d;}.cls-47{fill:#638e54;}.cls-48{fill:#ddaa43;}.cls-49{fill:url(#Áåçûìÿííûé_ãðàäèåíò_240-3);}.cls-50{fill:url(#Áåçûìÿííûé_ãðàäèåíò_134-5);}.cls-51{fill:url(#Áåçûìÿííûé_ãðàäèåíò_134-6);}.cls-52{fill:url(#Áåçûìÿííûé_ãðàäèåíò_141-3);}.cls-53{fill:url(#Áåçûìÿííûé_ãðàäèåíò_134-7);}.cls-54{fill:url(#Áåçûìÿííûé_ãðàäèåíò_141-4);}.cls-55{fill:url(#Áåçûìÿííûé_ãðàäèåíò_134-8);}.cls-56{fill:url(#Áåçûìÿííûé_ãðàäèåíò_115-3);}.cls-57{fill:url(#Áåçûìÿííûé_ãðàäèåíò_115-4);}.cls-58{fill:url(#Áåçûìÿííûé_ãðàäèåíò_137-3);}.cls-59{fill:url(#Áåçûìÿííûé_ãðàäèåíò_137-4);}</style><linearGradient id="Gradiente_sem_nome_23" x1="889.53" y1="962.32" x2="889.53" y2="381.94" gradientTransform="translate(217.4 1561.66) rotate(-90)" gradientUnits="userSpaceOnUse"><stop offset="0" stop-color="#e0820a"/><stop offset="0.28" stop-color="#ffa016"/><stop offset="1" stop-color="#f7cc7f"/></linearGradient><linearGradient id="Gradiente_sem_nome_23-2" x1="599.66" y1="962.32" x2="599.66" y2="381.94" gradientTransform="translate(-72.47 1271.79) rotate(-90)" xlink:href="#Gradiente_sem_nome_23"/><linearGradient id="Gradiente_sem_nome_23-3" x1="1095.43" y1="962.32" x2="1095.43" y2="381.94" gradientTransform="matrix(1, 0, 0, 1, 0, 0)" xlink:href="#Gradiente_sem_nome_23"/><linearGradient id="Gradiente_sem_nome_24" x1="29.17" y1="1136.91" x2="1094.21" y2="1136.91" gradientUnits="userSpaceOnUse"><stop offset="0" stop-color="#ff774a"/><stop offset="0.08" stop-color="#ff7f45"/><stop offset="0.3" stop-color="#ff8d3d"/><stop offset="0.56" stop-color="#ff9538"/><stop offset="1" stop-color="#ff9836"/></linearGradient><linearGradient id="Gradiente_sem_nome_25" x1="29.17" y1="1191.98" x2="1094.21" y2="1191.98" gradientUnits="userSpaceOnUse"><stop offset="0" stop-color="#d95733"/><stop offset="0.29" stop-color="#db662a"/><stop offset="0.65" stop-color="#dd7322"/><stop offset="1" stop-color="#de7720"/></linearGradient><linearGradient id="Áåçûìÿííûé_ãðàäèåíò_240" x1="670.74" y1="1020.28" x2="636.14" y2="962.06" gradientUnits="userSpaceOnUse"><stop offset="0" stop-color="#736300"/><stop offset="1" stop-color="#504f00"/></linearGradient><linearGradient id="Áåçûìÿííûé_ãðàäèåíò_134" x1="676.4" y1="1030.05" x2="678.7" y2="997.17" gradientUnits="userSpaceOnUse"><stop offset="0" stop-color="#5c5600"/><stop offset="0.72" stop-color="#6b6600"/><stop offset="1" stop-color="#a4433e"/></linearGradient><linearGradient id="Áåçûìÿííûé_ãðàäèåíò_134-2" x1="692.54" y1="1035.33" x2="694.85" y2="1002.33" xlink:href="#Áåçûìÿííûé_ãðàäèåíò_134"/><linearGradient id="Áåçûìÿííûé_ãðàäèåíò_141" x1="690.15" y1="1030.71" x2="692.43" y2="998.13" gradientUnits="userSpaceOnUse"><stop offset="0" stop-color="#6d6100"/><stop offset="0.72" stop-color="#9d8800"/><stop offset="1" stop-color="#c94368"/></linearGradient><linearGradient id="Áåçûìÿííûé_ãðàäèåíò_134-3" x1="683.45" y1="1029.39" x2="685.67" y2="997.65" xlink:href="#Áåçûìÿííûé_ãðàäèåíò_134"/><linearGradient id="Áåçûìÿííûé_ãðàäèåíò_141-2" x1="679.73" y1="1030.08" x2="682.18" y2="994.98" xlink:href="#Áåçûìÿííûé_ãðàäèåíò_141"/><linearGradient id="Áåçûìÿííûé_ãðàäèåíò_134-4" x1="700.82" y1="1033.3" x2="701.81" y2="1019.12" xlink:href="#Áåçûìÿííûé_ãðàäèåíò_134"/><linearGradient id="Áåçûìÿííûé_ãðàäèåíò_115" x1="659.3" y1="1033.76" x2="661.84" y2="997.38" gradientUnits="userSpaceOnUse"><stop offset="0" stop-color="#7c7500"/><stop offset="0.72" stop-color="#9d8800"/><stop offset="1" stop-color="#c94368"/></linearGradient><linearGradient id="Áåçûìÿííûé_ãðàäèåíò_115-2" x1="698.72" y1="1034.9" x2="700.96" y2="1002.76" xlink:href="#Áåçûìÿííûé_ãðàäèåíò_115"/><linearGradient id="Áåçûìÿííûé_ãðàäèåíò_137" x1="660.5" y1="1034" x2="661.5" y2="1019.7" gradientUnits="userSpaceOnUse"><stop offset="0" stop-color="#8b851d"/><stop offset="0.72" stop-color="#9d8800"/><stop offset="1" stop-color="#c94368"/></linearGradient><linearGradient id="Áåçûìÿííûé_ãðàäèåíò_137-2" x1="703.24" y1="1033.21" x2="704.21" y2="1019.29" xlink:href="#Áåçûìÿííûé_ãðàäèåíò_137"/><linearGradient id="Áåçûìÿííûé_ãðàäèåíò_5" x1="4284.55" y1="1011.66" x2="4284.55" y2="913.49" gradientTransform="matrix(-1, 0, 0, 1, 4966.44, 0)" gradientUnits="userSpaceOnUse"><stop offset="0" stop-color="#9f2f3f"/><stop offset="1" stop-color="#e05a2c"/></linearGradient><linearGradient id="Áåçûìÿííûé_ãðàäèåíò_98" x1="4324.21" y1="932.52" x2="4324.21" y2="905.65" gradientTransform="matrix(-1, 0, 0, 1, 4966.44, 0)" gradientUnits="userSpaceOnUse"><stop offset="0" stop-color="#7c7500"/><stop offset="1" stop-color="#a38c00"/></linearGradient><linearGradient id="Áåçûìÿííûé_ãðàäèåíò_92" x1="4205.31" y1="989.38" x2="4205.31" y2="935.26" gradientTransform="matrix(-1, 0, 0, 1, 4966.44, 0)" gradientUnits="userSpaceOnUse"><stop offset="0" stop-color="#686d00"/><stop offset="1" stop-color="#8f7a00"/></linearGradient><linearGradient id="Áåçûìÿííûé_ãðàäèåíò_312" x1="4209.82" y1="943.61" x2="4209.82" y2="921.44" gradientTransform="matrix(-1, 0, 0, 1, 4966.44, 0)" gradientUnits="userSpaceOnUse"><stop offset="0" stop-color="#937f00"/><stop offset="1" stop-color="#a38c00"/></linearGradient><linearGradient id="Áåçûìÿííûé_ãðàäèåíò_312-2" x1="4292.45" y1="967" x2="4292.45" y2="959.73" xlink:href="#Áåçûìÿííûé_ãðàäèåíò_312"/><linearGradient id="Áåçûìÿííûé_ãðàäèåíò_312-3" x1="4222.7" y1="1001.32" x2="4222.7" y2="997.97" xlink:href="#Áåçûìÿííûé_ãðàäèåíò_312"/><linearGradient id="Áåçûìÿííûé_ãðàäèåíò_92-2" x1="4195.81" y1="996.19" x2="4195.81" y2="990.53" xlink:href="#Áåçûìÿííûé_ãðàäèåíò_92"/><linearGradient id="Áåçûìÿííûé_ãðàäèåíò_312-4" x1="4194.76" y1="923.12" x2="4194.76" y2="919.76" xlink:href="#Áåçûìÿííûé_ãðàäèåíò_312"/><linearGradient id="Áåçûìÿííûé_ãðàäèåíò_240-2" x1="289.97" y1="1040.94" x2="270.69" y2="1008.49" xlink:href="#Áåçûìÿííûé_ãðàäèåíò_240"/><linearGradient id="Áåçûìÿííûé_ãðàäèåíò_98-2" x1="271.19" y1="1047.41" x2="233.51" y2="984.02" gradientTransform="matrix(1, 0, 0, 1, 0, 0)" xlink:href="#Áåçûìÿííûé_ãðàäèåíò_98"/><linearGradient id="Áåçûìÿííûé_ãðàäèåíò_240-3" x1="390.8" y1="1040.89" x2="353.72" y2="978.49" xlink:href="#Áåçûìÿííûé_ãðàäèåíò_240"/><linearGradient id="Áåçûìÿííûé_ãðàäèåíò_134-5" x1="266" y1="1063.46" x2="268.25" y2="1031.26" xlink:href="#Áåçûìÿííûé_ãðàäèåíò_134"/><linearGradient id="Áåçûìÿííûé_ãðàäèåíò_134-6" x1="279.86" y1="1068.56" x2="282.12" y2="1036.18" xlink:href="#Áåçûìÿííûé_ãðàäèåíò_134"/><linearGradient id="Áåçûìÿííûé_ãðàäèåíò_141-3" x1="279.47" y1="1064.1" x2="281.7" y2="1032.19" xlink:href="#Áåçûìÿííûé_ãðàäèåíò_141"/><linearGradient id="Áåçûìÿííûé_ãðàäèåíò_134-7" x1="272.91" y1="1062.81" x2="275.08" y2="1031.73" xlink:href="#Áåçûìÿííûé_ãðàäèåíò_134"/><linearGradient id="Áåçûìÿííûé_ãðàäèåíò_141-4" x1="269.26" y1="1063.48" x2="271.66" y2="1029.11" xlink:href="#Áåçûìÿííûé_ãðàäèåíò_141"/><linearGradient id="Áåçûìÿííûé_ãðàäèåíò_134-8" x1="289.92" y1="1066.64" x2="290.89" y2="1052.76" xlink:href="#Áåçûìÿííûé_ãðàäèåíò_134"/><linearGradient id="Áåçûìÿííûé_ãðàäèåíò_115-3" x1="249.25" y1="1067.09" x2="251.74" y2="1031.46" xlink:href="#Áåçûìÿííûé_ãðàäèåíò_115"/><linearGradient id="Áåçûìÿííûé_ãðàäèåíò_115-4" x1="287.86" y1="1068.21" x2="290.06" y2="1036.73" xlink:href="#Áåçûìÿííûé_ãðàäèåíò_115"/><linearGradient id="Áåçûìÿííûé_ãðàäèåíò_137-3" x1="250.43" y1="1067.32" x2="251.41" y2="1053.32" xlink:href="#Áåçûìÿííûé_ãðàäèåíò_137"/><linearGradient id="Áåçûìÿííûé_ãðàäèåíò_137-4" x1="292.29" y1="1066.55" x2="293.24" y2="1052.92" xlink:href="#Áåçûìÿííûé_ãðàäèåíò_137"/></defs><g id="Camada_2" data-name="Camada 2"><g id="background"><path class="cls-1" d="M1124.19,0V1458H517.1c-.84-1.85-1.72-3.67-2.62-5.45-1.08-2.16-2.18-4.29-3.3-6.36q-3.14-5.75-6.46-11.15c-.25-.42-.51-.84-.76-1.23-4.83-7.81-9.93-15.13-15.22-22.17-.26-.35-.53-.7-.79-1.06-4-5.33-8.15-10.48-12.34-15.55-4.64-5.65-9.36-11.18-14.09-16.71-7.95-9.31-15.91-18.59-23.61-28.33q-4.2-5.31-8.3-11c-21.52-29.63-40.42-66-45.64-110.37a276.76,276.76,0,0,1-1.53-37.81c.29-14.71,1.35-29.49,2.34-44.18.08-1.37.17-2.73.26-4.09.77-12,1.36-24.12,1.7-36.4.21-7.2.33-14.45.35-21.7.25-69.36-8.18-139.6-35.44-188.15-1.06-1.89-2.16-3.73-3.28-5.54a142.71,142.71,0,0,0-9.23-13.39c-.68-.88-1.36-1.74-2.06-2.58-.34-.44-.7-.85-1.05-1.27q-3.48-4.15-7.16-7.9c-1.27-1.32-2.55-2.59-3.85-3.85-1.92-1.84-3.87-3.65-5.85-5.38-3.39-3-6.83-5.85-10.3-8.65-2-1.6-4-3.16-6-4.73l-4-3.14a4.57,4.57,0,0,1-.36-.29c-1.86-1.43-3.72-2.88-5.58-4.33-5.16-4-10.26-8.14-15.22-12.54a156.05,156.05,0,0,1-13.31-13.08c-.3-.33-.6-.66-.89-1a126.68,126.68,0,0,1-9.61-12.28q-3.09-4.46-5.92-9.48c-.53-1-1.06-1.92-1.58-2.9a140.2,140.2,0,0,1-7.34-16.4q-2.55-6.72-4.57-13.85a250.09,250.09,0,0,1-7.73-40c-.75-6.35-1.31-12.8-1.71-19.3q-.54-8.8-.7-17.7c0-1.7-.07-3.41-.08-5.11v-.42c0-.52,0-1,0-1.56,0-6.45.06-12.9.27-19.3q.1-3.37.25-6.74c.07-1.8.16-3.59.25-5.38q.39-7.44.91-14.88c0-.54.07-1.08.1-1.62.39-5.55.82-11.09,1.26-16.63q.51-6.29,1-12.57.78-9,1.54-18.1c.81-9.73,1.57-19.45,2.19-29.18l0-.48v0a1.09,1.09,0,0,0,0-.18,553.42,553.42,0,0,0,1-59.31,366.91,366.91,0,0,0-6.46-54.13q-.71-3.59-1.48-7.14a342.77,342.77,0,0,0-10.17-37q-1.22-3.62-2.51-7.15c-13.52-37.22-32.76-68.3-55.88-90.19-6-5.65-12.1-10.78-18.22-15.84-3.26-2.7-6.52-5.37-9.75-8.1q-1.86-1.56-3.69-3.15c-3.68-3.2-7.32-6.49-10.87-10a134.94,134.94,0,0,1-27.85-38.61q-1.29-2.69-2.55-5.4-2.13-4.58-4.19-9.22c-3.45-7.74-6.77-15.61-10-23.55q-2.62-6.37-5.19-12.82l-3.09-7.77-1.92-4.85-1-2.48c-1.53-3.88-3.07-7.77-4.62-11.64-.22-.56-.44-1.12-.67-1.67-2.75-6.91-5.52-13.78-8.36-20.59q-1.73-4.17-3.5-8.31c-.43-1-.86-2-1.3-3-2.09-4.84-4.23-9.65-6.37-14.44-4.28-9.61-8.59-19.2-12.68-29l-.4-1C19.13,55.22,14,40.61,9.22,26.77S0,0,0,0Z"/><path class="cls-2" d="M469.57,1139.5v44.19H417.75c.36-14.72,1.69-29.51,2.92-44.19Z"/><rect class="cls-2" x="517.96" y="597.4" width="105.12" height="44.19"/><rect class="cls-2" x="582.76" y="662.62" width="105.12" height="44.19"/><rect class="cls-2" x="449.66" y="662.62" width="105.12" height="44.19"/><rect class="cls-2" x="528.88" y="733.03" width="105.12" height="44.19"/><rect class="cls-2" x="91.28" y="35.68" width="105.12" height="44.19"/><path class="cls-2" d="M142.51,106.09v44.19H59.22l-1-2.48c-1.53-3.88-3.07-7.77-4.62-11.64V106.09Z"/><rect class="cls-2" x="270.81" y="314.55" width="105.12" height="44.19"/><rect class="cls-2" x="335.6" y="379.77" width="105.12" height="44.19"/><path class="cls-2" d="M307.62,379.77V424H225.11a342.77,342.77,0,0,0-10.17-37q-1.22-3.62-2.51-7.15Z"/><rect class="cls-2" x="281.72" y="450.18" width="105.12" height="44.19"/><rect class="cls-2" x="809.23" y="88.56" width="105.12" height="44.19"/><rect class="cls-2" x="874.03" y="153.78" width="105.12" height="44.19"/><rect class="cls-2" x="740.93" y="153.78" width="105.12" height="44.19"/><rect class="cls-3" x="757.14" y="369.67" width="264.78" height="604.92"/><rect class="cls-3" x="467.27" y="369.67" width="264.78" height="604.92"/><rect class="cls-3" x="1052.02" y="369.67" width="72.17" height="604.92"/><rect class="cls-4" x="599.33" y="554.38" width="580.39" height="235.5" transform="translate(1561.66 -217.4) rotate(90)"/><rect class="cls-5" x="309.47" y="554.38" width="580.39" height="235.5" transform="translate(1271.79 72.47) rotate(90)"/><rect class="cls-6" x="1066.66" y="381.94" width="57.53" height="580.38"/><polygon class="cls-7" points="1094.21 1177.31 539.9 1179.41 359.48 1180.08 29.17 1181.35 188.82 1094.48 282.78 1094.24 532.19 1093.57 957.79 1092.46 1094.21 1177.31"/><polygon class="cls-8" points="1094.21 1177.31 1084.08 1206.64 1038.84 1206.6 57.43 1205.61 38.28 1205.61 29.17 1181.35 1094.21 1177.31"/><polygon class="cls-9" points="867.51 1220.78 888.4 1360.89 973.95 1425.56 984.05 1425.56 982.71 1416.81 899.17 1359.55 877.62 1221.45 867.51 1220.78"/><polygon class="cls-10" points="216.78 1226.17 214.09 1367.63 888.4 1360.89 867.51 1220.78 861.45 1220.1 879.64 1352.81 220.82 1360.89 224.19 1226.17 216.78 1226.17"/><polygon class="cls-10" points="141.33 1431.63 214.09 1367.63 888.4 1360.89 973.95 1425.56 966.54 1426.24 886.38 1367.63 214.76 1373.69 153.46 1432.97 141.33 1431.63"/><path class="cls-11" d="M1022.46,1456.21c0,1-58.42,1.5-145.92,1.7-18,0-37.28,0-57.55.08-118.09.08-269.47-.24-403.16-.64-51.57-.15-100.48-.31-143.9-.51-104-.32-176.07-.63-176.07-.63s8.79-184.31,10.76-227.49l20.35-.08L121.11,1436l154.46-.55L413.5,1435l401.5-1.38,56-.2,124.15-.43-27.07-207,19.11-.08C993.33,1265.29,1022.46,1452.61,1022.46,1456.21Z"/><polygon class="cls-10" points="126.97 1228.64 121.11 1436.02 995.19 1432.97 968.12 1226.03 954.75 1224.82 984.05 1425.56 129.88 1431.63 138.3 1225.83 126.97 1228.64"/><polygon class="cls-10" points="1038.84 1206.6 1035.28 1216.02 1031.56 1225.83 987.23 1225.95 968.12 1226.03 831.14 1226.47 776.37 1226.63 412.47 1227.77 272.13 1228.21 126.97 1228.64 106.62 1228.72 66.57 1228.84 60.24 1212.69 57.43 1205.61 265.6 1205.81 418.37 1205.97 775.98 1206.32 832.77 1206.4 1038.84 1206.6"/><polygon class="cls-9" points="127.19 1426.91 201.96 1366.96 205.33 1226.17 216.78 1226.17 214.09 1367.63 141.33 1431.63 129.88 1431.63 127.19 1426.91"/></g><g id="objects"><path class="cls-12" d="M713.72,62.83c-21.22-3-2.14-35,27.77-62.83h31.33C757,28.93,733,65.53,713.72,62.83Z"/><path class="cls-12" d="M798.58,0H830.7c16.47,20.54,28.91,45.83,17.72,68.51C832.61,100.54,811.3,43.05,798.58,0Z"/><path class="cls-13" d="M778.94,0h5.32c-1.37,9.51-2.85,20.05-4.39,31.47,12.85,25.36,78.5,159.19,47.22,187.91-34.6,31.75-46.92-130.8-46.92-130.8l-1.82-45.79c-5.24,39.49-11,87.64-15.59,137.34,11.91,9.8,61.12,53,40.63,81.43-19,26.44-35.88-46.67-41.32-73.78-2.92,32.88-5.27,66.28-6.53,98.16,12.57,5.84,65.6,32.21,51.05,55.24-14.09,22.29-43.35-27.19-51.52-42-.59,19.55-.73,38.38-.3,56,13.73,6.46,75.18,36.53,60,50.86-17.06,16.12-52.13-27-52.13-27s27.48,110.43-2.4,98.59-9.93-105.22-10.87-107.58l.51-3c-.58-14.51-.74-29.95-.54-46-5.55,14.22-16.26,37.89-22.72,27.7-7.6-12,15.59-36.47,23-43.83.57-21.9,1.72-44.75,3.27-67.84-10.79,27.25-33.34,66.63-44.78,48.16-12.85-20.71,35.42-74.27,47.78-87.44,2.88-33.93,6.42-67.54,10.06-98.6-15.17,39.71-64.62,123.72-80.59,95.05-16.64-29.86,69.07-123.4,86.38-141.8C774.32,32.86,776.77,15.13,778.94,0Z"/><path class="cls-13" d="M1043.86,490.79c-17,20.06-61.39-23.54-61.39-23.54s44.42,119.44,9.68,110c-30.6-8.32-26.07-91.92-25.5-113.38-2.85-17.32-5.27-36-7.29-55.68-4.67,16.56-12.93,39.59-20.77,29.83-9.42-11.74,10.47-39.39,18.85-50-2.06-23.57-3.62-48.2-4.79-73.16-7,24.06-19.85,54.19-31.93,58.72-3.68,1.36-7.29.37-10.64-3.88-6.15-7.81-3.82-21.49,2.2-36.5,9.94-24.77,30-53.2,38.63-64.93-1-36.82-1.35-73.41-1.23-107.5C936,208.7,893.94,300.08,873.36,271.28a17.18,17.18,0,0,1-2.15-4.1c-2.16-5.73-2-13.26-.14-22a117.59,117.59,0,0,1,4.73-15.94,244.84,244.84,0,0,1,10.92-24.82c4.13-8.27,8.8-16.72,13.66-25.06,3.6-6.15,7.31-12.25,11-18.16,15.63-24.85,31.39-46.58,38.84-56.6.48-29.33,1.2-55.13,1.87-75.35C939.53,62.92,915,119,890.5,121.39a13.09,13.09,0,0,1-2.07.09c-9.49-.25-12.54-6.36-10.9-15.78,1.55-9,7.4-21.12,16-34a243.48,243.48,0,0,1,21.89-28c11.41-12.71,24.38-24.72,37.45-33.94.1-2.45-.23-7.54-.13-9.68h16.6c2.79,2.7,5.51,5.93,7.84,8.66,11.6,8.08,26.48,19.76,39,33.53,13.63,15,24.53,32.39,25.48,50.38a45.93,45.93,0,0,1-2.67,18.37,34.28,34.28,0,0,1-1.33,3.23h0c-6,12.95-14.78,9.82-24.35-1.51-19.64-23.24-42.59-81-51.64-105C961,24.77,960.15,50,959.48,80.42c11.87,18.2,45.72,71.74,65.79,120.11A255.53,255.53,0,0,1,1037.35,236c4.88,19.72,5,36.18-3.17,45.53-34.51,39.66-68.59-139.67-68.59-139.67L959.1,99.43c-.78,43.21-1.06,94.62,0,147.39,14.67,9.73,60,42.34,57.61,72.66a28,28,0,0,1-2.55,9.71q-.5,1.1-1.11,2.19c-17,30.21-43-39.79-53.67-72.15.89,35.58,2.45,71.53,5,105.78,13.62,4.66,53.8,19.84,62.44,39.42a17.25,17.25,0,0,1-.19,15.14c-3,6.1-7.28,8.1-12.32,7.35-15.91-2.33-39-32-48.63-45.32,1.77,21.2,3.94,41.59,6.56,60.64,6.28,2.16,18.12,6.4,30.51,11.76a222.48,222.48,0,0,1,23.91,11.8C1040.86,474.11,1050.31,483.16,1043.86,490.79Z"/><path class="cls-12" d="M1042,13.73l-.55-.36a49.42,49.42,0,0,1-5-7.94,19.93,19.93,0,0,1-1.64-4.51h0a8.11,8.11,0,0,1-.18-.91h20.48c18.34,6.25,37.47,15.13,38.34,25.12C1094.78,40,1063.41,27.87,1042,13.73Z"/><path class="cls-12" d="M1041.68,92.57a125.34,125.34,0,0,1-4,21.6h0c-3.61,12.2-9.1,19.31-16.85,16.61-4.05-1.41-6.38-8.2-7.5-18.12-2-17.69-.12-45.38,2.87-70.48,1.93-16.31,4.33-31.52,6.44-42.19h12.21c.25.65.48,1.34.72,2.09h0c.32,1,.63,2.11.93,3.33.75,3,1.47,6.58,2.17,10.93.29,1.33.55,2.69.82,4.11h0C1043.17,40.72,1044.23,69.44,1041.68,92.57Z"/><path class="cls-12" d="M917.15,86.37c-18.2,21.3-37-48.56-45.31-85.13-.28,25.08-.59,58.65-.78,97.53,11.23,11.53,46,49.88,41.16,78.3-4.7,27.57-31.53-29.88-41.27-52-.06,20.31-.09,41.74-.07,63.92,14.06,12.22,48,45.36,31.82,67.85-13.12,18.22-25-17.87-31.77-45.4.07,25.25.21,51.26.46,77.49,17,13.6,64.25,55.68,47,90.64-15.31,31-36.55-34.5-46.81-71.73.31,28,.74,56,1.32,83.55,9.33,15.6,43.31,75.37,24.71,88.25-10.06,7-17.94-7.69-23.12-26.69.8,25.67,1.77,50.36,2.92,73.47,12.4,8.21,63.61,43.89,57.66,69.56-3.72,16-43.88,0-43.88,0s32.91,87.75,0,82.26c-23.33-3.89-21.85-79.44-19-123.09q-.73-12-1.38-24.8c-4.86,18.28-13.12,31.51-22.45,20.33-16.43-19.66,14-66.32,20.09-75.26-.86-24-1.57-49.1-2.14-74.72-12.62,24.59-60.65,83.29-66.15,53.42-5.3-28.71,51.37-70.86,65.59-80.93-.48-25.49-.83-51.31-1.09-77-9.11,19.42-40.23,81.64-63.44,78.39-26.93-3.77,20.7-61.33,63.4-82.8-.24-25.16-.39-50.13-.47-74.44-.09.63-.17,1.26-.28,1.94-2.56,16.49-31.25,78.75-44,58.14s44-78.66,44-78.66a3,3,0,0,1,.23.52c0-23.48,0-46.22,0-67.76-9,22.84-40.64,73.51-50.75,56.52-9.61-16.14,35.38-64.07,50.83-79.78.13-31.17.35-59.25.57-82.67-10.72,23.48-43.23,88.12-53.16,64.7C801,65.37,852.94,17.37,865,6.7q0-3.45.07-6.7h25.8C910,28.23,932.23,68.72,917.15,86.37Z"/><path class="cls-14" d="M656.75,984.61a1.4,1.4,0,0,1-.29-2.76L794,952.34a1.41,1.41,0,0,1,1.65,1.08,1.38,1.38,0,0,1-1.07,1.65L657.05,984.58Z"/><path class="cls-14" d="M926.7,1007.84a1.6,1.6,0,0,1-.52-.1L793.72,955a1.4,1.4,0,0,1-.78-1.81,1.43,1.43,0,0,1,1.82-.78l132.46,52.74a1.39,1.39,0,0,1-.52,2.69Z"/><path class="cls-14" d="M618.75,1041.2a1.4,1.4,0,0,1-1.16-2.17l38-56.59a1.4,1.4,0,0,1,2.32,1.55l-38,56.59A1.4,1.4,0,0,1,618.75,1041.2Z"/><path class="cls-14" d="M853.88,956.22c1.87-.33,6.26-1.36,10,.94,4.4,2.68,4.42,7.71,8.16,8.48,3.43.69,6.13-3,7.54-1.89s-1.47,5.06-.32,8.48c1.67,4.92,10.84,5.87,13.5,6.27,8.3,1.26,19.84,7.19,33.9,27.94q-35.78,69.69-71.57,139.37H650.48l-56.1-97c9.71-25.57,27.21-57.91,59.86-71.89,8.55-3.66,9.75-2.47,38.3-7.54,69.93-12.4,77-22.06,111.37-20.5C817,949.49,841.71,958.33,853.88,956.22Z"/><path class="cls-15" d="M618.19,1038.43l-23.81,10.4-4.59-43.17-7.35-86.35Q600.32,978.88,618.19,1038.43Z"/><path class="cls-14" d="M799.58,945.28l-3.82,9.13a1.39,1.39,0,0,1-1.29.85,1.26,1.26,0,0,1-.53-.11,1.34,1.34,0,0,1-.36-.22h0a1.27,1.27,0,0,1-.33-.24l-8.54-8.84c1.18-.19,2.34-.33,3.47-.43a69.83,69.83,0,0,1,8.44-.25Q798.13,945.21,799.58,945.28Z"/><path class="cls-14" d="M863,962.5c-.53,2.28-13.38-1.59-36.86-3.25l-3-.19-3.34-11.36c1,.19,2,.39,3.08.6C843.18,952.39,863.66,959.6,863,962.5Z"/><path class="cls-16" d="M650.24,1142.2l-55.4-91.34,11.89-6,11.7-6.45Q634.33,1090.28,650.24,1142.2Z"/><path class="cls-16" d="M650.2,1146.91l-15.93-52.67q-7.89-26.67-15.8-53.34l123.62,29.92Z"/><path class="cls-16" d="M855.13,1145.81H712.94l-62.46,1.1,91.89-77.19Z"/><path class="cls-16" d="M855.13,1145.81l-112.76-76.09,38.69-40.62,49-51.47Z"/><path class="cls-16" d="M926.58,1005.38,855.3,1143.61q-12.66-83.52-25.34-167-17.94-61-35.89-122l43.21-4.4Q881.94,927.77,926.58,1005.38Z"/><path class="cls-9" d="M837.4,852.62c-.21,0-167-25.54-167-25.54a1.4,1.4,0,0,1,.42-2.76l166.83,25.52a1.4,1.4,0,0,1-.21,2.78Z"/><path class="cls-9" d="M672,825.82l-.13,1.48v.13l-.13,1.44L659.06,973a24.71,24.71,0,0,1-3,2.29l12.78-145.74.35-4a.29.29,0,0,1,0-.09.13.13,0,0,1,0-.06v0a.16.16,0,0,1,0-.09s0,0,0-.05a0,0,0,0,1,0,0,0,0,0,0,1,0,0,.31.31,0,0,1,.06-.13,1.38,1.38,0,0,1,.32-.4,2.2,2.2,0,0,1,.32-.21,1.4,1.4,0,0,1,.36-.13.86.86,0,0,1,.28,0h.11l.11,0h0l.11,0,.1,0a.11.11,0,0,1,.07,0,.71.71,0,0,1,.21.11.87.87,0,0,1,.21.17h0l0,0A1.33,1.33,0,0,1,672,825.82Z"/><path class="cls-9" d="M795.21,954.71a1.39,1.39,0,0,1-1,.39,1.38,1.38,0,0,1-.66-.17h0a1.27,1.27,0,0,1-.33-.24l-8.54-8.84-113-117-1.12-1.16-1-1a1.18,1.18,0,0,1-.17-.22,1.08,1.08,0,0,1-.12-.24v0a1.57,1.57,0,0,1-.09-.48,1.64,1.64,0,0,1,0-.22.13.13,0,0,1,0-.06v0a.16.16,0,0,1,0-.09s0,0,0-.05a0,0,0,0,1,0,0,0,0,0,0,1,0,0,.31.31,0,0,1,.06-.13.33.33,0,0,1,.07-.13l0-.05,0-.07,0,0,0,0s0,0,0,0l0,0,0,0h0l.08-.06a.41.41,0,0,1,.11-.07s0,0,0,0a.15.15,0,0,1,.07,0,.34.34,0,0,1,.12-.06l.22-.07h0a.86.86,0,0,1,.28,0h.11l.11,0h0l.11,0,.1,0a.11.11,0,0,1,.07,0,.71.71,0,0,1,.21.11.87.87,0,0,1,.21.17h0l0,0,2.84,2.93.46.48L788.17,945.41l5.81,6,1.27,1.31A1.39,1.39,0,0,1,795.21,954.71Z"/><path class="cls-9" d="M838.79,851.08a1.37,1.37,0,0,1,0,.35.32.32,0,0,1,0,.14,1.4,1.4,0,0,1-.13.34l-1,2.46-24.85,59.41-1.7,4.08-11.47,27.42-3.82,9.13a1.39,1.39,0,0,1-1.29.85,1.26,1.26,0,0,1-.53-.11,1.34,1.34,0,0,1-.36-.22h0a1.38,1.38,0,0,1-.38-1.59l.79-1.9,2.63-6.27,13.19-31.55,1.71-4.07,23.7-56.69.22-.53.67-1.59,0-.05a1.14,1.14,0,0,1,.1-.19,1,1,0,0,1,.13-.18l.13-.13a.61.61,0,0,1,.16-.12l.13-.08a.92.92,0,0,1,.23-.09l.16,0h.1a1.07,1.07,0,0,1,.36,0s0,0,0,0h0l.09,0h0s0,0,0,0,0,0,0,0l.06,0h0l.16.09a1.35,1.35,0,0,1,.32.26l.12.16v0l0,0v0l0,0v0a0,0,0,0,0,0,0h0v0h0a.64.64,0,0,1,0,.07l0,0a.64.64,0,0,1,0,.07v0a.29.29,0,0,0,0,.09s0,0,0,.08A.13.13,0,0,1,838.79,851.08Z"/><path class="cls-9" d="M652.23,977.35q-1.34.6-2.91,1.14l-63.76-56.43-1-.86-2.66-2.36a1.33,1.33,0,0,1-.41-.7s0,0,0,0a.83.83,0,0,1,0-.15.49.49,0,0,1,0-.12,1,1,0,0,1,0-.3,1.4,1.4,0,0,1,.17-.47l.09-.13.1-.12a1.39,1.39,0,0,1,1.94-.08l1.08,1Z"/><path class="cls-9" d="M594.6,1051.78a1.39,1.39,0,0,1-1.38-1.25l-11.7-132.34a1.39,1.39,0,1,1,2.77-.3L596,1050.24a1.39,1.39,0,0,1-1.24,1.53Z"/><path class="cls-9" d="M650.21,1147.2a1.39,1.39,0,0,1-1.33-1l-31.46-106a1.39,1.39,0,1,1,2.67-.79l31.46,106a1.41,1.41,0,0,1-.94,1.74A1.9,1.9,0,0,1,650.21,1147.2Z"/><path class="cls-9" d="M651.77,1147.2a1.37,1.37,0,0,1-1.06-.5,1.39,1.39,0,0,1,.16-2l90.6-76.09a1.4,1.4,0,0,1,1.8,2.14l-90.6,76.09A1.38,1.38,0,0,1,651.77,1147.2Z"/><path class="cls-9" d="M855.13,1147.2H650.48a1.39,1.39,0,1,1,0-2.78H855.13a1.39,1.39,0,1,1,0,2.78Z"/><path class="cls-9" d="M855.13,1147.2a1.35,1.35,0,0,1-.78-.24l-112.76-76.08a1.39,1.39,0,1,1,1.56-2.31l112.76,76.09a1.39,1.39,0,0,1-.78,2.54Z"/><path class="cls-9" d="M650.48,1147.2a1.37,1.37,0,0,1-1.2-.69l-55.88-95.42a1.4,1.4,0,0,1,2.41-1.41l55.87,95.42a1.39,1.39,0,0,1-.5,1.91A1.37,1.37,0,0,1,650.48,1147.2Z"/><path class="cls-9" d="M794.19,857a1.39,1.39,0,0,1-.15-2.78l43.22-4.39a1.35,1.35,0,0,1,1.53,1.24,1.4,1.4,0,0,1-1.25,1.53L794.33,857Z"/><path class="cls-9" d="M855.13,1147.2a1.4,1.4,0,0,1-1.38-1.19l-25-168.18a1.39,1.39,0,0,1,1.17-1.58,1.36,1.36,0,0,1,1.59,1.17l25,168.19a1.4,1.4,0,0,1-1.17,1.58Z"/><path class="cls-9" d="M831.46,977.42a1.16,1.16,0,0,0,0-.18l0-.08-.2-.65h0l-5.07-17.25-3.22-11-10.16-34.52-1.24-4.24L796,856.83l-.47-1.61a1.42,1.42,0,0,0-1-1l-.23,0h0L702.58,832h-.05L671,824.36l-.07,0-.11,0h-.17a.86.86,0,0,0-.28,0h0l-.22.07a.34.34,0,0,0-.12.06.15.15,0,0,0-.07,0s0,0,0,0a.41.41,0,0,0-.11.07l-.08.06h0v0s0,0,0,0l0,0,0,0,0,0-87.64,92-.1.12-.09.13a1.4,1.4,0,0,0-.17.47,1,1,0,0,0,0,.3.49.49,0,0,0,0,.12,1.43,1.43,0,0,0,0,.22l4,13.63h0l31.16,105.89.73,2.48s0,.1.05.15h0a1.43,1.43,0,0,0,1,.8l2.35.57,118.57,28.7,2.45.59.24.06a1.86,1.86,0,0,0,.33,0,1.35,1.35,0,0,0,1-.42l0,0,.11-.12,1-1.07,84.62-88.84,1.37-1.44.59-.62a1.42,1.42,0,0,0,.38-1.07Zm-89.54,90.76-122-29.54L585.56,922.06l-1.14-3.89.45-.47,84-88.16,1.74-1.83.45-.47.8.19,3.08.75,118.18,28.6,16.72,56.83,1.25,4.25,8.78,29.84,3.34,11.36,5.35,18.19Z"/><path class="cls-14" d="M823.17,959.06c-5.81-.35-12.22-.55-19.2-.49-15.3.13-69.45,3.12-114.88,24.77-6.19,2.95-10,5.49-22.45,11.25-24.55,11.34-42.08,19.43-47.55,13.74-4-4.22-1.14-15.59,5-21.67s13.13-4.56,23.2-7.53c.69-.2,1.35-.41,2-.64q1.57-.54,2.91-1.14a27.07,27.07,0,0,0,3.82-2.07,24.71,24.71,0,0,0,3-2.29c5.38-4.78,7.37-10.35,17.32-14.22,17.26-6.71,24,4,43.16-3.81,11.09-4.52,12.29-9.51,20.71-9.41,9.74.11,13.85,6.84,25.11,5.65,4.74-.5,5.47-1.85,11.77-3.69a57.11,57.11,0,0,1,7.57-1.67l8.54,8.84a1.27,1.27,0,0,0,.33.24h0a1.34,1.34,0,0,0,.36.22,1.26,1.26,0,0,0,.53.11,1.39,1.39,0,0,0,1.29-.85l3.82-9.13c1.39.07,2.73.16,4,.25a145.42,145.42,0,0,1,16.22,2.17Z"/><path class="cls-9" d="M855.13,1147.2a1.46,1.46,0,0,1-.64-.15,1.4,1.4,0,0,1-.6-1.88l71.57-139.36a1.39,1.39,0,1,1,2.48,1.27l-71.57,139.37A1.39,1.39,0,0,1,855.13,1147.2Z"/><path class="cls-9" d="M926.7,1007.84a1.44,1.44,0,0,1-.4-.06L829.68,979a1.37,1.37,0,0,1-.93-1.73,1.4,1.4,0,0,1,1.73-.94l96.62,28.82a1.39,1.39,0,0,1,.94,1.73A1.41,1.41,0,0,1,926.7,1007.84Z"/><path class="cls-9" d="M926.7,1007.84a1.4,1.4,0,0,1-1.21-.7l-89.3-155.22a1.41,1.41,0,0,1,.51-1.91,1.4,1.4,0,0,1,1.91.52l89.3,155.22a1.4,1.4,0,0,1-.51,1.9A1.37,1.37,0,0,1,926.7,1007.84Z"/><path class="cls-9" d="M594.6,1051.78a1.4,1.4,0,0,1-.63-2.64l22.29-11.3a1.4,1.4,0,0,1,1.26,2.49l-22.28,11.3A1.46,1.46,0,0,1,594.6,1051.78Z"/><path class="cls-17" d="M644.43,1033.8s-18.59-31.4-21.93-63.63c0,0,19.2,36.38,20.57,50,0,0,2.8-20.86,7.93-33.63,0,0-3.68,33.9-5.12,40.57,0,0,14.14-43.9,29.42-56.95,0,0-23.48,46.89-26.81,63.33Z"/><path class="cls-18" d="M665.85,1029.29S661.6,1010,669,996.49c0,0,15,8.89,21.06,22.34C690,1018.83,677.4,1030.78,665.85,1029.29Z"/><path class="cls-19" d="M724.07,1004.38s-41.37,4.07-60.76,28.91l23-1S714,1017.38,724.07,1004.38Z"/><path class="cls-20" d="M692.5,1029.42s3.36-12.82-1.4-31.39c0,0,3.51,22.93-3.69,32.49Z"/><path class="cls-21" d="M691.1,998a74.46,74.46,0,0,0-10.81,17.69c-3.93,9.64-4.24,12-4.24,12s7.34,2.42,12.76,1.69C688.81,1029.42,694.46,1017.3,691.1,998Z"/><path class="cls-22" d="M671.65,1024.78s1.38-15,15.39-29.46c0,0,3.71,25.47.37,35.2C687.41,1030.52,675.7,1030.86,671.65,1024.78Z"/><path class="cls-23" d="M716.31,1020.14a51.16,51.16,0,0,0-13.85,2.55c-6.7,2.36-16.13,9.6-16.13,9.6l4.81.07S709.27,1028,716.31,1020.14Z"/><path class="cls-24" d="M659.86,1033.8s-20.71-20.87-27.5-38.48c0,0,37.2,4.69,56.62,37.53Z"/><path class="cls-25" d="M675.61,1033.29s38-16.26,48.46-28.91a128.91,128.91,0,0,1-28,27.91Z"/><path class="cls-26" d="M651.1,1033.34a44.65,44.65,0,0,1-8-14.6s24-1.76,35.86,14.6Z"/><path class="cls-27" d="M691.14,1032.36s14.32-5.18,25.17-12.22c0,0-5.65,10-11.66,12.42Z"/><path class="cls-28" d="M749.68,974.16c.31-6-4.52-15.1-4.52-24.46s4.22-24.15,1.2-32-3.62-13.58-3.62-24.15-4.23-16.3-2.41-24.75,3.92-13.59,5.43-6.64a59.11,59.11,0,0,1,1.14,20.22c-.84,6.65,1.73,8.46.44,16.31s0,11.77,4.17,21.13S753,944.27,753,953.63s.31,19.24-.26,20.53A18.53,18.53,0,0,1,749.68,974.16Z"/><path class="cls-28" d="M755.46,973.63c7.92-4.87,6.22-13,5.09-16.64s-4.53-6.57-5.66-6.23-2.62,7.7-1.82,13.7-1,9.17-1,9.17C754.33,975,755.46,973.63,755.46,973.63Z"/><path class="cls-28" d="M782.74,974.22c12.91-8.74,15.85-16,16.53-19.61s-.68-14.49-1.13-18.79-3.63-1.81-5.21,3.62,1.36,9.73-3.4,19-8.75,14-8.75,14.49S782.74,974.22,782.74,974.22Z"/><path class="cls-28" d="M776.4,972.5c5-11.78-2.26-23.33,2.72-33.29s5-18.56,7.47-26.94,3.39-13.13.45-19-5.63-16.3-4.17-20.83,1.06-7.92,6.92-1.13,7.59,11.32,8.31,23.32-.19,13.13-2.45,20.38-2.5,12.9-6.8,21.51-5.31,15.6-4.07,22-5.66,14-5.66,14A4.55,4.55,0,0,1,776.4,972.5Z"/><path class="cls-28" d="M747.65,942.16c-4.31.22-6.49-6.34-7.78-11.55s-3.32-11.77-6.26-12.68-4.3-6.57.45-7.7,7.7,6.33,8.38,12.45,2.26,12.23,5.21,14.72C749.46,940.57,747.65,942.16,747.65,942.16Z"/><path class="cls-28" d="M745.83,878.76c4.31.91,4.08-5.66,5-7.7s3.61.91,4.86,5.21-5.74,10.86-10.23,7.71C742.67,880.8,745.83,878.76,745.83,878.76Z"/><path class="cls-28" d="M767.8,972.7c-4.31-11.53-5.66-30.61-2.49-46.09s4.52-18.87,3.62-31.32-.31-20.83,2.11-30.57,1.51-27.84,3.55-28.07,8.3,14.26,5.06,29S775.49,884,776.4,893s-1.43,15.17-4.79,25.14-2.75,28.52-.45,36.9.64,17.59.9,18.34S767.8,972.7,767.8,972.7Z"/><path class="cls-28" d="M768.7,944c8.15-9.06,6.57-15.4,6.57-21.29s.22-9.5,2.49-5.2,4.51,16.69,2.24,27.1a21.27,21.27,0,0,1-11.3,14.33A53.88,53.88,0,0,1,768.7,944Z"/><path class="cls-28" d="M770.21,908c-2.72-6.64-7.7-7.09-8.6-13.43s3.2-10.5,4-6.64c1.21,5.81-.68,10.56,4.85,13.13C772.32,903.36,770.21,908,770.21,908Z"/><path class="cls-29" d="M774.59,836.65c-.39,0-.67.73-.89,1.88-.23,14.67,3.82,22.26.18,31.87-4,10.47-2.92,16.43-1.82,29.79s-1.95,18.12-4.46,34.12c-2.12,13.43,2,30.27,2.67,39.08,1,.24,1.91.36,1.79,0-.26-.75,1.4-10-.9-18.34s-2.91-26.94.45-36.9,5.7-16.08,4.79-25.14,0-12.67,3.25-27.39S776.63,836.42,774.59,836.65Z"/><path class="cls-29" d="M751.51,919.82c-4.21-9.36-5.45-13.29-4.17-21.13s-1.28-9.66-.44-16.31a59.11,59.11,0,0,0-1.14-20.22,8.59,8.59,0,0,0-.93-2.72c-.52,6.28-1.89,15.42-.8,19.29a48.34,48.34,0,0,1,1.05,18.1c-.75,4.71-.6,9.55,3.9,19.55s2.06,13.78.83,27.59c-1.15,12.85,1.49,20.8.53,30.23a16.44,16.44,0,0,0,2.4,0c.57-1.29.26-11.17.26-20.53S755.72,929.18,751.51,919.82Z"/><path class="cls-29" d="M747.69,942.11c.25-.25,1.61-1.82,0-4.71-2.95-2.49-4.53-8.6-5.21-14.72s-3.62-13.58-8.38-12.45a3.71,3.71,0,0,0-3,2.75h0c3.55-1.77,7.63-3.43,8.83,7.59s4.31,15.45,6.31,18.13A9.57,9.57,0,0,1,747.69,942.11Z"/><path class="cls-29" d="M755.68,876.27c-1.25-4.3-4-7.24-4.86-5.21,4.17,3.29,3.34,8.75-1.05,12.43A16.39,16.39,0,0,1,748,884.8C752.14,884.89,756.71,879.82,755.68,876.27Z"/><path class="cls-29" d="M756.84,966.55c-1,3.17-2,5.74-2.8,7.68a2.05,2.05,0,0,0,1.42-.6c7.92-4.87,6.22-13,5.09-16.64s-4.53-6.57-5.66-6.23C754.82,957.85,759.22,958.93,756.84,966.55Z"/><path class="cls-29" d="M780,944.58c2.27-10.41,0-22.8-2.24-27.1a4.6,4.6,0,0,0-1.36-1.84h0c1.06,6.89,3.48,15.15,2.19,23.08s-7.81,9.48-8.83,16.27a4,4,0,0,0,1.27,2.58A21,21,0,0,0,780,944.58Z"/><path class="cls-29" d="M796.43,933.71c-3.73,6.93,1.24,13.91-1,21.73a45.09,45.09,0,0,1-9.17,16.26c10-7.61,12.4-13.82,13-17.09.68-3.62-.68-14.49-1.13-18.79C797.94,934,797.27,933.4,796.43,933.71Z"/><path class="cls-29" d="M789.79,871.29c-2.35-2.73-3.7-3.81-4.56-3.84.68,12.67,9.28,18.43,8.37,35.47s-3.84,25.88-8.37,36.52-5.66,12.1-4.3,17.71c1,4-.46,10.82-2.18,15.44l.37-.09s6.9-7.69,5.66-14-.23-13.36,4.07-22,4.53-14.27,6.8-21.51,3.17-8.38,2.45-20.38S795.65,878.08,789.79,871.29Z"/><path class="cls-29" d="M765.61,888c-.25-1.19-.81-1.62-1.45-1.45.58,4,.69,7.64,1.31,11.6.45,2.91,3.48,3.83,5.76,5.69a4.07,4.07,0,0,0-.77-2.71C764.93,898.53,766.82,893.78,765.61,888Z"/><path class="cls-30" d="M769.72,1011.66l1.13-23.6-4.67-9.24A59.47,59.47,0,0,1,743.74,977C732.09,973.59,723,960,723,960h-3.54s-18.17,1.54-27.39-1.85-17.47-18.78-17.47-18.78-6.86-12.77-9.93-19.24c-8.32-7.81-22.19-6.62-22.19-6.62h-2.59s14.78,2,20.63,8S667.13,933,667.13,933s-16.94,2.62-27.25-.46-11.61-5.7-11.61-5.7-14.1,1.85-17.95,2.31a6.83,6.83,0,0,1-5.85-1.85l-11.54,6.16a85,85,0,0,1,12.47-3.54c4.92-.77,5.52,3.23,10.07,3.54s9.79-2.31,11-2.31,13.81,4.47,16,8.31l5.26,2.31s11.55-2.31,17.7.47,21.21,27.4,21.21,27.4l5.62,3.84s18.89-1.84,28.28,4S746.4,997.6,746.4,997.6l-2.85,13.82Z"/><path class="cls-31" d="M680.57,920.43s-7.18-8.21-17.45-10.47l1.65,2s-10.06-6-31-6.36l5.34,3.08s-4.1-1.85-21.55.62l1.23,3.69-18.47,5.75s14.3,11.58,28.89,13.07,2.1,0,2.1,0l-2.67-2.4s27.77-1.64,41.49-2.05l-1.87-3.08,15.88.61-7-3.28Z"/><path class="cls-32" d="M801.81,986.52S778,991.44,761,988.37l5.14-3.39a138.14,138.14,0,0,1-40.56-13.85l6.4-1s-16.35-8.21-27.23-17.45h12.5l-16-11.4,6.85,1.86-4.77-7.39s53.22-1.85,77,1.85L775.19,939s27.13,6.22,36,11.46l-11.18-1.23,10.73,6.15-7,.31S815.07,961.58,821,973l-5.47.93,3.39,3.38S819.29,984.12,801.81,986.52Z"/><path class="cls-33" d="M790.89,933.35a44,44,0,0,0-27.49-11.91l4.31,3.29s-26.68-2.26-42.69.2l8.57,2.46H722.35s7,12.73,27.1,14.37l-2.29-2.26s9.47,3.7,24.45,4.11l-.61-2.05S785.12,938.89,790.89,933.35Z"/><path class="cls-34" d="M685.17,962.58l-20.07-2.85,8.46,2.85H655.74s20.7,5.47,36.52,4.23l-6.46-1.74Z"/><path class="cls-35" d="M755.38,999.12s-12.77-2.6-23.29,0A31.57,31.57,0,0,0,755.38,999.12Z"/><path class="cls-36" d="M790.3,992.48s-21.57-4.4-39.33,0C751,992.48,768.5,1000.83,790.3,992.48Z"/><path class="cls-37" d="M783.32,920.92s-12.76-2.6-23.28,0A31.54,31.54,0,0,0,783.32,920.92Z"/><path class="cls-38" d="M266.73,1048.39s-8.24-4.39-8.91-16.49c0,0,6.26,6.19,9.28,2.82s-1.07-16.51-1.07-16.51,6.22,1.39,8.88-1.79,3-12.23,3-12.23a109,109,0,0,1,16.16-6.71,38.16,38.16,0,0,1,2.66,16.65s-7.55,4.94-8,8.33,6.62.48,6.62.48-11.48,12.31-11.06,14.79,6.8-1.59,6.8-1.59a39.65,39.65,0,0,1-13.36,12.06Z"/><path class="cls-39" d="M261,1048.44s-12.86-7.13-18.48-18.91c0,0,5.07,2.17,6.16,0s-10-20.7-10-20.7,5.62,2.32,7.61,0-4.16-14.64-4.16-14.64.72-10.87,3.8-17.58c0,0,11.54,14.2,12.2,20.87,0,0-3.48,9.76-2.49,12.84s5-4.41,5-4.41-1.6,13,.19,18.2,3.95-4.37,3.95-4.37,4.56,18.7,4.84,28.59Z"/><path class="cls-40" d="M307.51,1045c-25.48-13-16.4-57.11-18.23-64.71,23.56,31.43,27.23,56.18,27.23,56.18.26-43.08,1.31-51.2,8.64-63.25,5.24,28,6,61.93,6,61.93,22.52-53.28,33-61.93,33-61.93-3.15,31.16-20.69,67.49-20.69,67.49,17.54-16.69,35.61-16.16,35.61-16.16-13.09,12.3-29,19.57-29,19.57C322,1046,307.51,1045,307.51,1045Z"/><path class="cls-41" d="M312.58,1032c-5-34.56-2.62-49.62,0-54.86,2.62,17.81,14.39,50,9.94,67.63C314.94,1041.59,314.78,1047.26,312.58,1032Z"/><path class="cls-41" d="M318.87,1039c1.89-28.9,15.53-56.82,14.57-67.56,7.6,24.4,1.25,54.92-1.13,63.76C329.87,1044.7,318.53,1044.2,318.87,1039Z"/><path class="cls-29" d="M313.66,1042c-8.93-15.42-4.74-23.76-10.85-37.7,12,7.91,23.69,30.09,21.81,38.33C317.7,1043.61,313.66,1042,313.66,1042Z"/><path class="cls-41" d="M348.94,1033.67c5.27-38.08,30.15-49.6,30.15-49.6-3.49,20.07-9.6,54-19.72,58.52C347.84,1040.1,348,1040.8,348.94,1033.67Z"/><path class="cls-29" d="M314.74,1043.35c-24.85-3-28.69-29.48-33.75-33.62,12,.7,22.52,19.14,31.07,23.94C315.55,1038.88,314.74,1043.35,314.74,1043.35Z"/><path class="cls-29" d="M327.77,1040.7c0-20.85,9.3-44.21,19.38-51.22-2.62,22.52-5.1,52.11-8.31,55C332.28,1046.08,327.76,1044,327.77,1040.7Z"/><path class="cls-29" d="M341.11,1042.67c5.25-21.25,17.3-37,26.2-38.41-8.12,6.43-8.9,32.35-15.58,37.72C344.41,1044.47,341.11,1042.67,341.11,1042.67Z"/><path class="cls-14" d="M443.37,1078.87a80.92,80.92,0,0,1-5.56,17.6,84.7,84.7,0,0,1-77.32,50.09H302.67a84.64,84.64,0,0,1-78.26-52.1,82.82,82.82,0,0,1-3.73-11.58c5.08,2.72,10.87,6.32,17.78,9.34,40.35,17.6,57.48-10.58,115.6-1.3,31.48,5,41,15.59,60.54,8.38C429.48,1093.81,434.33,1083.83,443.37,1078.87Z"/><path class="cls-42" d="M445,1064.28a85,85,0,0,1-1.59,14.59,80.92,80.92,0,0,1-5.56,17.6c-12.16,6.85-25.87,10.1-29.47,10.87-26.17,5.84-31.78-1.6-69.17-1.3-43.59.35-47.07,10.57-73.06,5.55a118.8,118.8,0,0,1-41.7-17.13,82.82,82.82,0,0,1-3.73-11.58,77.92,77.92,0,0,1-2.12-14.05,12.47,12.47,0,0,1-.12-1.48c-.18-2.72-.24-5.44-.24-8.21,9.75-3.55,172.77-18.55,223.63-7.74a28.06,28.06,0,0,1,3.07.77C445,1056.3,445,1060.32,445,1064.28Z"/><path class="cls-43" d="M445,1064.28c-10.51,2.42-12.94,2.6-16.07,2.24-5.19-.53-4.37-1.59-10.69-2.54s-16.48-2.83-21.56,2.72c-2.89,3.13-2.77,7.09-6.14,8.33-3.54,1.3-5.79-2.25-11.22-3.55-7.44-1.71-11,3.25-20.91,5.44-8.39,1.83-9.69-.89-22-1.07-16.25-.17-16.54,4.55-31.19,4.73-14.41.18-15.06-4.49-32.31-5.14-14.41-.59-16.24,2.48-26.76,1.83a68.09,68.09,0,0,1-27.58-8.44,12.47,12.47,0,0,1-.12-1.48c-.18-2.72-.24-5.44-.24-8.21-.06-2.36-.06-4.73-.06-7.15,10.16-2.07,80-8,93.09-9.45,7.86-.89,16.25-1.83,25.17-3,0,0,70.58-8.8,108.15,3.25.23,3.13.35,6.26.35,9.33C445,1056.3,445,1060.32,445,1064.28Z"/><path class="cls-9" d="M446.4,1052.17c0-3.14-.13-6.32-.36-9.37-.06-2.5-.23-5-.42-7.53a299.89,299.89,0,0,0-28.91-107,1.31,1.31,0,0,0-.26-.37l-.1-.09-.1-.08a1.5,1.5,0,0,0-.54-.26,355.53,355.53,0,0,0-79.84-9.72,351.06,351.06,0,0,0-85.28,9.72,1.48,1.48,0,0,0-1,.74,265,265,0,0,0-32.68,113.87c-.17,3.32-.23,6.59-.29,9.88,0,2.44,0,4.81.06,7.15,0,3.16.08,5.8.23,8.21a14.17,14.17,0,0,0,.12,1.56,80.66,80.66,0,0,0,2.17,14.32A85.29,85.29,0,0,0,223,1095c13,31.72,45,53,79.65,53h57.82a86.22,86.22,0,0,0,78.69-51,81.49,81.49,0,0,0,5.65-17.92,84.94,84.94,0,0,0,1.62-14.87C446.52,1059.83,446.5,1055.85,446.4,1052.17Zm-2.93,12.13a83,83,0,0,1-1.57,14.28,78.89,78.89,0,0,1-5.45,17.28,83.22,83.22,0,0,1-76,49.2H302.67c-33.45,0-64.35-20.56-76.88-51.15a84,84,0,0,1-3.66-11.38,78.51,78.51,0,0,1-2.09-13.89,11.21,11.21,0,0,1-.11-1.39c-.16-2.44-.23-5-.23-8.15-.06-2.35-.06-4.7-.06-7.09.06-3.22.12-6.45.29-9.75A262.1,262.1,0,0,1,251.74,930.6c.06-.11.11-.23.18-.34,2.42-.58,4.86-1.12,7.3-1.65a352,352,0,0,1,147.86,0c2.42.52,4.83,1.07,7.25,1.64l.17.36a296.81,296.81,0,0,1,28.14,104.89c.18,2.46.35,4.91.41,7.45.24,3,.36,6.15.36,9.26.1,3.69.12,7.63.06,12l1.49,0Z"/><path class="cls-44" d="M407.08,928.61a569.4,569.4,0,0,1-71.41,4.84,557.11,557.11,0,0,1-76.45-4.84,352,352,0,0,1,147.86,0Z"/><path class="cls-9" d="M415.58,930.46l-1.08.15a573.26,573.26,0,0,1-78.81,5.83h-2.48a572.29,572.29,0,0,1-81.47-5.84l-1-.14a1.5,1.5,0,0,1-1.26-1.7,1.46,1.46,0,0,1,1.69-1.26q4,.59,8.05,1.11a557.11,557.11,0,0,0,76.45,4.84,569.4,569.4,0,0,0,71.41-4.84q4-.52,8.06-1.11a1.58,1.58,0,0,1,1.11.26l.1.08.1.09a1.53,1.53,0,0,1-.87,2.53Z"/><path class="cls-45" d="M245,1060.55c0,2.07-3.45,3.76-7.7,3.76s-7.7-1.69-7.7-3.76,3.45-3.76,7.7-3.76S245,1058.47,245,1060.55Z"/><path class="cls-45" d="M257.17,1073.16c0,.75-1.9,1.36-4.24,1.36s-4.25-.61-4.25-1.36,1.9-1.35,4.25-1.35S257.17,1072.42,257.17,1073.16Z"/><ellipse class="cls-45" cx="265.6" cy="1068.55" rx="6.58" ry="2.65"/><path class="cls-45" d="M323.25,1066.43c0,1.17-2,2.12-4.41,2.12s-4.41-1-4.41-2.12,2-2.13,4.41-2.13S323.25,1065.25,323.25,1066.43Z"/><path class="cls-45" d="M309.1,1059.29c0,.59-1.46,1.08-3.26,1.08s-3.26-.49-3.26-1.08,1.46-1.08,3.26-1.08S309.1,1058.69,309.1,1059.29Z"/><path class="cls-45" d="M369,1071.19c0,1.5-4.94,2.71-11,2.71s-11-1.21-11-2.71,4.94-2.7,11-2.7S369,1069.7,369,1071.19Z"/><path class="cls-45" d="M358,1065.66c0,1.15-2.73,2.09-6.1,2.09s-6.09-.94-6.09-2.09,2.73-2.1,6.09-2.1S358,1064.5,358,1065.66Z"/><path class="cls-45" d="M395.89,1058.1c0,2-5.44,3.57-12.15,3.57s-12.16-1.6-12.16-3.57,5.44-3.57,12.16-3.57S395.89,1056.13,395.89,1058.1Z"/><path class="cls-45" d="M372.7,1061.67c0,.72-2,1.31-4.57,1.31s-4.58-.59-4.58-1.31,2.05-1.3,4.58-1.3S372.7,1061,372.7,1061.67Z"/><path class="cls-45" d="M413.39,1084.39a2.13,2.13,0,1,1-2.12-2.12A2.12,2.12,0,0,1,413.39,1084.39Z"/><circle class="cls-45" cx="401.24" cy="1088.94" r="1.32"/><path class="cls-45" d="M391.55,1092.13a4.52,4.52,0,1,1-4.52-4.51A4.52,4.52,0,0,1,391.55,1092.13Z"/><circle class="cls-45" cx="409.51" cy="1073.78" r="2.77"/><path class="cls-45" d="M268.68,1096.7a2.86,2.86,0,1,1-2.86-2.86A2.86,2.86,0,0,1,268.68,1096.7Z"/><path class="cls-45" d="M315.16,1126.22a6.29,6.29,0,1,1-6.29-6.3A6.29,6.29,0,0,1,315.16,1126.22Z"/><path class="cls-45" d="M316.9,1114.21a1.24,1.24,0,1,1-1.24-1.24A1.24,1.24,0,0,1,316.9,1114.21Z"/><path class="cls-45" d="M300.36,1121.65a1.72,1.72,0,1,1-1.72-1.73A1.72,1.72,0,0,1,300.36,1121.65Z"/><path class="cls-45" d="M290.11,1123.67a3.75,3.75,0,1,1-3.75-3.75A3.75,3.75,0,0,1,290.11,1123.67Z"/><path class="cls-45" d="M299.08,1103.43c0,3-3.69,5.42-8.24,5.42s-8.23-2.43-8.23-5.42,3.68-5.41,8.23-5.41S299.08,1100.44,299.08,1103.43Z"/><path class="cls-45" d="M362.44,1124.79a1.43,1.43,0,1,1-1.43-1.42A1.43,1.43,0,0,1,362.44,1124.79Z"/><circle class="cls-45" cx="342.37" cy="1113.29" r="3.46"/><path class="cls-46" d="M426.5,1005.62c0,.16-.09.31-.13.47a51.25,51.25,0,0,1-3,7.7l-.22.46a69.1,69.1,0,0,1-5,8.53l-.28.4-.16.24A15.7,15.7,0,0,0,415,1031h0c0,.18,0,.35,0,.53a21.46,21.46,0,0,0,1.59,9.33l-12.28-1-1.59-.13-7.92-.65-2.26-.19-4.59-.38s1.48-3.24-.58-10.62c-.52-1.82-1-3.3-1.52-4.65-.06-.18-.13-.36-.2-.54a53.41,53.41,0,0,1-2.51-8h0c0-.15-.07-.31-.1-.48-.36-1.73-.69-3.78-1-6.32h0a.28.28,0,0,0,0-.09c0-.14,0-.28,0-.41a49.42,49.42,0,0,1-.23-7c0-.16,0-.32,0-.48a29.94,29.94,0,0,1,1.52-8.23c.06-.16.11-.31.18-.46a15.94,15.94,0,0,1,7.32-8.72h0l.51-.26a19.77,19.77,0,0,1,7.28-1.89l.53,0,.3,0c9-.45,15.22,0,19.55,2.35a12.84,12.84,0,0,1,1.86,1.2l.15.12c.15.12.3.24.45.38l.11.09a13.33,13.33,0,0,1,1,1h0a16.89,16.89,0,0,1,2.91,4.67l.19.45a33.56,33.56,0,0,1,1.52,4.8c.06.25.11.49.16.75s.05.34.07.51A23.28,23.28,0,0,1,426.5,1005.62Z"/><path class="cls-47" d="M398.59,982.11a23.77,23.77,0,0,0-2.8,7.83c-.06.3-.11.6-.17.91-.1.6-.2,1.22-.28,1.87-.29,2.36-.6,4.27-.87,6.42,0,.27-.07.55-.1.84-.28,2.33-.52,5-.68,8.88,0,.14,0,.29,0,.43,0,.91-.06,1.87-.09,2.91-.21,8.06.74,21,1.22,26.84l-2.26-.19c-.19-3.58-.58-9.29-1.33-14q0-.27-.09-.57c0-.16-.05-.34-.08-.52-.46-3-1-7.35-1.39-11.82,0-.11,0-.22,0-.33-.21-2.43-.37-4.91-.44-7.23l0-.49c-.1-4.09.09-7.69.78-9.78a2.41,2.41,0,0,1,.08-.25.36.36,0,0,1,0-.09h0a16.41,16.41,0,0,1,1.06-2.26c.09-.18.19-.35.29-.52A47,47,0,0,1,398.59,982.11Z"/><path class="cls-47" d="M408.62,1004.83c0,.82,0,1.76-.09,2.8,0,.22,0,.45,0,.69-.17,2.72-.51,6-.92,9.37,0,.2-.05.41-.08.61-.43,3.51-.94,7.13-1.42,10.41,0,.16-.05.33-.07.49-.74,5-1.41,9-1.68,10.62l-1.59-.13c0-2.36.32-20.32.48-31.67,0-.19,0-.38,0-.58.06-4,.09-7.05.09-8.22,0-1,0-2.3-.1-3.76,0-.19,0-.37,0-.57-.24-5.52-.76-12.79-.76-12.79s.47,1,1.16,2.66c.11.24.22.51.33.78a78,78,0,0,1,3.63,11.18,3.38,3.38,0,0,1,.08.34A35.53,35.53,0,0,1,408.62,1004.83Z"/><path class="cls-47" d="M407.14,982.1s7.08,6.79,8,12.1-1.77,16.53-3.54,27.74-2.07,17.72-2.07,17.72l3.25-.3s-1.48-9.15.88-16.23,7.75-21.5,6.5-27.75C418.06,985.05,407.14,982.1,407.14,982.1Z"/><path class="cls-46" d="M426.09,976.18c-2.69-1.34-5.61-1.38-7.12,1.48a5.29,5.29,0,0,0,2,7.09,5.39,5.39,0,0,0,7.09-1.18C429.7,981.5,428.45,977.36,426.09,976.18Z"/><path class="cls-47" d="M426.09,976.54a5.59,5.59,0,0,0-2.46,2,38.46,38.46,0,0,0-2.88,5.57,11.14,11.14,0,0,0,3.14-2.88A13.51,13.51,0,0,0,426.09,976.54Z"/><path class="cls-47" d="M426.94,977.46s.37,3.29-.82,4.43c-1.7,1.64-4.95,2.52-4.85,2.56s4.24.14,5.57-1.05C429,981.43,426.94,977.46,426.94,977.46Z"/><path class="cls-47" d="M420,983.07a12.8,12.8,0,0,1,.89-4.26c1.24-2.3,4.69-2.46,4.69-2.46s-3.41-.81-4.79.46C418.84,978.58,420,983.07,420,983.07Z"/><path class="cls-48" d="M390,993.71a19.28,19.28,0,0,0-3.41-1.6c-.3-.1-.43.38-.13.48a18,18,0,0,1,3.29,1.55.25.25,0,0,0,.25-.43Z"/><path class="cls-48" d="M391.64,991.44a14.42,14.42,0,0,1-1-2.4c-.12-.34-.31-1.33-.73-1.45a.24.24,0,0,0-.13.47c-.14,0,0,0,0,.14s.11.25.16.38c.13.34.25.69.38,1a13.35,13.35,0,0,0,.87,2.07.25.25,0,0,0,.43-.25Z"/><path class="cls-48" d="M389.2,1003.92a14.47,14.47,0,0,0-4.19,1.4c-.29.14,0,.57.24.43a14.11,14.11,0,0,1,4.08-1.36c.31,0,.18-.52-.13-.47Z"/><path class="cls-48" d="M389.25,1011.71a10.61,10.61,0,0,1-1.74,1.74,5.14,5.14,0,0,0-1.41,1.6c-.13.29.3.54.42.25a5.15,5.15,0,0,1,1.45-1.6,10.06,10.06,0,0,0,1.7-1.75c.18-.26-.24-.5-.42-.24Z"/><path class="cls-48" d="M390.82,1023.91a10.27,10.27,0,0,1-1.88,2.07c-.25.19,0,.62.25.43a11.09,11.09,0,0,0,2.06-2.26c.19-.25-.24-.49-.43-.24Z"/><path class="cls-48" d="M393.72,1009.31a17.85,17.85,0,0,0,4,.21.25.25,0,0,0,0-.49,17.92,17.92,0,0,1-3.87-.19c-.3-.07-.44.4-.13.47Z"/><path class="cls-48" d="M394.39,1000c1-1.37,2.81-1.86,4.24-2.66a.25.25,0,0,0-.24-.43c-1.53.86-3.33,1.38-4.42,2.84-.19.26.24.5.42.25Z"/><path class="cls-48" d="M395.34,991.15a18.55,18.55,0,0,1,3.49-3.31.24.24,0,0,0-.25-.42A19.46,19.46,0,0,0,395,990.8a.25.25,0,0,0,.35.35Z"/><path class="cls-48" d="M403.55,995.09a24.51,24.51,0,0,0-2.81-1.4c-.3-.11-.43.37-.13.47a27.19,27.19,0,0,1,2.7,1.35c.28.15.53-.28.24-.42Z"/><path class="cls-48" d="M403.11,1007.49a7.3,7.3,0,0,1-2.7,1.35c-.31.07-.18.54.13.47a7.55,7.55,0,0,0,2.82-1.4c.25-.19,0-.61-.25-.42Z"/><path class="cls-48" d="M402.58,1021.63a30.2,30.2,0,0,0-3.54.79.24.24,0,0,0,.13.47,32.37,32.37,0,0,1,3.54-.79c.31-.06.18-.53-.13-.47Z"/><path class="cls-48" d="M405.92,1029.19c.74.12,1.49.2,2.23.25a3.77,3.77,0,0,0,1.64-.06c.29-.12.16-.59-.13-.47a3.65,3.65,0,0,1-1.51,0c-.7,0-1.4-.12-2.1-.24-.31,0-.44.43-.13.48Z"/><path class="cls-48" d="M407.1,1018.54a32.69,32.69,0,0,1,5-2.54c.29-.11.17-.59-.13-.47a34.15,34.15,0,0,0-5.17,2.58.25.25,0,0,0,.25.43Z"/><path class="cls-48" d="M408.13,1008.66a31.46,31.46,0,0,1,3.88-3.11c.26-.18,0-.61-.24-.42a31.27,31.27,0,0,0-4,3.18.25.25,0,0,0,.35.35Z"/><path class="cls-48" d="M408,996.94a9.6,9.6,0,0,1,1.55-3.87c.17-.27-.26-.52-.43-.25a10.14,10.14,0,0,0-1.6,4c0,.31.43.44.48.13Z"/><path class="cls-48" d="M403.86,985.73c.22-1.06.57-2.09.79-3.15.07-.31-.41-.44-.47-.13-.22,1.06-.57,2.09-.79,3.15-.06.31.41.44.47.13Z"/><path class="cls-48" d="M412.73,984.28a3.47,3.47,0,0,1,.36-1.07,8.27,8.27,0,0,1,.78-1.36c.19-.26-.24-.5-.42-.25a5.74,5.74,0,0,0-1.21,2.68c0,.32.47.32.49,0Z"/><path class="cls-48" d="M411.24,988.57A11.94,11.94,0,0,0,408,990c-.26.19,0,.62.25.43a11,11,0,0,1,3.09-1.35c.3-.1.17-.58-.13-.48Z"/><path class="cls-48" d="M413.46,999.88a6.46,6.46,0,0,1,1.91.19c.3.09.43-.39.13-.48a7,7,0,0,0-2-.2.25.25,0,0,0,0,.49Z"/><path class="cls-48" d="M419.63,1001.44a22,22,0,0,0,4.72-1.57c.3-.11.17-.59-.13-.48a22,22,0,0,1-4.72,1.58c-.31,0-.18.52.13.47Z"/><path class="cls-48" d="M418.36,993.31a10.51,10.51,0,0,1,3.43-2.69c.3-.11.17-.58-.13-.47A10.94,10.94,0,0,0,418,993c-.22.23.13.58.35.35Z"/><path class="cls-48" d="M416.15,1015.61c1.39.49,2.52,1.53,3.94,2,.3.09.43-.38.13-.48-1.42-.43-2.54-1.47-3.93-2-.3-.11-.43.36-.14.47Z"/><path class="cls-48" d="M414.32,1021.09c.38.19.77.34,1.16.5a3.18,3.18,0,0,0,1,.36.25.25,0,0,0,.21-.37.27.27,0,0,0-.14-.12c-.28-.15-.53.28-.25.42.08,0,0,0,0-.06l.21-.37c.1,0-.15-.06-.2-.08l-.59-.23c-.37-.15-.75-.29-1.11-.47s-.53.28-.25.42Z"/><path class="cls-48" d="M413.73,1010.61a9.11,9.11,0,0,1-1.91-1.16c-.27-.17-.51.25-.25.43a9,9,0,0,0,2,1.2c.3.11.42-.36.13-.47Z"/><path class="cls-48" d="M419.3,1007.94a10.57,10.57,0,0,0,2.31.27,10.49,10.49,0,0,1,2,.12c.31.07.44-.41.13-.47-1.42-.32-2.91,0-4.33-.4a.25.25,0,0,0-.13.48Z"/><path class="cls-48" d="M399.12,980.22a10.35,10.35,0,0,1-1.55-3.68.25.25,0,0,0-.48.14,11.06,11.06,0,0,0,1.6,3.79c.19.25.62,0,.43-.25Z"/><path class="cls-48" d="M391.75,982.5c-1.43-.74-2.52-2-3.94-2.76-.28-.14-.53.28-.25.43,1.42.74,2.51,2,3.94,2.75.28.15.53-.28.25-.42Z"/><path class="cls-48" d="M379.84,989.57c1.11.88,2.41,1.44,3.59,2.21.27.17.52-.26.25-.43-1.14-.74-2.41-1.28-3.49-2.12-.25-.2-.6.15-.35.34Z"/><path class="cls-48" d="M378.05,1000.86a14.27,14.27,0,0,0,2.06-.23,5.64,5.64,0,0,1,2-.17c.31.06.44-.41.13-.48a5.06,5.06,0,0,0-1.69.08,17.6,17.6,0,0,1-2.5.31.25.25,0,0,0,0,.49Z"/><path class="cls-48" d="M382.31,1007.26a11.37,11.37,0,0,0-3.85,2.43c-.24.2.11.55.35.35a10.67,10.67,0,0,1,3.63-2.3c.3-.09.17-.57-.13-.48Z"/><path class="cls-48" d="M383.29,1014.15a12.43,12.43,0,0,0-4.38,1.8c-.28.15,0,.58.25.42a11.89,11.89,0,0,1,4.27-1.74c.31,0,.17-.52-.14-.48Z"/><path class="cls-48" d="M381.2,1022.51a19.38,19.38,0,0,1,2.83.36l1.49.26.5.1s.27.07.17,0l-.12-.22h0l.25-.25h0c-.31,0-.31.52,0,.49h0a.24.24,0,0,0,.24-.24h0a.23.23,0,0,0-.12-.21,4.29,4.29,0,0,0-.71-.16l-1.57-.27a19.83,19.83,0,0,0-3-.39.25.25,0,0,0,0,.5Z"/><path class="cls-48" d="M424.16,991a13.38,13.38,0,0,0,2.38-.74c.36-.14.74-.27,1.11-.38s.62-.21.84-.08a.25.25,0,0,0,.25-.43c-.57-.31-1.44.09-2,.29a16.47,16.47,0,0,1-2.74.87c-.31.05-.17.52.14.47Z"/><path class="cls-48" d="M426.78,996.52a20.39,20.39,0,0,1,3.93,1c.3.11.43-.36.14-.48a19.92,19.92,0,0,0-3.94-1c-.31,0-.44.42-.13.47Z"/><path class="cls-48" d="M425.15,1005.55c.45.22.91.42,1.38.61a4.43,4.43,0,0,1,1.12.53c.24.21.59-.14.35-.35a3.84,3.84,0,0,0-1-.5c-.54-.23-1.09-.45-1.62-.71-.28-.14-.53.28-.24.42Z"/><path class="cls-48" d="M417.47,1022.87l1.12.76a2.46,2.46,0,0,0,.73.47.25.25,0,0,0,.3-.18.26.26,0,0,0-.08-.26c-.22-.23-.56.12-.35.35l0,0,0-.19h0l.3-.17c.08,0,0,0,0,0l-.17-.11-.48-.33-1-.72c-.26-.18-.51.25-.25.43Z"/><path class="cls-48" d="M414.32,1031.74c1.08-.42,2.24-.62,3.34-1,.3-.1.17-.57-.13-.47-1.11.35-2.26.56-3.34,1-.3.11-.17.59.13.47Z"/><path class="cls-48" d="M423,1014.23c1,.2,2.11.2,3.15.4.31,0,.44-.42.13-.48-1-.19-2.11-.2-3.15-.39-.31-.06-.44.41-.13.47Z"/><path class="cls-48" d="M419.3,976.4a2.83,2.83,0,0,1-1.07-1.43c-.11-.3-.58-.17-.48.13a3.43,3.43,0,0,0,1.3,1.72c.26.18.5-.24.25-.42Z"/><path class="cls-48" d="M424.52,976.09a12.64,12.64,0,0,1,1-2.31c.14-.28-.28-.53-.42-.25a13.45,13.45,0,0,0-1,2.42.25.25,0,0,0,.47.14Z"/><path class="cls-48" d="M423.67,979.78a5.27,5.27,0,0,0-1.88-1c-.3-.1-.42.38-.13.48a4.49,4.49,0,0,1,1.67.92.24.24,0,0,0,.34-.35Z"/><path class="cls-48" d="M425.88,983.08c.43.43.76.94,1.18,1.38a.25.25,0,0,0,.35-.35c-.42-.43-.75-.94-1.18-1.38a.25.25,0,0,0-.35.35Z"/><path class="cls-48" d="M427.5,981.37c.84-.19,1.72-.2,2.56-.39.31-.07.18-.55-.13-.48-.84.2-1.72.2-2.56.4-.31.07-.18.54.13.47Z"/><path class="cls-48" d="M427.7,978.81a13.43,13.43,0,0,1,2.49-.58.25.25,0,0,0,0-.49,13.82,13.82,0,0,0-2.62.6.24.24,0,0,0,.13.47Z"/><path class="cls-49" d="M362.61,1055.39s-19.93-33.67-23.51-68.21c0,0,20.58,39,22,53.6,0,0,3-22.35,8.5-36,0,0-3.94,36.33-5.49,43.49,0,0,15.17-47.05,31.54-61.05,0,0-25.16,50.26-28.73,67.89Z"/><path class="cls-50" d="M255.67,1062.71s-4.16-18.87,3.07-32.12c0,0,14.67,8.7,20.61,21.88C279.35,1052.47,267,1064.17,255.67,1062.71Z"/><path class="cls-51" d="M312.69,1038.31s-44.41,3.79-63.4,28.12l26.43-.78S302.8,1051,312.69,1038.31Z"/><path class="cls-52" d="M281.77,1062.84s3.29-12.56-1.37-30.74c0,0,3.43,22.46-3.61,31.81Z"/><path class="cls-53" d="M280.4,1032.1a72.79,72.79,0,0,0-10.59,17.33c-3.85,9.43-4.15,11.75-4.15,11.75s7.18,2.37,12.49,1.66C278.15,1062.84,283.68,1051,280.4,1032.1Z"/><path class="cls-54" d="M261.35,1058.3s1.35-14.7,15.08-28.86c0,0,3.63,24.94.36,34.47C276.79,1063.91,265.31,1064.25,261.35,1058.3Z"/><path class="cls-55" d="M305.08,1053.75a50.41,50.41,0,0,0-13.56,2.49c-6.56,2.32-15.8,9.41-15.8,9.41l4.72.07S298.19,1061.42,305.08,1053.75Z"/><path class="cls-56" d="M249.8,1067.13s-20.27-20.45-26.93-37.69c0,0,36.43,4.6,55.45,36.76Z"/><path class="cls-57" d="M265.23,1066.63s37.23-15.93,47.46-28.32a126.31,126.31,0,0,1-27.39,27.34Z"/><path class="cls-58" d="M241.22,1066.68a43.88,43.88,0,0,1-7.8-14.3s23.45-1.72,35.12,14.3Z"/><path class="cls-59" d="M280.44,1065.72s14-5.08,24.64-12c0,0-5.53,9.8-11.41,12.16Z"/><path class="cls-15" d="M445,1064.28l-1.49,0a83,83,0,0,1-1.57,14.28,78.89,78.89,0,0,1-5.45,17.28,83.22,83.22,0,0,1-76,49.2H302.67c-33.45,0-64.35-20.56-76.88-51.15a84,84,0,0,1-3.66-11.38,78.51,78.51,0,0,1-2.09-13.89,11.21,11.21,0,0,1-.11-1.39c-.16-2.44-.23-5-.23-8.15-.06-2.35-.06-4.7-.06-7.09.06-3.22.12-6.45.29-9.75A262.1,262.1,0,0,1,251.74,930.6a572.29,572.29,0,0,0,81.47,5.84h2.48a573.26,573.26,0,0,0,78.81-5.83,296.81,296.81,0,0,1,28.14,104.89c.18,2.46.35,4.91.41,7.45.24,3,.36,6.15.36,9.26.1,3.69.12,7.63.06,12Z"/></g></g></svg>