<svg xmlns="http://www.w3.org/2000/svg" xmlns:xlink="http://www.w3.org/1999/xlink" viewBox="0 0 1124.19 1458"><defs><style>.cls-1{fill:#65ccb7;}.cls-2{fill:#57bb99;}.cls-3{fill:#3b945e;}.cls-4{fill:url(#Gradiente_sem_nome_23);}.cls-5{fill:url(#Gradiente_sem_nome_23-2);}.cls-6{fill:url(#Gradiente_sem_nome_23-3);}.cls-7{fill:#327f6b;}.cls-8{fill:#3c8f7c;}.cls-9{fill:#215e4b;}.cls-10{fill:#f47458;}.cls-11{fill:#256653;}.cls-12{fill:#55a3a3;}</style><linearGradient id="Gradiente_sem_nome_23" x1="889.53" y1="962.32" x2="889.53" y2="381.94" gradientTransform="translate(217.4 1561.66) rotate(-90)" gradientUnits="userSpaceOnUse"><stop offset="0" stop-color="#e0820a"/><stop offset="0.28" stop-color="#ffa016"/><stop offset="1" stop-color="#f7cc7f"/></linearGradient><linearGradient id="Gradiente_sem_nome_23-2" x1="599.66" y1="962.32" x2="599.66" y2="381.94" gradientTransform="translate(-72.47 1271.79) rotate(-90)" xlink:href="#Gradiente_sem_nome_23"/><linearGradient id="Gradiente_sem_nome_23-3" x1="1095.43" y1="962.32" x2="1095.43" y2="381.94" gradientTransform="matrix(1, 0, 0, 1, 0, 0)" xlink:href="#Gradiente_sem_nome_23"/></defs><g id="Camada_2" data-name="Camada 2"><g id="background"><path class="cls-1" d="M1124.19,0V1458H517.1c-.84-1.85-1.72-3.67-2.62-5.45-1.08-2.16-2.18-4.29-3.3-6.36q-3.14-5.75-6.46-11.15c-.25-.42-.51-.84-.76-1.23-4.83-7.81-9.93-15.13-15.22-22.17-.26-.35-.53-.7-.79-1.06-4-5.33-8.15-10.48-12.34-15.55-4.64-5.65-9.36-11.18-14.09-16.71-7.95-9.31-15.91-18.59-23.61-28.33q-4.2-5.31-8.3-11c-21.52-29.63-40.42-66-45.64-110.37a276.76,276.76,0,0,1-1.53-37.81c.29-14.71,1.35-29.49,2.34-44.18.08-1.37.17-2.73.26-4.09.77-12,1.36-24.12,1.7-36.4.21-7.2.33-14.45.35-21.7.25-69.36-8.18-139.6-35.44-188.15-1.06-1.89-2.16-3.73-3.28-5.54a142.71,142.71,0,0,0-9.23-13.39c-.68-.88-1.36-1.74-2.06-2.58-.34-.44-.7-.85-1.05-1.27q-3.48-4.15-7.16-7.9c-1.27-1.32-2.55-2.59-3.85-3.85-1.92-1.84-3.87-3.65-5.85-5.38-3.39-3-6.83-5.85-10.3-8.65-2-1.6-4-3.16-6-4.73l-4-3.14a4.57,4.57,0,0,1-.36-.29c-1.86-1.43-3.72-2.88-5.58-4.33-5.16-4-10.26-8.14-15.22-12.54a156.05,156.05,0,0,1-13.31-13.08c-.3-.33-.6-.66-.89-1a126.68,126.68,0,0,1-9.61-12.28q-3.09-4.46-5.92-9.48c-.53-1-1.06-1.92-1.58-2.9a140.2,140.2,0,0,1-7.34-16.4q-2.55-6.72-4.57-13.85a250.09,250.09,0,0,1-7.73-40c-.75-6.35-1.31-12.8-1.71-19.3q-.54-8.8-.7-17.7c0-1.7-.07-3.41-.08-5.11v-.42c0-.52,0-1,0-1.56,0-6.45.06-12.9.27-19.3q.1-3.37.25-6.74c.07-1.8.16-3.59.25-5.38q.39-7.44.91-14.88c0-.54.07-1.08.1-1.62.39-5.55.82-11.09,1.26-16.63q.51-6.29,1-12.57.78-9,1.54-18.1c.81-9.73,1.57-19.45,2.19-29.18l0-.48v0a1.09,1.09,0,0,0,0-.18,553.42,553.42,0,0,0,1-59.31,366.91,366.91,0,0,0-6.46-54.13q-.71-3.59-1.48-7.14a342.77,342.77,0,0,0-10.17-37q-1.22-3.62-2.51-7.15c-13.52-37.22-32.76-68.3-55.88-90.19-6-5.65-12.1-10.78-18.22-15.84-3.26-2.7-6.52-5.37-9.75-8.1q-1.86-1.56-3.69-3.15c-3.68-3.2-7.32-6.49-10.87-10a134.94,134.94,0,0,1-27.85-38.61q-1.29-2.69-2.55-5.4-2.13-4.58-4.19-9.22c-3.45-7.74-6.77-15.61-10-23.55q-2.62-6.37-5.19-12.82l-3.09-7.77-1.92-4.85-1-2.48c-1.53-3.88-3.07-7.77-4.62-11.64-.22-.56-.44-1.12-.67-1.67-2.75-6.91-5.52-13.78-8.36-20.59q-1.73-4.17-3.5-8.31c-.43-1-.86-2-1.3-3-2.09-4.84-4.23-9.65-6.37-14.44-4.28-9.61-8.59-19.2-12.68-29l-.4-1C19.13,55.22,14,40.61,9.22,26.77S0,0,0,0Z"/><path class="cls-2" d="M469.57,1139.5v44.19H417.75c.36-14.72,1.69-29.51,2.92-44.19Z"/><rect class="cls-2" x="517.96" y="597.4" width="105.12" height="44.19"/><rect class="cls-2" x="582.76" y="662.62" width="105.12" height="44.19"/><rect class="cls-2" x="449.66" y="662.62" width="105.12" height="44.19"/><rect class="cls-2" x="528.88" y="733.03" width="105.12" height="44.19"/><rect class="cls-2" x="91.28" y="35.68" width="105.12" height="44.19"/><path class="cls-2" d="M142.51,106.09v44.19H59.22l-1-2.48c-1.53-3.88-3.07-7.77-4.62-11.64V106.09Z"/><rect class="cls-2" x="270.81" y="314.55" width="105.12" height="44.19"/><rect class="cls-2" x="335.6" y="379.77" width="105.12" height="44.19"/><path class="cls-2" d="M307.62,379.77V424H225.11a342.77,342.77,0,0,0-10.17-37q-1.22-3.62-2.51-7.15Z"/><rect class="cls-2" x="281.72" y="450.18" width="105.12" height="44.19"/><rect class="cls-2" x="809.23" y="88.56" width="105.12" height="44.19"/><rect class="cls-2" x="874.03" y="153.78" width="105.12" height="44.19"/><rect class="cls-2" x="740.93" y="153.78" width="105.12" height="44.19"/><rect class="cls-3" x="757.14" y="369.67" width="264.78" height="604.92"/><rect class="cls-3" x="467.27" y="369.67" width="264.78" height="604.92"/><rect class="cls-3" x="1052.02" y="369.67" width="72.17" height="604.92"/><rect class="cls-4" x="599.33" y="554.38" width="580.39" height="235.5" transform="translate(1561.66 -217.4) rotate(90)"/><rect class="cls-5" x="309.47" y="554.38" width="580.39" height="235.5" transform="translate(1271.79 72.47) rotate(90)"/><rect class="cls-6" x="1066.66" y="381.94" width="57.53" height="580.38"/></g><g id="objects"><path class="cls-7" d="M690,62.83c-21.23-3-2.15-35,27.77-62.83h31.33C733.26,28.93,709.24,65.53,690,62.83Z"/><path class="cls-7" d="M774.82,0h32.11c16.47,20.54,28.92,45.83,17.72,68.51C808.85,100.54,787.54,43.05,774.82,0Z"/><path class="cls-8" d="M755.17,0h5.32c-1.36,9.51-2.84,20.05-4.39,31.47C769,56.83,834.61,190.66,803.32,219.38c-34.59,31.75-46.91-130.8-46.91-130.8l-1.83-45.79c-5.23,39.49-11,87.64-15.58,137.34,11.9,9.8,61.11,53,40.63,81.43-19,26.44-35.89-46.67-41.32-73.78-2.92,32.88-5.27,66.28-6.54,98.16,12.58,5.84,65.6,32.21,51.06,55.24-14.09,22.29-43.35-27.19-51.52-42-.59,19.55-.73,38.38-.31,56,13.73,6.46,75.18,36.53,60,50.86-17.06,16.12-52.13-27-52.13-27s27.49,110.43-2.4,98.59-9.92-105.22-10.87-107.58l.51-3c-.58-14.51-.73-29.95-.53-46-5.55,14.22-16.27,37.89-22.73,27.7-7.59-12,15.6-36.47,23-43.83.56-21.9,1.71-44.75,3.27-67.84-10.79,27.25-33.34,66.63-44.79,48.16-12.84-20.71,35.42-74.27,47.79-87.44,2.87-33.93,6.41-67.54,10.06-98.6-15.18,39.71-64.62,123.72-80.6,95.05C645,164.4,730.7,70.86,748,52.46,750.55,32.86,753,15.13,755.17,0Z"/><path class="cls-8" d="M1020.09,490.79c-17,20.06-61.38-23.54-61.38-23.54s44.42,119.44,9.68,110c-30.61-8.32-26.08-91.92-25.5-113.38-2.86-17.32-5.27-36-7.29-55.68-4.67,16.56-12.93,39.59-20.77,29.83-9.43-11.74,10.47-39.39,18.84-50-2-23.57-3.62-48.2-4.79-73.16C921.86,338.9,909,369,897,373.56c-3.68,1.36-7.29.37-10.63-3.88-6.16-7.81-3.83-21.49,2.2-36.5,9.94-24.77,30-53.2,38.63-64.93-1-36.82-1.35-73.41-1.23-107.5C912.2,208.7,870.17,300.08,849.6,271.28a16.86,16.86,0,0,1-2.16-4.1c-2.16-5.73-2-13.26-.14-22A119,119,0,0,1,852,229.28,245,245,0,0,1,863,204.46c4.13-8.27,8.79-16.72,13.65-25.06,3.6-6.15,7.32-12.25,11-18.16,15.63-24.85,31.39-46.58,38.83-56.6.48-29.33,1.21-55.13,1.88-75.35-12.61,33.63-37.17,89.69-61.64,92.1a13,13,0,0,1-2.07.09c-9.48-.25-12.53-6.36-10.89-15.78,1.55-9,7.39-21.12,16-34a245.72,245.72,0,0,1,21.89-28C903.05,30.91,916,18.9,929.09,9.68c.09-2.45-.23-7.54-.14-9.68h16.6c2.8,2.7,5.51,5.93,7.84,8.66,11.6,8.08,26.48,19.76,39,33.53,13.64,15,24.53,32.39,25.49,50.38a45.94,45.94,0,0,1-2.68,18.37c-.42,1.17-.86,2.25-1.32,3.23h0c-6,12.95-14.79,9.82-24.36-1.51-19.63-23.24-42.59-81-51.63-105-.67,17.13-1.54,42.35-2.21,72.78,11.86,18.2,45.72,71.74,65.78,120.11A252.91,252.91,0,0,1,1013.58,236c4.89,19.72,5,36.18-3.16,45.53-34.52,39.66-68.6-139.67-68.6-139.67l-6.48-42.38c-.78,43.21-1.07,94.62,0,147.39,14.68,9.73,60,42.34,57.61,72.66a28,28,0,0,1-2.54,9.71q-.51,1.1-1.11,2.19c-17,30.21-43-39.79-53.67-72.15.88,35.58,2.45,71.53,5,105.78,13.62,4.66,53.79,19.84,62.43,39.42a17.22,17.22,0,0,1-.19,15.14c-3,6.1-7.27,8.1-12.32,7.35-15.9-2.33-39-32-48.62-45.32,1.77,21.2,3.93,41.59,6.56,60.64,6.27,2.16,18.12,6.4,30.51,11.76a222.48,222.48,0,0,1,23.91,11.8C1017.1,474.11,1026.55,483.16,1020.09,490.79Z"/><path class="cls-7" d="M1018.25,13.73l-.55-.36a50.14,50.14,0,0,1-5-7.94A19.85,19.85,0,0,1,1011.1.92h0a5.22,5.22,0,0,1-.18-.91h20.48c18.33,6.25,37.46,15.13,38.33,25.12C1071,40,1039.64,27.87,1018.25,13.73Z"/><path class="cls-7" d="M1017.92,92.57a126.31,126.31,0,0,1-4,21.6h0c-3.61,12.2-9.11,19.31-16.85,16.61-4.05-1.41-6.38-8.2-7.51-18.12-2-17.69-.12-45.38,2.87-70.48,1.94-16.31,4.34-31.52,6.44-42.19h12.21c.26.65.48,1.34.72,2.09h0c.32,1,.63,2.11.93,3.33.76,3,1.47,6.58,2.18,10.93.29,1.33.55,2.69.81,4.11h0C1019.4,40.72,1020.47,69.44,1017.92,92.57Z"/><path class="cls-7" d="M893.39,86.37c-18.2,21.3-37-48.56-45.32-85.13-.28,25.08-.58,58.65-.78,97.53,11.23,11.53,46,49.88,41.17,78.3-4.71,27.57-31.54-29.88-41.27-52-.07,20.31-.1,41.74-.07,63.92,14.06,12.22,48,45.36,31.82,67.85-13.12,18.22-25-17.87-31.78-45.4.07,25.25.22,51.26.46,77.49,17,13.6,64.26,55.68,47,90.64-15.31,31-36.56-34.5-46.82-71.73.32,28,.75,56,1.33,83.55,9.32,15.6,43.31,75.37,24.7,88.25-10.05,7-17.93-7.69-23.11-26.69.8,25.67,1.76,50.36,2.92,73.47,12.4,8.21,63.61,43.89,57.65,69.56-3.72,16-43.87,0-43.87,0s32.9,87.75,0,82.26c-23.33-3.89-21.85-79.44-19-123.09q-.74-12-1.39-24.8c-4.86,18.28-13.11,31.51-22.45,20.33-16.42-19.66,14-66.32,20.1-75.26-.87-24-1.57-49.1-2.14-74.72-12.63,24.59-60.65,83.29-66.16,53.42-5.29-28.71,51.38-70.86,65.59-80.93-.47-25.49-.82-51.31-1.08-77-9.12,19.42-40.23,81.64-63.45,78.39-26.92-3.77,20.7-61.33,63.4-82.8-.24-25.16-.39-50.13-.47-74.44-.09.63-.17,1.26-.27,1.94-2.57,16.49-31.25,78.75-44,58.14s44-78.66,44-78.66a4.55,4.55,0,0,1,.23.52c-.05-23.48,0-46.22,0-67.76-9,22.84-40.63,73.51-50.75,56.52C780,171.94,825,124,840.44,108.3c.14-31.17.35-59.25.57-82.67-10.72,23.48-43.22,88.12-53.16,64.7-10.58-25,41.33-73,53.36-83.63,0-2.3,0-4.53.07-6.7h25.8C886.19,28.23,908.46,68.72,893.39,86.37Z"/><path class="cls-9" d="M288.63,1270.42c-1.43,1.91-5.73,5.25-8.59,12.41s-1.43,11.93-1.43,11.93l5.24,4.3s-1.9-4.3,2.87-11a30.47,30.47,0,0,1,11.45-9.54Z"/><path class="cls-9" d="M251.4,1231.29s-1.91-2.86,9.55-5.25,14.79-3.82,14.79-3.82l-2.38,6.69s-2.28-1.14-8.59,2.86a33.26,33.26,0,0,0-9.55,9.07Z"/><path class="cls-9" d="M325.37,1144.91c-1.91.48-12.88-2.86-22.43.48s-11.45,11-11.45,11a21.5,21.5,0,0,1,13.36-5.25,82.65,82.65,0,0,1,16.71,1Z"/><path class="cls-9" d="M245.2,1173.08A58.07,58.07,0,0,1,257.61,1188c4.77,8.67,14.79,35.65,14.79,35.65l4.77-9.64s-9.54-18.3-14.31-25.52-11.93-16.86-11.93-16.86Z"/><path class="cls-8" d="M468.53,1169.36c-8-2.38-21.22-3.07-29.15-.35-8.37,2.87-12.91,11.21-17.74,17.49-4.95-11.66-20.87-16.68-32.79-15.3-13.2,1.54-19.43,10.65-22.75,22.57-3.7-1.41-4.41-8.62-9.05-11.25-7.34-4.17-17-.85-23.67,3.64-14.53,9.81-24.5,31.88-23.07,49.5-1-11.82-11.15-23.48-17.76-7.1-6.26,15.51-6.15,29.49-6.15,45.8l3.32,8c-.45,1-1,1.38-.56,2.57a445.55,445.55,0,0,1,48,5.27c10.15,1.61,22.4,5.57,32.47.86,11.36-5.31,3.45-12.9-3.23-17.87,14.29-6.73,32.38,3.14,47-4.68,16.2-8.67.54-18.63-8.54-24.58,18.41-1.46,36.94,1.7,52.38-11.45,9.19-7.83,9.64-16.35,1.38-25.3,7-6.12,17.13-8.16,22.61-17.86S478,1172.18,468.53,1169.36Z"/><path class="cls-8" d="M256.58,1150.8c1.42-13.15,2.07-27.9-.77-40.54-2.12-9.46-3.91-19.43-10.75-26.5-9.2-9.53-20.28-.51-17.31,11.5-9.38-10.35-7.78-27-22.89-32-14.36-4.73-23.21,2.3-18,16.32-20.68-21.29-54.17-17.71-62.26,13.11-3,11.34-1.26,19,6.8,27.3,6.74,6.94,12.42,6.33,21.05,7.46a21.44,21.44,0,0,0-.22,32.84c11.31,9.7,21.93,5.78,34.51,6.75-5.54,6.54-4.49,16.21,3,20.59,8.83,5.14,16.58.16,24.22-4,11.82-6.41,29.49-8.82,42-2.19a34.26,34.26,0,0,1-1.73-5.46C252.5,1167.24,255.63,1159.55,256.58,1150.8Z"/><path class="cls-8" d="M321.23,997.52c5.6-6.52,22.45-47.5.5-44.64,4.44-7.65,7.75-19,2.75-27.11-7.46-12.12-19.34-7.68-26,1.24-2.79-20.14-12.78-52.77-39.57-40.4-11.6,5.36-22.5,17-21.8,30.33.51,9.84,7.15,18.62,8.58,28-13.51,1.23-24.36,7.22-22,22.05,2.6,16.49,14.11,18.92,23.37,29.81-3.64,1-9.29,5.28-10,9.41-1,6.19,4.48,8.34,9.35,10.18,10.23,3.86,25.37,2.16,32.6,12.48l8,42.58c4.57-13,4-24.25,14.12-35.93,6.48-7.49,14.44-13.46,19.67-22C322.29,1011.21,329.83,993.44,321.23,997.52Z"/><path class="cls-9" d="M282.57,1286.3c-8.77-19.13-5.87-44-2.84-64.35,3.67-24.81,18.26-46.7,20.64-72,2.41-25.64-3.86-47.9-5.34-72.55-.7-11.65,1-24,2.16-35.27,1.94-19.42,24.14-32.47,10.53-31.83-13.85.66-22.94,41.21-23.47,48.47-1.66,22.92,3.05,44.39,6.17,66.73,4.95,35.37-15.79,69.82-21.82,104.24-2.84,16.23.76,33.67,3.84,49.25,2.07,10.44,9.14,24,8.63,34.59l1.33,10c3.53,2.45,10.08,3.92,14.68,2.15,6.36-2.46,4.43-6.06,2-12C295,1304,287.06,1296.1,282.57,1286.3Z"/><path class="cls-10" d="M218.53,1317.87c0,7,9.58,13.05,9.58,13.05L249.63,1458h80.95l11.54-128s10.45-4.35,10.45-13.92c0-8.27-21.76-6.09-74.42-6.53S218.53,1312.21,218.53,1317.87Z"/><path class="cls-7" d="M258.45,1235.77l-2-5.32c-3.16-2.92-15.86-2.29-20.63-2.68-12.17-1-24.56,1-36.44,2.7-14.38,2.1-36,10.21-20.84,26.46-10.4-.78-24.5,10.26-30.54,17.93-7.08,9-9.52,17.8-2.06,26.78-13.69,7.83-22.57,28.1-9.95,41.93,13.83,15.15,43.4-2.71,51.28-16.41,1.74,9.59,17.69,12.37,25.41,9.07,11.32-4.83,15.48-24.14,16.62-35.19,4.84,4.82,13.44,6.55,19.2,1.43s5.12-17,5.8-24.12S262,1238.83,258.45,1235.77Z"/><path class="cls-7" d="M450.12,1191c5.9-3.89,19.31-7.14,19.26-16.44-.05-6.85-9.26-12.71-14.8-15.16-15.71-7-32-1.12-47.69-3.61,5.62-6.77,12.29-13.27,1.93-19.66-8.09-5-21.3-5.94-30.59-5.49-19.29.95-45.78,5-61.89,16,0,0,6.86,19,8.81,24.6,3.22,9.23,4.85,18.54,9.93,27.06,4.84,8.1,13.2,17.27,23.84,14.09,7.9-2.36,9.64-9.23,9.44-16.46,6.12,9.38,20.77,22.89,30.64,28.06,6.41,3.35,16,4.17,23.12,2.34,8-2.06,8.44-5.2,8.78-12.29,4.67,11.51,38.09,26.42,44.3,9.78C481.15,1207.85,461,1196.18,450.12,1191Z"/><path class="cls-7" d="M309.55,1124.41c-3-13.12-8.05-16.25-22.55-20.1-11.27-3-22.74-4.34-34.58-5.83-40.63-5.11-47.35,20.13-45.13,30,2.85,12.6,13,13.57,24.67,10-1.33,11.94-5,26.59,10.64,34,16.32,7.74,29.65-3.3,32.52-17.4,9.52,7.52,18.77,13.4,29.17,1.78C312.36,1147.86,312,1135.19,309.55,1124.41Z"/><path class="cls-7" d="M295.31,1028.11a6.68,6.68,0,0,0-.85.63A.85.85,0,0,0,295.31,1028.11Z"/><path class="cls-7" d="M458.75,973.64c-15.4-15.73-40.11-18.73-59.15-11.38-.74-13.36-10.58-16.09-22.72-13.9-15.29,2.75-29.35,13.83-37.92,26.54-3.3-3.64-2-9.45-10-7.93-6.66,1.27-11.91,8.71-15.25,14.12-6.64,10.73-14.53,24.49-18,36.46L292,1029c-.23.16,7.24,1.7,7.16,1.9,7.75-5.06,25.12-3.73,33.18-2.14,7.08,1.4,17.37,2.56,24.76,1.51,9.45-1.34,7.36-6.14,7.27-13.9,15,1.26,28.49,7.44,43.81,6.56,10.27-.58,31.61-4.31,22-19.21C444.22,1004.4,475,990.21,458.75,973.64Z"/><path class="cls-11" d="M304.69,1021.62c16.13-18,39-25,62.18-28.47,11.62-1.75,23.35-2.66,35-3.94C414,987.89,426,986,438,983.9c2.27-.4,1.3-3.85-.95-3.45-12.31,2.19-24.73,4.06-37.15,5.4-11.68,1.25-23.38,2.25-35,4-23.41,3.52-46.52,11.15-62.74,29.24-1.54,1.71,1,4.25,2.53,2.53Z"/><path class="cls-11" d="M366.05,992.15c4.77-9.53,10-20.87,19.88-26.08,2-1.09.23-4.18-1.81-3.1C373.71,968.49,368,980.25,363,990.34c-1,2.06,2.06,3.87,3.09,1.81Z"/><path class="cls-11" d="M377,992.79c5.21,4,10.73,7.67,16.16,11.39,2.83,1.94,5.67,3.87,8.54,5.74,1.17.76,2.84,2.26,4.3,1.48,2-1.08.23-4.17-1.8-3.09,1.08-.58,2.2.28,1.34-.21-.34-.19-.66-.4-1-.6-.93-.59-1.85-1.2-2.77-1.81q-4.06-2.7-8.08-5.47c-5-3.43-10.09-6.82-14.9-10.52-1.83-1.41-3.61,1.7-1.8,3.09Z"/><path class="cls-11" d="M319.05,1008.42a57,57,0,0,1,1.5-12c.86-3.84,2.08-8.39,5.13-11.08,1.74-1.53-.8-4.05-2.53-2.53-6.41,5.65-7.59,17.62-7.68,25.6,0,2.31,3.56,2.31,3.58,0Z"/><path class="cls-11" d="M321.72,1007.3c7.27,6.69,16,13.4,26.08,14.78,2.26.31,3.23-3.14,1-3.45-9.49-1.3-17.66-7.55-24.51-13.86-1.69-1.56-4.23,1-2.53,2.53Z"/><path class="cls-11" d="M329.19,1152.37c27.29,3.89,51.69,16.17,75.05,30.25,11.22,6.76,22.46,13.57,33.53,20.58,3.35,2.12,6.67,4.31,10,6.51q2.72,1.8,5.4,3.65c.58.4,1.15.81,1.72,1.22.23.16,1,1,.68.43,1.1,2,4.19.23,3.09-1.8-1-1.87-4.23-3.32-5.89-4.45q-5.64-3.83-11.36-7.5c-10.93-7.06-22.18-13.72-33.3-20.5-24.18-14.73-49.57-27.8-77.94-31.85-2.25-.32-3.22,3.13-.95,3.46Z"/><path class="cls-11" d="M393.26,1175.46c-.85,13.12.3,31.16,11.86,39.72,1.86,1.37,3.64-1.73,1.81-3.09-10.34-7.66-10.84-25.06-10.09-36.63.15-2.31-3.43-2.3-3.58,0Z"/><path class="cls-11" d="M404.43,1179.58c10.31-9.87,27.95-9,41.21-9,2.3,0,2.3-3.57,0-3.58-14.32,0-32.64-.56-43.74,10.07-1.67,1.6.86,4.13,2.53,2.53Z"/><path class="cls-11" d="M340.35,1153.5c-4.1,12.53-1.25,27.94,5.43,39.08a1.8,1.8,0,0,0,3.34-.9,10.22,10.22,0,0,0-.55-3.34c-.76-2.16-4.21-1.23-3.45,1a5,5,0,0,1,.42,2.39l3.33-.9c-6.22-10.37-8.88-24.67-5.07-36.32.72-2.2-2.73-3.14-3.45-1Z"/><path class="cls-11" d="M344.3,1154.29c9.85-10.78,25.25-8.55,37.86-13.38,2.14-.81,1.21-4.28-1-3.45-13.31,5.1-29,2.89-39.44,14.3-1.56,1.7,1,4.24,2.53,2.53Z"/><path class="cls-11" d="M265.72,1101.67c-8.18,3.38-10.66,14.74-12.31,22.44a124.82,124.82,0,0,0-2.84,30.35c.08,2.3,3.58,2.31,3.58,0v-2.87a1.79,1.79,0,0,0-3.58,0v2.87h3.58a126,126,0,0,1,2.07-26.08,78.32,78.32,0,0,1,3.68-14c1.24-3.31,3.25-7.78,6.77-9.23,2.1-.87,1.18-4.33-.95-3.45Z"/><path class="cls-11" d="M261,1111.8c6.91,1.69,11.74,7.68,16.81,12.29a83.91,83.91,0,0,1,6.18,6.33,27.87,27.87,0,0,1,2.2,2.89,14.65,14.65,0,0,1,.8,1.3c.28,1.08.68.92,1.21-.49-2.24.55-1.29,4,1,3.45,5.44-1.32-2.86-9.9-4.31-11.54-3.32-3.76-7.37-6.78-10.85-10.38a25.61,25.61,0,0,0-12-7.3c-2.24-.55-3.19,2.9-.95,3.45Z"/><path class="cls-11" d="M222.13,1127.57c8.84-10.84,24-17.85,37.86-18.57,2.3-.12,2.31-3.7,0-3.58-14.78.77-31,8.06-40.4,19.62-1.44,1.77,1.08,4.32,2.54,2.53Z"/><path class="cls-11" d="M149.87,1330.5c3.3-4.55,7.81-8,11.95-11.78,4.46-4,8-8.91,11.76-13.55,8.06-9.85,16.55-19.34,25.16-28.71,7.49-8.14,14.95-16.17,24.57-21.85,9.1-5.37,18.95-9.25,27-16.33,1.74-1.53-.8-4-2.53-2.53-8.35,7.37-18.86,11.2-28.22,17s-16.82,14.15-24.23,22.22c-8.62,9.37-17.06,18.91-25.12,28.76-3.79,4.64-7.32,9.26-11.78,13.3-4.1,3.72-8.35,7.19-11.62,11.71-1.36,1.87,1.75,3.65,3.09,1.8Z"/><path class="cls-11" d="M232,1248c2,11.6,6.83,24.45,4.29,36.28-.48,2.25,3,3.2,3.46,1,2.69-12.55-2.19-25.88-4.3-38.18-.39-2.27-3.84-1.3-3.45,1Z"/><path class="cls-11" d="M196.52,1246.38c5.5-1.65,11.39-1.81,17.08-1.62,5.32.18,12.58.56,17,4,1.79,1.42,4.34-1.1,2.53-2.53-4.62-3.65-11-4.41-16.68-4.9-6.84-.59-14.24-.4-20.85,1.58-2.21.66-1.27,4.11,1,3.45Z"/><path class="cls-11" d="M192.87,1279.33c4.57,4.79,6.89,12.47,8.9,18.61a74.81,74.81,0,0,1,2.7,10.85c.4,2.36,1,5.85-.43,8-1.28,1.92,1.82,3.71,3.09,1.8,3.64-5.43,0-15.29-1.66-20.78-2.15-7-4.9-15.57-10.07-21-1.59-1.67-4.12.87-2.53,2.54Z"/><path class="cls-11" d="M163.12,1287c9.83-1.13,19.27-4.82,29.11-5.73,2.27-.21,2.3-3.79,0-3.58-9.86.92-19.28,4.6-29.11,5.73-2.27.26-2.3,3.84,0,3.58Z"/><path class="cls-11" d="M974.07,857.19,834.9,982.1,710.52,809.82,820.34,708.61Z"/><path class="cls-11" d="M833.49,947.11,607.28,930.68q.09-19.81.19-39.62l182.6-27.94Z"/><path class="cls-11" d="M935.58,858.62l-47.52-12.79c6.89-18.06,53.48-142.72,14.46-170.07-13.21-9.26-38.6-9-52.31,4.77C836.82,694,835.48,719.44,848.69,743L831,744.4c-9.58-26.47-5.35-53.84,11-71.44,19.07-20.47,51.28-23.57,70.19-14.7C950.43,676.16,959.59,754.81,935.58,858.62Z"/><path class="cls-11" d="M607.23,954.45a11.92,11.92,0,0,1-13.7-9.73L582,876.34a11.88,11.88,0,0,1,23.42-4L617,940.76A11.91,11.91,0,0,1,607.23,954.45Z"/><path class="cls-11" d="M755.23,833.13c-86-85.18-86.11-110.93-78.74-122.89,9.77-15.82,40.27-11.94,52.93-9.55,44.24,8.3,64.49,48.15,68.1,56.06l-8.9,4.06c-3.26-7.13-21.52-43.09-61-50.51-17.69-3.32-37.75-3-42.8,5.08-4.89,7.93-1.35,32.87,77.3,110.8Z"/><path class="cls-12" d="M569,895.64h-11.5a1.5,1.5,0,0,0,0,3H569a1.5,1.5,0,0,0,0-3Z"/><path class="cls-12" d="M534.11,908.91a72.67,72.67,0,0,0-28.25,10.69c-1.62,1-.12,3.63,1.51,2.59a70.6,70.6,0,0,1,27.54-10.39c1.9-.29,1.09-3.18-.8-2.89Z"/><path class="cls-12" d="M548,930.06a41.33,41.33,0,0,0-13.79,3.05,1.53,1.53,0,0,0-1,1.84,1.5,1.5,0,0,0,1.84,1,38.79,38.79,0,0,1,13-2.94,1.54,1.54,0,0,0,1.5-1.5,1.51,1.51,0,0,0-1.5-1.5Z"/><path class="cls-12" d="M569.51,940.42a46.48,46.48,0,0,0-12.64,5.39c-1.64,1-.14,3.61,1.51,2.6a43.58,43.58,0,0,1,11.93-5.1c1.87-.48,1.08-3.37-.8-2.89Z"/><path class="cls-12" d="M517.57,969.74a70.48,70.48,0,0,0-15.89,15.8,1.51,1.51,0,0,0,.54,2.05,1.52,1.52,0,0,0,2-.54,66.29,66.29,0,0,1,14.81-14.72,1.54,1.54,0,0,0,.54-2.05,1.51,1.51,0,0,0-2-.54Z"/><path class="cls-12" d="M487.57,937.64a13.48,13.48,0,0,0-9.83,5.74,1.51,1.51,0,0,0,.54,2.06,1.54,1.54,0,0,0,2.05-.54l.19-.27.08-.11a1.74,1.74,0,0,1,.13-.15,1.63,1.63,0,0,1,.17-.2,12,12,0,0,1,.86-.89l.45-.39.15-.13.11-.08a10.32,10.32,0,0,1,1-.68c.34-.2.69-.38,1-.55l.24-.11c-.27.13,0,0,.07,0l.55-.2a11.78,11.78,0,0,1,1.2-.33l.58-.11c.15,0,.13,0,0,0l.39,0a1.54,1.54,0,0,0,1.5-1.5,1.51,1.51,0,0,0-1.5-1.5Z"/><path class="cls-12" d="M473,968.31l-11.45,20.15a1.5,1.5,0,0,0,2.59,1.51l11.45-20.15a1.5,1.5,0,0,0-2.59-1.51Z"/><path class="cls-12" d="M474.66,1011.3a25.76,25.76,0,0,0-2.9,12.32c0,1.93,3,1.94,3,0a22.68,22.68,0,0,1,2.49-10.81,1.5,1.5,0,0,0-2.59-1.51Z"/><path class="cls-12" d="M456.14,1036.52a30.11,30.11,0,0,0-1.48,16.22,1.51,1.51,0,0,0,1.84,1,1.54,1.54,0,0,0,1.05-1.85,27.24,27.24,0,0,1,1.48-14.62,1.5,1.5,0,0,0-2.89-.8Z"/><path class="cls-12" d="M481.29,1050.45V1062a1.5,1.5,0,0,0,3,0v-11.5a1.5,1.5,0,0,0-3,0Z"/><path class="cls-12" d="M510,1048.54a38.62,38.62,0,0,1-4.59,17.45c-.91,1.7,1.68,3.21,2.59,1.51a42,42,0,0,0,5-19c0-1.93-3-1.93-3,0Z"/><path class="cls-12" d="M501.8,1011.66a61.83,61.83,0,0,1-3.77,16.08,1.51,1.51,0,0,0,1.05,1.85,1.53,1.53,0,0,0,1.84-1,64.8,64.8,0,0,0,3.88-16.88,1.5,1.5,0,0,0-3,0Z"/><path class="cls-12" d="M457.34,1085a117.21,117.21,0,0,1-4.12,20.31c-.55,1.85,2.34,2.65,2.89.8a121.45,121.45,0,0,0,4.23-21.11,1.5,1.5,0,0,0-1.5-1.5,1.53,1.53,0,0,0-1.5,1.5Z"/><path class="cls-12" d="M490.47,1093.22q-3,15.51-6.94,30.8a1.5,1.5,0,0,0,2.89.8q4-15.28,6.94-30.8c.36-1.89-2.53-2.69-2.89-.8Z"/></g></g></svg>