<svg xmlns="http://www.w3.org/2000/svg" xmlns:xlink="http://www.w3.org/1999/xlink" viewBox="0 0 1125 1458"><defs><style>.cls-1{isolation:isolate;}.cls-2{fill:#65ccb7;}.cls-3{fill:#57bb99;}.cls-4{fill:#3b945e;}.cls-5{fill:url(#Gradiente_sem_nome_23);}.cls-6{fill:url(#Gradiente_sem_nome_23-2);}.cls-7{fill:url(#Gradiente_sem_nome_23-3);}.cls-8{fill:#327f6b;}.cls-9{fill:#3c8f7c;}.cls-10{fill:#f47458;}.cls-11{fill:#124647;}.cls-12{fill:#256653;}.cls-13{fill:#50bfa5;}.cls-14{fill:#96d9c9;}.cls-15{fill:#215e4b;}.cls-16{fill:#fb8603;}.cls-17{fill:#bc6502;opacity:0.49;mix-blend-mode:multiply;}.cls-18{fill:#ffd078;}.cls-19{fill:#e87605;}.cls-20{fill:url(#Áåçûìÿííûé_ãðàäèåíò_54);}.cls-21{fill:#f7a491;}.cls-22{fill:#185454;}.cls-23{fill:url(#Áåçûìÿííûé_ãðàäèåíò_54-2);}</style><linearGradient id="Gradiente_sem_nome_23" x1="890.34" y1="962.33" x2="890.34" y2="381.94" gradientTransform="translate(218.2 1562.48) rotate(-90)" gradientUnits="userSpaceOnUse"><stop offset="0" stop-color="#e0820a"/><stop offset="0.28" stop-color="#ffa016"/><stop offset="1" stop-color="#f7cc7f"/></linearGradient><linearGradient id="Gradiente_sem_nome_23-2" x1="600.47" y1="962.33" x2="600.47" y2="381.94" gradientTransform="translate(-71.67 1272.61) rotate(-90)" xlink:href="#Gradiente_sem_nome_23"/><linearGradient id="Gradiente_sem_nome_23-3" x1="1096.23" y1="962.33" x2="1096.23" y2="381.95" gradientTransform="matrix(1, 0, 0, 1, 0, 0)" xlink:href="#Gradiente_sem_nome_23"/><linearGradient id="Áåçûìÿííûé_ãðàäèåíò_54" x1="483.76" y1="1153.31" x2="659.74" y2="1153.31" gradientUnits="userSpaceOnUse"><stop offset="0" stop-color="#ff774a"/><stop offset="1" stop-color="#ff9836"/></linearGradient><linearGradient id="Áåçûìÿííûé_ãðàäèåíò_54-2" x1="603.37" y1="1087.98" x2="704.26" y2="1087.98" xlink:href="#Áåçûìÿííûé_ãðàäèåíò_54"/></defs><g class="cls-1"><g id="Camada_2" data-name="Camada 2"><g id="background"><path class="cls-2" d="M1125,0V1458H517.91c-.84-1.85-1.72-3.67-2.62-5.45-1.08-2.16-2.18-4.29-3.3-6.36q-3.14-5.75-6.46-11.15c-.25-.42-.51-.84-.76-1.23-4.83-7.81-9.93-15.13-15.22-22.17-.26-.35-.53-.7-.79-1.06-4-5.33-8.15-10.48-12.34-15.55-4.64-5.65-9.36-11.18-14.09-16.71-7.95-9.31-15.91-18.59-23.61-28.33q-4.2-5.31-8.3-11c-21.52-29.63-40.42-66-45.64-110.37a276.76,276.76,0,0,1-1.53-37.81c.29-14.71,1.35-29.49,2.34-44.18.08-1.37.17-2.73.26-4.09.77-12,1.36-24.12,1.7-36.4.21-7.2.33-14.45.35-21.7.25-69.36-8.18-139.6-35.44-188.15-1.06-1.89-2.16-3.73-3.28-5.54A142.71,142.71,0,0,0,340,877.39c-.68-.88-1.36-1.74-2.06-2.58-.34-.44-.7-.85-1.05-1.27q-3.48-4.15-7.16-7.9c-1.27-1.32-2.55-2.59-3.85-3.85-1.92-1.84-3.87-3.65-5.85-5.38-3.39-3-6.83-5.85-10.3-8.65-2-1.6-4-3.16-6-4.73l-4-3.14a4.57,4.57,0,0,1-.36-.29c-1.86-1.43-3.72-2.88-5.58-4.33-5.16-4-10.26-8.14-15.22-12.54a156.05,156.05,0,0,1-13.31-13.08c-.3-.33-.6-.66-.89-1a126.68,126.68,0,0,1-9.61-12.28q-3.09-4.46-5.92-9.48c-.53-1-1.06-1.92-1.58-2.9a140.2,140.2,0,0,1-7.34-16.4q-2.55-6.72-4.57-13.85a250.09,250.09,0,0,1-7.73-40c-.75-6.35-1.31-12.8-1.71-19.3q-.54-8.81-.7-17.7c0-1.7-.07-3.41-.08-5.11v-.42c0-.52,0-1,0-1.56,0-6.45.06-12.9.27-19.3q.1-3.37.25-6.74c.07-1.8.16-3.59.25-5.38q.39-7.44.91-14.88c0-.54.07-1.08.1-1.62.39-5.55.82-11.09,1.26-16.63q.51-6.29,1-12.57.78-9,1.54-18.1c.81-9.73,1.57-19.45,2.19-29.18l0-.48v0a1.09,1.09,0,0,0,0-.18,553.42,553.42,0,0,0,1-59.31,366.91,366.91,0,0,0-6.46-54.13q-.71-3.58-1.48-7.14a342.77,342.77,0,0,0-10.17-37q-1.22-3.62-2.51-7.15c-13.52-37.22-32.76-68.3-55.88-90.19-6-5.65-12.1-10.78-18.22-15.84-3.26-2.7-6.52-5.37-9.75-8.1q-1.86-1.56-3.69-3.15c-3.68-3.2-7.32-6.49-10.87-10A134.94,134.94,0,0,1,87,213.9q-1.29-2.68-2.55-5.4-2.13-4.58-4.19-9.22c-3.45-7.74-6.77-15.61-10-23.55q-2.62-6.37-5.19-12.82L62,155.14,60,150.29l-1-2.48c-1.53-3.88-3.07-7.77-4.62-11.64-.22-.56-.44-1.12-.67-1.67-2.75-6.91-5.52-13.78-8.36-20.59q-1.73-4.17-3.5-8.31c-.43-1-.86-2-1.3-3-2.09-4.84-4.23-9.65-6.37-14.44C30,78.55,25.64,69,21.55,59.12l-.4-1C19.94,55.23,14.83,40.62,10,26.78S.81,0,.81,0Z"/><path class="cls-3" d="M470.38,1139.51v44.19H418.56c.36-14.72,1.69-29.51,2.92-44.19Z"/><rect class="cls-3" x="518.77" y="597.41" width="105.12" height="44.19"/><rect class="cls-3" x="583.57" y="662.63" width="105.12" height="44.19"/><rect class="cls-3" x="450.47" y="662.63" width="105.12" height="44.19"/><rect class="cls-3" x="529.69" y="733.04" width="105.12" height="44.19"/><rect class="cls-3" x="92.09" y="35.69" width="105.12" height="44.19"/><path class="cls-3" d="M143.32,106.1v44.19H60l-1-2.48c-1.53-3.88-3.07-7.77-4.62-11.64V106.1Z"/><rect class="cls-3" x="271.62" y="314.56" width="105.12" height="44.19"/><rect class="cls-3" x="336.41" y="379.78" width="105.12" height="44.19"/><path class="cls-3" d="M308.43,379.78V424H225.92a342.77,342.77,0,0,0-10.17-37q-1.22-3.62-2.51-7.15Z"/><rect class="cls-3" x="282.53" y="450.19" width="105.12" height="44.19"/><rect class="cls-3" x="810.04" y="88.57" width="105.12" height="44.19"/><rect class="cls-3" x="874.84" y="153.79" width="105.12" height="44.19"/><rect class="cls-3" x="741.74" y="153.79" width="105.12" height="44.19"/><rect class="cls-4" x="757.95" y="369.68" width="264.78" height="604.92"/><rect class="cls-4" x="468.08" y="369.68" width="264.78" height="604.92"/><rect class="cls-4" x="1052.83" y="369.68" width="72.17" height="604.92"/><rect class="cls-5" x="600.14" y="554.39" width="580.39" height="235.5" transform="translate(1562.48 -218.2) rotate(90)"/><rect class="cls-6" x="310.28" y="554.39" width="580.39" height="235.5" transform="translate(1272.61 71.67) rotate(90)"/><rect class="cls-7" x="1067.47" y="381.95" width="57.53" height="580.38"/></g><g id="objects"><path class="cls-8" d="M691.17,62.83C670,59.85,689,27.81,718.94,0h31.33C734.48,28.93,710.45,65.53,691.17,62.83Z"/><path class="cls-8" d="M776,0h32.12c16.47,20.54,28.91,45.83,17.72,68.51C810.06,100.54,788.75,43.05,776,0Z"/><path class="cls-9" d="M756.39,0h5.32c-1.37,9.51-2.85,20.05-4.39,31.47,12.85,25.36,78.5,159.19,47.22,187.91-34.6,31.75-46.92-130.8-46.92-130.8L755.8,42.79c-5.24,39.49-11,87.64-15.59,137.34,11.91,9.8,61.12,53,40.63,81.43C761.79,288,745,214.89,739.52,187.78c-2.92,32.88-5.27,66.28-6.53,98.16,12.57,5.84,65.6,32.21,51,55.24-14.09,22.29-43.35-27.19-51.52-42-.59,19.55-.73,38.38-.3,56,13.73,6.46,75.18,36.53,60,50.86-17.06,16.12-52.13-27-52.13-27s27.48,110.43-2.4,98.59-9.93-105.22-10.87-107.58l.51-3c-.58-14.51-.74-29.95-.54-46-5.55,14.22-16.26,37.89-22.72,27.7-7.6-12,15.59-36.47,23-43.83.57-21.9,1.72-44.75,3.27-67.84-10.79,27.25-33.34,66.63-44.78,48.16C672.74,264.54,721,211,733.37,197.81c2.88-33.93,6.42-67.54,10.06-98.6-15.17,39.71-64.62,123.72-80.59,95.05-16.64-29.86,69.07-123.4,86.38-141.8C751.77,32.86,754.22,15.13,756.39,0Z"/><path class="cls-9" d="M1021.31,490.79c-17,20.06-61.39-23.54-61.39-23.54s44.42,119.44,9.68,110c-30.6-8.32-26.07-91.92-25.5-113.38-2.85-17.32-5.27-36-7.29-55.68C932.14,424.75,923.88,447.78,916,438c-9.42-11.74,10.47-39.39,18.85-50-2.06-23.57-3.62-48.2-4.79-73.16-7,24.06-19.85,54.19-31.93,58.72-3.68,1.36-7.29.37-10.64-3.88-6.15-7.81-3.82-21.49,2.2-36.5,9.94-24.77,30-53.2,38.63-64.93-1-36.82-1.35-73.41-1.23-107.5-13.71,47.95-55.74,139.33-76.32,110.53a17.18,17.18,0,0,1-2.15-4.1c-2.16-5.73-2-13.26-.14-22a117.59,117.59,0,0,1,4.73-15.94,244.84,244.84,0,0,1,10.92-24.82c4.13-8.27,8.8-16.72,13.66-25.06,3.6-6.15,7.31-12.25,11-18.16,15.63-24.85,31.39-46.58,38.84-56.6.48-29.33,1.2-55.13,1.87-75.35C917,62.92,892.42,119,868,121.39a13.09,13.09,0,0,1-2.07.09c-9.49-.25-12.54-6.36-10.9-15.78,1.55-9,7.4-21.12,16-34a243.48,243.48,0,0,1,21.89-28C904.26,30.91,917.23,18.9,930.3,9.68c.1-2.45-.23-7.54-.13-9.68h16.6c2.79,2.7,5.51,5.93,7.84,8.66,11.6,8.08,26.48,19.76,39,33.53,13.63,15,24.53,32.39,25.48,50.38a45.93,45.93,0,0,1-2.67,18.37,34.28,34.28,0,0,1-1.33,3.23h0c-6,12.95-14.78,9.82-24.35-1.51-19.64-23.24-42.59-81-51.64-105-.67,17.13-1.54,42.35-2.21,72.78,11.87,18.2,45.72,71.74,65.79,120.11A255.53,255.53,0,0,1,1014.8,236c4.88,19.72,5,36.18-3.17,45.53C977.12,321.14,943,141.81,943,141.81l-6.49-42.38c-.78,43.21-1.06,94.62.05,147.39,14.67,9.73,60,42.34,57.61,72.66a28,28,0,0,1-2.55,9.71q-.49,1.1-1.11,2.19c-17,30.21-43-39.79-53.67-72.15.89,35.58,2.45,71.53,5,105.78,13.62,4.66,53.8,19.84,62.44,39.42a17.25,17.25,0,0,1-.19,15.14c-3,6.1-7.28,8.1-12.32,7.35-15.91-2.33-39-32-48.63-45.32,1.77,21.2,3.94,41.59,6.56,60.64,6.28,2.16,18.12,6.4,30.51,11.76a222.48,222.48,0,0,1,23.91,11.8C1018.31,474.11,1027.76,483.16,1021.31,490.79Z"/><path class="cls-8" d="M1019.47,13.73l-.55-.36a49.42,49.42,0,0,1-5-7.94,19.93,19.93,0,0,1-1.64-4.51h0a8.11,8.11,0,0,1-.18-.91h20.48c18.33,6.25,37.47,15.13,38.34,25.12C1072.23,40,1040.86,27.87,1019.47,13.73Z"/><path class="cls-8" d="M1019.13,92.57a125.34,125.34,0,0,1-4,21.6h0c-3.61,12.2-9.1,19.31-16.85,16.61-4-1.41-6.38-8.2-7.5-18.12-2-17.69-.12-45.38,2.87-70.48C995.58,25.88,998,10.67,1000.09,0h12.21c.25.65.48,1.34.72,2.09h0c.32,1,.63,2.11.93,3.33.75,3,1.47,6.58,2.17,10.93.29,1.33.55,2.69.82,4.11h0C1020.62,40.72,1021.68,69.44,1019.13,92.57Z"/><path class="cls-8" d="M894.6,86.37c-18.2,21.3-37-48.56-45.31-85.13-.28,25.08-.59,58.65-.78,97.53,11.23,11.53,46,49.88,41.16,78.3-4.7,27.57-31.54-29.88-41.27-52-.06,20.31-.09,41.74-.07,63.92,14.06,12.22,48,45.36,31.82,67.85-13.12,18.22-25-17.87-31.77-45.4.07,25.25.21,51.26.46,77.49,17,13.6,64.25,55.68,47,90.64-15.31,31-36.55-34.5-46.81-71.73.31,28,.74,56,1.32,83.55,9.33,15.6,43.31,75.37,24.71,88.25C865,486.6,857.12,472,851.94,453c.8,25.67,1.77,50.36,2.92,73.47,12.4,8.21,63.61,43.89,57.66,69.56-3.72,16-43.88,0-43.88,0s32.91,87.75,0,82.26c-23.33-3.89-21.85-79.44-19-123.09q-.74-12-1.38-24.8c-4.86,18.28-13.12,31.51-22.45,20.33-16.43-19.66,14-66.32,20.09-75.26-.86-24-1.57-49.1-2.14-74.72-12.62,24.59-60.65,83.29-66.16,53.42-5.29-28.71,51.38-70.86,65.6-80.93-.48-25.49-.83-51.31-1.09-77-9.11,19.42-40.23,81.64-63.44,78.39-26.93-3.77,20.7-61.33,63.4-82.8-.24-25.16-.39-50.13-.47-74.44-.09.63-.17,1.26-.28,1.94-2.56,16.49-31.25,78.75-44,58.14s44-78.66,44-78.66a3,3,0,0,1,.23.52c0-23.48,0-46.22,0-67.76-9,22.84-40.64,73.51-50.75,56.52-9.61-16.14,35.38-64.07,50.83-79.78.13-31.17.35-59.25.57-82.67-10.72,23.48-43.23,88.12-53.16,64.7-10.59-25,41.32-73,53.35-83.63q0-3.45.07-6.7h25.8C887.41,28.23,909.68,68.72,894.6,86.37Z"/><rect class="cls-10" y="753.73" width="268.17" height="13.85"/><polygon class="cls-11" points="239.42 767.58 234.2 803.46 216.8 803.46 209.84 767.58 239.42 767.58"/><path class="cls-10" d="M157,671.21H78.43c-.74,66.61,45.85,75,45.85,75h65.45s46.59-8.44,45.85-75Z"/><rect class="cls-11" x="124.94" y="746.26" width="64.22" height="6.65"/><path class="cls-12" d="M175.4,628.32a6.39,6.39,0,0,1-7.18-5.59c-1.2-6.45,5.1-9.48,4.88-13.52s1.57-6.92,8.41-8.3,7.17-11.32,12.65-12.7,9.79-2.14,14.17-7.49,9.38.73,14.85-4.07,17.13.65,21.91-5.52c0,0-2.16,14.69-5.75,16.91s-14.89,5.32-15.64,8.54,1.52,5.89-3.14,7.68-9.59,3.21-9.44,6.13,2.76,10-1.48,11.7-16.1-2.37-17.74,2.29-1.35,7.54-6.15,8.23S178.08,632.9,175.4,628.32Z"/><path class="cls-12" d="M137.67,634.8a6.39,6.39,0,0,1,2.25,8.82c-3,5.83-9.85,4.36-12.16,7.68s-5.48,4.51-11.73,1.41-12.61,4.54-17.78,2.27-9-4.32-15.78-2.77-7-6.34-14.23-5.9-13.13-11-20.69-9.08c0,0,10.71-10.28,14.91-9.82s15,4.93,17.59,2.84,2.42-5.58,7.19-4.14,9.55,3.34,11.22.94,4-9.62,8.34-8.32,11.27,11.74,15.42,9.06,5.69-5.12,9.9-2.73S138.36,629.54,137.67,634.8Z"/><path class="cls-12" d="M124.16,792.53a55.84,55.84,0,0,0-3-35.48,61.34,61.34,0,0,0-2.9-5.86c-6.55-11.59-3-19.4.13-26.56s1.65-8.71,1.16-14.94-1.53-8.18,2.59-14.76,9.39-4.33,11-13S129.45,669.31,138,666s14.72-5.14,20.4-11a97.73,97.73,0,0,0,10.07-12.52s2.88,30.77-.92,37.54.35,17.6,2.6,25.31,4.93,12.84-.17,18.84-7.23,8.48-6.16,14.84,1.1,10.77-7.9,16.66-13.72,10.14-16.41,16.9-15.36,19.95-15.36,19.95Z"/><path class="cls-12" d="M188.53,645.36A55.82,55.82,0,0,0,213.24,671a60.93,60.93,0,0,0,5.94,2.71c12.4,4.85,14.6,13.13,16.69,20.67s4.22,7.79,8.54,12.32,6.35,5.36,7.31,13.07-4.54,9.29-.32,17.08,10.87,7.38,6.32,15.33-8.16,13.28-8.86,21.43a98.19,98.19,0,0,0,.1,16.06s-21.67-22-23-29.68-11.39-13.42-18-18-11.93-6.83-11.77-14.7.25-11.14-4.6-15.4-7.65-7.66-4.4-17.91,4.23-16.52,2-23.47-.7-25.16-.7-25.16Z"/><path class="cls-9" d="M169.32,635.22s22.59-8,29.58-5.69,17.67-3.81,24.42,10,13.46,12.54,13.69,24.36,9.3,10.07,10,24.26,7.42,10,5.06,24.79-3.81,20-3.81,20-.82-17-7.33-21.09-7.69-3.83-11.48-10.74-7.91-16.2-16.22-18.69-6.91-6.58-11.68-14.39-4.35-8.43-12.33-8.8S180,664,174,654s-13.42-10.23-13.42-10.23Z"/><path class="cls-12" d="M165.08,641.33a128.86,128.86,0,0,1,17.42-4.87c.75-.14,1.5-.26,2.25-.38s1.53-.19,2.29-.29a17.79,17.79,0,0,1,4.76.13,12.85,12.85,0,0,1,4.42,1.93,28.32,28.32,0,0,1,3.62,2.89c2.24,2.06,4.24,4.32,6.28,6.47a39.24,39.24,0,0,0,3.15,3c1.06.9,2.37,1.67,3.6,2.53a36,36,0,0,1,7,5.86A8.65,8.65,0,0,1,222,663l0,.63.05.49a3.8,3.8,0,0,0,.22,1,11.31,11.31,0,0,0,.89,1.91c3,5,7.55,9.26,9.78,15a19.5,19.5,0,0,0,2,3.87c.84,1.21,1.74,2.38,2.69,3.53a83.37,83.37,0,0,1,5.6,7,12.77,12.77,0,0,1,1.89,4.16l.16,1.14.11,1.1c.11.73.23,1.46.4,2.18.64,2.91,1.47,5.79,2,8.74a51.42,51.42,0,0,1,.93,8.92,55.61,55.61,0,0,1-.64,8.94,54.46,54.46,0,0,0,.48-8.93,51.91,51.91,0,0,0-1.07-8.87c-.59-2.92-1.46-5.78-2.16-8.69-.17-.73-.31-1.47-.44-2.22l-.13-1.13-.17-1.07a12.3,12.3,0,0,0-1.87-3.92,85.62,85.62,0,0,0-5.68-6.88c-1-1.14-1.92-2.32-2.8-3.55a20.36,20.36,0,0,1-2.19-4,32.3,32.3,0,0,0-4.59-7.49c-1.8-2.37-3.76-4.63-5.38-7.25a12.34,12.34,0,0,1-1-2.13,5.23,5.23,0,0,1-.3-1.21l-.12-1.11a7.23,7.23,0,0,0-1.9-3.56,34.52,34.52,0,0,0-6.81-5.48c-1.22-.83-2.51-1.55-3.76-2.56a39.82,39.82,0,0,1-3.34-3.12c-2.11-2.15-4.12-4.34-6.31-6.29s-4.57-3.72-7.18-4.21a15.29,15.29,0,0,0-4.17,0l-2.16.3c-.72.14-1.44.26-2.16.41a128.81,128.81,0,0,0-17,5.06Z"/><path class="cls-8" d="M159.74,635.35s17.18-24.49,26-27.17,15.23-16.65,32.1-7.46,22.76,3,31.53,14.9,16.74,3.52,27.69,17.45,14.8,4.84,23.08,21.57,10.54,23.06,10.54,23.06S297.52,661,288,661.55s-10.6,1.65-19.44-2.64-19.76-10.76-30-7.29-11.79-1.7-22.29-6.19-10.52-5.44-18.91,0-5.89,11.48-19.25,5.63S157,650.3,157,650.3Z"/><path class="cls-12" d="M169.51,634a87.16,87.16,0,0,1,8.2-6.61,81,81,0,0,1,8.91-5.57,54.54,54.54,0,0,1,9.73-4.12,32,32,0,0,1,10.54-1.51,12.06,12.06,0,0,1,1.34.09c.45.06.9.07,1.34.16l1.33.25c.44.08.85.2,1.28.3.85.21,1.7.41,2.54.64l2.52.71a102.7,102.7,0,0,1,9.83,3.54c3.22,1.32,6.36,2.81,9.51,4.18a29.15,29.15,0,0,0,4.76,1.7,7.22,7.22,0,0,0,1.19.2l.6.05.57,0c.33,0,.89-.13,1.36-.11a6.65,6.65,0,0,1,1.42.18,16.31,16.31,0,0,1,4.85,2.3c1.48,1,2.88,2,4.27,3,2.77,2.07,5.5,4.18,8.37,6.09q2.14,1.43,4.39,2.69l1.13.6,1.16.56c.76.38,1.55.71,2.35,1,3.17,1.32,6.46,2.44,9.63,3.87a50,50,0,0,1,9,5.17l2.05,1.6c.69.53,1.3,1.16,1.95,1.73,1.32,1.13,2.44,2.46,3.65,3.71a82.41,82.41,0,0,1,11.34,17.33,82.62,82.62,0,0,0-11.57-17.13c-1.22-1.21-2.35-2.53-3.68-3.62-.66-.56-1.27-1.17-2-1.69l-2.06-1.55a48.83,48.83,0,0,0-9-5c-3.16-1.37-6.44-2.44-9.68-3.72-.8-.32-1.61-.64-2.4-1l-1.19-.55-1.16-.61c-1.54-.82-3-1.71-4.49-2.66-2.93-1.88-5.71-4-8.5-6-1.4-1-2.8-2-4.25-2.91a15.22,15.22,0,0,0-4.5-2.07,5.07,5.07,0,0,0-1.15-.13c-.39,0-.68.09-1.22.12l-.72.06-.7,0a6.88,6.88,0,0,1-1.36-.21,30.52,30.52,0,0,1-5-1.69c-3.22-1.35-6.35-2.78-9.55-4a102.37,102.37,0,0,0-9.73-3.33l-2.48-.67c-.83-.21-1.67-.39-2.5-.58a22.25,22.25,0,0,0-4.95-.68,30.13,30.13,0,0,0-9.88,1.57,52.6,52.6,0,0,0-9.29,4.1,84.8,84.8,0,0,0-16.43,12.07Z"/><path class="cls-8" d="M132.24,651S103.48,642.75,95,646.2s-22.3-3.39-29.65,14.36S49.5,677.22,50.12,692s-10.82,13.26-10.58,31S31.06,736,35.13,754.2s6.29,24.57,6.29,24.57-.29-21.26,7.51-26.82,9.29-5.37,13.47-14.27S71,716.89,81.17,713.15s8.1-8.72,13.45-18.81,4.77-10.84,14.69-11.92,11.79,5.23,18.51-7.71,15.94-13.78,15.94-13.78Z"/><path class="cls-12" d="M114.8,652a80.51,80.51,0,0,0-9.56,2.2,69.45,69.45,0,0,0-9.2,3.4c-1.48.68-2.93,1.43-4.33,2.24a38.23,38.23,0,0,0-4,2.73,27.11,27.11,0,0,0-3.46,3.31,18.29,18.29,0,0,0-2.57,4l-.46,1.08L80.85,672c-.25.75-.45,1.63-.73,2.42a36.54,36.54,0,0,1-1.91,4.73,50.28,50.28,0,0,1-5.38,8.58c-2,2.67-4.27,5.17-6.43,7.69a37.44,37.44,0,0,0-5.69,7.94,12.09,12.09,0,0,0-.79,2.23c-.15.72-.27,1.65-.51,2.46a30.75,30.75,0,0,1-1.79,4.75c-1.4,3.06-3,6-4.66,8.87s-3.3,5.78-4.85,8.71c-.78,1.46-1.53,2.94-2.2,4.45a25.33,25.33,0,0,0-1.63,4.64,7.43,7.43,0,0,0-.22,2.38,7.94,7.94,0,0,1-.1,2.57A18.06,18.06,0,0,1,41.91,749a26.69,26.69,0,0,0-3.64,9.16,27.59,27.59,0,0,0,.26,9.88,54,54,0,0,0,2.89,9.53,54.45,54.45,0,0,1-3-9.5,25,25,0,0,1,3.12-19.3,17.17,17.17,0,0,0,1.93-4.49,7.41,7.41,0,0,0,0-2.4,8.16,8.16,0,0,1,.19-2.57,26.42,26.42,0,0,1,1.6-4.79c.66-1.54,1.39-3,2.15-4.53,1.52-3,3.14-5.88,4.73-8.8s3.16-5.84,4.48-8.86a29.47,29.47,0,0,0,1.66-4.6c.21-.79.29-1.52.46-2.43a13.89,13.89,0,0,1,.83-2.48,39.36,39.36,0,0,1,5.75-8.34c2.14-2.56,4.3-5.07,6.26-7.72a48.16,48.16,0,0,0,5.08-8.37,34.29,34.29,0,0,0,1.75-4.54c.27-.79.42-1.54.68-2.37l.38-1.27L80,669a20.54,20.54,0,0,1,2.77-4.44A29.41,29.41,0,0,1,86.44,661a40.07,40.07,0,0,1,4.19-3c1.46-.87,3-1.69,4.49-2.42a73.17,73.17,0,0,1,9.45-3.65,82.83,82.83,0,0,1,9.85-2.43Z"/><path class="cls-8" d="M33.65,574.83a55.82,55.82,0,0,0,35.11,5.91,61.94,61.94,0,0,0,6.39-1.35c12.85-3.49,19.55,1.87,25.71,6.69s8,3.75,14.19,4.82,8.3.53,13.65,6.16,1.88,10.17,9.91,13.92,13.12-.53,14.19,8.57,1.34,15.53,5.63,22.49a98.38,98.38,0,0,0,9.63,12.85s-30.52-4.82-36.14-10.17-17.14-4-25.17-3.75-13.66,1.61-18.21-4.82-6.43-9.1-12.85-9.64S65,624.9,61.5,614.73s-6.43-15.8-12.32-20.08-15.53-19.82-15.53-19.82Z"/><path class="cls-12" d="M33.65,574.83q7.6,5.58,15.71,10.4a102.12,102.12,0,0,0,16.86,8.28c.72.28,1.48.47,2.23.71l1.11.35c.38.1.76.17,1.14.25.76.16,1.51.35,2.28.47l2.33.38c3.1.52,6.21,1,9.29,1.74a38.92,38.92,0,0,1,9,3.05,30.27,30.27,0,0,1,7.69,5.69,49.86,49.86,0,0,0,7.4,5.59c2.63,1.68,5.35,3.25,8.07,4.8,5.45,3.1,11,6,16.43,9.3a66.06,66.06,0,0,1,7.83,5.46c2.48,2,4.84,4.1,7.17,6.24,4.64,4.29,9.1,8.73,13.46,13.32l-1.83,1.68c-4.22-4.6-8.6-9.11-13.12-13.42a87.09,87.09,0,0,0-14.48-11.7c-5.3-3.31-10.81-6.34-16.23-9.54-2.72-1.6-5.42-3.22-8.06-5a50.9,50.9,0,0,1-7.52-5.89,28.76,28.76,0,0,0-7.31-5.59,37.91,37.91,0,0,0-8.74-3.12c-3-.74-6.12-1.31-9.21-1.88L72.86,596c-.77-.14-1.55-.35-2.32-.52-.39-.09-.78-.17-1.16-.28l-1.13-.37c-.75-.25-1.51-.46-2.24-.76a101.62,101.62,0,0,1-16.81-8.6C43.85,582.19,38.65,578.63,33.65,574.83Z"/><path class="cls-9" d="M158.61,644.25s-13.11-20.07-12.49-27.41-7.86-16.28,4-26.1,9-16,20.46-19,7.6-11.41,21.22-15.41,8-9.57,22.91-10.76,20.29-1,20.29-1-16.35,4.8-18.76,12.08-1.92,8.38-7.75,13.68-13.88,11.5-14.35,20.16-4.76,8.27-11.23,14.75-7.17,6.21-5.65,14,6.78,7.8-1.54,16-6.79,15.45-6.79,15.45Z"/><path class="cls-12" d="M167.31,642.89c-1.79-5.51-3.42-11-4.87-16.64a113.6,113.6,0,0,1-3.34-17.08,25.55,25.55,0,0,1-.08-4.47,9.91,9.91,0,0,1,.46-2.33,11.4,11.4,0,0,1,1.19-2.07,53.78,53.78,0,0,1,5.89-6.49c4.15-4,8.49-7.81,12.51-11.88a79,79,0,0,0,5.72-6.39c1.83-2.24,3.79-4.37,5.83-6.42s4.18-4,6.39-5.85c1.11-.93,2.23-1.83,3.4-2.69.3-.22.59-.43.9-.63a4.8,4.8,0,0,0,.82-.63l1.62-1.42a56.43,56.43,0,0,1,14.52-9.33,49.93,49.93,0,0,1,16.72-4,49.9,49.9,0,0,0-16.59,4.3,55.91,55.91,0,0,0-14.24,9.51l-1.59,1.46a7.09,7.09,0,0,1-.89.69c-.28.2-.57.41-.85.63-1.13.86-2.23,1.78-3.32,2.72q-3.24,2.82-6.22,5.91c-2,2.06-3.89,4.21-5.66,6.45a80.43,80.43,0,0,1-5.67,6.57c-4,4.19-8.27,8.06-12.31,12.12a52.92,52.92,0,0,0-5.58,6.37,9.78,9.78,0,0,0-.95,1.67,8.57,8.57,0,0,0-.32,1.89A23.22,23.22,0,0,0,161,609a113,113,0,0,0,3.58,16.7c1.54,5.51,3.26,11,5.12,16.4Z"/><path class="cls-9" d="M155.74,641.68s-23.7-3.62-30.13,0-18.07-.41-22.09,14.45S92.68,671,94.69,682.64s-7.23,11.65-5.22,25.71-5.4,11.24-.29,25.3,7.52,18.88,7.52,18.88-2.41-16.87,3.21-22.09,6.83-5.22,9.24-12.72,4.7-17.4,12.39-21.42,5.55-7.77,8.76-16.33,2.68-9.11,10.44-11,9.91,2.94,13.93-8,11.24-12.58,11.24-12.58Z"/><path class="cls-12" d="M159.74,648.68a112.56,112.56,0,0,0-18-.26,50.78,50.78,0,0,0-8.81,1.34,21.91,21.91,0,0,0-4.1,1.45,9.75,9.75,0,0,0-3.31,2.43c-.78.91-1.36,2.55-2.29,3.82a18.68,18.68,0,0,1-3.09,3.61c-2.29,2.19-5.12,3.58-7,5.7a9.17,9.17,0,0,0-1.94,3.69,26.85,26.85,0,0,1-1.18,4.48,50.74,50.74,0,0,1-4.65,8,30.78,30.78,0,0,0-4,8,17.57,17.57,0,0,0-.38,8.76l.42,2.26a12.27,12.27,0,0,1,.14,2.35,10.71,10.71,0,0,1-1.24,4.52c-.7,1.38-1.54,2.65-2.3,4a30.28,30.28,0,0,0-2,4,30.87,30.87,0,0,0-2,8.76,53.74,53.74,0,0,0-.06,9.06,123,123,0,0,0,2.76,18,124,124,0,0,1-3.07-17.95,55.66,55.66,0,0,1-.1-9.13,29.26,29.26,0,0,1,3.92-13.09c.75-1.33,1.57-2.62,2.21-4a10,10,0,0,0,1.09-4.21,11.38,11.38,0,0,0-.17-2.18l-.45-2.21a18.7,18.7,0,0,1,.24-9.25,32.47,32.47,0,0,1,4-8.33,48.89,48.89,0,0,0,4.4-7.8,25.08,25.08,0,0,0,1-4.34,10.84,10.84,0,0,1,2.19-4.33,20.75,20.75,0,0,1,3.54-3.13,34.29,34.29,0,0,0,3.45-2.81,16.69,16.69,0,0,0,2.76-3.34c.86-1.18,1.21-2.53,2.33-4a11.55,11.55,0,0,1,3.9-3,23.89,23.89,0,0,1,4.44-1.67,53.35,53.35,0,0,1,9.15-1.55,115.34,115.34,0,0,1,18.4,0Z"/><path class="cls-8" d="M162.43,643.33a7.89,7.89,0,0,1,9.37-6.22c8,1.14,9.11,9.7,13.93,11s7.49,4.56,6.42,13.12,10.45,12.86,9.91,19.82-1.34,12.31,3.21,19.54-4.55,10.71-1.07,19-7.5,19.81-2.14,27.84c0,0-16.37-8.3-17.56-13.39s-.38-19.54-3.86-21.68-7.5-.54-7.77-6.7,0-12.5-3.48-13.48-12.85-.71-13.12-6.33,9.11-17.94,4.29-21.69-8.3-4.55-7.23-10.44S156,644.67,162.43,643.33Z"/><path class="cls-12" d="M163.46,641.21a72,72,0,0,1,11,9.89,34.32,34.32,0,0,1,4.39,6.09,18,18,0,0,1,1.48,3.56,12.45,12.45,0,0,1,.38,2l.13,1.83A15.78,15.78,0,0,0,183,671c1.16,2.06,2.55,4.07,3.71,6.28a21.11,21.11,0,0,1,2.38,7.11l.12.93c0,.32,0,.63,0,.95a13,13,0,0,1,0,1.87l-.13,1.87-.2,1.8a97.77,97.77,0,0,0,1.38,28.86,75.77,75.77,0,0,0,10.84,26.79,76,76,0,0,1-11.44-26.66,98.44,98.44,0,0,1-2-29.11l.16-1.82.09-1.77a14.73,14.73,0,0,0,0-1.76c0-.29,0-.59-.05-.88l-.14-.87a19.77,19.77,0,0,0-2.36-6.57c-1.14-2.08-2.57-4-3.83-6.18a17.51,17.51,0,0,1-2.54-7.16l-.16-1.8a10.42,10.42,0,0,0-.35-1.62,15.7,15.7,0,0,0-1.38-3.12,32.18,32.18,0,0,0-4.24-5.61,69.14,69.14,0,0,0-10.83-9.31Z"/><path class="cls-9" d="M105.71,1277.59c17.71-27.67,21-61.09,20.67-84.25a217.35,217.35,0,0,0-5.06-44.15l1.28-.45a218.07,218.07,0,0,1,5.11,44.46c.35,23.38-3,57.14-20.92,85.16Z"/><path class="cls-9" d="M117,1144.59a18.86,18.86,0,0,0,6.58,13.39,21.89,21.89,0,0,0,4.4-15.08,18.9,18.9,0,0,0-6.58-13.39A21.89,21.89,0,0,0,117,1144.59Z"/><ellipse class="cls-9" cx="133.47" cy="1160.8" rx="14.43" ry="5.48" transform="matrix(0.51, -0.86, 0.86, 0.51, -930.83, 678.58)"/><path class="cls-9" d="M135.71,1173.18a21.33,21.33,0,0,0-9.05,12.66,17.54,17.54,0,0,0,14.3-2.53,21.38,21.38,0,0,0,9-12.67A17.51,17.51,0,0,0,135.71,1173.18Z"/><path class="cls-9" d="M133.62,1194.7a15.53,15.53,0,0,0-6.61,11.1,12.46,12.46,0,0,0,11.87-1,15.53,15.53,0,0,0,6.61-11.09A12.43,12.43,0,0,0,133.62,1194.7Z"/><path class="cls-9" d="M118.35,1169.2a15,15,0,0,0-12.78-.74,16.13,16.13,0,0,0,8,10.37,15.07,15.07,0,0,0,12.78.74A16,16,0,0,0,118.35,1169.2Z"/><path class="cls-9" d="M118.81,1184.06a15.07,15.07,0,0,0-12.78-.74,16.1,16.1,0,0,0,8,10.37,15.07,15.07,0,0,0,12.78.74A16,16,0,0,0,118.81,1184.06Z"/><path class="cls-9" d="M130.94,1218.34a8.11,8.11,0,0,0-5.11,3.93,6.66,6.66,0,0,0,5.87,1.35,8.06,8.06,0,0,0,5.11-3.92A6.67,6.67,0,0,0,130.94,1218.34Z"/><path class="cls-9" d="M113,1297.14c40.54-9.69,71.45-39.67,90.25-63.12a268.87,268.87,0,0,0,31.45-49.15l1.65.85a271.57,271.57,0,0,1-31.66,49.5c-19,23.68-50.21,54-91.25,63.78Z"/><path class="cls-9" d="M234.16,1175.88a26.81,26.81,0,0,0-4.51,20,24.58,24.58,0,0,0,16.86-10.58,26.8,26.8,0,0,0,4.5-20A24.58,24.58,0,0,0,234.16,1175.88Z"/><path class="cls-9" d="M235.24,1201.08a24.84,24.84,0,0,0-15.69,12.34,24.56,24.56,0,0,0,19.66,3,24.83,24.83,0,0,0,15.69-12.35A24.5,24.5,0,0,0,235.24,1201.08Z"/><path class="cls-9" d="M229.23,1223.34a24.27,24.27,0,0,0-19.49,3.49,25.87,25.87,0,0,0,16.36,11.93,24.2,24.2,0,0,0,19.48-3.49A25.82,25.82,0,0,0,229.23,1223.34Z"/><path class="cls-9" d="M213.08,1243.59a24.27,24.27,0,0,0-19.49,3.49A25.87,25.87,0,0,0,210,1259a24.24,24.24,0,0,0,19.48-3.49A25.82,25.82,0,0,0,213.08,1243.59Z"/><path class="cls-9" d="M217.91,1209.93a26.29,26.29,0,0,0-5.77-18,23,23,0,0,0-7.58,16.42,26.24,26.24,0,0,0,5.77,18A23,23,0,0,0,217.91,1209.93Z"/><path class="cls-9" d="M201.07,1230.88a26.38,26.38,0,0,0-5.5-18.15,22.9,22.9,0,0,0-7.83,16.27,26.39,26.39,0,0,0,5.5,18.16A23,23,0,0,0,201.07,1230.88Z"/><path class="cls-9" d="M187.15,1263.57a10,10,0,0,0-8.35-1.26,10.8,10.8,0,0,0,4.73,7.28,10,10,0,0,0,8.35,1.26A10.82,10.82,0,0,0,187.15,1263.57Z"/><path class="cls-9" d="M5.72,1354.4,4,1354.28a190.1,190.1,0,0,0-3.68-47.55c-.09-.47-.18-.94-.28-1.4v-8.06c1,4.17,1.92,8.42,2.7,12.74A190.12,190.12,0,0,1,5.72,1354.4Z"/><path class="cls-9" d="M130.37,1324.58c7.24,7.24,58.38-11.45,56.72-1.39s-68.81,17.45-58.22,24.23,49.14-10.13,57.53,2.95-63.32,17.12-63.32,22.47,13.66,2.7,13.66,7.74-38.93,11.12-25.84,11.12,35.4-10,35.4,4.25c0,13.21-37.8,14.67-40,23.24a3.33,3.33,0,0,0,.13,2.1c3.87,10.52,50.48,1.41,50.48,9.13,0,5.06-87.36,2.52-137.84.8l-9.49-.32L0,1430.57v-.12c3.51-.53,2.76-1.82,0-3.26v-78.64a3.65,3.65,0,0,0,1.84-1.87c1.12-2.34.27-5.56-1.84-9.36v-31l.28.4c.85,1.17,1.66,2.28,2.42,3.28,4.26,5.62,7.2,8.22,8.53,3.12,4-15.44-18.45-66.11,4.7-58.06s28.53,76.85,31.2,55,45-128.17,59.72-116.48-17.76,78.91-3.33,82.94a4.24,4.24,0,0,0,3.26-.68,15.58,15.58,0,0,0,2.93-2.35c17.93-17.62,53.13-102.6,72.66-79.53,22.15,26.16-73.15,93.3-57.38,98a10.77,10.77,0,0,0,3.49.34h0a38.83,38.83,0,0,0,9.75-2.09h0c13.54-4.35,32.67-14.32,47.41-19.56,2-.7,3.86-1.32,5.65-1.82,8.77-2.48,15.1-2.33,16.2,3.35C211.23,1291.32,123.13,1317.34,130.37,1324.58Z"/><path class="cls-13" d="M24,1439.34s-10.65.57-24,.36v-36.52c4.13,5.65,7.91,11.11,11.2,16,3.1,4.63,5.75,8.74,7.83,12C22.2,1436.25,24,1439.34,24,1439.34Z"/><path class="cls-14" d="M24,1439.34s-10.46.14-24-.37v-13.64l9.54,5.57Z"/><path class="cls-11" d="M219,1440.75V1458H0v-38.81H197.48A21.56,21.56,0,0,1,219,1440.75Z"/><path class="cls-15" d="M965.75,1458h3.7a217.23,217.23,0,0,1,7.87-40.6c16.13-54.42,9.07-61.46,36.28-95.48s29.23-104.57,29.23-104.57,13.1-80.12,0-115.39-14.11-70.55-45.85-107.84c0,0-6.05,49.89-13.61,72.56s-14.74,44.35-9.13,98.77,9.08,59,10.37,73.07-.74,73.58,2.29,83.4-17.64,77.85-19.15,107.07C967.29,1437.78,966.48,1447.79,965.75,1458Z"/><path class="cls-8" d="M977.34,1458c5.25-12.11,14.49-24.15,30.67-31.37,42.33-18.9,70.88-18.48,90.53-63.83s19.66-107.33,26.46-120.18c0,0-24.76,36.21-37.86,65.44s-17.13,59-35.27,69-35.89,14.31-53.42,38.8A211.49,211.49,0,0,0,975.17,1458Z"/><path class="cls-9" d="M977.34,1458c5.25-12.11,14.49-24.15,30.67-31.37,42.33-18.9,70.88-18.48,90.53-63.83s19.66-107.33,26.46-120.18c0,0-18.14-3-36.28,29.48s-30.45,56.69-40.92,75.58-25.6,13.61-38.45,28c-10.77,12-20.71,40-24.49,54.25a56.18,56.18,0,0,1-5.36,13.21c-2.15,3.78-4.67,8.38-6.18,11.66a18.88,18.88,0,0,0-1,3.23Z"/><path class="cls-15" d="M857.9,1243.05c-3,38.8,21.67,35.78,22.67,60.47s33.26,66.52,48.2,96.25c7.77,15.46,10.64,39.1,11.61,58.23h12c-4.64-48.42-24.29-82.12-36-109.13-15.12-34.77-17.38-50.64-4.53-77.85s-6.05-97.51,12.24-128.85,8.92-80.53,4.71-99.42.43-31.75,4.21-51.67-4.21-48.86-4.21-48.86c-.68,24.69-19.47,58.45-33.08,80.12s-39.3,80.62-36.28,107.33,1.51,28.72,1.51,28.72C851.35,1194.17,860.92,1204.25,857.9,1243.05Z"/><path class="cls-8" d="M929.92,1426.47c1.55,4.63,6.5,16.46,11,31.53h4.68c-.5-2.73-1-5.38-1.6-7.84-4.7-20.49-10.58-27.72-22.17-41.83s-62-34.26-77.51-48.37,4.44-52.41,6.46-68.45-13.1-49-13.1-49,4,34.79,0,44.1-38.3,52.66-18.14,88.94,65.5,31.74,79.61,39.81S927.4,1418.91,929.92,1426.47Z"/><path class="cls-9" d="M929.92,1426.47c1.55,4.63,6.5,16.46,11,31.53h7.36c-3.35-19.18-9.13-41.44-18.89-54.2-19.65-25.7-59-36.79-63.49-55.43s.5-74.58-28.22-105.82c0,0,4,34.78,0,44.09s-38.3,52.66-18.14,88.94,65.5,31.74,79.61,39.81S927.4,1418.91,929.92,1426.47Z"/><path class="cls-9" d="M911.78,1259.14c-.5,37.29,28.72,51.4,28.22,72.06s6,42.83,11.59,59.46c3.51,10.53,1.57,39.84.95,67.34h8.11c2-20.21,4.28-49.37,3.54-62.3-1-17.63,7-31.74,8.06-62.48s7.56-58.46-6-97.26-11.08-85.16-68-128c0,0-10.08,45.35-2.52,70S912.29,1221.85,911.78,1259.14Z"/><path class="cls-8" d="M911.78,1259.14c-.5,37.29,28.72,51.4,28.22,72.06s6,42.83,11.59,59.46c3.51,10.53,1.57,39.84.95,67.34h3.36c.46-5.74.9-9.35.9-9.35l1.68-69.54s-3.36-54.43-9.41-98.77S898.18,1108,898.18,1108s-10.08,45.35-2.52,70S912.29,1221.85,911.78,1259.14Z"/><path class="cls-10" d="M896.11,1458h124.73l.29-1.74c.92-5.72-2-11.21-6-11.21H901.87c-4,0-7,5.49-6,11.21Z"/><path class="cls-9" d="M524.38,1458h-55.5c4.6-42.07,16.54-133.52,16.54-133.52l11.9-4.47,21.24-8Z"/><ellipse class="cls-16" cx="567.42" cy="827.34" rx="169.39" ry="109.69"/><path class="cls-17" d="M642.37,729C659.85,746.21,670,766.85,670,789c0,60.58-75.84,109.69-169.39,109.69a247.07,247.07,0,0,1-75-11.29C455.93,917.3,508.11,937,567.42,937c93.55,0,169.39-49.11,169.39-109.69C736.81,784.19,698.33,746.86,642.37,729Z"/><path class="cls-18" d="M398,827.34C395,710,639.39,673.42,718.55,775.69c11.36,14.76,18.73,33.06,18.26,51.65-.83-18.55-8.63-36.06-20.41-49.92C637.12,681.14,403.06,713.77,398,827.34Z"/><path class="cls-19" d="M654,831.85c0,38-41.28,68.84-92.22,68.84s-92.22-30.82-92.22-68.84S510.84,763,561.77,763,654,793.83,654,831.85Z"/><path class="cls-13" d="M687.79,1458H522.27l-24.95-138-5.57-30.78,140.17,18.29S666.64,1402.71,687.79,1458Z"/><path class="cls-11" d="M493,891.32c-5.63-25.58-11.14-51.33,3.7-79.44,12-22.74,32.76-35.83,56.79-38.68,68.07-8.08,53.52,55.47,148.65,69.22,29.57,4.28,57,8.39,81.71,23.09,44.57,26.55,61.39,69.13,31.83,138.51-72.37,169.88-245.54,22.26-272-7.79C517.52,966.42,496.63,907.79,493,891.32Z"/><path class="cls-20" d="M600.14,972.08s34.37,3.9,54.93,26.26-33.23,202.12-37,230.59,30.64,94.85,30.64,94.85-128.43,23.74-163.32.7c0,0-3.74-204.67,0-225s34.89-103,42.36-111.14S600.14,972.08,600.14,972.08Z"/><path class="cls-21" d="M582.84,902.78s.27,1.52.76,4.12c2.31,12.47,11.24,53.83,17.26,65.21,7.29,13.74-24.93,57.56-56,52.22-9.23-1.6,7.81-40.27,7-44.37-1.57-7.84-3.69-18.54-5.87-29.51-1.23-6.19-2.47-12.47-3.63-18.36-3.32-16.76-6-30.47-6-30.47Z"/><path class="cls-10" d="M583.6,906.9c-.49-2.6-.76-4.12-.76-4.12l-46.47-1.16s2.71,13.71,6,30.47c1.16,5.86,2.39,12.1,3.61,18.25,7.18-1.05,14.67-4.53,22.19-11.1A58.55,58.55,0,0,0,585,914.3C584.43,911.36,584,908.84,583.6,906.9Z"/><path class="cls-21" d="M554.89,792.33a54.79,54.79,0,0,1,32.68,20.35C601.3,830.4,616.1,885.21,582,915s-67.8-3.93-72.8-39.69S505.2,791,554.89,792.33Z"/><ellipse class="cls-21" cx="507.97" cy="863.88" rx="9.09" ry="16.1" transform="translate(-178.65 133.9) rotate(-12.79)"/><path class="cls-9" d="M464.74,1130.54c.75-6.63,1.64-13.41,4.71-19.32,3.75-7.2,10.32-12.38,16.06-18.1A100.45,100.45,0,0,0,509.44,1055c3.84-11.07,5.75-22.87,11-33.32,3.23-6.39,7.62-12.09,11.29-18.23,8.65-14.52,13.36-31.68,25.1-43.83a52.67,52.67,0,0,1-11.9,41.67c-2.89,3.37-6.24,6.41-8.44,10.27-4,7-3.64,15.55-4.11,23.61A103.69,103.69,0,0,1,520,1078.52c-7.7,14.14-18.82,26.73-22.93,42.3-3.09,11.67-2.17,24.76-8.75,34.87a8.81,8.81,0,0,0-1.7,3.49,7.33,7.33,0,0,0,.13,2.19c.15.94.29,1.88.44,2.82,1.5,9.55,3,21.7-5.16,28.85-5.69,5-13,5.07-17.1-1.51s-3.74-16.33-3.44-23.78C462,1155.33,463.34,1142.88,464.74,1130.54Z"/><path class="cls-8" d="M450,1122.86c3.19-11.06,8.14-21.59,10.63-32.83,2.41-10.89,2.42-22.16,2.43-33.33l0-36.69c0-7.62,0-15.27,1.27-22.78,2.71-16.16,11.11-31.11,12.53-47.43.61-7.06-.1-14.19.68-21.23a33.35,33.35,0,0,1,3.33-11.7,5.22,5.22,0,0,1,9.36.26c4.08,8.84,6.66,18.39,5,27.86-1,5.68-3.44,11-5.28,16.44-8.18,24.34-3.84,51.27-10.17,76.16-1.91,7.51-4.8,14.87-5.13,22.62-.81,18.53,13,35.46,11.76,54-1,15.17-12,27.73-16.53,42.23-2.56,8.11-3.11,16.78-5.85,24.84-2.14,6.26-7.1,13.86-14.81,12-7.31-1.8-5.1-7.78-4.78-13.48C445.55,1160.43,444.51,1141.71,450,1122.86Z"/><path class="cls-9" d="M433.21,1133c.32-5.75,1.29-11.52.49-17.22-.68-4.81-2.6-9.35-4-14-2.56-8.73-3.19-17.9-3.81-27l-3.39-49.53c-1.75-25.67-3.51-51.41-8.31-76.69-1.34-7-2.83-14.62.32-21,.67-1.35,2-2.79,3.41-2.34,1,.32,1.52,1.45,1.89,2.45,10.49,28.51,14.46,59.21,26.17,87.24,2.8,6.71,6.06,13.32,7.52,20.45,1.74,8.57.78,17.41.56,26.15a122.77,122.77,0,0,0,4.36,37.2c1.81,6.31,4.23,12.47,5.22,19,1.24,8.08.2,16.32-.57,24.46a374.21,374.21,0,0,0-1.51,47.11c.28,9.24-7.52,9-12.68,3.32-3.62-4-3.58-8.32-4.82-13.27C440,1163,432.22,1150.57,433.21,1133Z"/><path class="cls-8" d="M481.93,1158c6.9-11.08,20.64-17.38,25.05-29.67,1.12-3.13,1.56-6.49,2.93-9.52,3-6.72,10-10.52,16.76-13.61a1.43,1.43,0,0,1,2,1.29h0a4.88,4.88,0,0,1-2.13,4.15,27.61,27.61,0,0,0-11,15c-2.1,7.2-1.19,15.1-3.8,22.13-2.2,5.91-6.71,10.73-8.83,16.66-1.94,5.42-1.73,11.35-2.65,17s-3.43,11.72-8.65,14.13C472.76,1204.33,477.48,1165.2,481.93,1158Z"/><path class="cls-9" d="M403.36,1154.38c.3,5.36-.52,11,1.58,15.91,1.34,3.16,3.75,5.71,5.73,8.52,6.95,9.83,9.48,23.77,20.16,29.3a3.58,3.58,0,0,0,2.27.55,3.46,3.46,0,0,0,2.25-2.28c2.62-6.11-.32-13-2.06-19.39a4.77,4.77,0,0,1,0-3.41c.59-1.13,1.93-1.62,2.84-2.51,1.83-1.78,1.66-4.72,1.29-7.24a161.09,161.09,0,0,0-3.81-18.71,32.66,32.66,0,0,0-4-10c-2.22-3.3-5.43-5.76-8.44-8.35a100,100,0,0,1-29.2-43.11c-1.24-3.6-2.34-7.39-4.89-10.21s-7.1-4.27-10.2-2.08c-2.22,1.55,6.84,16.12,7.89,17.86,3,5,3.06,9.34,4.77,14.88C393.69,1127.68,402.57,1139.83,403.36,1154.38Z"/><path class="cls-8" d="M413.9,1160.58c-2-5.11-4-10.29-4.63-15.73-.72-6,.24-12.24-.79-18.24-1.33-7.72-5.83-14.51-8.06-22-1.61-5.42-2-11.12-3-16.69-2.76-15.94-10.26-31.51-8.11-47.54.47-3.49,2.05-7.55,5.51-8.15,3.13-.54,6,2.33,6.8,5.41s.2,6.32,0,9.5a39.22,39.22,0,0,0,7,25.16c4.92,7,12.06,12.21,16.49,19.5,5.43,8.94,6.17,19.85,8.94,29.94,5.52,20.07,19.34,37.58,21.86,58.25,1,8.22-.92,18.21-8.51,21.5C425.49,1211,418.87,1173.43,413.9,1160.58Z"/><path class="cls-11" d="M452.26,1186.05h50.37a5.35,5.35,0,0,1,5.19,6.58l-18.36,77.42a5.34,5.34,0,0,1-5.19,4.11h-60.5a5.34,5.34,0,0,1-5.19-4.11l-18.36-77.42a5.34,5.34,0,0,1,5.18-6.58Z"/><path class="cls-22" d="M549.12,791.5s29.26,52.12,50.19,54.52S623,876.13,623,876.13s-7.49-63.82-28.21-76.12S549.12,791.5,549.12,791.5Z"/><path class="cls-21" d="M592.47,858.44c-1.7,9.26,1.72,17.74,7.65,19s12.11-5.3,13.81-14.56-1.72-17.74-7.65-19S594.17,849.19,592.47,858.44Z"/><path class="cls-21" d="M696,1171,643,1175.59l5.31,31.6c-47.11,11.77-113.84,16.66-113.84,16.66s-6.26.55-14.34.63c-7.44.07-17.93.17-22,.19a61.8,61.8,0,0,1-17-2.56c-4.7-1.28-12.79-3.46-16.45-2.7-2.31.48-8.59,1.53-11.95,2.09s-7.31,1.08-9.05,1.59a17.27,17.27,0,0,1-5.27-.19,2.91,2.91,0,0,0-2.65,4.73c1.6,1.91,5.12,2.51,7.31,2.87,6.19,1,16-1,15.78-.07s-14.7,9.66-16.3,10.76-18.4,11.33-21,14.39-1.13,5.19,1.18,5c2-.16,26.25-12.57,26.25-12.57s3.1-1.57,2.65.23-22.46,13.12-25.43,15.41-3.87,5.24-.42,6.07c4.18,1,26.92-12.49,26.92-12.49s2.88-1.65,3.11-.23-18.65,10.72-19.94,12.4-.89,4.48,2.4,4.6c3.89.14,24.08-12.11,24.08-12.11s1.8-.49,1.55.55-15.79,10.12-16.66,12.41a1.91,1.91,0,0,0,1,2.6c3.32,2.27,17.2-8.66,25-11.69s15.21-10.11,25-12.69c5.89-1.56,15.87-1.6,24.93-1.19,6.11.52,12.81,1,19.91,1.59h0c64.61,4.83,163,9.1,162.87-12.36C705.79,1230.2,698.51,1194.15,696,1171Z"/><path class="cls-23" d="M648.77,991.84s16.46,7.81,30.93,41.51c13.75,32,24.56,145.45,24.56,145.45l-69.88,6.07-19.16-43.25c-19.76-44.61-14.65-96.56,14.13-135.95C637,995.16,644.1,988.82,648.77,991.84Z"/></g></g></g></svg>