<svg xmlns="http://www.w3.org/2000/svg" xmlns:xlink="http://www.w3.org/1999/xlink" viewBox="0 0 516.55 943.62"><defs><style>.cls-1{fill:#124647;}.cls-2{fill:#f7a491;}.cls-3{fill:#50bfa5;}.cls-4{fill:#f47458;}.cls-5{fill:url(#Gradiente_sem_nome_3);}.cls-6{fill:url(#Gradiente_sem_nome_5);}.cls-7{fill:url(#Gradiente_sem_nome_3-2);}.cls-8{fill:#38594d;}.cls-9{fill:#327f6b;}.cls-10{fill:#3c8f7c;}.cls-11{fill:#1f573b;}.cls-12{fill:#fff;}</style><linearGradient id="Gradiente_sem_nome_3" x1="55.82" y1="569.29" x2="356.99" y2="569.29" gradientUnits="userSpaceOnUse"><stop offset="0" stop-color="#ff9836"/><stop offset="1" stop-color="#ff774a"/></linearGradient><linearGradient id="Gradiente_sem_nome_5" x1="303.9" y1="412.55" x2="467.92" y2="412.55" gradientUnits="userSpaceOnUse"><stop offset="0" stop-color="#ff774a"/><stop offset="1" stop-color="#ff9836"/></linearGradient><linearGradient id="Gradiente_sem_nome_3-2" x1="0" y1="421.59" x2="114.68" y2="421.59" xlink:href="#Gradiente_sem_nome_3"/></defs><g id="Camada_2" data-name="Camada 2"><g id="objects"><path class="cls-1" d="M516.54,476.25c.22,24.78-12.78,27.48-37.61,85.38-17.9,41.75-15.07,49.49-28.21,72.66,0,0-20.79,36.67-60.45,60-80.87,47.47-211-41.45-291.49-135.79C49.27,500.42-1.67,416.59,14.09,373c6.82-18.88,25.78-29.48,30.28-63.83,3.23-24.65-3.88-39.45,4-51.77,9-13.92,23.15-3,37.28-12.26,22.89-15,17.17-64.4,28.21-107.63,17.58-68.85,79.47-129,123.92-119.9,40.7,8.38,70.85,78.15,113.51,175.3,14.43,32.88,18.78,48.09,34.59,64.49,39.43,40.91,81.07,17.55,96.72,53.13,10.74,24.42-7.05,39.57,2,84.47C493.9,440.86,516.27,443.79,516.54,476.25Z"/><path class="cls-2" d="M24.8,882.78c.15.15.31.15.46.3,4,2.6,8.71,5.66,14.37,9,6.42,3.82,13.9,7.95,22.31,12.07,2.9,1.53,6,3.06,9.17,4.44a332.3,332.3,0,0,0,43,16.5H321.62A359.68,359.68,0,0,0,371,905.55c1.07-.61,2-1.07,2.9-1.53-.15-3.67-.31-7.64-.61-11.92A450.54,450.54,0,0,0,364,826.84a452.17,452.17,0,0,0-28.73-88.19c-3.06-6.88-3.82-8.1-5.2-11.47a102.52,102.52,0,0,1-7.64-25.67c-2.29-14.22-1.83-28.58-.15-44.17,1.83-17,5-35.46,7.79-56.4.77-6.12,1.53-12.23,2.14-18.5.77-6.42,1.38-13.14,2-19.71,1.38-15.44,2.6-30.88,4-46.31.31-3.52.46-7,.77-10.55.3-2.6.46-5,.61-7.64.46-4.43.92-8.87,1.22-13.3,2-20.79,4.13-40.35,6.88-57.16.61-2.75,1.07-5.35,1.53-7.95.92-4,1.68-7.8,2.6-11.31.91-4.74,1.68-9.78,2.29-14.83,1.83-16.5.92-34.84-7.49-49.67a33.8,33.8,0,0,0-2.75-4.28c-22.31-14.82-51.35-8.1-73.36-25.52a3.75,3.75,0,0,1-.77-.61c-22-2.91-40.2-1.69-52.42-.77-26.45,2-41.42,7-53.19,11.46-4.74,1.84-8.87,3.52-13.15,4.9a49.22,49.22,0,0,1-6.72,1.83,58.39,58.39,0,0,1-15.44,2,92.75,92.75,0,0,1-12.38-.77c-.76,0-1.37-.15-1.83-.15-1.38-.15-2.6-.31-3.82-.46-8.41-1.07-15.59-1.83-22-2.14a56.52,56.52,0,0,0-12.69.77,48.62,48.62,0,0,0-16.66,6l-.91.45a47.64,47.64,0,0,0-7.49,5.66,32,32,0,0,0-2.45,2.29c-4.74,4.74-9.78,12.08-14.06,23.39A108.07,108.07,0,0,0,30,384.06a7.82,7.82,0,0,1-.31.91c.15.46.31,1.07.46,1.53,5.2,16.36,10.39,32.4,15.9,48.6a27.23,27.23,0,0,0,1.22,3.83c1.83,5.5,3.67,10.85,5.5,16.35.76,2.29,1.53,4.58,2.29,6.88,2.14,5.81,4.13,11.61,6.12,17.42.61,1.68,1.22,3.36,1.83,5.2a10,10,0,0,1,.46,1.22c1.22,3.36,2.44,6.88,3.82,10.39a11.53,11.53,0,0,0,.76,2.45c1.84,5,3.67,10.24,5.66,15.28,7.79,21.71,15.9,43.1,24.15,63.89,1.37,3.67,2.75,7.18,4.12,10.7l6,14.67c.61,1.84,1.37,3.67,2.14,5.5,1.83,4.44,3.66,8.87,5.34,13.15a14.47,14.47,0,0,0,.77,1.53l1.83,4.58c.77,1.84,1.38,3.52,2.14,5.2,2.6,6.27,5.2,12.38,7.8,18.49,2.6,6.42,5.35,12.69,8.1,19,.61,1.37,1.07,2.75,1.83,4.12.16.46.31.92.46,1.38.92,2.14,1.84,4.13,2.75,6.26a319.36,319.36,0,0,0-83.45,101c-3.51,6.73-6.72,13.3-9.32,19.72a316.5,316.5,0,0,0-22.78,75C25.26,879.87,25.11,881.4,24.8,882.78Z"/><path class="cls-3" d="M386.5,908.51a425,425,0,0,1-141.83,34.27c-112,7.1-197.77-32.79-236.38-54a1036.29,1036.29,0,0,1,56.3-119.36Q75,750.57,85.7,733l249.52,5.66a680.07,680.07,0,0,1,38.28,108.4C379.13,868.64,383.35,889.22,386.5,908.51Z"/><path class="cls-2" d="M369,394.07l-15-.4L29.9,384.05c2.4-13.9,8.28-32.87,23.65-46.77,21.38-19.24,45.83-6.68,82-28.59a122,122,0,0,0,27.52-22.85C187.3,258.58,192,226.52,193,211.28l15.23,6.82c2.94,1.33,5.75,2.54,8.69,3.87,13.89,6.28,28.06,12.56,42.09,18.71,3.74,27.92,6.81,50.91,8.68,63.07.14.66.14,1.2.27,1.73a57.37,57.37,0,0,0,1.33,7.75,3.93,3.93,0,0,0,1.07.94c22.05,17.37,51,10.69,73.36,25.52a48.26,48.26,0,0,1,9.75,8.55C366.47,363.07,368.74,382,369,394.07Z"/><path class="cls-4" d="M267.73,303.75a32.34,32.34,0,0,1-16.17,2c-25.92-3.74-38.48-41.55-37-68A87,87,0,0,1,217,222c13.89,6.28,28.06,12.56,42.09,18.71C262.79,268.6,265.86,291.59,267.73,303.75Z"/><path class="cls-2" d="M189.24,208.1c15.38,36.74,47.28,58.52,51.5,60.88A57,57,0,0,0,252,274a55.35,55.35,0,0,0,12.47,1.87c18.14.23,42.82-22.43,44.92-24.47,11.55-10.8,20.56-19.2,25.93-33.54,4.11-11.45,2.63-17.14,8.84-35.56,3.33-10,5.83-14.23,8.58-20.79a1.11,1.11,0,0,1,.24-.64c1-2.4,2.13-5,3.22-8,0-.15.12-.32.26-.49q1.47-3.82,2.9-8.11c5.23-15.71,9.08-36.2,1-54.91,0,0-8.34-19.46-31.86-34.07a132.13,132.13,0,0,0-14.06-7.24c-1.93-.89-3.7-1.64-5.29-2.25-14.59-4.73-52.1-14.76-84.84,3.92C171.12,79.79,170.38,162.48,189.24,208.1Z"/><path class="cls-2" d="M323.5,392.26q25.56,45.48,51.27,90.95c5.25,9.32,10.51,18.77,15.77,28.09,19.31,34.25,27.59,58,54.43,89,16.72-15.93,36.94-18.26,53.8-34.06A807.06,807.06,0,0,0,456.39,461c-7.89-16.18-16.59-32.6-26.24-49.4-13-22.56-26.43-43.24-39.75-62-18.51-6.07-38.44-2.21-51.66,10.26C325.77,372,323.89,387.83,323.5,392.26Z"/><path class="cls-4" d="M374.77,483.21c5.25,9.32,10.51,18.77,15.77,28.09,22-16.64,43.81-33.54,65.71-50.3q-37.38,3.63-74.75,7.41C379.25,473.3,377,478.32,374.77,483.21Z"/><path class="cls-5" d="M352.18,761.11c3.59,10.48,9.26,32.27-1.13,50.48-14,24.51-48.3,27.11-80.37,29.55-13.61,1-52.28,2.86-104-13a344.16,344.16,0,0,1-104-52.79q4.86-18,9.73-36-1.73-23.79-2.64-49.09c-.76-21.23-1-41.73-.79-61.46a471.14,471.14,0,0,0-.18-128.22,467.43,467.43,0,0,0-13-61.86c11.89-17.64,23.78-35.14,35.81-52.78,11.76-17.64-12.1-44.16-.07-61.8,8.15-12,47.5-19.23,60.33-27.32,5.88,9.22,11.62,17.77,17.1,25.78,20.44,30.34,37.95,52.65,52.38,67.21,15.9,15.9,28.06,22.18,36.47,19,5.35-2,9.22-8,11.49-17.64q6-23.65,0-77.76c10.16,1.87,36.81,12.18,44.29,13.78,1.2,2.54,6.22,43.67,16.51,65.85.4.8.8,1.74,1.2,2.54,5.35,11.49,10.56,22.85,15.9,34.34,1.47,2.94,2.81,5.88,4.15,8.82-2,21.51-4,43.15-6,64.67-.8,8.55-1.6,17.1-2.4,25.52-.4,5.07-.94,10-1.34,15q-1.8,19-3.61,38.08C336,603,334.14,624,332.13,645,338.81,683.75,345.5,722.36,352.18,761.11Z"/><path class="cls-6" d="M467.92,455.38c-3.86,1.83-7.68,3.78-11.55,5.6-21.69,10.75-43.13,21.09-64.52,31.55-1.78.93-3.44,1.79-5.28,2.59-1.3.71-2.64,1.3-3.94,2l-8.29,4c-28.87-37.57-22-50.47-50.84-88C307.11,391.85,299,328.71,307,327.88c8.09-3.95,31.11-3.6,33.81-3.76,22-1.1,48.23.05,97.83,79.6C448.41,420.88,458.13,438.22,467.92,455.38Z"/><path class="cls-2" d="M107.25,399.33q-5.31,51.9-10.75,103.85c-1.11,10.64-2.16,21.4-3.27,32-4,39.12-8,78.06-12.08,117.17-21.69-7.94-43.49-15.83-65.25-23.59a804.35,804.35,0,0,1-3.11-113.45c.78-18,2.21-36.52,4.36-55.77,3-25.89,7-50.19,11.71-72.75,14.56-12.95,34.37-17.35,51.47-11.19C97.09,381.65,105.13,395.42,107.25,399.33Z"/><path class="cls-4" d="M96.5,503.18c-1.11,10.64-3.88,38.05-5,48.69-26.85-6.47-51.82-29.93-78.6-36.57q35.73-11.56,71.52-23C88.43,495.88,92.49,499.59,96.5,503.18Z"/><path class="cls-7" d="M101.45,526.28C66.76,524.74,34.69,516.34,0,514.81l6.25-59.07C20,363,44.08,334.57,64.66,326.86c3.59-1.34,9.74-3.06,28.28-9.24,25.16-8.39,22.68,58.68,20.37,69.4C103.83,431.13,110.93,482.17,101.45,526.28Z"/><circle class="cls-8" cx="335.92" cy="341.79" r="7.5"/><circle class="cls-8" cx="430.11" cy="427.75" r="7.5"/><path class="cls-2" d="M372.4,339.15l23.25-8.75a873.05,873.05,0,0,1,99.6,175.13q8.64,20.4,15.85,40.22c9.89,27.26-2.25,54.8-22.56,62.94-21.17,8.49-42.58-7.59-43.57-8.36a201.35,201.35,0,0,1-25.77-44.6c-27.19-65.57-4.15-111.06-32.05-184.66A250.3,250.3,0,0,0,372.4,339.15Z"/><path class="cls-1" d="M374.32,78.13c.78,4.35,2.73,15.34-3.18,24.89-12.14,19.61-45,12.8-92.1,16.34-71.59,5.38-91.38,28.41-104.69,15.57-20.84-20.1-1.08-104.09,55.13-128.17C289.19-18.83,366.36,33.31,374.32,78.13Z"/><path class="cls-2" d="M173.44,136.64c-3.28,15.27,2.65,29.49,13.25,31.76s21.84-8.25,25.12-23.51-2.65-29.49-13.25-31.77S176.72,121.38,173.44,136.64Z"/><path class="cls-4" d="M59.64,659.8a1.27,1.27,0,0,1-.64-2.36l22.23-13.17a1.27,1.27,0,1,1,1.29,2.19L60.29,659.62A1.25,1.25,0,0,1,59.64,659.8Z"/><path class="cls-9" d="M262.56,542c20,13.48,21.3,37.6,61.54,28.61C320.6,543.66,293.21,536.3,262.56,542Z"/><path class="cls-10" d="M325.09,567.78C337,530.58,339,492.57,339,492.57c-27,10.08-35.7,31.88-28.34,50.41S320.2,558.33,325.09,567.78Z"/><path class="cls-11" d="M323.78,571.89c-1-.25-24.45-6.38-38.52-20.36l1.83-1.84c13.58,13.49,37.09,19.63,37.33,19.69Z"/><path class="cls-11" d="M326.38,567.88l-2.58-.21c.35-4.41-.62-10.49-1.65-16.92-2-12.17-4.17-26,.2-37.78l2.44.9c-4.14,11.17-2,24.61-.08,36.47C325.81,557.21,326.76,563.15,326.38,567.88Z"/><path class="cls-10" d="M161.62,644.49c-42.51-6.54-57.77-12.53-48.5-59.94C126.19,599.8,157.8,610.7,161.62,644.49Z"/><path class="cls-10" d="M187.23,681.55c-29.43-23.43-35.73-34.33-76.72-8.17C140.91,694.09,163.8,697.9,187.23,681.55Z"/><path class="cls-9" d="M212.3,687c2.73-42.51-39.24-52.86-46.87-68.67C156.83,660,171.43,677.74,212.3,687Z"/><path class="cls-10" d="M252.63,694.09c-43.6-19.62-46.87-29.43-47.41-63.22C252.63,647.76,253.18,667.38,252.63,694.09Z"/><path class="cls-11" d="M256.65,691.83l-2.59-.22c1.2-13.9,1.91-63.61-39-119.38l2.09-1.53C258.59,627.19,257.86,677.7,256.65,691.83Z"/><path class="cls-11" d="M289.25,694.59l-2.39-1c.36-.85,35.79-85.67,31.52-122l2.57-.31C325.3,608.29,290.72,691.08,289.25,694.59Z"/><path class="cls-10" d="M314.14,616.82c-4.29-33.09,6.07-47.53,15.33-59.8s19.62-16.62,19.62-16.62c-4.9,15.26,3.27,41.42-7.08,57.77A42.38,42.38,0,0,1,314.14,616.82Z"/><path class="cls-9" d="M334.92,623c12.54-12.81,25.34-7.36,39-21.53s6.27-21.25,15.26-33.24c-20.17,7.63-42,9.81-51.23,30.79S334.92,623,334.92,623Z"/><path class="cls-9" d="M295.42,683.73c-4.36-28.88.24-48.45,17-65.4,14.41-14.54,26.71-21.87,29-22.75-6.54,30.38,3,36-10.34,59.81C321,673.49,295.42,683.73,295.42,683.73Z"/><path class="cls-10" d="M378.52,662.48c-25.89,12.26-44.14,33.79-82.84,22.61C313.14,655.67,354,647,378.52,662.48Z"/><path class="cls-10" d="M161.62,527.05c6.54,34.88,18.53,46.6,35.42,47.69s23.5,3,23.5,3C200.58,538.22,169.52,532.77,161.62,527.05Z"/><path class="cls-10" d="M229,500.62c4,13.35,13.31,33.49,4,52s-12.47,21.54-12.47,21.54c-12-19.89-17.23-37.33-12-52.05S221.93,507.16,229,500.62Z"/><path class="cls-10" d="M232.27,596.77c-1.71,21.84-25.15,33-38.22,28.92s-20.17-12.53-21.8-12.81c16.07-6,19.42-17.71,35.18-22.07S232.27,596.77,232.27,596.77Z"/><path class="cls-9" d="M263.53,554.84c2.45,13.36,18,28.07,12.53,48s-17.71,27.8-18.8,33.25c-1.63-16.08-11.71-24.26-12-42.24S258.9,570.92,263.53,554.84Z"/><path class="cls-10" d="M254.86,666.32c8.4-12.29-1.35-27.52,9.65-49.33s29.36-29.17,29.36-29.17c4.54,26.43,1.27,47.41-13.45,59.13S262.53,659.26,254.86,666.32Z"/><path class="cls-10" d="M293.87,683.73c-32.52-8.45-34-35.13-31.66-50.94,21.21,8.71,32,20.62,33.47,31.83A39.93,39.93,0,0,1,293.87,683.73Z"/><path class="cls-9" d="M251.32,645.84c-7.68-27.51-27.3-36.09-50.6-31.32C209,644.49,232.27,649.53,251.32,645.84Z"/><path class="cls-11" d="M187.18,682.85c-1.35-.05-33.36-1.3-44.91-6.71l1.1-2.35c11.07,5.19,43.58,6.45,43.91,6.47Z"/><path class="cls-11" d="M208.18,697c-.07-.3-8.15-30.38-47.18-51.35-1-.59-23.3-14-35.17-30.36l2.09-1.52c11.57,16,34.13,29.48,34.36,29.62,40.05,21.52,48.09,51.7,48.42,53Z"/><path class="cls-11" d="M211.08,687.45c-.09-.26-9.89-26.51-27-39.53l1.57-2.06c17.68,13.48,27.41,39.59,27.82,40.7Z"/><path class="cls-11" d="M251.46,694.63c-.12-.25-12.2-25.84-30.44-38l1.44-2.16c18.85,12.52,30.84,37.94,31.35,39Z"/><path class="cls-11" d="M292.88,684.57c-.68-.82-16.77-20.05-23.7-34.33l2.33-1.14c6.8,14,23.19,33.6,23.36,33.8Z"/><path class="cls-11" d="M296.48,684.48l-2.11-1.5c2.75-3.86,6.08-10.43,9.61-17.39,5.88-11.58,12.53-24.7,19-30.51l1.73,1.93c-6.14,5.49-12.69,18.38-18.46,29.75C302.72,673.81,299.34,680.46,296.48,684.48Z"/><path class="cls-11" d="M296.2,686.28l-1-2.37c1.06-.47,26.13-11.41,44.1-13.64l.32,2.57C322,675,296.46,686.17,296.2,686.28Z"/><path class="cls-11" d="M336.2,623.17l-2.56-.41c1-6.29,5.8-22.4,28.94-36l1.31,2.23C341.71,602,337.14,617.24,336.2,623.17Z"/><path class="cls-11" d="M315.2,617.56l-2.12-1.48c.16-.24,16.58-24,20.57-44.86l2.55.49C332.1,593.12,315.89,616.57,315.2,617.56Z"/><path class="cls-11" d="M221.82,574.41l-2.56-.44c.05-.3,5.16-30.31,1.22-46.62l2.52-.6C227.07,543.57,222,573.16,221.82,574.41Z"/><path class="cls-11" d="M220,578.88c-5.28-2.45-11.31-7.26-18.29-12.82a208.67,208.67,0,0,0-19.51-14.34l1.37-2.2A213.2,213.2,0,0,1,203.32,564c6.56,5.23,12.76,10.18,17.77,12.5Z"/><path class="cls-11" d="M192,614.22l-1.78-1.89c13.6-12.79,40.75-16.69,41.9-16.85l.36,2.57C232.17,598.09,205,602,192,614.22Z"/><path class="cls-11" d="M259.73,633.72l-2.48-.78c2.32-7.38,2.06-16.6,1.81-25.51-.23-8-.47-16.24,1.17-23.18l2.52.59c-1.56,6.61-1.33,14.7-1.1,22.52C261.91,616.48,262.18,625.92,259.73,633.72Z"/><path class="cls-11" d="M255.7,667.3l-1.68-2c3.65-3.11,22.81-29.37,23.47-48.56l2.59.09C279.39,637.17,259.64,664,255.7,667.3Z"/><path class="cls-11" d="M250.42,646.77a106.42,106.42,0,0,0-29.18-19l1-2.39a107.33,107.33,0,0,1,30,19.58Z"/><path class="cls-1" d="M298.14,823.79H212.83a35.66,35.66,0,0,1-29.34-15.28c-26.77-38.67-28.59-78.55,1.43-120.3H324.53c31.66,40.83,34.16,81.62,1.4,122.35A35.66,35.66,0,0,1,298.14,823.79Z"/><path class="cls-12" d="M341.59,785.64H170.7a123.34,123.34,0,0,0,8.19,15.81H332.65A109,109,0,0,0,341.59,785.64Z"/><path class="cls-12" d="M344.32,723.05c-14.67-1-25.79,14.43-39.19,9.19-16.71-6.54-31.79-15.26-46.1-6.82s-29.83,13.36-48,3c-16.13-9.16-27.44-5.09-46.35,3.9a86.21,86.21,0,0,0,1.26,39.49H346.64C351,755.56,350.13,739.31,344.32,723.05Z"/><path class="cls-2" d="M415.51,360.46a70.46,70.46,0,0,0-11.75,1.87c-13.18,3.54-23.83,11.94-34.35,17.95a67.27,67.27,0,0,1-8.58,4.21c-13.49,5.28-37.37,24.35-43.07,20.4a3.37,3.37,0,0,1-1.7-4.55c1.5-4,28.21-19.85,28.66-21.66a.83.83,0,0,0-.19-.88,2.63,2.63,0,0,0-1.93-.2c-.33.06-.54.12-.54.12s-34.75,21.38-41.43,21.14c-5.66-.2-6.35-5.09-4.14-8,1.46-1.92,15.89-9.54,25.56-15.27,5.11-3,8.89-5.53,8.75-6.38-.39-2.47-5.35.4-5.35.4s-6.62,4-14.92,8.58c-2.68,1.47-5.52,3-8.38,4.49-4.27,2.22-8.55,4.31-12.3,5.91-4.88,2.07-8.86,3.3-10.71,2.84-5.92-1.47-4.38-6.59.73-10.6,1.29-1,4.66-3,9-5.52,12.85-7.4,34.14-19,34.72-21.38.78-3.16-4.55-.41-4.55-.41s-15.53,8.06-28.42,14.42c-8.24,4.06-15.4,7.42-16.73,7.53-4,.33-6.51-3.38-2-8.73s33.38-23.2,36.13-25.13c.93-.65,64.69-28.16,83.57-16.44C405.79,334,412.41,349.32,415.51,360.46Z"/><path class="cls-2" d="M307.32,766.66c.42.93,5.2,2.86,11.47,5.11,8.62,3.08,20,6.75,26.72,9.14a50.26,50.26,0,0,1,4.94,2c5.17,2.66,7.38,6.87,2.38,9.12-2,.93-7.69,0-14.32-1.73-13.21-3.36-30.27-9.6-30.27-9.6s-4.85-1.69-4.8.53c.06,2,24.29,9,31.85,12.12a9.43,9.43,0,0,1,2.08,1.07c2.44,2.2,2.64,6.58-2.35,7.7-1.64.36-5.5-.38-10.21-1.64-12.14-3.24-29.93-9.92-29.93-9.92s-2.88-.24-2.19,1.28c.55,1.22,17.81,7.59,25.45,11.7a10.74,10.74,0,0,1,3.46,2.43,3,3,0,0,1-.75,4.25c-1.7,1.7-6.37.85-12.2-1-9.24-2.88-21.43-8.22-29.28-9.67a55.26,55.26,0,0,1-6.52-1.67c-.58-.18-1.17-.38-1.75-.58-8.76-3-82.3-19.12-94.73-22.84-13.34-4-27-6.93-40.53-10-28.33-6.38-55.67-14.57-80.28-30.47a201.39,201.39,0,0,1-39.25-33.36,114.51,114.51,0,0,1-4.87-19.43,120.39,120.39,0,0,1,4.23-54.72l66.2,18.9A413.22,413.22,0,0,0,129,692.82c15.68,13.42,25.28,16.11,42.78,27,11.14,6.95,30.21,16.84,43.78,17.8,13.33,1,27.64,3.34,39.42-2.36,6.78-3.31,18.48-8.93,24.28-8.82,3.65.06,13.52-.13,18.79-.23s11.44-.45,14.24-.17c1.69.18,5.36-.91,8-1.79a4.5,4.5,0,0,1,5.38,6.44c-1.88,3.38-7.07,5.28-10.31,6.46-9.14,3.31-24.61,3-24,4.4s25.15,10.51,27.89,11.73c2,.89,17.48,6.78,27.72,11.45,1.35.62,2.63,1.22,3.76,1.79a28.92,28.92,0,0,1,4.62,2.68c4.84,3.93,3.21,7.59-.37,8a39.39,39.39,0,0,1-6.88-1.37c-5.49-1.37-13.31-3.54-20.3-5.53-8.84-2.51-16.39-4.74-16.39-4.74S306.12,764,307.32,766.66Z"/></g></g></svg>