<svg xmlns="http://www.w3.org/2000/svg" xmlns:xlink="http://www.w3.org/1999/xlink" viewBox="0 0 1025.12 827.19"><defs><style>.cls-1{isolation:isolate;}.cls-2{fill:#65ccb7;opacity:0.2;}.cls-3{fill:#124647;}.cls-4{fill:url(#Gradiente_sem_nome_9);}.cls-5{fill:#6d3d0c;}.cls-6{fill:#327f6b;}.cls-7{fill:#3c8f7c;}.cls-8{fill:#e29887;}.cls-9{fill:#662d91;}.cls-10{fill:url(#Gradiente_sem_nome_2);}.cls-11{fill:#50ad99;}.cls-12{fill:#964c33;}.cls-13{fill:#1f573b;}.cls-14{fill:url(#Gradiente_sem_nome_2-2);}.cls-15{fill:url(#Gradiente_sem_nome_2-3);}.cls-16{fill:url(#Gradiente_sem_nome_2-4);}.cls-17{fill:url(#Gradiente_sem_nome_2-5);}.cls-18{fill:url(#Gradiente_sem_nome_2-6);}.cls-19{fill:url(#Gradiente_sem_nome_2-7);}.cls-20{fill:#50bfa5;}.cls-21{fill:url(#Gradiente_sem_nome_2-8);}.cls-22{fill:url(#Gradiente_sem_nome_2-9);}.cls-23{fill:#256653;}.cls-24{fill:#f7a491;}.cls-25{fill:#f47458;}.cls-26{fill:#fb8603;}.cls-27{fill:#fbc802;}.cls-28{fill:#112e1c;}.cls-29,.cls-31{fill:#ed7600;}.cls-30{fill:#efb706;}.cls-31{opacity:0.37;}.cls-31,.cls-33{mix-blend-mode:multiply;}.cls-32{fill:#55a3a3;}.cls-33{fill:#593960;opacity:0.13;}.cls-34{fill:#fc9797;}.cls-35{fill:url(#Gradiente_sem_nome_2-10);}.cls-36{fill:#ffd078;}.cls-37{fill:url(#Gradiente_sem_nome_2-11);}</style><linearGradient id="Gradiente_sem_nome_9" y1="774.47" x2="993.48" y2="774.47" gradientUnits="userSpaceOnUse"><stop offset="0" stop-color="#dece37"/><stop offset="0.21" stop-color="#aeb644"/><stop offset="0.48" stop-color="#779c52"/><stop offset="0.71" stop-color="#4f885c"/><stop offset="0.89" stop-color="#377c63"/><stop offset="1" stop-color="#2e7865"/></linearGradient><linearGradient id="Gradiente_sem_nome_2" x1="446.01" y1="178.26" x2="563.43" y2="178.26" gradientUnits="userSpaceOnUse"><stop offset="0" stop-color="#ff9836"/><stop offset="1" stop-color="#ff774a"/></linearGradient><linearGradient id="Gradiente_sem_nome_2-2" x1="944.65" y1="568.77" x2="968.85" y2="568.77" xlink:href="#Gradiente_sem_nome_2"/><linearGradient id="Gradiente_sem_nome_2-3" x1="908.06" y1="480.17" x2="932.35" y2="480.17" xlink:href="#Gradiente_sem_nome_2"/><linearGradient id="Gradiente_sem_nome_2-4" x1="797.92" y1="510.67" x2="822.15" y2="510.67" xlink:href="#Gradiente_sem_nome_2"/><linearGradient id="Gradiente_sem_nome_2-5" x1="756.45" y1="599.29" x2="780.67" y2="599.29" xlink:href="#Gradiente_sem_nome_2"/><linearGradient id="Gradiente_sem_nome_2-6" x1="839.54" y1="532.92" x2="863.5" y2="532.92" xlink:href="#Gradiente_sem_nome_2"/><linearGradient id="Gradiente_sem_nome_2-7" x1="987.75" y1="510.08" x2="1012.06" y2="510.08" xlink:href="#Gradiente_sem_nome_2"/><linearGradient id="Gradiente_sem_nome_2-8" x1="880.79" y1="661.29" x2="888.13" y2="661.29" xlink:href="#Gradiente_sem_nome_2"/><linearGradient id="Gradiente_sem_nome_2-9" x1="872.44" y1="662.23" x2="878.67" y2="662.23" xlink:href="#Gradiente_sem_nome_2"/><linearGradient id="Gradiente_sem_nome_2-10" x1="390.92" y1="148.71" x2="507.55" y2="148.71" xlink:href="#Gradiente_sem_nome_2"/><linearGradient id="Gradiente_sem_nome_2-11" x1="551.44" y1="30.8" x2="652.59" y2="30.8" xlink:href="#Gradiente_sem_nome_2"/></defs><g class="cls-1"><g id="Camada_2" data-name="Camada 2"><g id="objects"><path class="cls-2" d="M1025.12,356.49c0-179.11-229.33-324.31-512.22-324.31S.68,177.38.68,356.49c0,172,211.39,312.67,478.62,323.63,48.89,52.44,139.05,87.62,242.18,87.62,155.21,0,281-79.67,281-177.94,0-30.75-12.33-59.69-34-84.93C1004.68,460.41,1025.12,410,1025.12,356.49Z"/><path class="cls-3" d="M617.71,40s-22.46,1.55-27,20.82-9.47,46.6-5.05,60.7,3.55,33.11,6.14,40.58a37,37,0,0,0,8.42,13l-17.17,5.07L574.89,150l-.95,24.57-25.17-4.92,7.06-15.59s-4.94,9-14.36,13L532.3,156s18.82,3.84,27.06-36.54S573.26,57.88,584.67,46a38.15,38.15,0,0,1,35.82-11.37Z"/><path class="cls-4" d="M993.48,774.47c0,29.11-222.4,52.72-496.74,52.72S0,803.58,0,774.47s222.4-52.72,496.74-52.72S993.48,745.35,993.48,774.47Z"/><ellipse class="cls-5" cx="780.26" cy="779.18" rx="213.22" ry="48.01"/><path class="cls-6" d="M374.91,743.91S411,622.79,401.64,612.1s-39.73,71.5-39.73,71.5S406,533.2,385.75,525.81,348.9,656.48,348.9,656.48s5.06-178.34-5-189.84-13,120-13,120S328.68,502,312.06,502s-4.33,134-4.33,134-16.62-105.2-26-94.52,0,121.64,0,121.64-15.89-67.29-28.89-60.36,13.72,117.88,13.72,117.88-12.28-50.13-22.39-50.13,0,71.71,0,71.71Z"/><path class="cls-7" d="M372.24,745.34c-1.12-4.84-4-10-11.17-10.45-9.07-.52-13.42,5-15.32,8.72,2.68-7.27,8-23.88.44-23.88-5.06,0-11.26,7.26-16,14.15.83-9.16.6-19-3.23-23.32-6.41-7.3-10.78,12.42-12.36,21.17,1.72-11.07,5.85-42.08-.65-49.47-7.94-9-17.33,29.59-17.33,29.59s11.11-62.14,6.5-67.39-20.77,38.63-20.77,38.63,8.49-68.16,0-68.16-16.05,72.27-16.05,72.27-5.44-75.2-15.92-87.12,9.39,136.43,7.23,138.89c0,0-16.62-180-27.45-175.87-4.87,1.84-1.87,33,2.92,66.83-2.83-9-6-15-9.42-15-14.17,0,11.55,112.53,11.55,117.47s-14.44-92-28.91-85.17c-10.37,4.94,2.7,55.7,10.91,84a14.2,14.2,0,0,0-2.38-.34,15.3,15.3,0,0,0-15.33,8.72c2.68-7.27,8-23.89.45-23.89-5.07,0-11.26,7.27-16,14.16.83-9.17.6-19-3.23-23.32-6.41-7.3-10.78,12.41-12.35,21.17,1.72-11.07,5.84-42.08-.65-49.47-7.95-9-17.34,29.59-17.34,29.59s11.12-62.14,6.5-67.39-20.77,38.62-20.77,38.62,8.49-68.16,0-68.16-16.05,72.27-16.05,72.27-5.44-75.2-15.91-87.11,9.39,136.42,7.22,138.89c0,0-16.61-180-27.45-175.88-4.86,1.85-1.86,33,2.92,66.84-2.83-9-6-15-9.42-15C63.26,610.89,89,723.43,89,728.36s-14.45-92-28.91-85.16c-4.95,2.36-4.56,15.14-1.91,30.94a11.37,11.37,0,0,0-6.32-3.71c-2.65-2.34-5.54-3.37-8.67-2.47-20.28,5.81,29.09,72,33.16,77.38Z"/><path class="cls-8" d="M543.17,297.71c-17.46-13.81-7.58-53.95-5.44-55.89l-29.65-2.95s-14.35,20.48-7.33,44.5,24.86,39.07,45.12,47.41a143.43,143.43,0,0,1,21,11.11l14.58-9.24C572,324.08,561.19,312,543.17,297.71Z"/><path class="cls-9" d="M570.08,69.5a24,24,0,0,1-8-1.21,6.75,6.75,0,0,1-4.14-3.71C555.48,59,559.73,49,563.48,40.1,564.8,37,566.06,34,567,31.37c3.85-11.07,24.95-20,39.86-20a27.34,27.34,0,0,1,4.62.36A189.72,189.72,0,0,0,633,14.36l.23.06c1,.56,25.1,14,25.1,27.9S653.86,59,653.67,59.1l-.44.26-.26-.44c-.05-.07-4.18-6.92-8-10.34a2.55,2.55,0,0,0-1.66-.42c-4.11,0-13.18,3.79-22,7.45-6.68,2.79-13.59,5.67-18.2,6.81-2.36.59-5,1.33-7.7,2.11C587.31,66.86,578,69.5,570.08,69.5Zm36.75-57.08c-14.48,0-35.27,8.9-38.89,19.28-.92,2.68-2.18,5.65-3.52,8.8-3.66,8.67-7.82,18.48-5.54,23.67a5.69,5.69,0,0,0,3.54,3.15,22.79,22.79,0,0,0,7.66,1.15c7.79,0,17-2.62,25.15-4.93,2.76-.79,5.36-1.53,7.73-2.11,4.54-1.13,11.41-4,18-6.77,8.87-3.7,18-7.53,22.35-7.53a3.37,3.37,0,0,1,2.35.69c3.31,3,6.77,8.36,7.82,10,1-1,3.74-4.84,3.74-15.55,0-12.83-22.72-26-24.46-26.94a192.63,192.63,0,0,1-21.54-2.62A26.28,26.28,0,0,0,606.83,12.42Z"/><path class="cls-10" d="M552.34,234.14c14-12.75,13.48-79.56,5.37-86.93S508,93,503.4,91C489.93,85.18,460,213.52,446,245.76c23.94,11.64,48.76,9.57,72.63,19.95C533.24,251.6,546.49,239.45,552.34,234.14Z"/><path class="cls-11" d="M410.49,406.31,476.7,560.55s-23.47,52.28-23.47,77.77,14.19,94.77,14.19,94.77l16.44-1.91s35.89-146.75,39.49-179.43-68.91-249.28-68.91-249.28Z"/><path class="cls-7" d="M995.76,585.19a21.5,21.5,0,0,1,13.43-3.3c8,.66,15.93,6.64,15.93,6.64s-.58,4.05-11.29,6-19.24-6-19.24-6Z"/><path class="cls-7" d="M816.7,476.35s.66-11.28,3.32-13.94,11.28-10,11.28-10a19.11,19.11,0,0,1-.66,13.94,125.46,125.46,0,0,1-9.29,15.93Z"/><path class="cls-12" d="M956.09,550.69c0,1.33-1.07,12-1.07,12l2.4-.38,1-10.95Z"/><polygon class="cls-12" points="997.44 504.61 995.58 492.62 997.57 492.62 999.9 503.57 997.44 504.61 997.44 504.61"/><polygon class="cls-12" points="847.9 529.78 841.59 520.49 843.58 519.5 848.89 527.46 847.9 529.78"/><polygon class="cls-12" points="767.91 592.51 766.26 578.24 769.58 578.99 769.24 591.85 767.91 592.51"/><path class="cls-13" d="M874.81,497.12Z"/><path class="cls-13" d="M995.76,585.19c-1.31-1.37-2.65-2.7-4-4-3-2.94-5.91-5.89-8.68-9-4.71-5.29-9.69-11.92-9.38-19.18,1.36-.15,2.73-.29,4.09-.4a32.34,32.34,0,0,1,5.39,0,14.66,14.66,0,0,1,3.46,1c3.75,2.07,7.1-3.67,3.35-5.73-6.52-3.6-14.51-1.63-21.5-1a31.86,31.86,0,0,1-11.09-.51,14.12,14.12,0,0,1-8-5.89c.57-.72,1.13-1.45,1.68-2.2,4-5.44,7.75-11.41,13.65-15a19.81,19.81,0,0,1,9.28-2.76c2.88-.19,8.3-.5,7-5a3.3,3.3,0,0,0-5.07-1.77l-1.52.11a48.6,48.6,0,0,0-5.26.57,17.69,17.69,0,0,0-3.43,1c1-14.52,14-24.08,23.88-33.47,3.12-2.94-1.58-7.63-4.69-4.69-5.78,5.47-12,10.51-17,16.76-5.6,7-9.32,15.29-8.89,24.42a3.4,3.4,0,0,0,.09.65c-5.61,4.11-9.47,10-13.53,15.51a54.83,54.83,0,0,1-16.57,15.24c-5.57,3.27-11.58,5.69-17.52,8.2a1.48,1.48,0,0,1,0-.21,90.14,90.14,0,0,1,.44-14.32,57.8,57.8,0,0,1,3.1-13.3,38.61,38.61,0,0,1,2.73-5.78c.56-1,1.18-1.93,1.82-2.86l.56-.78a.73.73,0,0,1,.09-.13l.08-.1c3.24-4.06,6.9-7.74,9.83-12.06s5.23-10.05,1.2-14.31c-2.94-3.12-7.63,1.58-4.69,4.69a.38.38,0,0,0,.09.09l0,0s0,.07.06.1a2.61,2.61,0,0,1,.08.35v.52l0,.11a8.41,8.41,0,0,1-.21.83c-.09.29-.19.57-.3.85.23-.6-.27.56-.33.67a36.83,36.83,0,0,1-5,7.18c-1.76,2.1-3.64,4.12-5.37,6.25a42.92,42.92,0,0,0-6.17,10.52c-3.65,8.71-4.87,18.58-4.72,28,.07,4.77.58,9.53.34,14.31a25.14,25.14,0,0,1-4.26,12.68C895.35,590,885.84,592,877,595.81c-3.71-5.38-7.4-10.71-9.08-17.17-2.32-8.89-.58-18.43,2.09-27,2-6.49,5.63-12.31,8.42-18.5a3.19,3.19,0,0,0,1.73-.93c8.19-8.16,17.38-15.74,21.48-27a27.87,27.87,0,0,0,1.27-9.7c0-2.57-.26-5.61.76-8,1.67-4,6.11-5.45,9.34-8.06,1.41-1.14,1.18-3.52,0-4.7a3.39,3.39,0,0,0-4.69,0c.5-.4-.51.36-.61.43-.38.26-.78.5-1.17.75-.85.54-1.71,1.07-2.54,1.65a19,19,0,0,0-5.46,5.44c-3.38,5.31-1.56,11.75-2.54,17.57-.94,5.62-4.87,10.9-8.56,15.07-1.71,1.93-3.53,3.75-5.39,5.54a97.49,97.49,0,0,0,.76-13.07,54.27,54.27,0,0,0-.66-9.78c-.44-2.59-1.41-5.16-3.66-6.69-3.43-2.35-6.65,3-3.65,5.5l0,0-.06,0,.08.06.07.1.18.36c.05.14.09.28.14.42a14.18,14.18,0,0,1,.41,1.71,10.18,10.18,0,0,1,.25,1.78,69.93,69.93,0,0,1,.16,9.71c-.1,2.75-.29,5.49-.53,8.23a35.44,35.44,0,0,1-3.14,11c-1.76,4-3.9,7.85-5.77,11.81A67.39,67.39,0,0,0,862.19,555c-2.57-1-5.32-1.66-7.84-2.67a31,31,0,0,1-8.79-5.59,34.74,34.74,0,0,1-10.74-18.32c-1.15-5-.83-10.22-.59-15.39a2.94,2.94,0,0,0,.46-.25c12.21-8.17,24.82-18.93,25.54-34.73.19-4.28-6.45-4.26-6.64,0-.54,11.87-10,20.44-19.26,26.95-.42-7.08-2.87-13.57-8.43-18.34a3.37,3.37,0,0,0-4.69,0,3.32,3.32,0,0,0,0,4.69,17.48,17.48,0,0,1,5.63,8.33,32.56,32.56,0,0,1,.91,9.89c-.16,7.75-.89,15.41,1.28,23,.15.54.32,1.07.5,1.6a4.57,4.57,0,0,0-.38.47,5.33,5.33,0,0,1-3.56,2.26,17.63,17.63,0,0,1-5.7,0c-4.61-.73-9-2.37-13.56-3.46a30.23,30.23,0,0,0-6.27-.79c1.57-7.61-.15-16.23-6.18-21.37a76.81,76.81,0,0,0-8.86-6,19.76,19.76,0,0,1-3.37-2.56,5.54,5.54,0,0,1-1.69-2.6c-1.19-4.1-7.6-2.35-6.4,1.76,1.87,6.43,8.68,9.28,13.78,12.71,2.39,1.6,4.54,3.47,5.52,6.26a20,20,0,0,1,.21,12.32c-8.29,1.41-16.32,5.19-24.16,7.94a3.39,3.39,0,0,0-2.32,4.08,3.34,3.34,0,0,0,4.09,2.32c6.51-2.28,12.82-5.15,19.49-6.94a31.33,31.33,0,0,1,16.91-.09c7.85,2.16,18.54,6,25.34.29a40.93,40.93,0,0,0,3.45,5.28,18.81,18.81,0,0,1-10.9,9c-5.28,1.69-10.92,2.08-16.32,3.27-6.75,1.49-13,5.26-19,8.63-5.62,3.19-11.35,6.77-17.78,8a3.33,3.33,0,0,0-2.32,4.08,3.38,3.38,0,0,0,4.08,2.32c6.78-1.3,13-5,18.88-8.4,1.46-.83,2.93-1.67,4.41-2.48.34.31.67.65,1,1l.47.58c.17.23.33.46.48.7a22.74,22.74,0,0,1,1.19,2,30.9,30.9,0,0,1,2.93,9.42s.09.81.1.9c0,.42.07.84.09,1.26a22.25,22.25,0,0,1,0,2.45c0,.39-.05.78-.09,1.17a.72.72,0,0,0,0,.13,3.47,3.47,0,0,0-.08.39,14.35,14.35,0,0,1-.56,2.07s0,.09,0,.12l-.13.25c-.14.29-.31.56-.48.84l-.1.15-.1.11a3.59,3.59,0,0,1-.39.39c0-.06-.41.3-.55.39l-.2.12-.09,0a6.49,6.49,0,0,1-1,.26l-.74,0c-4.28.06-4.29,6.7,0,6.64,9.33-.14,11.85-9.72,11-17.44a37.77,37.77,0,0,0-3.6-12.48,23.14,23.14,0,0,0-2.93-4.64,41.55,41.55,0,0,1,8.61-2.9c5.49-1.14,11.17-1.55,16.47-3.49a24.87,24.87,0,0,0,12.29-9.79l.71.65a38.4,38.4,0,0,0,9.66,6.26,49.81,49.81,0,0,0,5.54,2.19,38.36,38.36,0,0,1,4.44,1.45c-1.1,7.56-.82,15.34,1.84,22.56,2.75,7.46,7.8,13.47,12,20.1,1.8,2.84-1.26,7-.54,10.33.86,3.89-.39,7.31-1.12,11.17-1.73,9.16,2.59,13.08,1.37,22.36a71.75,71.75,0,0,0,.31,18.23c.89,4.7-.64,68.45,1,72.94.61,1.7,7-.06,6.4-1.77-1.61-4.5-.23-67.33-1.18-72a44.11,44.11,0,0,1,0-14.9c1.55-9.56-1.25-17.69,0-27.32.56-4.33,1.18-8.93,0-13.16-.84-3,1.43-6.11-.2-8.77,5.68-2.4,11.73-4.06,16.92-7.49a32.07,32.07,0,0,0,13.79-21.63,48.71,48.71,0,0,0,.42-7.23h0c7.1-3.11,14.37-5.86,21.07-9.81A56.09,56.09,0,0,0,945,545.59a21,21,0,0,0,8.56,6.45,29.19,29.19,0,0,0,12.27,1.65c.41,0,.82,0,1.22-.07-.1,8,4.56,15,9.44,21,4,4.87,8.62,9.15,13,13.65a3.32,3.32,0,0,0,.43,1.48,11.36,11.36,0,0,0,2,2.66,4.26,4.26,0,0,0,3.34,1,3.35,3.35,0,0,0,3.32-3.32C998.61,587.9,997.14,586.64,995.76,585.19Zm-121-88.13c-.17-.19-.1-.12,0,0Zm.07.07.28.22-.23-.16Z"/><path class="cls-6" d="M801.88,594.72s-10-.22-14.16,6-6,17-6,17,11.53.89,17-3.76c7.08-6,7.08-15.27,7.08-15.27Z"/><path class="cls-6" d="M818.47,563.3s-1.77,7.75,3.54,13.06a57,57,0,0,0,12.83,9.07s1.33-8.63-2.65-15.27A18.5,18.5,0,0,0,821.57,562Z"/><path class="cls-6" d="M770.9,541.18s-4.42-6.2-11.72-6S743.69,541,743.69,541s5.53,8.63,12.83,9.29,15.93-3.54,15.93-3.54Z"/><path class="cls-6" d="M811.39,496.93s-11.73,1.55-16.37,3.32c-3.75,1.42-4.9,7.16-5.21,9.34-.08.52-.1.84-.1.84l2.21,2a35.48,35.48,0,0,0,15.05-6.2C813.6,501.13,811.39,496.93,811.39,496.93Z"/><path class="cls-6" d="M926.66,558s-1.1,8.41,3.1,12.39,11.73,7.31,11.73,7.31,2.21-8.19-1.55-13.5-11.29-8-11.29-8Z"/><path class="cls-6" d="M974.23,487.86s-3.32-8.41-11.73-11.06-13.27-.23-13.27-.23a21.62,21.62,0,0,0,6,11.51c5.09,4.87,16.38,2.21,16.38,2.21Z"/><path class="cls-6" d="M980,546.49a10,10,0,0,1,.67-9.51c3.1-4.65,16.15-11.51,16.15-11.51a16.41,16.41,0,0,1-1.77,10.4C992.15,541,983.3,547.6,983.3,547.6Z"/><path class="cls-6" d="M990.38,587.2c-.66.44-6.41,2.21-5.09,14.16s4.65,18.14,4.65,18.14a27.51,27.51,0,0,0,7.3-15.26,27,27,0,0,0-2.65-15.71Z"/><path class="cls-6" d="M906.09,548.26a24.72,24.72,0,0,1-13.28-1.55,17.08,17.08,0,0,1-8.85-8.85,11.08,11.08,0,0,1,10-3.32c6.19,1.11,12.17,7.75,12.17,7.75Z"/><path class="cls-6" d="M921.35,517.28c.22.67,1.33,7.08,7.08,10s12.84,2,12.84,2,0-8-6-10.62a41.21,41.21,0,0,0-12.17-3.1Z"/><path class="cls-6" d="M820.68,488.52a22,22,0,0,1-9.73-5.09c-4.21-4-3.1-13.94-3.1-13.94s4.65-1.1,9.51,2.88,7.31,13.5,7.31,13.5Z"/><path class="cls-6" d="M852.32,487.19a11.07,11.07,0,0,0-8.63-9.73c-8.18-2-11.94,1.11-11.94,1.11s-.23,4.64,5.08,8,13.72,3.1,13.72,3.1Z"/><path class="cls-6" d="M877.32,514s-4.2-4.87-10.17-4.43a38.87,38.87,0,0,0-11.73,3.1s3.54,5.53,9.51,7.08,12.39-2.21,12.39-2.21Z"/><path class="cls-6" d="M908.52,475.47s-3.76-1.33-2.21-8.63,8.85-14.6,8.85-14.6,6.41,6.86,4.86,13.27-8,11.29-8,11.29Z"/><path class="cls-7" d="M771.9,574.91s-1.22-3.64-9.18-4.08-14.16,4.86-14.16,4.86,3.31,7.31,10.62,7.75,14.6-2.88,14.6-2.88Z"/><path class="cls-7" d="M774.88,542.51a12.08,12.08,0,0,0-7.74,4.86c-3.32,4.43-1.33,12.84-1.33,12.84s6.86.22,10-3.76,3.32-12.62,3.32-12.62Z"/><path class="cls-7" d="M775.11,501.8c-4-2.88-9.52-10.4-9.3-15.27s4.21-13,4.21-13,4.42,1.1,6.86,9.51a43.49,43.49,0,0,1,.88,17.26Z"/><path class="cls-7" d="M833.29,522.15s2-7.08,8.19-8,13.94-1.55,13.94-1.55.44,6.19-6.86,9.29a46,46,0,0,1-15.71,3.1Z"/><path class="cls-7" d="M897.46,486.09s-6.64-1.11-9.3-4.65-7.08-13.05-7.08-13.05,7.53.22,11.51,3.1,7.08,11.06,7.08,11.06Z"/><path class="cls-7" d="M900.33,498.7a32.17,32.17,0,0,1,7.3-7.74c4.65-3.32,11.29-3.54,11.29-3.54s-.44,8.4-5.53,11.28-12.61,2.65-12.61,2.65Z"/><path class="cls-7" d="M980.2,486.75s3.55,6.42,9.74,8.63,14.6,2.21,14.6,2.21-2.87-8.85-9.29-11.94-14.38-1.11-14.38-1.11Z"/><path class="cls-7" d="M927.1,496.27s-2.65,1.77-1.1-7.08,11.06-17.26,11.06-17.26,4,5.31,3.1,11.5S932,498,932,498Z"/><path class="cls-7" d="M981.09,573.26s3.1-6.42,8.19-7.52,15.93-.89,15.93-.89,0,4.87-6.2,8.19-16.37,2.21-16.37,2.21Z"/><path class="cls-7" d="M855.64,447.81s-6.19,8.41-6,13.5,4.42,15,4.42,15l5.53.45a98.16,98.16,0,0,0,2-10.85C863.16,455.33,855.64,447.81,855.64,447.81Z"/><path class="cls-6" d="M874.23,495.82s-5.31-1.77-6.42-6.19-1.55-15.05-1.55-15.05,6.86,1.11,9.74,5.31,3.76,13.72,3.76,13.72Z"/><path class="cls-6" d="M986.29,476.69s-.66-5.65,6.31-9.63a129.58,129.58,0,0,1,17.25-7.63,10.53,10.53,0,0,1-3,11.94c-6,5.32-17.2,10.52-17.2,10.52Z"/><path class="cls-14" d="M955.67,560.1c-3.22.58-9.51-1.19-10.81,4s3.31,14.44,12.91,13.54c7.63-.72,11.57-6.91,11-11S962.56,558.85,955.67,560.1Z"/><path class="cls-15" d="M917.71,472.12c-3,1.28-9.53.95-9.65,6.3s6.42,13.36,15.58,10.34c7.28-2.39,9.76-9.29,8.32-13.19S924.15,469.38,917.71,472.12Z"/><path class="cls-16" d="M808.82,502c-3.21.64-9.53-1-10.72,4.21s3.58,14.38,13.17,13.29c7.61-.87,11.43-7.14,10.81-11.25S815.68,500.65,808.82,502Z"/><path class="cls-17" d="M767.39,590.64c-3.21.62-9.52-1.07-10.75,4.14s3.49,14.4,13.08,13.37c7.62-.82,11.48-7.06,10.89-11.18S774.26,589.3,767.39,590.64Z"/><path class="cls-18" d="M847.79,525.86c-2.68,1.87-9.14,2.88-8.15,8.14s9,11.75,17.38,6.92c6.63-3.84,7.63-11.1,5.42-14.63S853.53,521.85,847.79,525.86Z"/><path class="cls-19" d="M997.57,501.93c-3,1.2-9.55.69-9.81,6s6,13.53,15.29,10.77c7.34-2.19,10-9,8.68-13S1004.09,499.37,997.57,501.93Z"/><path class="cls-20" d="M521.4,172.7c-13.14,11.93-60.3,66.17-60.3,66.17h0c-4.56-2.22-87.57,30.69-102.36,63.88-17.15,38.49.81,245.67.81,258.15s12,185.78,12,185.78l39,8.33s7.27-205.22,10.87-222.86S450.15,347.2,466,323c6.57-10,20.14-24.84,34.77-39.65h0s15.44-10.39,35.4-21.13c18.86-10.15,45.16-50.16,46.78-51.63S521.4,172.7,521.4,172.7Z"/><path class="cls-20" d="M557,140s10.8,21.9,17.64,40.2,8.27,30.39,8.27,30.39L570,218.12,565.3,201l-14.14-67Z"/><polygon class="cls-3" points="582.93 210.61 569.98 218.12 564.74 198.31 571.64 214.88 582.93 210.61"/><path class="cls-3" d="M576.69,207.05A2.66,2.66,0,1,1,574,204.4,2.66,2.66,0,0,1,576.69,207.05Z"/><rect class="cls-21" x="880.79" y="568.51" width="7.33" height="185.57"/><path class="cls-5" d="M780.26,766.48H940.55s-18.14-14.34-29.35-12.4c0,0-12.53-11.5-33.48-7.45a31.79,31.79,0,0,0-27.88-11A37.69,37.69,0,0,0,823.16,751S791.24,744,780.26,766.48Z"/><path class="cls-5" d="M889.26,663.17a1.74,1.74,0,0,0-2.27,0c-3.16,2.87-7.7-.57-7.89-.72a1.71,1.71,0,0,0-2.26.17,1.36,1.36,0,0,0,.17,2,12.3,12.3,0,0,0,7.07,2.56,7.54,7.54,0,0,0,5.18-2A1.37,1.37,0,0,0,889.26,663.17Z"/><path class="cls-5" d="M876.68,661.8,875,660.27c-.44-.4-10.88-9.8-19.31-10.95-5.84-.8-12.26,3.12-15.34,7.22-2.59,3.45-3,7.08-1.22,10,1.27,2,4.13,2.76,7.72,2.76,8,0,19.68-3.76,25.27-5.75-4.17,2.5-19.07,12.08-15,19.06a4.29,4.29,0,0,0,3.79,2.32,5.22,5.22,0,0,0,1.1-.12c5.94-1.34,13.46-13.9,13.46-20.56v-1.94Zm-34.79,3.25c-1.61-2.57,0-5.41,1.1-6.87,2.67-3.56,7.38-6.06,11.17-6.06a9,9,0,0,1,1.05.07c5.51.75,12.48,6,15.72,8.6C859.7,664.76,844.08,668.51,841.89,665.05Zm19.33,16.88c-.34.08-.76.18-1.29-.72-2-3.52,5.84-10,11.85-14C870.1,673.29,864.36,681.23,861.22,681.93Z"/><path class="cls-22" d="M878.67,662.23a3.13,3.13,0,1,1-3.11-2.82A3,3,0,0,1,878.67,662.23Z"/><path class="cls-23" d="M560.53,359.28a71.61,71.61,0,0,0-8.81,13.41l-9.6-6.57A71.93,71.93,0,0,1,551,352.73c18.78-22.65,47.95-31.48,65.15-19.72a26.61,26.61,0,0,1,4.39,3.76C603.05,329.59,577.53,338.77,560.53,359.28Z"/><path class="cls-23" d="M547.45,380.92c4.5-15.84,3.25-35.47-9.81-47.41-5.47-4.84-14.38-8.8-20.72-10.59-18.68-5.05-31.1,3.5-41.19,18.35-7,11.06-7.91,14.13-10.41,21.79-.17,1.49-8.37,25.17-5.6,80.61l12.43-.65c-5.52-32.93-7.66-84.63,17.59-108.64,7-6.69,15.51-8.54,25.36-6,21.62,5.95,29.45,19.48,25.15,38.33-1,3.73-3.07,9.21-4.81,11.17Z"/><path class="cls-23" d="M568.21,479.47l5.11,24.72,124.35-58.6h0l8.33-3.93L736.29,463,719,405.68,703.27,430.9,605.37,452Z"/><path class="cls-23" d="M546.62,352.3l84.53,57.79L561.76,523c-3.13,3.77-31.52-10.84-63.4-32.64s-55.2-42.53-52.07-46.31Z"/><path class="cls-23" d="M546.48,352.2c-4.34,5.23,11.1,22.43,34.48,38.42s45.85,24.7,50.19,19.47-11.1-22.43-34.48-38.41S550.82,347,546.48,352.2Z"/><path class="cls-23" d="M554.91,358c-3.11,3.74,9.28,17,27.67,29.53s35.8,19.73,38.9,16-9.29-17-27.67-29.53S558,354.22,554.91,358Z"/><path class="cls-23" d="M601.48,406.71a76,76,0,0,0,11.76-11.39c17-20.51,12.13-50.93-.28-64.17,1.82.75,11.69,5.91,13.32,7,17.2,11.76,15.77,41.35-3,64-3.58,4.32-8,7.82-12.19,11.09Z"/><path class="cls-24" d="M578.5,107.22s-17.72,21.8-22.31,35.85a18.86,18.86,0,0,0-1.08,5.65c0,12.75-12.59,13.07-18.35,1.31s-13-38.89-13-38.89L573.11,69Z"/><path class="cls-25" d="M573.11,69l-12.2,10.43a73.73,73.73,0,0,0,9.4,38.68c4.48-6.31,8.2-10.88,8.2-10.88Z"/><path class="cls-24" d="M571.2,352.3s-10.21-21.61-6.51-21,8.72,11.07,8.72,11.07-3.82-10.39-1.73-13.54,7,12.15,7,12.15-3.16-15.57.41-16.37,8,12.08,8,12.08-1.9-13.34,1.31-12.16,14.05,8.27,13.57,16.59S571.2,352.3,571.2,352.3Z"/><path class="cls-26" d="M433.36,641.93s-24.79,105.25-16.71,112.75,20.63,21.3,38,22.6,14.55,15.07,14.55,15.07l-64.37-1.82-4.76-3.9-2.51,3.64-19-1.82s-22.67-126-18.47-157.18Z"/><path class="cls-27" d="M360.05,631.27l73.33,10.66s-1,4.35-2.57,11.29c-16.19-2.72-54.83-9.44-71.26-12.3A79.11,79.11,0,0,1,360.05,631.27Z"/><path class="cls-28" d="M353.41,614.44c4.16,4.77,3.79,9.8,4.09,13.55-8.59-29-26.71-8.24,0,0C318.82,625.25,340,599.17,353.41,614.44Z"/><path class="cls-27" d="M419.15,770c-22.13-12.44-10.21-38.35,2.1-114.54l-4.95,19.83c-.1.43-11,50.43-10.91,49.94-1.52,9.33-4.76,20.47-2.08,31C409,781.3,440.36,779,457.7,787.81c.45,0,2.05.91,3.07-.81C461.36,786,432,777.42,419.15,770Z"/><polygon class="cls-28" points="438.98 649.05 437.62 636.23 356.52 624.45 352.38 636.47 438.98 649.05"/><polygon class="cls-27" points="376.53 786.17 396.42 788.07 399.6 783.47 405.71 788.47 471.51 790.33 471.37 794.49 403.96 792.58 400.55 789.79 398.7 792.47 377.65 791.77 376.53 786.17"/><path class="cls-29" d="M511.62,635.13S489.44,729.29,496.67,736s18.45,19.06,34,20.22,13,13.48,13,13.48l-57.59-1.63-4.26-3.49-2.25,3.26-17-1.63S442.26,653.49,446,625.6Z"/><path class="cls-30" d="M446,625.6l65.6,9.53s-.92,3.9-2.31,10.1c-14.48-2.43-49-8.44-63.74-11A67.75,67.75,0,0,1,446,625.6Z"/><path class="cls-28" d="M440.1,610.54c3.72,4.26,3.39,8.77,3.65,12.13-7.68-25.94-23.89-7.38,0,0C409.15,620.21,428.13,596.88,440.1,610.54Z"/><path class="cls-30" d="M498.91,749.69c-19.8-11.13-9.14-34.31,1.88-102.47L496.35,665c-.08.38-9.85,45.12-9.75,44.68-1.36,8.34-4.26,18.31-1.87,27.74,5.08,22.44,33.15,20.36,48.66,28.26.41,0,1.84.82,2.75-.72C536.67,764,510.44,756.34,498.91,749.69Z"/><polygon class="cls-28" points="516.65 641.5 515.43 630.03 442.87 619.5 439.17 630.25 516.65 641.5"/><polygon class="cls-27" points="460.78 764.17 478.57 765.87 481.42 761.76 486.88 766.23 545.75 767.9 545.63 771.61 485.32 769.91 482.27 767.41 480.61 769.8 461.78 769.18 460.78 764.17"/><path class="cls-24" d="M644.47,33.5s13.67,13.72,7.2,27.44c-3.88,8.22-12.49,19-18.78,28.74-4.22,6.56-9.43,7.6-7.81,17.72,0,0,.95,5.12.95,5.75s-6.93,2-10.53-1.23c0,0-4,.65-4,3.27s-4.32,2.45-4.32,2.45-1.26,2.62-2.7,2.62-4.62.58-9.89,5.22c-4.59,4-5.58,6.38-17.1-8.33s-19.79-33.66-12.59-59.8S626.84,21.4,644.47,33.5Z"/><path class="cls-3" d="M591.38,39s-49.45-3.47-64.17,23.35c-3.48,6.34-19.65,17.48-21.81,34.59-3.76,29.91-4.59,69.22,23.27,99.27h18.19L543,176.5l11.88,19.66,11.73-2S547.85,162.93,549.37,147c0,0,9.41,36,23.37,40.89l16.16-3.71s-37.8-15-33.83-51.68c2.4-22.17,4.11-64.64,19.2-78.34,10.09-9.16,19.88-9.79,19.88-9.79Z"/><path class="cls-31" d="M644.47,33.5c-12.53-8.6-43.78-6.13-63.4,5.39-15.31.58-43.38,4.32-53.86,23.41-2.83,5.17-13.09,12.64-18.59,24.1-1.59,3.32,57,24.9,124.27,3.29,6.29-9.78,14.9-20.53,18.78-28.75C658.14,47.22,644.47,33.5,644.47,33.5Z"/><path class="cls-32" d="M785.24,424c-4.79-10.78-32.71-9.46-44.1-8.45C757.33,416.43,790.67,436.15,785.24,424Z"/><path class="cls-32" d="M792.08,446c7.1,9,14.76,40,19.63,28.86C816.14,464.74,799.53,451.36,792.08,446Z"/><path class="cls-32" d="M785.83,504.19c8.53-4.08-10.79-26.92-10.79-26.92S777.3,508.26,785.83,504.19Z"/><path class="cls-32" d="M761.06,538.89c14.06,0,0-25.71,0-25.71S748.82,538.89,761.06,538.89Z"/><path class="cls-32" d="M780,590.31c9.79,0,0-17.9,0-17.9S771.46,590.31,780,590.31Z"/><path class="cls-32" d="M778.82,673.61c9.79,0,0-17.9,0-17.9S770.3,673.61,778.82,673.61Z"/><path class="cls-33" d="M448.78,238.72l-1.79.11c.72,38.77,36.33,62.47,48.33,50.09,1.78-1.85,3.6-3.7,5.43-5.55h0s6.83-4.6,17.29-10.84c-19.47-12.85-23.42-46.44-13.32-92.33C515.94,129.27,503.4,94,503.4,91,490.77,85.55,463.62,198.14,448.78,238.72Z"/><path class="cls-24" d="M499.09,293.94c-14.4-18.63-62.91-90.15-62.26-93.05-15.64-7.39-20.35-7.56-39.08-4.48-2.05,6.18-2.95,11.15-2.3,14.2,3.6,17,62,73.88,80,90.19s16.84,41.83,24.4,43.46,9-2.94,9-2.94,2.88,1.63,6.48-1.64,6.84-2,9.36-4.24,2.57-1.72,2.57-4.58C527.21,324.32,513.48,312.56,499.09,293.94Z"/><path class="cls-34" d="M524.64,335.44c6.25-3.41-.83-11.4-5.26-16.39-13.87-16.62-9.39-7.31-37.91-46.94-12.73-18.55-32.69-47.87-43.14-67.87C507,311,528.15,320.84,527.43,331.45a3,3,0,0,1-.83,2.4Z"/><path class="cls-25" d="M397.75,196.41a59.42,59.42,0,0,0-2.07,7.75c8.68-.55,31.32-1.74,42.65.08-1-1.86-1.57-3-1.5-3.35C421.19,193.5,416.48,193.33,397.75,196.41Z"/><path class="cls-35" d="M504.84,130.87A60,60,0,0,0,503.4,91s-8.63-7.85-38.14,9.15c-24.22,14-64.95,67.94-74.34,96.25,18,.77,42.5,4.43,58.14,11.81C455.4,179.76,498.64,150.74,504.84,130.87Z"/><path class="cls-26" d="M578.5,23.69S493.11,43.3,494.57,70.16C496,97.35,566,91.66,620.49,80.55S705,52.89,719.68,37.91C724,33.5,727.44,27.29,722.81,22c-2.3-2.64-5.72-4.25-9.15-5.48-21.68-7.78-45.6-3.45-67.9-.86q-25.23,2.92-50.42,6C589.86,22.3,583.88,22.46,578.5,23.69Z"/><path class="cls-36" d="M494.84,66.74c-7.23,40.85,128.47,14.67,171,.37,18.56-6.25,39.49-15.72,53.84-29.2-39.15,42.63-211.35,73.63-224.43,36.53C494.27,70.9,494.3,69,494.84,66.74Z"/><path class="cls-37" d="M651.53,34.28c4.78-8.16-7.33-25.4-20.16-32.14s-55.2,3.55-66.43,15.47-17.49,29.17-10.68,36.22C570.69,70.83,637.63,58,651.53,34.28Z"/><path class="cls-3" d="M649.66,20.37c-.09.18-.19.36-.29.54C635,44.72,572.77,60.38,551.62,48.12a10.22,10.22,0,0,0,2.64,5.71c16.43,17,83.37,4.17,97.27-19.55C653.57,30.79,652.53,25.65,649.66,20.37Z"/><path class="cls-25" d="M399.62,212.62s7.85-5.93,10.87-2.91-1,14.25-3.69,11.6A110.1,110.1,0,0,1,399.62,212.62Z"/></g></g></g></svg>