<svg xmlns="http://www.w3.org/2000/svg" xmlns:xlink="http://www.w3.org/1999/xlink" viewBox="0 0 1017.26 641.88"><defs><style>.cls-1{fill:#124647;}.cls-2{fill:#256653;}.cls-3{fill:#215948;}.cls-4{fill:#154c4c;}.cls-5{fill:url(#Gradiente_sem_nome_2);}.cls-6{fill:#e28f81;}.cls-7{fill:url(#Gradiente_sem_nome_4);}.cls-8{fill:#3c8f7c;}.cls-9{fill:url(#Gradiente_sem_nome_25);}.cls-10{fill:#f9ad28;}.cls-11{fill:#112e1c;}.cls-12{fill:url(#Gradiente_sem_nome_2-2);}.cls-13{fill:#f7a491;}.cls-14{fill:#f47458;}.cls-15{fill:#754c24;}.cls-16{fill:#50bfa5;}.cls-17{fill:url(#Gradiente_sem_nome_2-3);}.cls-18{fill:#fbc802;}.cls-19{fill:url(#Gradiente_sem_nome_4-2);}.cls-20{fill:url(#Áåçûìÿííûé_ãðàäèåíò_226);}.cls-21{fill:url(#Gradiente_sem_nome_2-4);}.cls-22{fill:url(#Áåçûìÿííûé_ãðàäèåíò_206);}.cls-23{fill:url(#Áåçûìÿííûé_ãðàäèåíò_226-2);}.cls-24{fill:url(#Gradiente_sem_nome_2-5);}.cls-25{fill:url(#Áåçûìÿííûé_ãðàäèåíò_206-2);}.cls-26{fill:#1f573b;}.cls-27{fill:#327f6b;}.cls-28{fill:url(#Gradiente_sem_nome_4-3);}.cls-29{fill:url(#Gradiente_sem_nome_6);}.cls-30{fill:url(#Gradiente_sem_nome_6-2);}.cls-31{fill:url(#Gradiente_sem_nome_6-3);}.cls-32{fill:url(#Gradiente_sem_nome_6-4);}</style><linearGradient id="Gradiente_sem_nome_2" x1="649.2" y1="110.33" x2="699.07" y2="110.33" gradientUnits="userSpaceOnUse"><stop offset="0" stop-color="#ff9836"/><stop offset="1" stop-color="#ff774a"/></linearGradient><linearGradient id="Gradiente_sem_nome_4" x1="606.89" y1="264.09" x2="737.74" y2="264.09" gradientUnits="userSpaceOnUse"><stop offset="0" stop-color="#ff774a"/><stop offset="1" stop-color="#ff9836"/></linearGradient><linearGradient id="Gradiente_sem_nome_25" x1="654.04" y1="443.12" x2="752.83" y2="443.12" gradientUnits="userSpaceOnUse"><stop offset="0" stop-color="#d95733"/><stop offset="0.29" stop-color="#db662a"/><stop offset="0.65" stop-color="#dd7322"/><stop offset="1" stop-color="#de7720"/></linearGradient><linearGradient id="Gradiente_sem_nome_2-2" x1="688.64" y1="256.32" x2="973.59" y2="256.32" xlink:href="#Gradiente_sem_nome_2"/><linearGradient id="Gradiente_sem_nome_2-3" x1="788.96" y1="480.61" x2="937.16" y2="480.61" xlink:href="#Gradiente_sem_nome_2"/><linearGradient id="Gradiente_sem_nome_4-2" x1="672.32" y1="283.41" x2="816.75" y2="283.41" xlink:href="#Gradiente_sem_nome_4"/><linearGradient id="Áåçûìÿííûé_ãðàäèåíò_226" x1="497.43" y1="377.16" x2="491.09" y2="355.58" gradientUnits="userSpaceOnUse"><stop offset="0" stop-color="#ae0051"/><stop offset="1" stop-color="#e53961"/></linearGradient><linearGradient id="Gradiente_sem_nome_2-4" x1="479.4" y1="379.68" x2="477.1" y2="349.88" xlink:href="#Gradiente_sem_nome_2"/><linearGradient id="Áåçûìÿííûé_ãðàäèåíò_206" x1="497.26" y1="380.82" x2="491.79" y2="362.22" gradientUnits="userSpaceOnUse"><stop offset="0" stop-color="#ff5459"/><stop offset="1" stop-color="#ff2c51"/></linearGradient><linearGradient id="Áåçûìÿííûé_ãðàäèåíò_226-2" x1="5508.41" y1="384.27" x2="5497.71" y2="347.86" gradientTransform="matrix(-1, 0, 0, 1, 5931.69, 0)" xlink:href="#Áåçûìÿííûé_ãðàäèåíò_226"/><linearGradient id="Gradiente_sem_nome_2-5" x1="5492.55" y1="376" x2="5490.25" y2="346.2" gradientTransform="matrix(-1, 0, 0, 1, 5931.69, 0)" xlink:href="#Gradiente_sem_nome_2"/><linearGradient id="Áåçûìÿííûé_ãðàäèåíò_206-2" x1="5509.78" y1="386.98" x2="5498.25" y2="347.75" gradientTransform="matrix(-1, 0, 0, 1, 5931.69, 0)" xlink:href="#Áåçûìÿííûé_ãðàäèåíò_206"/><linearGradient id="Gradiente_sem_nome_4-3" x1="654.11" y1="494.82" x2="691.02" y2="494.82" xlink:href="#Gradiente_sem_nome_4"/><linearGradient id="Gradiente_sem_nome_6" x1="672.91" y1="466.93" x2="680.73" y2="466.93" gradientUnits="userSpaceOnUse"><stop offset="0" stop-color="#ff774a"/><stop offset="0.56" stop-color="#ff7949"/><stop offset="0.76" stop-color="#ff8045"/><stop offset="0.91" stop-color="#ff8b3e"/><stop offset="1" stop-color="#ff9836"/></linearGradient><linearGradient id="Gradiente_sem_nome_6-2" x1="675.55" y1="477.06" x2="685.47" y2="477.06" xlink:href="#Gradiente_sem_nome_6"/><linearGradient id="Gradiente_sem_nome_6-3" x1="672.95" y1="495.59" x2="688.68" y2="495.59" xlink:href="#Gradiente_sem_nome_6"/><linearGradient id="Gradiente_sem_nome_6-4" x1="671.81" y1="516.31" x2="691.02" y2="516.31" xlink:href="#Gradiente_sem_nome_6"/></defs><g id="Camada_2" data-name="Camada 2"><g id="objects"><path class="cls-1" d="M266.92,451a6.11,6.11,0,0,1-7-2L.94,82.27a5.58,5.58,0,0,1,1.91-7.91,6.26,6.26,0,0,1,8.43,1.32l259,366.71a5.57,5.57,0,0,1-1.91,7.91A6.91,6.91,0,0,1,266.92,451Z"/><path class="cls-2" d="M211.54,463.61l97.92-65.19,42.5,78s6,41.52-10.68,54.74c-31.64,25.16-75.71,2.08-75.71,2.08Z"/><path class="cls-3" d="M340.45,496.76c-31.64,25.16-75.72,2.08-75.72,2.08l-36.15-46.58-17,11.35,54,69.61s44.07,23.08,75.71-2.08C357.91,517.92,352,476.4,352,476.4l-1-1.8C349.52,483.48,346.46,492,340.45,496.76Z"/><path class="cls-1" d="M925.43,584.27c0,31.82-186.6,57.61-416.79,57.61-117.3,0-223.29-6.7-299-17.48h0q-6.4-.92-12.52-1.86c-43-6.68-74.9-14.76-91.74-23.67-7-3.71-11.41-7.57-12.92-11.53a8.52,8.52,0,0,1-.58-3.07,10.71,10.71,0,0,1,3-7c3.34-3.8,9.37-7.5,17.82-11,3.46-1.46,7.34-2.88,11.61-4.29l2.54-.81h0c14.91-4.69,34.2-9,57.17-13l4.16-.71c12.89-2.13,26.88-4.14,41.85-6q6.93-.87,14.13-1.68c71.95-8.17,164.06-13.08,264.46-13.08C738.83,526.67,925.43,552.46,925.43,584.27Z"/><path class="cls-4" d="M314.43,581.5s4.17-14.46,39.39-1.84S410.35,605.5,390,610.48s-50-4.29-50-4.29S310.26,595.74,314.43,581.5Z"/><path class="cls-4" d="M420,569.86c-3.77-5.28-15.87-5.67-20.55-.66-1.62.1-3.18.23-4.69.4-8.27-5.11-22.44-.16-19.29,6.76-7.06,12.1,62.13,14.22,62.13,1.44C437.55,574.31,430.37,571.3,420,569.86Z"/><path class="cls-4" d="M666.56,578c-3.77-5.29-15.86-5.68-20.54-.67-1.62.1-3.19.24-4.69.41-8.27-5.12-22.44-.16-19.29,6.75-7.12,12.2,62.13,14.23,62.13,1.44C684.17,582.45,677,579.44,666.56,578Z"/><path class="cls-4" d="M688.12,593.22c-30.42,0-30.76-13,0-13C718.53,580.26,718.86,593.22,688.12,593.22Z"/><path class="cls-4" d="M243.62,560.56c0,16-29.19,24.8-38.92,15.07-8.71-8.71-1.08-24.32-20.66-27.49l4.16-.71c12.89-2.13,26.88-4.14,41.85-6C238,547.56,243.62,554.08,243.62,560.56Z"/><path class="cls-4" d="M199.06,607.12s29.65,3.36,54.67,3.36,48.19,9.61,38.92-23.75,10.2-36.14-33.36-36.14-69.5-9.27-69.5,4.63S174,610.48,174,610.48Z"/><path class="cls-4" d="M197.08,622.54c-43-6.68-74.9-14.76-91.74-23.67-7-3.71-11.41-7.57-12.92-11.53,1-3.57,1.85-7,2.47-10.08,3.34-3.8,9.37-7.5,17.82-11,3.46-1.46,7.34-2.88,11.61-4.29,10.94.9,24.81,2.21,41.16,2.21,43.55,0,24.09,2.78,33.36,36.14C202.35,612.91,201.21,619.38,197.08,622.54Z"/><path class="cls-5" d="M699.07,110.32a24.94,24.94,0,1,1-24.93-24.93A24.93,24.93,0,0,1,699.07,110.32Z"/><path class="cls-1" d="M684.09,47.21s-4-43.07,35-45.31c33-1.9,35.77,22.22,35.77,22.22s-7.15-29.95,31-23.1,15.5,35.46,15.5,35.46,42.93-26.23,54.85,4.77-29.81,31-29.81,31,24.88,21.7,4.73,41.86-35.49,3.94-35.49,3.94,18.62,30.33-21.57,36.29-39.9-21.41-39.9-21.41,3.81,29.29-19.86,28.76c-34.54-.78-39.35-49.61-16.7-59.39,0,0-32.27-3.73-32.27-30S684.09,47.21,684.09,47.21Z"/><path class="cls-6" d="M613.16,295.09c-8.79,12.58-152.29,130-168.73,146.44S433.49,486,438,496.29s14.16-18,38-41.82c22-22,131.26-82.62,166.16-110.83C639.35,323.93,630.41,306.22,613.16,295.09Z"/><path class="cls-7" d="M677.89,179.27S666.38,217.69,665.11,220c-8.35,14.77-23,39.93-58.22,75.14,17.26,11.13,29.08,37.71,31.85,57.42,2.85-2.31,93.79-120.88,98.38-146.2S720.89,169.18,677.89,179.27Z"/><path class="cls-8" d="M708.19,239.13s-65.43-4.38-71.87,36.81c-6,38.21,55.64,126.28,64.54,171.68,14.35-2.61,23.21-4.6,38.74-4.5-11.8-43.35-17.13-91.05-20.91-104.12-6.79-23.5,108.1,34.74,162.15,16.73S863.72,239.13,708.19,239.13Z"/><path class="cls-9" d="M662.4,381.72s41,99,35,107.67-17.32,16.34-32.92,20.45-9.09,17.07-9.09,17.07l56.11-.62,6.62-8.32,1.78,8.94,31.2-6.46,1.74-17c-4.07-36.51-18.06-120.43-25.43-144.1Z"/><path class="cls-10" d="M727.38,359.33l-65,22.39s1.7,4.1,4.33,10.64c14.28-5.3,48.34-18.19,62.81-23.67A80.94,80.94,0,0,0,727.38,359.33Z"/><path class="cls-11" d="M730.49,341.76c-3,5.35-1.74,10.22-1.36,13.94,2.76-29.79,22.91-12.42,0,0C763.92,346.71,740,324.64,730.49,341.76Z"/><polygon class="cls-11" points="658.52 389.61 657.52 376.84 729.41 352.07 735.28 363.17 658.52 389.61"/><path class="cls-12" d="M856.61,184.45c-23.22-12.86-48-25.76-73.79-32.59-32.82-8.69-86.51,13.29-90.8,14.78,0,0-7.65,52.78.07,70.16s23.16,73.35,52.12,102.31C760.55,355.45,823.92,361,876,362.8c26-34,67.35-27.09,97.25-60.37,2.82-3.14-14.9-28-16.83-31.27C932.84,230.42,897.69,207.21,856.61,184.45Z"/><path class="cls-8" d="M971.57,270.14c-29.9,33.28-67.39,41.15-93.38,75.17,40.23,1.36,73.76.44,73.76.44l56.95-12.17S1007,311.76,971.57,270.14Z"/><path class="cls-8" d="M948,287c-44.63-17.1-95-23.52-141.86-31.06-52.83-8.5-92.67,2.8-119.87,19.74l107.56,88.76c-11.1,0,99.93,69.79,155.44,69.79s68-39.88,68-69.79C1017.26,325,980.25,299.37,948,287Z"/><path class="cls-13" d="M643.57,234S671,222.35,698.42,230c0,0,11.1-24.06,2.74-45.7-6.76-17.47-9.14-17.64-9.14-17.64L653.71,184l-17.79,14.09Z"/><path class="cls-14" d="M635.92,198.08l7.65,36a95,95,0,0,1,20.4-5.46c6.93-16,4.66-18.64,4.66-36.26,0-3.67-1.55-8.22-4.37-13.1L653.71,184Z"/><path class="cls-15" d="M444.73,452.47s-23.81,20-20,33c8.65,29.68,48.74,21,53.57,2.65S465,452.47,465,452.47Z"/><path class="cls-13" d="M580.41,139.85a61.62,61.62,0,0,0-7.95,29.58c0,9.58,5.52,18,10.84,25.53,6,9.59,12.27,26,47.08,46.83,11.67,7,20.35-.22,24.19-9.24,10.15-23.84,7.5-24.28,7.5-44.58S620.14,120.43,580.41,139.85Z"/><path class="cls-1" d="M568.45,161.42S560,142,573.24,128.75s44.14-31.34,70.18-28.69,39.73,6.63,39.73,23,12.36,46.79,0,59.15-30.46,15-41.49,11.92-54.83-39.39-66.22-38C569.63,156.85,568.45,161.42,568.45,161.42Z"/><path class="cls-16" d="M880,452.65c-30.55-41.11-91.78-127.64-108.17-140-17-12.74-52.07-42.91-73-42.54-10.7.19-16.89,8.52-23.13,18.69-18,29.33,125.5,164.12,168,194.3C854,471.76,866.15,462.07,880,452.65Z"/><path class="cls-17" d="M789,442.33s84.58,65.83,83.6,76.35-7,22.77-18.53,34-.37,17.75-.37,17.75L903,543.8l1.65-10.51,6,6.9,26.51-16.5L927.7,503.5c-21.57-29.73-75.18-95.79-93.29-112.73Z"/><path class="cls-18" d="M834.4,390.78l-45.46,51.57s3.5,2.72,9,7.11c9.8-11.66,33-39.69,42.93-51.6A81.59,81.59,0,0,0,834.4,390.78Z"/><path class="cls-1" d="M828.42,374c.07,6.12,3.54,9.75,5.71,12.79-12.31-27.26,13.79-22.11,0,0C859.94,361.75,828.24,354.37,828.42,374Z"/><polygon class="cls-1" points="789.48 451.11 782.3 440.5 832.58 383.46 843.17 390.21 789.48 451.11"/><path class="cls-6" d="M465.88,447c-.12,1.93-21.09,43.66-13.14,48s18.36-26.9,18.36-26.9,16.3-6.24,17.14-19.73S465.88,447,465.88,447Z"/><path class="cls-6" d="M439.19,448.63s-18.57,23-26.74,30.74,8.86,56.6,13.37,52.34-1.09-29.91-1.09-26.83S442.1,544.43,446.27,532c1.69-5-11.4-33.69-11.4-33.69s10.48,16.06,15.84,11S437.65,473.21,437.65,464A68.93,68.93,0,0,1,439.19,448.63Z"/><path class="cls-13" d="M619.6,185.9s-8.85-22.51,2-19.26,15.93,17.11,14.27,21.59S623.6,193.68,619.6,185.9Z"/><path class="cls-16" d="M969.89,274l-4.6,3.89c-41.56-35-160.44-129.9-212.46-107.59-66.68,28.58,14.52,110.22,14.52,110.22l-22.81,5.14s-48.31-68.91-34.21-99S756,147.61,804,158.82C846.78,168.81,969.89,274,969.89,274Z"/><path class="cls-13" d="M676.94,324.39c-9.07,15-18.05,28.36-26.62,38.25-41,47.3-136.1,85.42-147.68,89.28s-26.54,22.2-32.82,36.2-24.61,29.76-15,29.76,27-21.56,27-15.76-24.65,31.33-30.2,36.88-20.71,11.85-21.6,13.63c-3.89,7.78,9.33,3.54,20-2.25s31.37-24.62,31.37-24.62c-4.34,12.55-43.76,41-37.48,41s36-20.75,44.72-29.43,14.48-37.16,29-51.64,72.39-25.1,111-42.54c19.16-8.65,60.21-43.91,98.81-83C713.09,345.65,695.59,333.83,676.94,324.39Z"/><path class="cls-14" d="M676.94,324.39c-1.31,2.16-2.61,4.29-3.92,6.38l41,42.67q6.69-6.53,13.35-13.27C713.09,345.65,695.59,333.83,676.94,324.39Z"/><path class="cls-19" d="M767.35,188.3c-19.34,6.58-60.72,79.46-95,136.09C691,333.83,723.41,366,737.74,380.5,776.93,340.82,803.28,276.86,812,253,829.29,205.77,796.05,178.53,767.35,188.3Z"/><path class="cls-14" d="M640.17,396.78s-8.69,20.51,0,20.51,17.35.83,17.35-4.28S643.94,393,640.17,396.78Z"/><path class="cls-2" d="M450.64,460.91S466.7,390,478.22,370.4h2.93s-23.33,60.75-27.08,90.51Z"/><path class="cls-2" d="M447.36,461s1.24-54.79-5.45-90.55h3.82s6.48,59.07,4.91,90.51Z"/><path class="cls-2" d="M454.07,460.91l11.82-23.09s-.68-13.78,8.45-24.29,34.6-8,45.61,4.27c0,0-4.41-3.15-11.64.94S486.5,437,465.89,443.91c0,0-8.71,13.71-9.94,16.71Z"/><path class="cls-20" d="M471.91,384.66s-9.83-12.13-2.5-20.24c11.74-13,52.85-3.87,52.85-3.87s-38.26,7.44-44,9.85S471.91,384.66,471.91,384.66Z"/><path class="cls-21" d="M475,380s4.89-28.07,6.15-30.33,0,23.14,0,23.14Z"/><path class="cls-22" d="M474.92,387.38s20.39-23.37,47.34-26.83c0,0-46.55,3.22-55,9.85S474.92,387.38,474.92,387.38Z"/><path class="cls-23" d="M446.4,391.06s10.06-22.21,2.73-30.32c-11.74-13-38.86-19.8-38.86-19.8s19.18,24.31,25,26.72S446.4,391.06,446.4,391.06Z"/><path class="cls-24" d="M443.54,376.34s-4.89-28.07-6.15-30.33,0,23.14,0,23.14Z"/><path class="cls-25" d="M445.07,393.79s-20.54-22.72-34.8-52.85c0,0,23.19,17.21,31.64,23.85S445.07,393.79,445.07,393.79Z"/><path class="cls-2" d="M261.66,591.34c-9.37-39.29-28.14-84.68-96.32-123.39l.47-.82c29.8,16.91,52,35.84,67.87,57.84,13.38,18.53,22.56,39.55,28.9,66.15Z"/><path class="cls-2" d="M270,592.85c-5.63-14.26-13.9-22.89-25.28-26.38-10.83-3.33-25.12-2.15-43.67,3.6l-.28-.9c38-11.79,59-4.81,70.11,23.33Z"/><path class="cls-2" d="M267.06,591.19l-.93-.17c6.52-36.44,5.89-104.62-15.93-142.1l.81-.47c12.92,22.18,17.42,52.42,18.92,73.89C271.88,550.35,269.73,576.27,267.06,591.19Z"/><path class="cls-26" d="M269.92,548.39l-.91-.23c5.19-20.37,22.15-48,40.34-65.74l.65.67C291.93,500.71,275.08,528.18,269.92,548.39Z"/><path class="cls-2" d="M272.82,583.06l-.86-.41c8.28-17.44,19.87-28.56,34.46-33,17.4-5.36,35.82-.09,47.26,6.63l-.47.82c-11.27-6.62-29.41-11.82-46.52-6.55C292.37,554.91,281,565.87,272.82,583.06Z"/><path class="cls-8" d="M138.92,448.84c19.18,4.46,25.89,15,28.35,19.66C144.86,461.68,138.92,448.84,138.92,448.84Z"/><path class="cls-27" d="M173.28,447.06c-1.48,15.81,16.25,34.86,16.25,34.86C191.79,469.49,177.34,450.85,173.28,447.06Z"/><path class="cls-8" d="M180.75,476.76c-20.62-7.25-37,0-37,0,17.7,7.07,18.78,1.53,26.21,2.35S180.75,476.76,180.75,476.76Z"/><path class="cls-8" d="M195.64,487.23c-15.11-3.53-17.14,1.6-25.11,2.41s-11.75.95-11.75.95c10.13,6.62,21.61,1.35,27.83.54S195.64,487.23,195.64,487.23Z"/><path class="cls-8" d="M206.87,496.41c-2.57-6.9-8.51-12-8.51-22.71s1.75-15,1.75-15C206.87,472,209.85,483.73,206.87,496.41Z"/><path class="cls-27" d="M181.48,508.35c7.61,1.44,13.19,4.23,23.91,3a79.65,79.65,0,0,1,17.22-.46c-11.54-7.46-17.76-7.91-25.5-7S185.31,507.09,181.48,508.35Z"/><path class="cls-27" d="M227,515.9c-10.88-17.64-11.69-41.72-8.31-48.66,3.37,13.06,7,17.26,8.1,28.88A103.63,103.63,0,0,1,227,515.9Z"/><path class="cls-8" d="M240.13,535.53c-8.94-20.76-6.65-42.65-2.73-46.16,0,5,5.81,18.92,6.35,29.59S240.13,535.53,240.13,535.53Z"/><path class="cls-27" d="M237.22,529.54c-18.27-11.55-40.85-8.85-45.7-6.69,9.46.81,12.4,4.5,25.39,6.67A59.36,59.36,0,0,0,237.22,529.54Z"/><path class="cls-27" d="M249.16,521.3c.18,6.77,4,13.93,6.31,23.53a31.71,31.71,0,0,1-1.25,17.78C245.92,548.79,247.72,523.71,249.16,521.3Z"/><path class="cls-8" d="M207.18,539.9c11.89-.18,25.94-2.88,40.34,9.19C237.27,550.7,218.17,548,207.18,539.9Z"/><path class="cls-8" d="M254.42,565.37c-13.91-15-40.93-13.4-40.57-12.86C236.54,564.39,247.8,565.26,254.42,565.37Z"/><path class="cls-8" d="M203.19,568.92c-19.06,2.14-26.09,14.75-30.77,22.67C186.47,587.63,198.48,576.51,203.19,568.92Z"/><path class="cls-27" d="M218.78,565.07c-16.81-6.73-29.6-6.59-41.2,3.55C185.76,566.08,199.89,568,218.78,565.07Z"/><path class="cls-8" d="M197.45,586.37c10.77-10.27,13.18-17.58,26.68-21.85C220.38,578.4,206.63,583.49,197.45,586.37Z"/><path class="cls-8" d="M236.49,564.38c-7.24-11-26.51-12.22-30.3-12.21C217.41,560.16,225.78,562.9,236.49,564.38Z"/><path class="cls-27" d="M249.7,567.27c-15.31-3.43-24.19,5.43-29.81,11.6C230.16,574.64,242.86,575.63,249.7,567.27Z"/><path class="cls-27" d="M229.89,417.34c11.21,8.78,15.94,12.43,18.51,19.32a64.9,64.9,0,0,1,3.3,14C243.4,443.15,235.83,437.07,229.89,417.34Z"/><path class="cls-8" d="M251,429c11.29,23.77,7.33,38.55,7.33,38.55C255.91,456.68,247.78,443,251,429Z"/><path class="cls-27" d="M262.85,480.11c-6.21-6.57-20.53-12.51-26.48-32.64C251.23,458.28,254.34,459,262.85,480.11Z"/><path class="cls-8" d="M266.45,449.79c7.16,22.16-1.14,44.86-1.14,44.86C265.77,485.05,260,470.59,266.45,449.79Z"/><path class="cls-8" d="M241.72,471c17,4.73,18.64,22.74,24.32,27.92C252.8,497.75,253.88,483.83,241.72,471Z"/><path class="cls-27" d="M268.93,515.9c11.08-9.67,3-31.47,7.3-42.66-9.46,10.3-7.55,24-7,30.54S269.61,512.05,268.93,515.9Z"/><path class="cls-27" d="M270.09,527.85C255.15,521,256.46,502.32,244.53,498c8.19-2.29,17,7.31,19.81,15.54S267.59,524.47,270.09,527.85Z"/><path class="cls-8" d="M269.49,539.52c5.91-7.52,6.28-13.54,6.68-21.24s2.57-13.91,4.6-16.61c-8.52,3.91-9.14,17-9.57,24.58S270.37,537,269.49,539.52Z"/><path class="cls-27" d="M269.45,549.54c-14.22-6.4-9.86-21.39-20.48-33.35,10.61,3.38,12.24,12.76,15.2,21.55S267.87,547.83,269.45,549.54Z"/><path class="cls-27" d="M270,557.16c12.6-2,14.9-12.15,19.49-19.45s6.22-9.32,9.19-10.54c-5.67-.81-14.18,5.41-19,14.05S273.58,554.32,270,557.16Z"/><path class="cls-8" d="M268.51,570c-11.12-6.62-8-24.63-13-31.61,9,8,8.38,13.39,9.73,19.87S267.33,568.39,268.51,570Z"/><path class="cls-27" d="M267.68,578.68c14.3-7.08,21.87-32.3,27.54-37-12.31,6.74-16.21,14.59-20.4,24.05S269.19,576.46,267.68,578.68Z"/><path class="cls-27" d="M273,537.58c14.77-5,23.69-22.35,30.31-24.54-7.16-2.86-19.23,7.94-22,11.46S274,535.11,273,537.58Z"/><path class="cls-27" d="M279.09,524.47c-6.55-14.63,7.62-25.45,7.08-34.53,2.3,11.32-3,20.74-4.39,26.45A39,39,0,0,1,279.09,524.47Z"/><path class="cls-27" d="M286,512.57c19.8-4.42,22.9-13.47,34.25-16.85-11.89-.4-21.44,5.21-26.71,9.26A34.74,34.74,0,0,0,286,512.57Z"/><path class="cls-27" d="M291.6,504.13c-4.9-10,6.32-23.53,3.62-31.91C301.43,482.75,296.66,496.5,291.6,504.13Z"/><path class="cls-27" d="M298,495.7c18.59-1.46,27.24-17.87,36.16-22.16-10.14.57-20.54,12-24.73,14.77S298,495.7,298,495.7Z"/><path class="cls-27" d="M302.83,489.94c-2.75-12.73,7.66-23.67,14.68-35.56C318.32,465.46,306.39,482.14,302.83,489.94Z"/><path class="cls-8" d="M307.8,484.62c4.91-15.38,16.6-25.51,30.51-28.48-8.51,3.38-8.89,11.59-19.29,20.84C310.92,484.19,307.8,484.62,307.8,484.62Z"/><path class="cls-27" d="M351.75,555.7c19.12,5.27,30.6,17,33.44,25.13-6.62-6.08-16.75-6.35-25.26-13.64S351.75,555.7,351.75,555.7Z"/><path class="cls-8" d="M332.33,548.9c23.22,16,31.52,24,31.25,31.12-2.43-7.16-12.49-10.61-20.94-17C332.33,555.16,332.33,548.9,332.33,548.9Z"/><path class="cls-8" d="M381,562.19c-7.29-9.73-19.39-14.34-29.25-14.31-11.49,0-15.4,1.9-15.4,1.9C350.47,556.24,367.22,552.19,381,562.19Z"/><path class="cls-27" d="M322.78,548.33c12.43-11.65,30.39-5.16,36.61-6.24C353.17,546.68,333.05,550.39,322.78,548.33Z"/><path class="cls-8" d="M308.38,549.54c19.48-5.32,23.95-16.13,23.95-16.13C311.3,537.87,308.38,549.54,308.38,549.54Z"/><path class="cls-27" d="M310.76,534.9c-8.52,9.75-15.54,10.87-20,16.68a12.9,12.9,0,0,0-2.59,9.09C303.33,552.73,309.4,541.65,310.76,534.9Z"/><path class="cls-8" d="M342.17,569c-4.13-5.42-10.88-8.53-19-10.42s-12.09-9.64-12.09-9.64C327.37,547.79,339,560.61,342.17,569Z"/><path class="cls-27" d="M326.63,565.8c-6.06-5.48-12.18-4.75-19.93-4.21s-15.27-3.22-15.27-3.22C299.43,551.77,318.59,550.87,326.63,565.8Z"/><path class="cls-27" d="M280.63,569.72c2.59-7,23.29-12.21,33.83,0-5.32-2.74-11.84-2.31-17.55-.69A36.16,36.16,0,0,1,280.63,569.72Z"/><path class="cls-27" d="M274.24,579.16c3.69-6.27,21.75-12.33,32.37-2.79-7.2-2.52-13.15,1.46-19.9,2.85A30.8,30.8,0,0,1,274.24,579.16Z"/><path class="cls-28" d="M680.56,501.14c.9-3.88,1.64-8.22,3.12-12.09a42.29,42.29,0,0,1,2.47-5.23c.75-1.34,2.24-2.64,2.53-4.15a10.75,10.75,0,0,0-6.16,3.17,24.32,24.32,0,0,0-3,3.2c1.52-3.05,2.3-7.21,3.29-10.42s2.74-6.73,2.69-10.1a35.65,35.65,0,0,0-5.54,7.08c-.67-3.73-1-7.48-2-11.27-.63-2.41-1.39-4.78-1.93-7.23-.34-1.51-.6-3.49-1.61-4.66-.13,4.17-3.34,9-4.52,13.07-.62,2.08-1.23,4.22-1.65,6.33-.33,1.67-.15,3.87-.84,5.4-2.69-1.63-5.88-3.94-9.1-4.33,2.36,6.3,9,12.54,8.76,19.62-3.18-1.94-6.77-4.46-10.3-5.52,2.25,2.57,3.4,6.79,4.95,9.82a43.4,43.4,0,0,1,3.12,8.89c-3.29-.56-7.42-3.94-10.66-3.33,4.07,5.13,7.78,9.78,10.54,15.91,2.5,5.53,4.54,19,5.13,24.9l9-4.38s.56-3.14.75-4.23c.37-2.2.71-4.33,1.19-6.48.93-4.22,2.06-8.43,3.24-12.55,1.58-5.53,3.76-12.31,7.1-17C687,496.54,684.13,499.84,680.56,501.14Z"/><path class="cls-29" d="M674.35,449.44a44.93,44.93,0,0,1-.39,13.67c-1.39,7-1,21.31-1,21.31s1.4-2.59,3.79-6.37,4-6.77,4-6.77a60.6,60.6,0,0,0-2.79-12.75C676,453.35,674.35,449.44,674.35,449.44Z"/><path class="cls-30" d="M675.55,488.61l4.58-3.59a35,35,0,0,0,2.59-7.17c1.2-4.58,2.75-12.33,2.75-12.33s-3.14,7.75-4.94,11.93S675.55,488.61,675.55,488.61Z"/><path class="cls-31" d="M673,511.51s-.39-1.59,2.59-5.37,2.59.2,5.18-6,7.95-20.49,7.95-20.49a39.23,39.23,0,0,0-7.35,7.74C678.54,491.6,673,511.51,673,511.51Z"/><path class="cls-32" d="M673.16,537s-2.59-7.57-.59-13.54,5-10.16,7.76-14S691,495.6,691,495.6s-1.72,4-3.91,10.54-4.39,16.33-7,21.11A62.81,62.81,0,0,1,673.16,537Z"/><path class="cls-27" d="M636.91,504.34c.73,4.38,15.94,18.33,20.72,29.09S666,559.32,666,559.32l9.16,1.59s-.21-8.33-1.26-17.61c-1-8.52-2.65-17.84-5.51-22.22C662.41,511.91,636.11,499.56,636.91,504.34Z"/><path class="cls-27" d="M681.53,511.91C689.3,499.36,709.42,492,711,492.79s-2.39,3.59-6.77,14.74-19.13,49.4-19.13,49.4l-13.94.8S672.32,526.79,681.53,511.91Z"/><path class="cls-2" d="M667.59,584.82s3.18-41,16.33-49.8,41-16.73,41.43-13.94S714.2,530.24,707,539.8s-14.35,21.11-14.35,21.11l-7.17,15.14Z"/><path class="cls-2" d="M614.2,529c-.77,1.61,25.5,1.2,31.87,6.38C650.47,539,664,568.48,664,568.48h10.76s-3.64-30.72-18.73-40.23C641.49,519.08,618.58,519.88,614.2,529Z"/><path class="cls-27" d="M671.77,584.22s0-14.74,10-25.5,43-21.51,45.41-19.92-17.92,9.56-27.48,21.91S691.49,580,691.49,580Z"/><path class="cls-27" d="M655,587.61s-1.4-25.9-11.36-30.28-31.47,0-32.27-1.6,18.24-12.86,37.05-9.76c24.11,4,30.08,42.43,30.08,42.43Z"/><path class="cls-8" d="M626.15,551.75c-.89.48,17.73-1.39,25.7,7.57,6.22,7,8,22.31,8,22.31l10,3.39s-4.58-23.91-13.15-29.88C650.49,550.85,633.52,547.77,626.15,551.75Z"/><path class="cls-8" d="M673.36,570.67l3.59,9.17a81.76,81.76,0,0,1,8-13.15,75.49,75.49,0,0,1,38-27.29s-13.54.4-30.87,10.36C671.63,561.51,673.36,570.67,673.36,570.67Z"/><path class="cls-8" d="M621,523.66s14.75-5.37,24.51-1.59,16.73,8.37,21.51,17.33a104,104,0,0,1,6.57,14.34L671,561.31s-6.57-19.54-12.55-25.69c-6.57-6.78-13.54-10.76-21.51-12A58.25,58.25,0,0,0,621,523.66Z"/><path class="cls-8" d="M669.58,562.91a68.45,68.45,0,0,1,8.16-22.11c6.73-10.9,36.85-18.53,36.85-18.53s-24.1,8.57-32.86,21.71c-5.35,8-8.37,26.69-8.37,26.69Z"/></g></g></svg>