<svg width="56" height="56" viewBox="0 0 56 56" fill="none" xmlns="http://www.w3.org/2000/svg">
<path d="M37.0063 37.0065C42.2511 31.7617 42.2511 23.2583 37.0063 18.0136C31.7616 12.7688 23.2582 12.7688 18.0135 18.0136C12.7687 23.2583 12.7687 31.7617 18.0135 37.0065C23.2582 42.2512 31.7616 42.2512 37.0063 37.0065Z" fill="#65CCB7"/>
<path d="M28.868 53.663V46.124C28.868 45.764 28.725 45.4187 28.4704 45.1641C28.2158 44.9095 27.8705 44.7665 27.5105 44.7665C27.1505 44.7665 26.8052 44.9095 26.5506 45.1641C26.296 45.4187 26.153 45.764 26.153 46.124V53.663C26.153 54.023 26.296 54.3683 26.5506 54.6229C26.8052 54.8774 27.1505 55.0205 27.5105 55.0205C27.8705 55.0205 28.2158 54.8774 28.4704 54.6229C28.725 54.3683 28.868 54.023 28.868 53.663Z" fill="#65CCB7"/>
<path d="M28.868 8.89699V1.35799C28.868 0.997957 28.725 0.652671 28.4704 0.398091C28.2158 0.14351 27.8705 0.000488281 27.5105 0.000488281C27.1505 0.000488281 26.8052 0.14351 26.5506 0.398091C26.296 0.652671 26.153 0.997957 26.153 1.35799V8.89699C26.153 9.25702 26.296 9.60231 26.5506 9.85689C26.8052 10.1115 27.1505 10.2545 27.5105 10.2545C27.8705 10.2545 28.2158 10.1115 28.4704 9.85689C28.725 9.60231 28.868 9.25702 28.868 8.89699Z" fill="#65CCB7"/>
<path d="M1.35802 28.868H8.89702C9.25705 28.868 9.60234 28.7249 9.85692 28.4704C10.1115 28.2158 10.2545 27.8705 10.2545 27.5105C10.2545 27.1504 10.1115 26.8051 9.85692 26.5506C9.60234 26.296 9.25705 26.153 8.89702 26.153H1.35802C0.997987 26.153 0.652702 26.296 0.398121 26.5506C0.143541 26.8051 0.000518799 27.1504 0.000518799 27.5105C0.000518799 27.8705 0.143541 28.2158 0.398121 28.4704C0.652702 28.7249 0.997987 28.868 1.35802 28.868Z" fill="#65CCB7"/>
<path d="M46.123 28.868H53.662C54.022 28.868 54.3673 28.7249 54.6219 28.4704C54.8765 28.2158 55.0195 27.8705 55.0195 27.5105C55.0195 27.1504 54.8765 26.8051 54.6219 26.5506C54.3673 26.296 54.022 26.153 53.662 26.153H46.123C45.763 26.153 45.4177 26.296 45.1631 26.5506C44.9085 26.8051 44.7655 27.1504 44.7655 27.5105C44.7655 27.8705 44.9085 28.2158 45.1631 28.4704C45.4177 28.7249 45.763 28.868 46.123 28.868Z" fill="#65CCB7"/>
<path d="M9.97702 46.962L11.777 45.162L14.649 42.29L15.311 41.628C15.437 41.502 15.5369 41.3525 15.605 41.188C15.6732 41.0234 15.7083 40.8471 15.7083 40.669C15.7083 40.4909 15.6732 40.3145 15.605 40.15C15.5369 39.9854 15.437 39.8359 15.311 39.71C15.1851 39.584 15.0356 39.4841 14.871 39.416C14.7065 39.3478 14.5301 39.3127 14.352 39.3127C14.1739 39.3127 13.9976 39.3478 13.833 39.416C13.6685 39.4841 13.519 39.584 13.393 39.71L11.584 41.517L8.71202 44.389L8.05002 45.051C7.80965 45.3081 7.67859 45.6486 7.68452 46.0005C7.69044 46.3525 7.83289 46.6883 8.08178 46.9372C8.33067 47.1861 8.66654 47.3286 9.01848 47.3345C9.37042 47.3404 9.71089 47.2094 9.96802 46.969L9.97702 46.962Z" fill="#65CCB7"/>
<path d="M41.631 15.308L43.431 13.508L46.303 10.636L46.965 9.97398C47.2194 9.71964 47.3623 9.37468 47.3623 9.01498C47.3623 8.65529 47.2194 8.31033 46.965 8.05598C46.8391 7.93005 46.6896 7.83015 46.525 7.76199C46.3605 7.69383 46.1841 7.65875 46.006 7.65875C45.6463 7.65875 45.3014 7.80164 45.047 8.05598L43.247 9.85598L40.369 12.733L39.707 13.395C39.4527 13.6493 39.3098 13.9943 39.3098 14.354C39.3098 14.7137 39.4527 15.0586 39.707 15.313C39.9614 15.5673 40.3063 15.7102 40.666 15.7102C41.0257 15.7102 41.3707 15.5673 41.625 15.313L41.631 15.308Z" fill="#65CCB7"/>
<path d="M8.05802 9.977L9.85802 11.777L12.73 14.649L13.392 15.311C13.6464 15.5653 13.9913 15.7082 14.351 15.7082C14.7107 15.7082 15.0557 15.5653 15.31 15.311C15.5644 15.0567 15.7073 14.7117 15.7073 14.352C15.7073 13.9923 15.5644 13.6473 15.31 13.393L13.503 11.584L10.631 8.712L9.96902 8.05C9.71468 7.79566 9.36972 7.65277 9.01002 7.65277C8.65033 7.65277 8.30536 7.79566 8.05102 8.05C7.79668 8.30435 7.65379 8.64931 7.65379 9.009C7.65379 9.3687 7.79668 9.71366 8.05102 9.968L8.05802 9.977Z" fill="#65CCB7"/>
<path d="M39.712 41.63L41.512 43.43L44.384 46.302L45.046 46.964C45.172 47.0899 45.3215 47.1898 45.486 47.258C45.6506 47.3262 45.8269 47.3612 46.005 47.3612C46.1831 47.3612 46.3595 47.3262 46.524 47.258C46.6886 47.1898 46.8381 47.0899 46.964 46.964C47.09 46.8381 47.1899 46.6885 47.258 46.524C47.3262 46.3595 47.3613 46.1831 47.3613 46.005C47.3613 45.8269 47.3262 45.6505 47.258 45.486C47.1899 45.3214 47.09 45.1719 46.964 45.046L45.164 43.246L42.292 40.374L41.63 39.712C41.3757 39.4576 41.0307 39.3148 40.671 39.3148C40.3113 39.3148 39.9664 39.4576 39.712 39.712C39.4577 39.9663 39.3148 40.3113 39.3148 40.671C39.3148 41.0307 39.4577 41.3756 39.712 41.63Z" fill="#65CCB7"/>
</svg>
