<svg width="30" height="56" viewBox="0 0 30 56" fill="none" xmlns="http://www.w3.org/2000/svg">
<path d="M24.942 28.88V7.217C24.9399 5.3022 24.1777 3.46655 22.823 2.11332C21.4683 0.760104 19.6318 -1.17381e-06 17.717 0L12.217 0C10.3037 0.00238211 8.46956 0.763539 7.11679 2.1165C5.76401 3.46946 5.00311 5.30376 5.00099 7.217V28.88C2.73836 30.9 1.14269 33.5597 0.42528 36.5068C-0.292133 39.4539 -0.0974436 42.5494 0.983566 45.3834C2.06458 48.2174 3.98091 50.6562 6.47881 52.3768C8.9767 54.0975 11.9383 55.0188 14.9715 55.0188C18.0047 55.0188 20.9663 54.0975 23.4642 52.3768C25.9621 50.6562 27.8784 48.2174 28.9594 45.3834C30.0404 42.5494 30.2351 39.4539 29.5177 36.5068C28.8003 33.5597 27.2046 30.9 24.942 28.88ZM14.97 52.973C12.2746 52.9738 9.6465 52.1318 7.45336 50.565C5.26021 48.9981 3.61182 46.7848 2.73888 44.2347C1.86593 41.6846 1.81211 38.9255 2.58495 36.3433C3.35779 33.7611 4.91862 31.4852 7.04899 29.834V7.217C7.04873 6.53809 7.18229 5.86578 7.44204 5.23852C7.70179 4.61126 8.08263 4.04135 8.56278 3.56138C9.04294 3.08141 9.613 2.70079 10.2404 2.44128C10.8677 2.18178 11.5401 2.04847 12.219 2.049H17.719C19.0896 2.049 20.4041 2.59348 21.3733 3.56267C22.3425 4.53186 22.887 5.84636 22.887 7.217V29.841C25.0174 31.4922 26.5782 33.7681 27.351 36.3503C28.1239 38.9325 28.0701 41.6916 27.1971 44.2417C26.3242 46.7918 24.6758 49.0051 22.4826 50.572C20.2895 52.1388 17.6613 52.9808 14.966 52.98L14.97 52.973Z" fill="#65CCB7"/>
<path d="M14.97 48.491C13.2097 48.4918 11.4932 47.9422 10.0607 46.919C8.62825 45.8959 7.55156 44.4505 6.98133 42.785C6.41109 41.1196 6.37586 39.3176 6.88056 37.6312C7.38526 35.9448 8.40463 34.4584 9.79599 33.38L11.528 32.033V7.22702C11.528 7.0456 11.5999 6.87156 11.7279 6.743C11.8559 6.61443 12.0296 6.54181 12.211 6.54102H17.711C17.8928 6.54154 18.067 6.61399 18.1955 6.74252C18.324 6.87106 18.3965 7.04524 18.397 7.22702V32.033L20.129 33.38C21.5199 34.458 22.539 35.9438 23.0439 37.6295C23.5488 39.3153 23.5141 41.1167 22.9448 42.7817C22.3754 44.4468 21.2999 45.8923 19.8686 46.916C18.4372 47.9396 16.7217 48.4903 14.962 48.491H14.97Z" fill="#65CCB7"/>
<path d="M14.97 46.572C13.6107 46.5711 12.2857 46.1455 11.1801 45.3546C10.0746 44.5637 9.24385 43.4471 8.80403 42.1609C8.36421 40.8748 8.33732 39.4833 8.7271 38.1811C9.11688 36.8789 9.90386 35.731 10.978 34.898L13.452 32.974V21.219H16.489V32.974L18.968 34.896C20.0423 35.7291 20.8293 36.8772 21.219 38.1796C21.6088 39.482 21.5817 40.8736 21.1416 42.1599C20.7016 43.4462 19.8705 44.5627 18.7646 45.3535C17.6588 46.1442 16.3335 46.5695 14.974 46.57L14.97 46.572Z" fill="#327F6B"/>
</svg>
